<svg xmlns="http://www.w3.org/2000/svg" width="200" height="200"><path d="M0 0h200v200H0z" style="fill:#ff90e8;fill-opacity:1;stroke:none"/><path d="M209.933 188.17a22.502 22.502 0 0 1-1.11-7.194c.178-16.138 17.746-29.027 39.23-28.814 21.485.213 38.732 13.422 38.59 29.59-.15 16.159-17.738 29.013-39.237 28.8-11.66-.122-22.067-4.053-29.155-10.252m100.804-18.243c.199-17.994-8.49-35.064-23.838-46.837-12.826-9.832-29.454-15.335-46.815-15.512a82.631 82.631 0 0 0-25.09 3.604l-3.355-3.903a49.43 49.43 0 0 0-16.636-12.534 49.297 49.297 0 0 0-20.326-4.543L78.431 101.6a32.484 32.484 0 0 0-23.013 9.342 32.472 32.472 0 0 0-9.683 22.864l-.775 93.815a32.454 32.454 0 0 0 9.313 22.999 32.418 32.418 0 0 0 22.857 9.661l105.673.747a47.001 47.001 0 0 0 35.355-15.662l5.368-6.008a82.314 82.314 0 0 0 23.503 3.598c17.362.178 34.118-4.991 47.136-14.574 15.64-11.425 24.712-28.317 24.89-46.325ZM77.428 227.863l.818-93.794 104.579.739a16.793 16.793 0 0 1 12.633 5.844l30.279 35.106a9.736 9.736 0 0 1 2.339 6.42 9.75 9.75 0 0 1-2.467 6.384l-31.53 35.22a14.536 14.536 0 0 1-10.934 4.841Zm137.204-40.29a7.994 7.994 0 0 1-11.304-.077c-3.092-3.143-3.05-8.205.093-11.304 3.149-3.093 8.204-3.057 11.303.085 3.093 3.142 3.05 8.197-.092 11.297Zm0 0" style="fill:none;stroke-width:3.47;stroke-linecap:round;stroke-linejoin:round;stroke:#000;stroke-opacity:1;stroke-miterlimit:4" transform="scale(.54945)"/><path d="M94.974 197.811c.384.363.79.704 1.216 1.017a5.986 5.986 0 0 0 4.308 1.03 2.85 2.85 0 0 0 2.524-1.89 6.387 6.387 0 0 0 .22-3.25c-.561-3-1.315-5.964-2.253-8.872-1.259-4.201-2.602-8.403-3.875-12.612a57.011 57.011 0 0 1-1.706-7.223 9.178 9.178 0 0 1 .249-4.6 5.78 5.78 0 0 1 4.137-3.69c.711-.206.59-.05.633-.625.071-1.92.107-3.853.164-5.773l.007-.355 5.346.135-.014.34a836.66 836.66 0 0 1-.086 5.93c.007.192.093.242.299.299 1.322.199 2.58.71 3.676 1.486-.797 1.244-1.6 2.48-2.41 3.71-.612-.277-1.174-.597-1.778-.824a4.932 4.932 0 0 0-2.723-.17c-.44.07-.86.27-1.194.575-.334.299-.576.69-.69 1.13-.234.96-.227 1.97.029 2.923a115.852 115.852 0 0 0 3.256 11.68c1.258 4.067 2.538 8.112 3.732 12.207.49 1.756.868 3.548 1.116 5.36a8.414 8.414 0 0 1-.881 5.41 6.471 6.471 0 0 1-4.095 3.086c-.341.107-.47.235-.47.548 0 2.019-.035 4.045-.042 6.114l-.021.583-5.396-.143.184-6.796c-.718-.22-1.407-.398-2.118-.604a12.047 12.047 0 0 1-3.15-1.664.198.198 0 0 1-.085-.085.256.256 0 0 1-.007-.128c.554-1.5 1.237-2.865 1.898-4.259Zm33.84.214c.399.398.761.774 1.216 1.016a6.038 6.038 0 0 0 4.316 1.017 2.825 2.825 0 0 0 2.524-1.877 6.334 6.334 0 0 0 .227-3.256 77.46 77.46 0 0 0-2.253-8.866c-1.266-4.215-2.603-8.41-3.875-12.612a56.094 56.094 0 0 1-1.706-7.223 9.2 9.2 0 0 1 .241-4.607 5.776 5.776 0 0 1 4.145-3.69c.711-.206.59-.05.633-.625l.163-5.766.007-.362 5.347.135c-.014.114-.022.234-.014.348l-.086 5.922c0 .2.086.25.292.299a8.66 8.66 0 0 1 3.682 1.486c-.81 1.258-1.628 2.51-2.41 3.718-.611-.284-1.173-.604-1.791-.832a4.882 4.882 0 0 0-2.709-.17c-.91.142-1.65.81-1.884 1.706a5.812 5.812 0 0 0 .021 2.922c.882 3.945 1.97 7.848 3.264 11.68 1.258 4.067 2.538 8.112 3.725 12.207a41.82 41.82 0 0 1 1.116 5.368 8.382 8.382 0 0 1-.874 5.403 6.471 6.471 0 0 1-4.095 3.085c-.342.107-.47.235-.462.548-.015 2.026-.043 4.045-.057 6.114l-.007.576-5.396-.142.184-6.797c-.718-.22-1.422-.391-2.118-.604a12.586 12.586 0 0 1-3.15-1.657l-.092-.092c-.007-.043-.007-.078-.007-.121.618-1.486 1.258-2.837 1.884-4.251Zm34.24.27c.398.405.76.775 1.215 1.023a6.098 6.098 0 0 0 4.308 1.017 2.842 2.842 0 0 0 2.524-1.884 6.114 6.114 0 0 0 .228-3.256 74.82 74.82 0 0 0-2.247-8.858c-1.265-4.216-2.602-8.396-3.867-12.612a55.84 55.84 0 0 1-1.714-7.223 9.292 9.292 0 0 1 .25-4.607 5.759 5.759 0 0 1 4.13-3.683c.725-.206.597-.057.604-.668l.17-6.129 5.347.136c-.014.113-.014.227-.014.348l-.086 5.922c-.007.192.093.242.292.292a8.736 8.736 0 0 1 3.69 1.492c-.818 1.259-1.635 2.503-2.418 3.719-.61-.285-1.173-.605-1.791-.832a4.86 4.86 0 0 0-2.702-.17 2.318 2.318 0 0 0-1.89 1.706 5.978 5.978 0 0 0 .02 2.921 114.71 114.71 0 0 0 3.264 11.681c1.258 4.067 2.538 8.112 3.732 12.207.49 1.763.86 3.555 1.11 5.368a8.425 8.425 0 0 1-.868 5.403 6.485 6.485 0 0 1-4.102 3.085c-.349.114-.47.235-.462.548-.014 2.026-.05 4.038-.05 6.114l-.021.568-5.403-.135.199-6.796c-.718-.22-1.422-.398-2.112-.605a12.424 12.424 0 0 1-3.156-1.663.245.245 0 0 1-.086-.085.233.233 0 0 1-.007-.121c.604-1.493 1.251-2.844 1.913-4.223Zm0 0" style="fill-rule:nonzero;fill:#000;fill-opacity:1;stroke-width:3.47;stroke-linecap:butt;stroke-linejoin:miter;stroke:#000;stroke-opacity:1;stroke-miterlimit:10" transform="scale(.54945)"/></svg>