<svg xmlns="http://www.w3.org/2000/svg" width="365" height="365" fill="none"><path fill="#FF90E8" d="M0 0h365v365H0z"/><g clip-path="url(#a)"><path fill="#FF90E8" stroke="#000" stroke-width="3" d="m52.188 188.645.01-.009.01-.009.66-.609.003-.003c13.524-12.325 20.082-21.713 23.203-27.405 14.299-26.077 35.069-32.652 49.975-33.612a60.6 60.6 0 0 1 15.19.978l.791.152.564-.575c4.79-4.888 10.99-9.741 18.447-12.519h.001c12.003-4.487 25.626-4.592 38.693-.561l1.133.349.601-1.021 9.283-15.755a20 20 0 0 1 8.923-8.051 20.06 20.06 0 0 1 11.938-1.494 20.03 20.03 0 0 1 10.64 5.604 19.96 19.96 0 0 1 5.476 10.551v2.016l1.978-.665 31.221-10.5h.001a20.06 20.06 0 0 1 11.938-.26 20 20 0 0 1 9.962 6.569 19.93 19.93 0 0 1 1.784 22.668l-.01.018-.01.018-.033.06-.018.033-11.061 19.081-1.065 1.838 2.088.389 9.037 1.684h.001a20.04 20.04 0 0 1 10.715 5.736 19.95 19.95 0 0 1 5.41 10.863 19.93 19.93 0 0 1-1.887 11.982 20 20 0 0 1-8.491 8.683l-16.033 8.521-1.473.784.935 1.382 5.265 7.78.001.001a19.93 19.93 0 0 1 .16 22.138 20 20 0 0 1-8.895 7.419 20.05 20.05 0 0 1-11.527 1.252l-.002-.001-3.088-.572-2.103-.39.349 2.109 1.992 12.041c.659 4 .084 8.106-1.652 11.772a20 20 0 0 1-8.064 8.752 20.06 20.06 0 0 1-22.683-1.8l-18.564-15.105-1.049-.854-.958.956a83.16 83.16 0 0 1-34.929 20.835l-.009.003-.01.003a116.2 116.2 0 0 1-34.294 5.328c-24.197-.001-47.491-8.152-68.668-24.287a150.2 150.2 0 0 1-35.502-38.901 19.92 19.92 0 0 1-2.78-13.363 19.95 19.95 0 0 1 6.48-12.027Z"/><path fill="#000" d="M226.732 149.516s0 .219-.059.623c-.388 4.42-3.493 31.155-21.551 51.169l-1.013-1.507c-10.404-5.296-28.833-.303-35.44 8.286-35.846-2.526-50.774 16.84-50.774 16.84l-.101.724c-32.732-4.589-51.794-21.345-52.46-21.943.843-.202 29.002-6.921 39.22-10.82 8.54-3.258 13.746-8.243 20.151-11.788l.675.227c.945.337 11.206 15.999 19.13 17.102 4.421.589 12.775-1.432 20.1-3.874 5.805-1.928 10.97-4.117 13.079-5.464 5.772-3.722 1.688-27.24 1.688-27.24l-.169-.412c4.489-1.903 9.696-3.006 16.742-3.149 13.821-.312 30.782-8.774 30.782-8.774"/><path stroke="#000" stroke-linecap="round" stroke-linejoin="round" stroke-width="3" d="M65.333 203.691c1.553-1.507 18.852-16.411 28.125-33.335 9.274-16.925 21.779-22.499 33.711-23.274a44.8 44.8 0 0 1 21.855 4.606s7.822-13.674 18.843-17.792c11.02-4.117 25.77-2.467 38.521 5.802.734.488 1.46.943 2.16 1.372 11.442 7.073 18.184 8.42 18.184 8.42s-16.969 8.421-30.791 8.732c-7.046.143-12.252 1.246-16.741 3.149-4.321 1.836-7.992 4.387-12.017 7.519s-6.21 4.985-9.391 6.13c-3.376 1.23-7.899 1.609-16.776 1.684a32.9 32.9 0 0 0-16.311 4.286c-6.405 3.57-11.611 8.555-20.151 11.789-10.218 3.898-38.335 10.617-39.22 10.819"/><path stroke="#000" stroke-linecap="round" stroke-linejoin="round" stroke-width="3" d="M65.333 203.691c.684 1.187 42.42 71.74 115.52 49.266 18.784-5.784 30.463-17.396 37.61-30.801 16.598-31.154 8.733-72.026 8.733-72.026"/><path stroke="#000" stroke-linecap="round" stroke-linejoin="round" stroke-width="3" d="M226.732 149.516s0 .219-.059.623c-.388 4.42-3.493 31.155-21.551 51.169a65.4 65.4 0 0 1-29.171 18.777c-22.362 7.141-41.938 7.848-58.157 5.575-32.732-4.589-51.794-21.346-52.46-21.943"/><path stroke="#000" stroke-linecap="round" stroke-linejoin="round" stroke-width="3" d="M125.388 181.285c.946.337 11.207 15.998 19.13 17.101 4.422.59 12.776-1.431 20.1-3.873 5.806-1.928 10.97-4.117 13.079-5.465 5.772-3.721 1.688-27.239 1.688-27.239m107.757-47.22-.008.008-26.412 45.57 38.976 7.242-37.154 19.728 18.658 27.551-33.273-6.206 6.987 42.27-34.521-28.098m-11.805-81.66 19.24-32.687s4.961 28.924 5.906 28.94 52.588-22.321 53.389-22.658m-129.089 61.139 6.43 18.069m-46.57 31.138s14.927-19.366 50.773-16.84c6.607-8.589 25.036-13.582 35.44-8.285"/></g><defs><clipPath id="a"><path fill="#fff" d="M44 44h277.4v277.4H44z"/></clipPath></defs></svg>