<svg xmlns="http://www.w3.org/2000/svg" width="364" height="364" fill="none"><path fill="#23A094" d="M0 0h364v364H0z"/><path fill="#23A094" stroke="#000" stroke-miterlimit="10" stroke-width="3" d="m128.818 274.909-1.618-14.246a50.5 50.5 0 0 1-11.555-4.484c-4.718-2.512-6.927-7.268-5.512-11.848.563-1.752 2.716-8.685 4.808-15.34 2.023-6.429 11.346-9.292 17.53-5.375l2.361 1.503c.564.34 1.066.686 1.568 1.026.405.272.935.629 1.223.793a16 16 0 0 0-.626-2.732c-2.582-8.209-6.285-16.287-9.864-24.093-2.779-6.06-5.671-12.222-8.455-18.18-2.655-5.669-5.406-11.519-8.072-17.313a175 175 0 0 1-8.421-21.633c-2.046-6.621-2.497-12.318-1.415-17.914 1.353-6.995 5.248-12.828 11.381-17.159-.147-1.338-.97-8.55-1.663-14.655-.564-4.943 3.867-9.512 9.898-10.204l19.643-2.267c6.004-.686 11.336 2.726 11.927 7.653.671 5.59 1.438 11.956 1.584 13.118 1.348.351 5.073 2.103 8.608 3.838 4.39 2.154 6.2 6.632 4.283 10.708l-6.741 14.462c-2.255 4.818-8.788 7.369-14.475 5.589l-1.437-.442c3.156 9.07 7.294 17.823 11.668 27.069q1.127 2.444 2.305 4.887 1.809 3.871 3.636 7.732c4.126 8.747 8.387 17.789 12.4 26.797a129 129 0 0 1 5.913 16.497 33.92 33.92 0 0 1-.654 21.871 29.4 29.4 0 0 1-10.619 13.531c.208 1.61 1.155 9.507 1.933 15.998.564 4.955-3.844 9.552-9.892 10.25l-19.728 2.267c-6.02.686-11.358-2.761-11.922-7.704Z"/><path fill="#23A094" stroke="#000" stroke-miterlimit="10" stroke-width="3" d="M126.665 233.679c1.42.901 2.615 1.808 3.979 2.494a17.7 17.7 0 0 0 13.026 1.23c3.861-1.065 5.896-3.401 6.595-6.604.733-3.316.248-6.536-.749-9.705-2.706-8.606-6.477-16.882-10.265-25.148-5.439-11.859-11.098-23.645-16.549-35.498a168 168 0 0 1-7.998-20.533c-1.381-4.462-2.086-8.986-1.19-13.645 1.071-5.522 4.51-9.791 10.586-12.563 1.995-.907 1.691-.402 1.471-2.205-.625-5.669-1.285-11.366-1.933-17.052l-.119-1.06 15.681-1.803c.04.346.074.686.113 1.02.75 5.822 1.505 11.639 2.227 17.461.067.567.349.686.992.725 4.887.284 8.223 1.134 11.397 2.869a7557 7557 0 0 1-5.552 11.939c-1.888-.567-3.67-1.293-5.558-1.701a14.4 14.4 0 0 0-8.01.624c-3.038 1.133-4.419 3.185-4.825 5.793-.467 2.999.333 5.805 1.297 8.594 3.906 11.293 9.272 22.109 14.385 33.005 5.366 11.44 10.833 22.851 15.968 34.371a119 119 0 0 1 5.485 15.306c1.55 5.311 1.635 10.771-.412 16.207-1.786 4.768-5.399 8.339-10.709 10.771-.964.442-1.274.873-1.128 1.786.818 5.958 1.55 11.905 2.306 17.897.067.567.124 1.099.191 1.7l-15.856 1.82-2.254-20.074c-2.187-.334-4.301-.567-6.353-.992a36.2 36.2 0 0 1-9.886-3.622.69.69 0 0 1-.339-.624c1.274-4.217 2.616-8.429 3.986-12.783Zm83.506 41.23-1.637-14.246a51.5 51.5 0 0 1-11.698-4.484c-4.776-2.512-7.013-7.268-5.581-11.848.571-1.752 2.751-8.685 4.868-15.34 2.048-6.429 11.486-9.292 17.746-5.375l2.391 1.503c.571.34 1.079.686 1.586 1.026.411.272.948.629 1.239.793a16 16 0 0 0-.634-2.732c-2.613-8.209-6.362-16.287-9.986-24.093-2.813-6.06-5.74-12.222-8.559-18.18-2.688-5.669-5.472-11.519-8.171-17.313a174 174 0 0 1-8.526-21.633c-2.071-6.621-2.527-12.318-1.432-17.914 1.37-6.995 5.313-12.828 11.521-17.159-.148-1.338-.981-8.55-1.683-14.655-.571-4.943 3.914-9.512 10.02-10.204l19.886-2.267c6.077-.686 11.475 2.726 12.074 7.653.679 5.59 1.456 11.956 1.604 13.118 1.364.351 5.136 2.103 8.713 3.838 4.445 2.154 6.277 6.632 4.337 10.708l-6.825 14.462c-2.282 4.818-8.896 7.369-14.653 5.589l-1.455-.442c3.195 9.07 7.384 17.823 11.812 27.069a319 319 0 0 0 2.334 4.887q1.831 3.871 3.68 7.732c4.177 8.747 8.491 17.789 12.554 26.797a128 128 0 0 1 5.986 16.497 33.54 33.54 0 0 1-.662 21.871 29.46 29.46 0 0 1-10.751 13.531c.211 1.61 1.17 9.507 1.957 15.998.571 4.955-3.891 9.552-10.014 10.25l-19.972 2.267c-6.094.686-11.498-2.761-12.069-7.704Z"/><path fill="#23A094" stroke="#000" stroke-miterlimit="10" stroke-width="3" d="M207.991 233.679c1.438.901 2.648 1.808 4.029 2.494a18.13 18.13 0 0 0 13.187 1.23c3.909-1.065 5.969-3.401 6.676-6.604.742-3.316.251-6.536-.759-9.705-2.739-8.606-6.556-16.882-10.391-25.148-5.506-11.859-11.235-23.645-16.753-35.498a167 167 0 0 1-8.097-20.533c-1.398-4.462-2.112-8.986-1.204-13.645 1.084-5.522 4.565-9.791 10.716-12.563 2.02-.907 1.712-.402 1.489-2.205-.633-5.669-1.301-11.366-1.957-17.052l-.12-1.06 15.875-1.803c.04.346.074.686.114 1.02.759 5.822 1.524 11.639 2.254 17.461.068.567.354.686 1.004.725 4.948.284 8.326 1.134 11.538 2.869a8004 8004 0 0 1-5.62 11.939c-1.912-.567-3.715-1.293-5.627-1.701a14.74 14.74 0 0 0-8.108.624c-3.076 1.133-4.474 3.185-4.885 5.793-.473 2.999.337 5.805 1.313 8.594 3.954 11.293 9.387 22.109 14.562 33.005 5.432 11.44 10.967 22.851 16.166 34.371 2.2 4.97 4.055 10.084 5.552 15.306 1.569 5.311 1.655 10.771-.417 16.207-1.808 4.768-5.466 8.339-10.841 10.771-.976.442-1.29.873-1.142 1.786.828 5.958 1.57 11.905 2.334 17.897.069.567.126 1.099.194 1.7l-16.052 1.82-2.282-20.074c-2.214-.334-4.354-.567-6.431-.992a37 37 0 0 1-10.009-3.622.69.69 0 0 1-.342-.624c1.289-4.217 2.648-8.429 4.034-12.783Z"/></svg>