<svg xmlns="http://www.w3.org/2000/svg" width="365" height="365" fill="none"><path fill="#FFC900" d="M0 0h365v365H0z"/><g stroke-width="3" clip-path="url(#a)"><path fill="#FFCB25" stroke="#000" d="M295.041 190.091v.001a19.68 19.68 0 0 1 6.596 14.726v95.406A19.677 19.677 0 0 1 281.96 319.9h-47.361c-21.189 0-32.591-9.394-38.435-17.188a42 42 0 0 1-3.04-4.707l-.275-.497-.536-.189c-9.669-3.423-22.804-9.353-30.956-18.124l-.008-.008-.594-.66-.555-.618-.818.144a30.7 30.7 0 0 1-5.222.46 30.25 30.25 0 0 1-20.341-7.974l-.331-.304-.444-.072a30.92 30.92 0 0 1-18.073-9.856l-.273-.304-.39-.123-1.016-.322-.592-.187-.551.285-19.627 10.165-.002.001a19.68 19.68 0 0 1-22.547-3.11 19.68 19.68 0 0 1-4.53-22.304l10.927-24.707a19.8 19.8 0 0 1 3.543-5.393v-.001l12.12-13.076.724-.78-.498-.941a25.7 25.7 0 0 1-2.594-7.54l-1.477.262 1.477-.262c-1.671-9.412 2.169-19.195 11.973-29.073l.001-.001c1.747-1.764 3.718-3.545 5.826-5.31l.018-.015.018-.016c.304-.271.586-.514.873-.735l.016-.012.016-.013a118 118 0 0 1 13.971-9.774 86.4 86.4 0 0 1 29.087-10.588l.503-.086.346-.374 20.263-21.922.343-.372.048-.503a36.03 36.03 0 0 1 18.363-28.039l.445-.247.203-.468a36.2 36.2 0 0 1 15.145-16.974l.42-.242.199-.442a36.06 36.06 0 0 1 25.514-20.502 36.07 36.07 0 0 1 41.083 22.468 36.07 36.07 0 0 1-15.727 44.103l-.421.242-.199.442a36.2 36.2 0 0 1-6.197 9.451l-.003.003a36 36 0 0 1-9.205 7.318l-.446.248-.202.467a36 36 0 0 1-20.672 19.517l-2.497.914 2.074 1.664a70 70 0 0 1 6.99 6.443l.001.001c4.092 4.319 7.408 8.355 10.356 11.955v.001c6.542 7.978 9.331 11.136 14.013 12.477h.001c4.605 1.314 10.443 1.745 15.579 1.8 5.156.056 9.734-.267 11.884-.516h.004a19.62 19.62 0 0 1 15.369 4.831Z"/><path fill="#000" stroke="#000" stroke-linecap="round" stroke-linejoin="round" d="M237.208 110.745a16.34 16.34 0 0 0 4.236-11.859 16.39 16.39 0 1 0-17.128-15.51 16.35 16.35 0 0 0-15.57 17.882 16.393 16.393 0 0 0-15.862 20.2 16.393 16.393 0 0 0 30.276 4.142 16.4 16.4 0 0 0 1.986-9.484 16.35 16.35 0 0 0 12.062-5.371"/><path stroke="#000" stroke-linecap="round" stroke-linejoin="round" d="M184.375 158.435a53.2 53.2 0 0 1 29.182 15.628c12.91 13.629 18.17 25.513 33.24 29.816s35.163 1.915 35.163 1.915v95.429h-47.361c-25.108 0-26.548-18.635-26.548-18.635s-22.956-5.735-32.291-15.781-13.629-23.675-30.851-31.57c-17.221-7.894-25.827-12.197-25.827-17.22 0-9.97 13.629-14.35 29.419-7.895s32.342 18.017 40.897 12.198c11.961-8.132 12.707-25.412-1.694-35.797-7.2-5.201-15.781-5.582-25.353-4.625m43.074-47.859-67.445 72.712"/><path stroke="#000" stroke-linecap="round" stroke-linejoin="round" d="m122.673 224.488-15.121 16.365-24.108 12.537 10.928-24.709 98.609-106.746m-31.808 34.111a66.8 66.8 0 0 0-28.665 8.852c-12.706 7.572-24.566 18.483-23.439 24.632 1.059 6.006 11.012 9.089 18.179 3.388m28.614 20.457a77 77 0 0 1 8.42-8.776c10.521-8.614 19.136-11.011 30.14-10.529"/><path stroke="#000" stroke-linecap="round" stroke-linejoin="round" d="M112.618 235.212s4.549 10.52 15.307 6.217c3.312-1.321 7.107-4.531 11.012-8.572m33.477-12.13c9.039-7.386 16.663-10.164 25.599-10.537m-70.8 34.348s4.541 10.52 15.307 6.217c3.507-1.397 7.556-4.921 11.741-9.317m-10.427 11.113s4.54 10.52 15.306 6.217a25.5 25.5 0 0 0 6.777-4.489m-46.361-37.965s3.109-7.412 11.724-3.109c6.022 3.016 8.843 8.132 8.369 11.241s-3.109 5.506-7.175 4.549m-22.727-42.099s5.023 2.397 10.046-2.389.72-11.241.72-11.241m-25.828 55.415s.398 5.489 4.863 8.683a18.3 18.3 0 0 0 8.318 3.489"/><path stroke="#fff" stroke-linecap="round" stroke-linejoin="round" d="M248.237 75.076a11.94 11.94 0 0 0-11.012-2.71"/></g><defs><clipPath id="a"><path fill="#fff" d="M44 44h277.4v277.4H44z"/></clipPath></defs></svg>