<svg width="200" height="200" fill="none" xmlns="http://www.w3.org/2000/svg"><path fill="#23A094" d="M0 0h200v200H0z"/><path d="M23.637 52.288v-13.28c0-3.734 1.463-7.318 4.071-9.962a13.83 13.83 0 0 1 9.847-4.134h132.321a13.83 13.83 0 0 1 9.847 4.134 14.19 14.19 0 0 1 4.071 9.962v13.28c0 2.729-.781 5.4-2.251 7.688a13.984 13.984 0 0 1-5.391 4.895v86.778c0 1.849-.359 3.68-1.058 5.389a14.121 14.121 0 0 1-3.013 4.573 13.907 13.907 0 0 1-4.516 3.058 13.759 13.759 0 0 1-5.331 1.075h-38.035a18.894 18.894 0 0 1-6.568 6.673 18.58 18.58 0 0 1-9.58 2.671h-8.674a18.567 18.567 0 0 1-9.578-2.671 18.878 18.878 0 0 1-6.562-6.673H45.193a13.83 13.83 0 0 1-9.847-4.133 14.19 14.19 0 0 1-4.071-9.962v-9.118c-.377.033-.756.05-1.135.051h-.004a13.806 13.806 0 0 1-8.411-2.855 14.104 14.104 0 0 1-4.996-7.412c-.823-2.954-.672-6.1.431-8.959a14.05 14.05 0 0 1 5.685-6.884l.792-64.184Zm0 0c0 2.727.782 5.397 2.25 7.684a13.98 13.98 0 0 0 5.388 4.894m-7.638-12.578 7.638 12.578m0 0v46.354l-8.428 5.251 8.428-51.605Z" fill="#23A094" stroke="#000" stroke-width="2.176"/><path d="M172.431 40.127V53.18H35.274V40.127H172.43Zm-67.743 62.724 22.647 23.012c-6.267 5.921-14.706 9.234-23.494 9.221v-32.233h.847Z" fill="#000"/><path d="M164.509 53.18v97.638H43.191V53.179" stroke="#000" stroke-width="2.176" stroke-linecap="round" stroke-linejoin="round"/><path d="M43.191 53.18h-7.917V40.127H172.43V53.18H43.191Zm70.19 97.638v4.363a4.726 4.726 0 0 1-1.469 3.408 5.116 5.116 0 0 1-3.545 1.412h-8.99a5.19 5.19 0 0 1-1.918-.367 5.016 5.016 0 0 1-1.625-1.045 4.8 4.8 0 0 1-1.086-1.564 4.65 4.65 0 0 1-.38-1.844v-4.363m43.025-47.967c0-8.553-3.534-16.754-9.824-22.802-6.291-6.047-14.823-9.445-23.719-9.445s-17.428 3.398-23.719 9.445c-6.29 6.047-9.824 14.25-9.824 22.802v.03c.004 8.552 3.542 16.752 9.835 22.797 6.294 6.044 14.827 9.438 23.724 9.434 8.896-.004 17.426-3.405 23.714-9.455 6.287-6.05 9.818-14.254 9.813-22.806v0ZM103.85 70.604v64.378m33.543-32.131H103.85" stroke="#000" stroke-width="2.176" stroke-linecap="round" stroke-linejoin="round"/><path d="m127.335 125.875-22.647-23.024-.838-.853m-76.28 26.059 15.621-9.2 27.116-15.976 15.328-9.03m6.495-1.845a3.149 3.149 0 0 0-.569-1.794 3.334 3.334 0 0 0-1.509-1.188 3.485 3.485 0 0 0-1.94-.182 3.404 3.404 0 0 0-1.72.885 3.194 3.194 0 0 0-.918 1.654 3.115 3.115 0 0 0 .191 1.866 3.27 3.27 0 0 0 1.238 1.449 3.477 3.477 0 0 0 3.153.298 3.372 3.372 0 0 0 1.09-.702c.313-.3.56-.657.729-1.049.168-.392.255-.813.254-1.237ZM52.544 61.809H85.41m-32.866 7.658h19.23" stroke="#000" stroke-width="2.176" stroke-linecap="round" stroke-linejoin="round"/></svg>