<svg width="200" height="200" fill="none" xmlns="http://www.w3.org/2000/svg"><path fill="#FF90E8" d="M0 0h200v200H0z"/><path d="M43.98 161.75h94.617v-.95l.004.95c3.542-.014 6.978-1.293 9.851-3.637 2.87-2.343 5.042-5.636 6.247-9.425l.001-.004 17.41-55.451a22.916 22.916 0 0 0 .902-9.349c-.348-3.153-1.341-6.17-2.905-8.793-1.564-2.623-3.656-4.782-6.108-6.279-2.454-1.498-5.192-2.286-7.98-2.286h-1.507c-.183-4.924-1.935-9.624-4.956-13.158-3.196-3.739-7.564-5.878-12.158-5.883H93.073c-3.266-4.787-7.984-8.007-13.247-8.949l-.083-.015h-.058a18.398 18.398 0 0 0-3.138-.271H60.271c-3.264 0-6.476.881-9.385 2.565-2.767 1.602-5.185 3.887-7.093 6.68-4.526.063-8.82 2.194-11.972 5.883-3.192 3.734-4.967 8.77-4.972 13.997v74.491c.005 5.227 1.78 10.263 4.972 13.999 3.195 3.739 7.563 5.879 12.158 5.886Z" fill="#FF90E8" stroke="#000" stroke-width="1.9"/><path d="M158.56 81.076a3.63 3.63 0 0 1 1.904.545c.588.36 1.093.88 1.473 1.518.379.638.621 1.374.706 2.145a5.626 5.626 0 0 1-.221 2.285l-18.03 57.566c-.292.927-.819 1.728-1.51 2.293-.691.566-1.513.869-2.356.869h-1.264c.541 0 1.077-.125 1.576-.368.5-.243.953-.599 1.335-1.047.383-.449.686-.982.892-1.568a5.546 5.546 0 0 0 .312-1.85V81.076h15.183Zm-42.429 27.08a.116.116 0 0 1 0 .086l-6.414 11.378a.102.102 0 0 1-.051.047.091.091 0 0 1-.04.01.095.095 0 0 1-.04-.01l-21.563-12.673-4.073 17.14a.104.104 0 0 1-.03.056.103.103 0 0 1-.058.026.097.097 0 0 1-.06-.01.1.1 0 0 1-.045-.042l-22.368-39.44a.105.105 0 0 1 .036-.146.098.098 0 0 1 .053-.013l44.592-.104a.104.104 0 0 1 .1.066.11.11 0 0 1-.025.119l-11.83 11.27 21.778 12.175c.02.017.033.039.038.065Z" fill="#000"/><path d="M139.283 148.297c.541 0 1.077-.125 1.576-.368.5-.243.953-.599 1.336-1.047.382-.449.685-.982.891-1.568a5.546 5.546 0 0 0 .312-1.85V66.137a5.536 5.536 0 0 0-.312-1.848 4.945 4.945 0 0 0-.892-1.567 4.136 4.136 0 0 0-1.335-1.047 3.592 3.592 0 0 0-1.576-.366H84.449c0-2.286-.696-4.497-1.96-6.235-1.266-1.739-3.019-2.89-4.943-3.248a7.23 7.23 0 0 0-1.264-.114H59.436c-2.169 0-4.25 1.011-5.783 2.811-1.534 1.8-2.396 4.241-2.396 6.786h-8.671a3.59 3.59 0 0 0-1.576.366c-.5.243-.953.598-1.335 1.047a4.952 4.952 0 0 0-.892 1.567 5.557 5.557 0 0 0-.312 1.848v77.327c0 .635.105 1.263.312 1.85a4.96 4.96 0 0 0 .892 1.568c.382.448.836.804 1.335 1.047.5.243 1.035.368 1.576.368h1.781" stroke="#000" stroke-width="1.9" stroke-linecap="round" stroke-linejoin="round"/><path d="M143.398 81.076h15.162a3.63 3.63 0 0 1 1.904.545c.588.36 1.093.88 1.473 1.518.379.638.621 1.374.706 2.145a5.626 5.626 0 0 1-.221 2.285l-18.03 57.566c-.292.927-.819 1.728-1.51 2.293-.691.566-1.513.869-2.356.869H44.367" stroke="#000" stroke-width="1.9" stroke-linecap="round" stroke-linejoin="round"/><path d="M109.666 119.667a.091.091 0 0 1-.04.01.095.095 0 0 1-.04-.01l-21.563-12.673-4.073 17.14a.104.104 0 0 1-.03.056.103.103 0 0 1-.058.026.097.097 0 0 1-.06-.01.1.1 0 0 1-.045-.042l-22.368-39.44a.105.105 0 0 1 .036-.146.098.098 0 0 1 .053-.013l44.592-.104a.104.104 0 0 1 .1.066.11.11 0 0 1-.025.119l-11.83 11.27 21.778 12.175a.111.111 0 0 1 .051.065c.01.027.01.058 0 .086l-6.427 11.378a.102.102 0 0 1-.051.047Z" stroke="#000" stroke-width="1.9" stroke-linecap="round" stroke-linejoin="round"/></svg>