<svg width="200" height="200" fill="none" xmlns="http://www.w3.org/2000/svg"><path fill="#FFC900" d="M0 0h200v200H0z"/><path d="M139.877 167.704c-.841.161-1.7.246-2.564.253l-77.271.349a14.436 14.436 0 0 1-4.965-.854 13.519 13.519 0 0 1-4.26-2.477 11.921 11.921 0 0 1-2.907-3.722 10.612 10.612 0 0 1-1.11-4.401l.087-113.68c-.088-3.052 1.186-5.986 3.544-8.156 2.357-2.17 5.604-3.4 9.027-3.416l77.175.963a14.42 14.42 0 0 1 4.971.845 13.504 13.504 0 0 1 4.265 2.476 11.896 11.896 0 0 1 2.905 3.727 10.572 10.572 0 0 1 1.101 4.406l.012 112.372c.073 2.652-.884 5.227-2.708 7.288-1.823 2.062-4.403 3.484-7.302 4.027Z" fill="#FFC900" stroke="#000" stroke-width="1.9" stroke-linecap="round" stroke-linejoin="round"/><path d="m132.135 43.179-.012.95h.001l.011-.95Zm7.753 7.871.95-.008-.95.008Zm.838 100.395.95-.008-.95.008Zm-7.625 7.687-.012.95h.001l.011-.95Zm-5.852-.074-.921.232.178.709.731.009.012-.95Zm-.049-.195-.18-.932-.986.19.245.974.921-.232Zm7.676-9.501-.95.007v.001l.95-.008Zm-.793-96.396.95-.008-.95.008Zm-7.802-9.684-.937-.155-.148.889.881.194.204-.928Zm.033-.195.015-.95-.818-.013-.134.807.937.156Zm-23.044 107.43.012-.95h-.001l-.011.95Zm.027 3.474.012-.95-.012.95Zm-14.037-.172.011-.95h-.002l-.01.95Zm-.888-3.252.472.824.004-.002-.476-.822Zm.857-.221-.017.95h.006l.011-.95Zm37.957 8.525-.181-.932h-.004l.185.932Zm-1.924.182-.011.949.004.001.007-.95Zm-57.877-.714-.012.95.012-.95Zm-9.748-9.903.95-.008-.95.008Zm-.793-96.396-.95.008.95-.008Zm9.586-9.666.012-.95-.012.95Zm57.88.717-.012.95h.003l.009-.95Zm9.748 9.904-.95.004v.003l.95-.008Zm.793 96.395.95-.006v-.002l-.95.008Zm-7.604 8.726a.95.95 0 0 0-.024 1.9l.024-1.9Zm5.84 1.024-.012.95h.001l.011-.95Zm7.625-7.688-.95.008.95-.008ZM126.295 42.155a.95.95 0 0 0-.024 1.9l.024-1.9Zm1.066 104.277-.011.95a.952.952 0 0 0 .961-.958l-.95.008Zm-62.29-.769-.949.008a.95.95 0 0 0 .938.942l.012-.95Zm-.786-96.134.011-.95a.95.95 0 0 0-.961.958l.95-.008Zm62.286.771.95-.008a.951.951 0 0 0-.939-.942l-.011.95Zm-53.009 7.843a.95.95 0 0 0-.023 1.9l.023-1.9Zm43.479 2.436a.95.95 0 1 0 .023-1.9l-.023 1.9Zm-43.416 5.455a.95.95 0 0 0-.023 1.9l.023-1.9Zm43.481 2.44a.95.95 0 0 0 .024-1.9l-.024 1.9ZM73.69 73.93a.95.95 0 1 0-.023 1.9l.023-1.9Zm43.483 2.435a.95.95 0 1 0 .023-1.9l-.023 1.9ZM73.757 81.82a.95.95 0 1 0-.023 1.9l.023-1.9Zm43.479 2.437a.95.95 0 1 0 .023-1.9l-.023 1.9ZM73.82 89.71a.95.95 0 1 0-.023 1.9l.023-1.9Zm33.322 2.31a.95.95 0 1 0 .023-1.9l-.023 1.9ZM73.94 104.076a.95.95 0 1 0-.023 1.9l.023-1.9Zm43.479 2.437a.951.951 0 0 0 .023-1.9l-.023 1.9Zm-43.416 5.455a.95.95 0 1 0-.023 1.9l.023-1.9Zm43.479 2.436a.95.95 0 1 0 .024-1.9l-.024 1.9Zm-43.415 5.455a.95.95 0 0 0-.024 1.9l.024-1.9Zm33.323 2.314a.95.95 0 1 0 .024-1.899l-.024 1.899Zm24.734-78.044a6.75 6.75 0 0 1 2.583.55l.75-1.745a8.652 8.652 0 0 0-3.31-.705l-.023 1.9Zm2.583.55a6.966 6.966 0 0 1 2.207 1.51l1.353-1.333a8.843 8.843 0 0 0-2.81-1.922l-.75 1.745Zm2.207 1.51a7.068 7.068 0 0 1 1.487 2.242l1.754-.73a8.948 8.948 0 0 0-1.888-2.845l-1.353 1.333Zm1.487 2.242a6.98 6.98 0 0 1 .537 2.627l1.9-.016a8.89 8.89 0 0 0-.683-3.34l-1.754.73Zm.537 2.627.838 100.395 1.9-.016-.838-100.395-1.9.016Zm.838 100.395a6.72 6.72 0 0 1-1.931 4.797l1.349 1.338a8.623 8.623 0 0 0 2.482-6.151l-1.9.016Zm-1.931 4.797a6.537 6.537 0 0 1-4.732 1.932l-.023 1.9a8.435 8.435 0 0 0 6.104-2.494l-1.349-1.338Zm-4.732 1.932-5.852-.074-.024 1.9 5.852.074.024-1.9Zm-4.943.645-.049-.195-1.842.463.049.195 1.842-.463Zm-.79.969a10.353 10.353 0 0 0 6.101-3.666l-1.478-1.193a8.462 8.462 0 0 1-4.983 2.994l.36 1.865Zm6.101-3.666a10.63 10.63 0 0 0 2.345-6.776l-1.9.016a8.736 8.736 0 0 1-1.923 5.567l1.478 1.193Zm2.345-6.776-.793-96.396-1.9.016.793 96.395 1.9-.015Zm-.793-96.396a11.002 11.002 0 0 0-2.437-6.8l-1.479 1.193a9.104 9.104 0 0 1 2.016 5.623l1.9-.015Zm-2.437-6.8a10.862 10.862 0 0 0-6.11-3.803l-.409 1.855a8.968 8.968 0 0 1 5.04 3.14l1.479-1.191Zm-5.378-2.72.033-.195-1.874-.312-.033.196 1.874.311Zm-.919.599 5.821.092.03-1.9-5.821-.092-.03 1.9Zm-23.041 107.43a.762.762 0 0 1 .294.063l.751-1.745a2.653 2.653 0 0 0-1.021-.218l-.024 1.9Zm.294.063a.82.82 0 0 1 .258.177l1.355-1.332a2.718 2.718 0 0 0-.862-.59l-.751 1.745Zm.258.177a.825.825 0 0 1 .177.267l1.755-.729a2.748 2.748 0 0 0-.577-.87l-1.355 1.332Zm.177.267a.828.828 0 0 1 .063.309l1.9-.015a2.745 2.745 0 0 0-.208-1.023l-1.755.729Zm.063.309a.792.792 0 0 1-.056.3l1.762.712c.131-.326.197-.675.194-1.027l-1.9.015Zm-.056.3a.735.735 0 0 1-.161.245l1.348 1.339c.248-.25.443-.546.575-.872l-1.762-.712Zm-.161.245a.728.728 0 0 1-.239.16l.718 1.759c.326-.133.621-.33.869-.58l-1.348-1.339Zm-.239.16a.74.74 0 0 1-.285.053l-.024 1.9a2.62 2.62 0 0 0 1.027-.194l-.718-1.759Zm-.285.053-14.037-.172-.024 1.9 14.037.172.024-1.9Zm-14.04-.172a.785.785 0 0 1-.474-.169l-1.17 1.498a2.69 2.69 0 0 0 1.626.571l.018-1.9Zm-.474-.169a.836.836 0 0 1-.291-.438l-1.833.501c.155.568.49 1.072.954 1.435l1.17-1.498Zm-.291-.438a.8.8 0 0 1 .027-.509l-1.762-.71a2.7 2.7 0 0 0-.098 1.72l1.833-.501Zm.027-.509a.73.73 0 0 1 .313-.362l-.945-1.648c-.513.294-.91.752-1.13 1.3l1.762.71Zm.317-.364a.702.702 0 0 1 .364-.093l.035-1.9a2.602 2.602 0 0 0-1.35.349l.95 1.644Zm.37-.093 14.04.171.023-1.9-14.04-.171-.023 1.9ZM127 157.939a8.577 8.577 0 0 1-1.731.164l-.015 1.9c.711.005 1.421-.062 2.116-.2l-.37-1.864Zm-1.727.164-57.878-.714-.023 1.9 57.878.713.023-1.899Zm-57.878-.714a8.736 8.736 0 0 1-3.342-.713l-.75 1.745c1.29.555 2.673.851 4.069.868l.023-1.9Zm-3.342-.713a8.995 8.995 0 0 1-2.852-1.954l-1.354 1.333a10.88 10.88 0 0 0 3.455 2.366l.751-1.745Zm-2.852-1.954a9.107 9.107 0 0 1-1.921-2.898l-1.755.729a11.006 11.006 0 0 0 2.322 3.502l1.354-1.333Zm-1.921-2.898a9.044 9.044 0 0 1-.694-3.396l-1.9.015a10.95 10.95 0 0 0 .839 4.11l1.755-.729Zm-.694-3.396-.793-96.395-1.9.015.793 96.396 1.9-.016Zm-.793-96.395a8.691 8.691 0 0 1 2.499-6.206l-1.35-1.338c-1.978 1.995-3.072 4.716-3.05 7.56l1.9-.016Zm2.499-6.206a8.467 8.467 0 0 1 6.126-2.503l.023-1.9a10.367 10.367 0 0 0-7.498 3.065l1.349 1.338Zm6.126-2.503 57.879.717.024-1.9-57.88-.717-.023 1.9Zm57.882.717a8.688 8.688 0 0 1 3.345.707l.749-1.747a10.606 10.606 0 0 0-4.076-.86l-.018 1.9Zm3.345.707A8.953 8.953 0 0 1 130.5 46.7l1.354-1.333a10.857 10.857 0 0 0-3.46-2.366l-.749 1.747ZM130.5 46.7a9.082 9.082 0 0 1 1.92 2.9l1.756-.726a10.99 10.99 0 0 0-2.322-3.507L130.5 46.7Zm1.92 2.9a9.01 9.01 0 0 1 .687 3.4l1.9-.01a10.912 10.912 0 0 0-.831-4.116l-1.756.726Zm.687 3.402.793 96.396 1.9-.016-.793-96.395-1.9.015Zm.793 96.394a8.73 8.73 0 0 1-1.925 5.553l1.478 1.194a10.634 10.634 0 0 0 2.347-6.759l-1.9.012Zm-1.925 5.553a8.46 8.46 0 0 1-4.971 2.99l.363 1.865a10.353 10.353 0 0 0 6.086-3.661l-1.478-1.194Zm-4.753 5.067 5.852.074.024-1.9-5.852-.074-.024 1.9Zm5.853.074a8.439 8.439 0 0 0 6.104-2.494l-1.349-1.338a6.537 6.537 0 0 1-4.732 1.932l-.023 1.9Zm6.104-2.494a8.619 8.619 0 0 0 2.482-6.151l-1.9.015a6.721 6.721 0 0 1-1.931 4.798l1.349 1.338Zm2.482-6.151-.824-100.403-1.9.016.824 100.402 1.9-.015Zm-9.515-109.216-5.852-.074-.024 1.9 5.852.074.024-1.9Zm-4.774 103.253-62.29-.769-.023 1.9 62.29.769.023-1.9Zm-61.351.173-.787-96.134-1.9.016.787 96.134 1.9-.016Zm-1.75-95.176 62.287.77.023-1.899-62.286-.77-.023 1.899Zm61.349-.171.79 96.132 1.9-.016-.79-96.132-1.9.016Zm-52.082 9.734 43.502.537.023-1.9-43.502-.537-.023 1.9Zm.063 7.892 43.504.54.024-1.9-43.505-.54-.023 1.9Zm.065 7.895 43.506.535.023-1.9-43.506-.535-.023 1.9Zm.067 7.89 43.502.537.023-1.9-43.502-.537-.023 1.9Zm.063 7.892 33.345.41.023-1.9-33.345-.41-.023 1.9Zm.12 14.365 43.502.537.023-1.9-43.502-.537-.023 1.9Zm.063 7.892 43.502.536.024-1.9-43.503-.536-.023 1.9Zm.063 7.891 33.347.414.024-1.899-33.347-.415-.024 1.9Z" fill="#000"/></svg>