<svg width="200" height="200" fill="none" xmlns="http://www.w3.org/2000/svg"><path fill="#F1F333" d="M0 0h200v200H0z"/><path d="m168.236 165.378.304-.399c.07-.105.152-.203.223-.307l.31-.46c.064-.086.123-.178.181-.27.059-.092.2-.325.299-.485l.164-.276.264-.485c.052-.098.111-.196.164-.3.052-.104.152-.307.222-.466l.17-.35c.064-.141.123-.282.181-.424.059-.141.118-.276.17-.411l.147-.38c.047-.123.111-.313.17-.472l.105-.338c.058-.178.111-.35.164-.527.053-.178.053-.203.082-.301.053-.19.099-.38.146-.577 0-.092.041-.184.059-.276.047-.196.088-.399.129-.613 0-.092.029-.184.047-.276.035-.203.07-.399.099-.614l.035-.325c0-.184.047-.374.065-.565.017-.19 0-.288.035-.429.035-.141 0-.307.029-.46V56.697a19.185 19.185 0 0 0-1.34-7.047 18.486 18.486 0 0 0-3.813-5.972L156.969 33.12c-.211-.214-.422-.43-.638-.613l-.281-.252-.369-.331-.387-.32c-.094-.079-.187-.159-.287-.232-.099-.074-.293-.221-.445-.332l-.252-.184c-.152-.11-.31-.208-.468-.313-.158-.104-.17-.116-.258-.165l-.468-.288-.281-.16a11.345 11.345 0 0 0-.451-.245l-.322-.166-.422-.203-.381-.171-.374-.154-.439-.171-.334-.123-.492-.166-.299-.086-.533-.153-.281-.068-.556-.128-.281-.05c-.188-.036-.375-.073-.586-.098l-.322-.043-.527-.067-.422-.037H65.161c-4.66 0-9.128 1.94-12.422 5.391-3.295 3.452-5.146 8.133-5.146 13.015v13.866c0 .478 0 .95.059 1.417a170.107 170.107 0 0 1-2.22 23.124c-2.635 15.743-7.343 28.271-13.246 35.284a18.5 18.5 0 0 0-2.746 4.362c0 .061-.053.116-.076.172a21.87 21.87 0 0 0-.445 1.092v.037a25.7 25.7 0 0 0-.252.736c0 .098-.053.196-.082.294l-.1.325c-.093.344-.181.688-.257 1.031v.074c-.088.405-.158.816-.223 1.227v.092c-.058.399-.105.804-.14 1.227v.031a19.56 19.56 0 0 0-.041 2.552 17.63 17.63 0 0 0 .299 2.503c.006.052.016.103.029.154.142.796.338 1.581.585 2.349 0 .08.053.16.082.246.123.356.252.705.398 1.049a.27.27 0 0 0 0 .061c.147.356.31.712.486 1.055.041.093.088.185.135.277.17.319.34.613.521.951l.041.067c.2.331.41.656.627.976l.146.214c.46.646.956 1.26 1.488 1.841l.076.086a17.402 17.402 0 0 0 2.787 2.454c.652.457 1.333.867 2.038 1.227l.205.104c.299.147.585.289.908.417l.152.068c.293.123.586.233.896.343 1.263.462 2.578.753 3.912.866 1.288.141 3.015.227 5.428.239l.04.092.194.435.17.356c.07.154.146.301.228.448.082.147.112.221.17.325l.258.454c.088.154.123.209.187.313.065.105.176.289.27.43l.21.319.282.399.251.343.27.35c.1.129.205.251.304.374l.252.301c.123.135.246.276.375.411l.17.19 10.095 10.571c3.294 3.452 7.762 5.392 12.42 5.393h80.677c.152 0 .304 0 .451-.037l.515-.061.334-.049c.181 0 .369-.062.55-.098l.287-.05.556-.128.287-.068.527-.153.305-.086.486-.166.339-.122.428-.172.386-.16c.123-.049.246-.11.369-.165l.434-.203.31-.159.463-.252c.093-.049.181-.104.269-.159l.48-.289.24-.159c.164-.105.328-.209.486-.325l.24-.172.457-.338.27-.221.398-.331.363-.325.287-.264c.433-.405.843-.84 1.235-1.288.082-.092.158-.19.235-.289.076-.098.257-.398.363-.533Z" fill="#F1F333" stroke="#000" stroke-width="1.9" stroke-miterlimit="10"/><path d="M154.656 153.702H75.25l-10.09-10.571h79.406l10.09 10.571Zm-89.73-22.081c-11.126.663-18.955.663-19.623.43 18.335.411 36.002-2.682 49.852-9.817 5.527-.239 9.299-.478 9.299-.478s2.435-1.841 4.76-9.51a45.604 45.604 0 0 0 7.847-10.179c7.338 8.982 16.397 17.02 22.071 14.633-17.404 9.749-52.2 13.62-74.206 14.921Zm39.762-74.936c1.937 0 3.507-1.645 3.507-3.675s-1.57-3.675-3.507-3.675-3.508 1.645-3.508 3.675 1.571 3.675 3.508 3.675Z" fill="#000"/><path d="M109.232 112.264c-2.342 7.694-4.761 9.51-4.761 9.51s-3.771.239-9.3.479a57.345 57.345 0 0 0 14.061-9.989Z" fill="#000"/><path d="M65.16 59.986v-13.86h79.406v97.005H65.161l-.217-11.516v-.147" stroke="#000" stroke-width="1.9" stroke-linecap="round" stroke-linejoin="round"/><path d="m144.566 46.126 10.09 10.565v97.011H75.25l-10.09-10.571m89.496 10.571-10.09-10.571" stroke="#000" stroke-width="1.9" stroke-linecap="round" stroke-linejoin="round"/><path d="m154.562 69.93-9.996-9.938h-79.33s.259 48.155-19.909 72.058c18.335.412 36.002-2.681 49.85-9.816a57.355 57.355 0 0 0 14.055-9.988 45.627 45.627 0 0 0 7.847-10.179c7.337 8.982 16.396 17.02 22.071 14.633 3.261-1.362 5.387-6.184 5.387-16.283v-1.295" stroke="#000" stroke-width="1.9" stroke-linecap="round" stroke-linejoin="round"/><path d="M45.321 132.051c.668.233 8.509.233 19.623-.43 21.989-1.3 56.802-5.172 74.206-14.902l.164-.086m-44.142 5.619c5.528-.239 9.299-.478 9.299-.478s2.436-1.841 4.761-9.51a71.155 71.155 0 0 0 1.757-7.233c2.647-13.86.328-32.573.328-32.573H97.134c-3.667 7.032-9.522 12.536-16.59 15.596 3.806 6.927 4.644 11.087 4.644 11.087s11.243-4.853 13.556-11.78c0 14.111-2.512 20.075-5.51 25.64H81.909s-3.086 6.466-5.95 9.699c6.84 0 13.85-.227 19.213-.448Z" stroke="#000" stroke-width="1.9" stroke-linecap="round" stroke-linejoin="round"/></svg>