<svg width="200" height="200" fill="none" xmlns="http://www.w3.org/2000/svg"><path fill="#90A8ED" d="M0 0h200v200H0z"/><g clip-path="url(#a)"><path d="M173.41 44.618c0-3.136-1.264-6.143-3.514-8.36a12.086 12.086 0 0 0-8.483-3.463H61.341a12.087 12.087 0 0 0-8.483 3.463 11.737 11.737 0 0 0-3.514 8.36v76.587H37.207a12.088 12.088 0 0 0-8.483 3.463 11.74 11.74 0 0 0-3.514 8.361v9.064c.008 6.181 2.462 12.116 6.84 16.542 4.379 4.426 10.336 6.995 16.606 7.16h100.492a24.305 24.305 0 0 0 15.882-5.92c4.39-3.807 7.226-9.056 7.98-14.771.265-.987.4-2.005.4-3.027V44.618Z" fill="#90A8ED" stroke="#000" stroke-width="1.9"/><path d="M78.037 81.211a9.504 9.504 0 0 0 3.041 6.356 9.759 9.759 0 0 0 6.626 2.584c2.46 0 4.83-.924 6.625-2.584a9.504 9.504 0 0 0 3.041-6.356 9.252 9.252 0 0 0-2.127-5.905h14.018v29.578l-1.744-2.879-5.727-9.465-5.53 9.58-5.53 9.557 11.258-.111 7.265-.076v7.267H72.12V75.306h8.024a9.271 9.271 0 0 0-2.107 5.905ZM62.84 134.092v9.158a11.882 11.882 0 0 1-.862 4.666 12.002 12.002 0 0 1-2.625 3.973 12.181 12.181 0 0 1-3.98 2.661 12.32 12.32 0 0 1-9.425 0 12.181 12.181 0 0 1-3.978-2.661 12.004 12.004 0 0 1-2.626-3.973 11.88 11.88 0 0 1-.862-4.666v-9.158H62.84Z" fill="#000"/><path d="M62.844 143.242V44.74h101.003v98.502" stroke="#000" stroke-width="1.9" stroke-linecap="round" stroke-linejoin="round"/><path d="M109.265 111.51v7.267H72.14V75.306h37.125v36.204Z" stroke="#000" stroke-width="1.9" stroke-linecap="round" stroke-linejoin="round"/><path d="M95.243 75.306a9.253 9.253 0 0 1 2.127 5.905 9.505 9.505 0 0 1-3.041 6.356 9.759 9.759 0 0 1-6.625 2.584 9.76 9.76 0 0 1-6.625-2.584 9.505 9.505 0 0 1-3.042-6.356 9.273 9.273 0 0 1 2.123-5.905m29.105 36.204-7.273.075-11.257.112 5.53-9.577 5.529-9.58 5.728 9.465 1.743 2.879M72.6 128.401h36.261M72.6 138.432h36.261m10.709-10.031h36.261m-36.261 10.031h36.261m-36.261-32.991h31.898M119.57 85.388h36.261M119.57 95.415h36.261M119.57 75.704h36.261m0-22.809H71.894v13.368h83.937V52.895ZM50.663 155.26a12.265 12.265 0 0 1-8.61-3.517 11.937 11.937 0 0 1-3.571-8.493v-9.158H62.84m100.805 9.158c0 3.187-1.283 6.244-3.568 8.498a12.267 12.267 0 0 1-8.613 3.52h-100.8a12.265 12.265 0 0 0 8.61-3.522 11.934 11.934 0 0 0 3.567-8.496" stroke="#000" stroke-width="1.9" stroke-linecap="round" stroke-linejoin="round"/></g><defs><clipPath id="a"><path fill="#fff" transform="translate(24 31.6)" d="M0 0h152v136.8H0z"/></clipPath></defs></svg>