<svg xmlns="http://www.w3.org/2000/svg" width="200" height="200"><path d="M0 0h200v200H0z" style="fill:#ffc900;fill-opacity:1;stroke:none"/><path d="M172.168 52.098h-.95v.949h.95Zm-.035-1.028h-.95v.067Zm0-.117h.949v-.039l-.004-.035Zm-.102-.918h-.949v.067l.008.062Zm0-.129h.95v-.07l-.012-.066Zm-.406-1.93.914-.25v-.007Zm-1.063-2.699.848-.433-.004-.008Zm-.07-.136.844-.438-.004-.008Zm-.418-.739.817-.492-.008-.008-.004-.007Zm-.047-.082-.812.496.004.008.004.004Zm-.414-.62-.781.538.031.04Zm-.105-.153.781-.543-.016-.016Zm-.477-.621-.719.62.004.005.004.008Zm-.113-.13-.734.606.007.008.008.004Zm-.48-.538-.704.64.016.016Zm-.067-.07.703-.637-.012-.016-.011-.012Zm-.574-.547.644-.7-.02-.015-.015-.016Zm-.098-.086-.625.718.008.004.004.008Zm-1.308-.973-.528.793.012.004.012.008Zm-.047-.031.527-.79-.012-.007-.015-.008Zm-1.477-.746-.351.883Zm-.762-.266.274-.906-.133-.043h-.14Zm-.066 0-.27.914.133.035h.137Zm-.758-.187.188-.93h-.008Zm-.754-.114.098-.945-.047-.004h-.05ZM75.602 39.2v-.949Zm-6.54 2.79.665.683ZM31.82 78.03l-.66-.683-.004.004v.003Zm-.05.051-.668-.676Zm-.57.602.706.632h.004l.004-.004Zm-.075.086-.707-.637-.008.012-.008.007Zm-.469.578.746.586.012-.012Zm-.097.125-.75-.582-.016.015.762.567Zm-.461.66-.79-.528-.023.032-.015.031Zm-.098.16.8.508.005-.004.004-.008Zm-.836 1.527-.86-.402-.003.004Zm-.043.094-.863-.398v.004Zm-1.258 4.61-.945-.102-.004.05v.051Zm0 .144.946.086.003-.043v-.043Zm-.062.812-.95-.05-.003.047.004.043Zm0 .137-.95-.043v.043Zm97.375 73.145v-.95h-.07l-.07.008Zm.129 0v.949h.054l.055-.008Zm.804-.125v-.95h-.093l-.09.02Zm.047 0v.953h.102l.097-.024Zm1.668-.524.367.875h.004Zm.813-.39.453.836Zm1.508-1.012-.567-.766-.016.012-.015.016Zm.05-.04.567.763.02-.016.019-.012Zm.653-.581-.532-.79-.07.048-.059.058Zm.05-.043-.664-.684-.023.028-.027.027Zm37.243-36.043.66.683Zm4.058-10.3h-.949Zm0-59.606h.95v-.95h-.95Zm-8.844-1.434.95-.012-.02-2.129-1.574 1.438Zm.547 60.117.66.68.293-.281-.003-.407Zm-38.632 37.49h-.95v2.242l1.61-1.563Zm0-61.762-.66-.684-.29.281v.403Zm7.394-7.176.95.055.136-2.426-1.746 1.687Zm10.547-10.234-.64-.7-.497.454.262.617Zm-62.04 6.707v-.95h-.398l-.277.282Zm7.06 0v.949h.374l.278-.254Zm22.171-20.754.653.691 1.754-1.644h-2.407Zm-8.726 0-.676-.668L99.402 56h2.274Zm-13.438 70.941v.95h.95v-.95Zm-17.633 0h-.949v.95h.95Zm93.297-76.976h.95a.951.951 0 0 0-.95-.953Zm-20.691 20.078.656.687.004-.004Zm-.488.469-.657-.688-.004.004Zm-10.059 9.765.66.684v-.004Zm-.469.453-.66-.683h-.004ZM36.098 86.5l-.66-.68a.94.94 0 0 0-.29.68ZM74.73 49.016v-.953a.947.947 0 0 0-.66.269Zm-38.632 99.246h-.95c0 .52.414.941.93.953Zm89.172 1.644-.016.95a.928.928 0 0 0 .691-.282Zm38.632-39.133.676.668a.946.946 0 0 0 .274-.668Zm-24.254-41.496v.95h.004Zm2.895 1.223a.953.953 0 0 0 1.113-.754.953.953 0 0 0-.754-1.113Zm-32.137-15.45.649.692a.96.96 0 0 0 .234-1.043.965.965 0 0 0-.883-.601ZM88.23 75.806v.953a.96.96 0 0 0 .653-.258Zm-31.574 0-.648-.692a.95.95 0 0 0 .648 1.645ZM78.828 55.05v-.953a.958.958 0 0 0-.648.257Zm94.29-2.953v-.254h-1.9v.254Zm0-.254c0-.301-.02-.586-.036-.836l-1.898.129c.02.261.035.484.035.707Zm-.036-.774v-.117h-1.898v.117Zm-.004-.191a16.214 16.214 0 0 0-.105-.977l-1.883.262c.039.285.074.578.097.867Zm-.098-.844v-.129h-1.898v.125h1.898Zm-.011-.265a16.503 16.503 0 0 0-.43-2.043l-1.832.503c.164.594.293 1.2.383 1.817Zm-.43-2.051a15.807 15.807 0 0 0-1.129-2.875l-1.691.867c.414.809.746 1.652.992 2.527Zm-1.133-2.883-.07-.133-1.684.879.07.137Zm-.074-.14a17.02 17.02 0 0 0-.441-.786l-1.63.98c.134.223.262.454.391.696Zm-.453-.801-.047-.079-1.61 1.012.051.078Zm-.043-.067a7.24 7.24 0 0 0-.473-.71l-1.5 1.16c.106.14.219.32.352.538Zm-.441-.672-.106-.152-1.562 1.082.105.152Zm-.122-.168a8.035 8.035 0 0 0-.53-.691l-1.423 1.262c.125.136.25.316.418.546Zm-.523-.683-.113-.133-1.438 1.242.113.133Zm-.102-.117a16.198 16.198 0 0 0-.523-.586l-1.375 1.312c.152.16.297.32.434.488Zm-.511-.567-.063-.07-1.402 1.277.062.07 1.403-1.28Zm-.086-.094c-.207-.215-.418-.41-.61-.586l-1.289 1.399c.2.18.375.344.54.512Zm-.645-.617-.097-.082-1.223 1.457.101.082Zm-.086-.07c-.445-.39-.922-.746-1.425-1.063l-1.008 1.61c.41.258.804.554 1.187.886Zm-1.402-1.047-.047-.031-1.055 1.582.047.031Zm-.074-.047a10.239 10.239 0 0 0-1.625-.824l-.703 1.766a8.83 8.83 0 0 1 1.328.671Zm-1.625-.82c-.274-.11-.555-.207-.84-.293l-.55 1.816c.233.07.464.153.687.239Zm-1.114-.336h-.066v1.902h.066Zm.204.039a9.08 9.08 0 0 0-.84-.207l-.38 1.863c.235.047.462.102.68.168Zm-.848-.207a10.042 10.042 0 0 0-.836-.129l-.195 1.89c.218.024.445.06.668.102Zm-.934-.133h-.156v1.898h.156Zm-.156 0a3.92 3.92 0 0 1-.305-.016 4.76 4.76 0 0 0-.453-.023v1.898c.086 0 .176.008.309.02.117.008.281.02.45.02Zm-.758-.039H75.602v1.898h86.011Zm-86.011 0c-2.641 0-5.172 1.098-7.2 3.055l1.325 1.367c1.707-1.652 3.777-2.52 5.875-2.524Zm-7.2 3.055L31.16 77.348l1.324 1.363 37.243-36.04Zm-37.25 36.05-.05.051 1.335 1.352.051-.051-1.332-1.352Zm-.05.051c-.215.211-.418.426-.618.653l1.43 1.254c.168-.192.344-.376.523-.555Zm-.61.645-.074.082 1.414 1.27.074-.087Zm-.09.101c-.164.192-.336.403-.504.621l1.516 1.149c.137-.18.281-.356.438-.54Zm-.496.61-.097.129 1.496 1.168.097-.125Zm-.113.144a15.89 15.89 0 0 0-.484.7l1.578 1.054c.144-.219.289-.426.433-.617Zm-.523.762c-.028.043-.016.023-.082.133l1.62.988.044-.066c.02-.032.046-.075.074-.125Zm-.075.121a14.298 14.298 0 0 0-.89 1.629l1.718.809c.235-.5.493-.973.778-1.426Zm-.894 1.633-.043.094 1.726.796.043-.09Zm-.043.098a16.085 16.085 0 0 0-1.34 4.902l1.89.207c.169-1.524.57-2.992 1.176-4.32Zm-1.344 5.003v.145h1.898v-.145Zm.004.059c-.023.27-.05.555-.066.848l1.898.101c.012-.25.035-.504.059-.777Zm-.066.938v.054l1.898.082a1.97 1.97 0 0 0 0-.215Zm0 .097v.715h1.898v-.715h-1.902Zm0 .715v59.379h1.898V88.332h-1.902Zm0 59.379c0 3.668 1.175 7.21 3.316 9.851l1.477-1.195c-1.84-2.265-2.895-5.379-2.895-8.656h-1.902Zm3.316 9.851c2.145 2.649 5.098 4.188 8.234 4.188v-1.898c-2.488 0-4.925-1.22-6.757-3.485Zm8.234 4.188h85.965v-1.898H38.402Zm85.965 0c.262 0 .602 0 .95-.05l-.282-1.88a4.597 4.597 0 0 1-.668.032Zm.809-.04h.129v-1.898h-.13Zm.238-.007c.29-.031.582-.074.879-.133l-.367-1.863a8.319 8.319 0 0 1-.727.11Zm.695-.113h.047v-1.903h-.047Zm.246-.024a9.82 9.82 0 0 0 1.836-.578l-.738-1.75a8.367 8.367 0 0 1-1.492.473Zm1.84-.578c.301-.129.602-.273.895-.43l-.91-1.671a7.81 7.81 0 0 1-.73.355Zm.895-.43c.582-.32 1.137-.69 1.652-1.109l-1.195-1.476a8.967 8.967 0 0 1-1.367.914Zm1.62-1.085.052-.04-1.13-1.527-.054.04Zm.09-.067c.243-.199.477-.41.708-.633l-1.32-1.367c-.196.188-.391.364-.594.531Zm.579-.527c.086-.059.164-.129.23-.203l-1.425-1.258a.98.98 0 0 1 .132-.117Zm.18-.149 37.242-36.042-1.32-1.368-37.247 36.043Zm37.242-36.042c1.37-1.329 2.465-3.008 3.215-4.907l-1.77-.699c-.656 1.672-1.61 3.117-2.77 4.238Zm3.215-4.907a16.693 16.693 0 0 0 1.132-6.078h-1.898c0 1.871-.344 3.711-1.004 5.379Zm1.132-6.078V52.098h-1.898v59.605Zm-.949-60.555h-.031v1.899h.031Zm-9.797-.476.551 60.117 1.899-.016-.547-60.12Zm.84 59.426-38.633 37.488 1.32 1.363 38.633-37.488ZM126.22 148.27V86.508h-1.899v61.762Zm-.29-61.083 6.926-6.718-1.324-1.364-6.922 6.72Zm6.926-6.718.47-.453-1.321-1.368-.469.454Zm-1.14-1.192a47.34 47.34 0 0 0-.067 2.47h1.899c0-.806.023-1.595.066-2.36Zm-.067 2.47c0 4.75.727 9.093 1.93 12.28.602 1.594 1.34 2.946 2.207 3.918.867.973 1.945 1.645 3.192 1.645v-1.9c-.512 0-1.114-.273-1.774-1.011-.66-.735-1.293-1.856-1.848-3.325-1.105-2.921-1.808-7.027-1.808-11.609Zm7.329 17.843c1.246 0 2.324-.672 3.191-1.645.871-.972 1.61-2.324 2.21-3.918 1.204-3.187 1.93-7.53 1.93-12.28h-1.898c0 4.581-.703 8.683-1.808 11.608-.555 1.47-1.192 2.586-1.852 3.325-.656.738-1.258 1.011-1.773 1.011Zm7.332-17.844c0-5.121-.844-9.773-2.223-13.02l-1.75.743c1.254 2.945 2.074 7.332 2.074 12.277Zm-2.457-11.945 20.144-18.438-1.285-1.402-20.14 18.437Zm-19.258-21.453L87.563 85.832l1.351 1.336 37.031-37.484ZM88.238 85.55H70.605v1.902h17.633Zm-16.957 1.617 10.567-10.695-1.352-1.336L69.93 85.832Zm9.89-10.414h7.06v-1.899h-7.06Zm7.712-.254 22.172-20.758-1.301-1.387-22.172 20.758Zm21.52-22.402h-8.727V56h8.726Zm-8.051 1.62 5.964-6.034-1.351-1.336L101 54.383Zm5.289-5.753h17.629v-1.903h-17.63ZM87.289 86.5v39.492h1.898V86.5Zm.95 38.543H70.604v1.898h17.633Zm-16.684.95V86.5h-1.899v39.492Zm53.715-76.028h38.632v-1.903H125.27Zm37.968-1.633-20.687 20.082 1.32 1.363 20.691-20.082ZM142.555 68.41l-.489.465 1.313 1.371.488-.465Zm-.493.469-10.058 9.766 1.32 1.363 10.063-9.766Zm-10.058 9.766-.469.453 1.32 1.367.47-.453Zm-.473.453-6.922 6.722 1.32 1.364 6.926-6.72Zm-6.261 6.453H88.238v1.902h37.032Zm-54.665 0H36.098v1.902h34.507Zm-33.847 1.633L75.39 49.695l-1.32-1.363L35.437 85.82Zm37.972-37.22h32.91v-1.901H74.73ZM35.148 86.5v61.762h1.899V86.5Zm.93 62.715 89.176 1.64.035-1.898-89.176-1.644Zm89.867 1.36 38.633-39.134-1.351-1.332-38.633 39.13Zm38.907-39.802V49.016h-1.899v61.757ZM124.32 86.5v63.406h1.899V86.5Zm8.403-7.504c-1.52-1.012-2.278-2.25-2.278-3.457h-1.898c0 2.066 1.289 3.816 3.121 5.04Zm-2.278-3.457c0-1.277.844-2.586 2.524-3.621 1.664-1.027 4.023-1.691 6.68-1.691v-1.903c-2.95 0-5.669.739-7.676 1.977-1.996 1.23-3.426 3.054-3.426 5.238Zm9.207-5.312c.97-.004 1.938.09 2.891.273l.36-1.867a17.204 17.204 0 0 0-3.258-.309Zm-29.898-15.872L87.582 75.113l1.3 1.387 22.173-20.758ZM57.304 76.5l22.173-20.758-1.297-1.387-22.172 20.758ZM78.829 56h31.578v-1.902H78.828Zm9.402 18.855H56.656v1.903H88.23Zm0 0" style="stroke:none;fill-rule:nonzero;fill:#000;fill-opacity:1"/><path d="M163.902 49.781v61.215l-38.632 37.488V86.723l6.925-6.72.47-.456c-.044.805-.067 1.61-.067 2.414 0 9.332 2.855 16.898 6.379 16.898 3.523 0 6.382-7.566 6.382-16.898 0-5.031-.832-9.55-2.148-12.645Zm-75.664 35.84H70.605v39.492h17.633Zm37.032-37.488L88.238 85.62H70.605l10.567-10.695h7.058l22.172-20.758h-8.726l5.965-6.035Zm0 0" style="stroke:none;fill-rule:nonzero;fill:#000;fill-opacity:1"/></svg>