<svg width="200" height="200" fill="none" xmlns="http://www.w3.org/2000/svg"><path fill="#FF7051" d="M0 0h200v200H0z"/><path d="M61.925 140.716a19.604 19.604 0 0 0 3.347 3.304c-6.45 3.801-7.255 9.352-7.255 11.799 0 1.359.245 3.705 1.614 6.186 1.378 2.498 3.859 5.067 8.22 6.899 2.428 1.022 5.423 1.83 9.122 2.49l.003.001c6.387 1.118 14.688 1.755 23.407 1.755s17.02-.622 23.41-1.756c3.701-.656 6.695-1.468 9.127-2.49 4.361-1.831 6.841-4.4 8.218-6.898a12.933 12.933 0 0 0 1.612-6.187c0-1.357-.241-3.669-1.575-6.12-1.186-2.178-3.21-4.415-6.589-6.178a19.85 19.85 0 0 0 2.722-2.801l.006-.008c3.061-3.928 4.703-8.72 4.666-13.64V82.894a11.7 11.7 0 0 0-1.661-5.994 12.214 12.214 0 0 0-4.038-4.1V61.538c0-6.127-1.686-12.141-4.885-17.432a1.473 1.473 0 0 0-.065-.111l-.02-.033-.002-.004c-3.556-5.827-8.799-10.522-15.08-13.514a12.684 12.684 0 0 0-3.412-1.422 37.414 37.414 0 0 0-20.001-1.425c-.305.055-.602.12-.892.193a36.487 36.487 0 0 0-13.254 5.962 34.995 34.995 0 0 0-9.658 10.528 11.882 11.882 0 0 0-2.091 4.131 33.775 33.775 0 0 0-2.684 13.145v10.565a12.322 12.322 0 0 0-4.916 4.161 11.72 11.72 0 0 0-2.07 6.638v44.151c-.037 4.92 1.606 9.712 4.67 13.638l.004.007Z" fill="#FF7051" stroke="#000" stroke-width="1.9"/><path d="M74.931 86.884c.451 0 .892.125 1.267.36.376.234.668.568.841.96.174.39.22.821.132 1.237a2.105 2.105 0 0 1-.623 1.097 2.33 2.33 0 0 1-1.167.587c-.442.083-.9.04-1.317-.121a2.254 2.254 0 0 1-1.023-.789 2.05 2.05 0 0 1-.384-1.19c0-.567.24-1.11.666-1.512a2.355 2.355 0 0 1 1.608-.629Zm56.428-4.764v45.799c0 5.108-3.39 9.252-7.564 9.252h-14.107c4.179 0 7.564-4.144 7.564-9.252v-6.411c2.543-2.2 4.572-4.871 5.959-7.846a22.243 22.243 0 0 0 2.097-9.435V82.102l6.051.019Zm-6.051-6.487v6.469h-12.959a7.942 7.942 0 0 1 1.436-3.808 8.613 8.613 0 0 1 3.187-2.71 9.236 9.236 0 0 1 4.175-.965 9.224 9.224 0 0 1 4.161 1.014Zm0-15.656v3.058a8.997 8.997 0 0 1-4.586-2.173 8.126 8.126 0 0 1-2.508-4.212 7.782 7.782 0 0 1 .429-4.81c.65-1.527 1.771-2.837 3.219-3.761 2.261 3.604 3.451 7.713 3.446 11.898Zm-20.328-3.013a9.19 9.19 0 0 1 4.878 1.388c1.443.906 2.569 2.193 3.234 3.7a7.786 7.786 0 0 1 .501 4.765 8.106 8.106 0 0 1-2.401 4.224 8.962 8.962 0 0 1-4.494 2.258 9.301 9.301 0 0 1-5.071-.47 8.683 8.683 0 0 1-3.94-3.036 7.898 7.898 0 0 1-1.48-4.582c0-2.187.925-4.284 2.57-5.83 1.645-1.547 3.876-2.416 6.203-2.417Zm5.31-18.547a7.78 7.78 0 0 1 .566 4.146 7.972 7.972 0 0 1-1.67 3.875 8.7 8.7 0 0 1-3.477 2.607 9.282 9.282 0 0 1-4.391.67 9.134 9.134 0 0 1-4.177-1.439 8.41 8.41 0 0 1-2.89-3.179 7.822 7.822 0 0 1-.859-4.1 7.913 7.913 0 0 1 1.392-3.971 26.6 26.6 0 0 1 15.506 1.391ZM96.208 82.082H78.655c0-2.187.924-4.284 2.57-5.83 1.646-1.547 3.879-2.416 6.206-2.416 2.328 0 4.56.869 6.206 2.415 1.646 1.547 2.57 3.644 2.57 5.831ZM81.543 48.717a9.23 9.23 0 0 1 4.138.973 8.608 8.608 0 0 1 3.161 2.691 7.936 7.936 0 0 1 1.438 3.774 7.797 7.797 0 0 1-.626 3.965 8.307 8.307 0 0 1-2.541 3.219 9.031 9.031 0 0 1-3.856 1.713 9.32 9.32 0 0 1-4.26-.197 8.9 8.9 0 0 1-3.659-2.06h-.093v-2.819a22.265 22.265 0 0 1 2.624-10.498 9.124 9.124 0 0 1 3.674-.76Z" fill="#000"/><path d="M75.245 82.102V59.977a22.26 22.26 0 0 1 1.718-9.184 23.417 23.417 0 0 1 5.381-7.834 25.155 25.155 0 0 1 8.198-5.254 26.428 26.428 0 0 1 9.727-1.849c3.341 0 6.648.629 9.726 1.849a25.149 25.149 0 0 1 8.198 5.254 23.414 23.414 0 0 1 5.381 7.834 22.25 22.25 0 0 1 1.718 9.184v44.25c.004 4.625-1.444 9.148-4.163 13.003-2.719 3.856-6.587 6.872-11.121 8.672a26.512 26.512 0 0 1-14.37 1.448c-4.837-.856-9.298-3.033-12.825-6.259" stroke="#000" stroke-width="1.9" stroke-linecap="round" stroke-linejoin="round"/><path d="m77.621 49.581.232-.103a9.23 9.23 0 0 1 7.8.209 8.607 8.607 0 0 1 3.16 2.69 7.936 7.936 0 0 1 1.438 3.774 7.797 7.797 0 0 1-.625 3.965 8.307 8.307 0 0 1-2.541 3.219 9.031 9.031 0 0 1-3.856 1.713 9.321 9.321 0 0 1-4.26-.197 8.903 8.903 0 0 1-3.659-2.06m38.447 2.419a7.9 7.9 0 0 1-1.479 4.582 8.685 8.685 0 0 1-3.939 3.037 9.302 9.302 0 0 1-5.071.47 8.966 8.966 0 0 1-4.494-2.257 8.104 8.104 0 0 1-2.402-4.223 7.785 7.785 0 0 1 .5-4.764c.664-1.507 1.789-2.795 3.232-3.701a9.184 9.184 0 0 1 4.876-1.39c1.153 0 2.295.212 3.36.627a8.826 8.826 0 0 1 2.847 1.787 8.219 8.219 0 0 1 1.903 2.676 7.82 7.82 0 0 1 .667 3.157v0Zm11.547-2.194a9.003 9.003 0 0 1-4.587-2.173 8.139 8.139 0 0 1-2.508-4.212 7.79 7.79 0 0 1 .43-4.81c.65-1.527 1.771-2.837 3.219-3.761m-9.509 34.042a7.942 7.942 0 0 1 1.436-3.808 8.613 8.613 0 0 1 3.187-2.71 9.236 9.236 0 0 1 4.175-.965 9.224 9.224 0 0 1 4.161 1.014m-46.653 6.449c0-2.187.924-4.284 2.57-5.83 1.646-1.547 3.879-2.416 6.206-2.416 2.328 0 4.56.869 6.206 2.415 1.646 1.547 2.57 3.644 2.57 5.831m14.03-43.787c0 .042.037.08.053.122a7.78 7.78 0 0 1 .566 4.146 7.971 7.971 0 0 1-1.67 3.875 8.7 8.7 0 0 1-3.477 2.607 9.282 9.282 0 0 1-4.391.67 9.133 9.133 0 0 1-4.177-1.439 8.41 8.41 0 0 1-2.89-3.179 7.822 7.822 0 0 1-.859-4.1 7.914 7.914 0 0 1 1.392-3.971v0M82.573 82.12H67.827v45.799c0 5.108 3.386 9.252 7.564 9.252h14.746" stroke="#000" stroke-width="1.9" stroke-linecap="round" stroke-linejoin="round"/><path d="M112.772 137.171H90.137c-4.179 0-7.564-4.144-7.564-9.252V82.121" stroke="#000" stroke-width="1.9" stroke-linecap="round" stroke-linejoin="round"/><path d="M109.688 137.171c4.179 0 7.564-4.144 7.564-9.252v-6.411" stroke="#000" stroke-width="1.9" stroke-linecap="round" stroke-linejoin="round"/><path d="M112.772 137.171h11.023c4.174 0 7.564-4.144 7.564-9.252V82.121H75.261m25.015 55.05v19.235m31.897 1.308c0 3.058-14.241 5.509-31.766 5.509s-31.766-2.466-31.766-5.509c0-3.044 14.152-5.502 31.636-5.514h.13c17.541 0 31.766 2.47 31.766 5.514ZM77.214 89.025a2.05 2.05 0 0 0-.384-1.189 2.254 2.254 0 0 0-1.023-.789 2.416 2.416 0 0 0-1.316-.121 2.327 2.327 0 0 0-1.167.585c-.319.3-.535.681-.623 1.097a2.02 2.02 0 0 0 .13 1.237c.172.391.464.725.838.96a2.407 2.407 0 0 0 2.138.198c.277-.107.528-.265.74-.464.211-.198.379-.434.493-.694a2.03 2.03 0 0 0 .174-.82Z" stroke="#000" stroke-width="1.9" stroke-linecap="round" stroke-linejoin="round"/></svg>