<svg xmlns="http://www.w3.org/2000/svg"><defs><font id="gumiconsregular" horiz-adv-x="1228"><font-face ascent="1638" descent="-410" units-per-em="2048"/><glyph horiz-adv-x="0"/><glyph horiz-adv-x="682"/><glyph horiz-adv-x="600"/><glyph horiz-adv-x="600"/><glyph horiz-adv-x="600"/><glyph horiz-adv-x="774"/><glyph horiz-adv-x="1548"/><glyph horiz-adv-x="774"/><glyph horiz-adv-x="1548"/><glyph horiz-adv-x="516"/><glyph horiz-adv-x="387"/><glyph horiz-adv-x="258"/><glyph horiz-adv-x="258"/><glyph horiz-adv-x="193"/><glyph horiz-adv-x="309"/><glyph horiz-adv-x="86"/><glyph horiz-adv-x="309"/><glyph horiz-adv-x="387"/><glyph d="M0 0" horiz-adv-x="500" unicode="◼"/><glyph d="M-150 584v446q0 38 27 64 28 26 64 26h602l471 299q21 15 47 15 19 0 43-11 47-26 47-80v-268h45q37 0 63-26 25-25 25-64V627q0-37-25-62-26-26-63-26h-45V268q0-52-47-78-19-10-43-10-26 0-47 15L543 494h-92l114-377q12-42-14-80-25-37-72-37H254q-29 0-53 18-24 16-33 45L41 494H-59q-36 0-64 26-27 26-27 64m91 0h583v446H-59zm180-45L254 90h225L344 539zm446 45 494-316v1075l-494-313zm539 43h90v358h-90z" unicode=""/><glyph d="M-174 580q-17 45 4 82t68 45q15 0 36 4l-69 155q-19 41 4 82 23 39 68 45 59 6 116 24 51 15 120 52 55 30 101 57 24 14 113 72 54 36 124 80 49 29 118 66 73 38 142 60 71 21 144 30h11q26 0 49-14 23-15 33-40l237-528q16-43-4-80-22-42-67-45l-37-6 18-39 51-117q18-41-4-80-23-42-67-45-46-4-99-20-56-18-87-31-36-15-93-48-73-44-82-50l-90-58q-22-14-125-79-34-21-116-64-73-39-144-61T156 0h-11q-27 0-49 15-22 13-33 38L-80 373zm82 36q7-15 25.5-56t41.5-91.5T21 365q35-79 124-275 91 11 176 44 92 36 161 79 70 43 153 96 59 38 153 97 69 42 160 78 85 33 176 44l-51 117q-13 29-27 59.5t-16 34.5q-53-17-117-50-58-30-103-58-36-22-112-72-103-66-121-77-43-26-114-63-75-40-138-58-70-22-137-29l-32-4-15 30L16 639q-59-18-108-23m39 287q41-92 118-263l117-263q92 11 177 44 92 36 161 79 70 44 153 96 59 38 153 97 69 42 160 78 85 33 177 44-23 51-118 264-26 57-65.5 145.5T926 1343q-104-11-207-57-108-48-193-104l-178-117q-86-57-193-105-105-47-208-57m164-121q65 16 135 51 80 39 116 62 53 34 127 82 101 66 115 74 1-4 17-37-48-29-115-74-80-53-128-81-36-22-115-61-75-36-136-53-2 8-16 37m47-104q66 18 136 52 79 39 115 61 33 19 128 81 25 16 48 31t42 27.5 24 15.5q1-4 17-37-4-3-44-28t-71-46q-61-40-127-80-43-26-117-61-71-34-135-51-6 19-16 35m47-103q116 32 274 125 2-5 5-10 1-5 6-13 5-9 6-11-148-92-275-127-6 16-16 36m536 472q-27 62 35 106l-18 39 21 9q3 1 10 4.5t10 4.5q10-20 16-36 29 8 51 8h19l4-26q1-6 2-15t2-11q-1 0-2 .5t-3.5 1-4.5.5q-5 1-11 1-20 0-47-11-35-14-26-39 8-14 51-14h24q76 0 99-53 25-58-41-103l18-41q-23-9-41-16l-18 39q-42-16-74-16h-4l-4 27-2.5 15-1.5 11h4q36 0 72 14 38 17 28 43-9 19-43 19h-18q-14-2-29-2-61 0-78 41" unicode=""/><glyph d="M-102 90v135q0 37 26 63 26 25 64 25h96l225 1051q6 32 31 51 23 19 55 19t57-19 31-51l166-770 119 391q8 30 31 47t53 17 55-17q23-17 31-47l203-672h100q38 0 64-25 26-26 26-63V90q0-37-26-63-27-27-64-27H971q-29 0-53 18-24 16-33 45l-33 107-31-107q-9-29-33-45-24-18-53-18H522q-31 0-55 21-25 19-33 51l-39 182-39-182q-6-32-30-51-26-21-56-21H-12q-37 0-64 27-26 26-26 63m90 0h282l125 592L522 90h213l117 391L971 90h270v135h-168L852 961 633 236 395 1343 158 225H-12z" unicode=""/><glyph d="M-102 985v90q0 149 105 254t253 105h313q149 0 254-105t105-254v-45h45q148 0 254-104 104-106 104-254v-88q0-124-75-220-76-96-193-128V90q0-28-15-50-16-23-40-32-14-8-35-8-34 0-64 27L713 225h-54q-107 0-196 59-91 59-131 156l-13-10q-27-27-63-27-18 0-33 7-27 11-40 33-15 23-15 51v145Q50 670-26 766q-76 95-76 219m90 0q0-110 79-189t189-79V494l225 223h88q113 0 192 79t79 189v90q0 112-79 190t-192 78H256q-111 0-189-78-79-78-79-190zm413-475q24-86 96-141 71-56 162-56h91L973 90v223q112 0 191 79t79 192v88q0 112-78 191-79 79-192 79h-47q-16-133-118-224-101-91-239-91h-51z" unicode=""/><glyph d="M-102 717q0 145 57 279 57 132 153 228 94 96 228 153t278 57 278-57q133-57 229-153t153-229 57-278-57-278-153-229T892 57Q758 0 614 0T336 57 108 210Q12 306-45 439q-57 132-57 278m90 0q0-126 50-243 50-118 133-201 84-85 200-135 117-50 243-50 170 0 315 85 144 84 228 229 84 146 84 315 0 129-49 243-50 116-134 200t-200 134q-116 49-244 49-129 0-243-49-115-50-200-134-83-83-133-200t-50-243m313-359 195 430 432 197-197-432zm246 314q0-28 20-48t47-20q28 0 48 20t20 48-20 48q-19 19-48 19-28 0-47-19-20-20-20-48" unicode=""/><glyph d="M-104 94v537q0 210 95 329t263 119h403v269q0 37 27 64 28 26 64 26h313q36 0 64-26 26-28 26-64v-224q0-49-37-71 104-45 159-153 56-110 56-269V94q0-39-25-64-26-26-63-26H-14q-36 0-64 26-26 26-26 64m90 0h538v537q0 169-68 264-69 94-202 94-132 0-199-94-69-95-69-264zm448 895q67-33 101-126t34-232V227h672v404q0 169-68 264-69 94-202 94h-43V743q0-46-33-79-35-33-80-33-46 0-79 33-34 33-34 79v246zM569 94h672v88H569zm179 649q0-27 20-47t47-20q28 0 48 20t20 47v381h178v224H748z" unicode=""/><glyph d="M-102 584v270q0 37 26 63 26 25 64 25H90l-70 68q-28 25-28 63t26 64l177 178q26 26 63 26 38 0 64-26l69-70v101q0 36 26 64 26 26 64 26h269q36 0 64-26 26-28 26-64v-101l65 70q22 24 64 28h2q34 0 63-26l176-176q27-27 27-64 0-36-27-63l-71-72h102q39 0 64-25 26-26 26-63V584q0-36-26-62t-64-26h-98l67-66q29-26 29-63 0-36-27-66l-176-176q-24-27-63-27-37 0-64 27l-69 70V92q0-37-26-63-27-27-64-27H481q-39 0-64 27-26 26-26 63v101l-65-68q-26-29-64-29h-2q-33 0-63 27L20 299q-26 26-26 63 0 38 26 64l70 70H-12q-36 0-64 26-26 26-26 62m90 0h186q2-12 8-29 4-15 8-20 6-12 13-23l12-20L84 362l176-176 127 131q7-5 21-11 3-2 7-3.5t6-3 4.5-2.5 4.5-2q4-3 21-8 17-6 30-8V92h269v187q11 2 31 8 17 6 21 8l22 11q14 7 20 11l129-131 176 179-131 127 12 21q3 4 6.5 11t4.5 10q5 8 9 21 4 11 7 29h184v270h-184q-4 20-7 30-5 16-9 22l-12 21q-9 17-11 21l129 129-176 176-127-131q-4 2-21 11l-21 12q-6 4-22 9-10 3-30 7v185H481v-185q-9-1-23-5-7-2-21-8-8-4-15-8-10-5-18-10l-17-10-129 131-176-176 131-127q-2-4-11-21l-12-21q-2-2-8-22-6-17-8-30H-12zm358 135q0 112 79 190 78 78 189 78 113 0 191-78t78-190q0-111-78-189-79-79-191-79-110 0-189 79t-79 189m90 0q0-73 52-125 53-53 126-53t128 53q53 53 53 125t-53 127q-55 53-128 53-72 0-125-53t-53-127" unicode=""/><glyph d="M-104 94v492q0 36 26 64 28 26 64 26h501q29 0 51-15 23-15 33-40 20-59-20-99L438 414q76-43 174-43 104 0 192 57 86 56 130 152 10 24 33 39 23 14 49 14 14 0 35-8l172-74q35-14 47-49t0-70q-85-195-265-311Q826 4 612 4 368 4 174 156L49 31Q22 4-14 4q-17 0-35 8-24 9-40 32-15 22-15 50m61 848q-14 37 2 68 85 195 264 312 179 116 391 116 244 0 439-150l125 123q24 27 63 27 18 0 33-6 27-11 41-32 14-23 14-50V856q0-39-25-64-26-26-63-26H739q-27 0-50 15-23 16-32 40-10 24-5 52t24 47l112 108q-74 45-174 45-104 0-191-57-86-56-130-152-11-25-32-38-23-15-50-15-17 0-35 8L4 891q-35 18-47 51m29-848 184 185q85-88 201-136 113-49 241-49 189 0 346 104 155 104 228 271l-170 74q-53-120-162-190-110-72-242-72-186 0-311 125l186 182H-14zm55 881 170-74q54 118 162 190t241 72q188 0 312-127L739 856h502v494l-184-185q-86 87-202 136-114 49-241 49-189 0-344-104-155-103-229-271" unicode=""/><glyph d="M-111 872q0 152 75 282 77 129 206 205 129 75 281 75 113 0 221-47 105-47 185-126 78-79 126-186 47-108 47-221 0-157-82-291l342-344q28-25 33-54t-20-54l-86-86q-25-25-60-25-36 0-61 25L752 369q-136-76-283-76-113 0-221 47-108 46-186 126-78 78-126 185-47 108-47 221m172 0q0-161 124-284 123-123 284-123 160 0 274 114 113 115 113 275t-122 284q-122 122-283 122t-275-114Q61 1032 61 872" unicode=""/><glyph d="M23 94v850l4 424q6 32 31 51 23 19 55 19h1007q33 0 56-19 25-20 32-51l2-420V94q0-37-26-63-26-27-64-27H113Q76 4 50 31 23 56 23 94m67 426h291v381H90zm0 449h291v381H90zm8-885h1043l-2 360H98zm328 436h225v381H426zm0 449h717v381H426zm270-449h447v381H696z" unicode=""/><glyph d="M-219 334q-8 34 7 69 17 35 46 54l268 180h166L-18 418h299q15 0 18-12l70-189h505l68 189q6 12 21 12h299L975 637h166l268-180q29-20 45-55 15-37 8-68l-47-258q-9-34-40-56-31-24-66-24H-68q-34 0-66 24-30 24-38 56zm401 663h279v433h321V997h277L621 586z" unicode=""/><glyph d="M-98 94v928q0 31 18 55 17 23 47 31l1196 328q11 4 23 4 23 0 45-13 32-20 41-53l59-215q9-37-9-69-20-32-54-41l-234-64h203q38 0 64-25 26-26 26-63V94q0-36-26-62-28-26-64-26H-10q-37 0-63 26-25 25-25 62m88 0h1247v535H-10zm90 780q0-28 19-47 18-20 46-20t48 20 20 47-20 47q-19 19-48 19-28 0-46-19-19-19-19-47m203 230 125-164h124l68 18-145 193zm18-430h178l90 223H391zm283 512 145-191 172 45-145 193zm30-512h179l88 223H702zm271 594 145-191 172 45-145 193zm41-594h178l88 223h-178z" unicode=""/><glyph d="M-225 338q-8 34 7 69 17 35 46 54L96 641h166L-25 420h299q16 0 19-10l69-189h504l70 189q7 10 20 10h299L969 641h166l268-180q29-20 45-55 15-37 8-68l-47-260q-9-33-40-55-32-23-66-23H-74q-34 0-66 23-30 21-38 55zm401 684 438 412 439-412H776V590H455v432z" unicode=""/><glyph d="M-111 920q0 86 29 176 29 87 84 161 132 177 307 177 83 0 161-35t136-99q58 64 137 99 78 35 162 35t163-46q80-47 142-131 55-74 84-161 29-90 29-176 0-280-340-623-66-67-152-142-79-71-123-102-40-31-51-37-22-16-51-16-26 0-51 16l-46 33q-36 26-97 77-60 48-131 114-65 60-138 144-70 80-127 167-55 81-91 181-36 98-36 188m91 0q0-84 35-171 36-93 89-168 56-80 122-155 71-80 134-135 74-66 122-106 45-38 90-71l34-24q6 4 36 26 18 13 87 71 69 56 125 108 62 59 132 136t124 156q51 75 88 165 35 90 35 168 0 100-43 196t-121 162q-79 65-164 65-98 0-178-56-80-55-121-148-41 93-120 148-80 56-177 56-87 0-164-65-77-64-121-162-44-95-44-196" unicode=""/><glyph d="M-96 911q19 51 71 60l387 59 175 369q23 51 79 51 60 0 82-51l172-369 387-59q25-5 45-21t27-39q16-52-20-92l-283-289 68-409q3-26-7-49-11-24-30-39-28-17-53-17-21 0-43 13L616 219 272 29q-22-13-43-13-26 0-51 17-21 14-32 39-10 22-5 49l66 409-281 289q-38 38-22 92m86-28 313-322-74-455 387 216 388-216-74 455 313 322-432 65-195 414-194-414z" unicode=""/><glyph d="M-163 512q7-50 48-78l394-274 4-2L475 20q41-27 90-18 50 6 78 49l739 1057q28 40 21 89-9 49-49 77l-197 137q-41 29-89 20-49-9-79-49L457 621 162 827q-40 28-89 21-51-9-79-49l-137-197q-28-39-20-90" unicode=""/><glyph d="M180 221 389 12q21-22 43 0l686 686q22 22 0 43l-686 684q-11 11-20 11-7 0-23-11l-209-206q-22-21 0-43l457-457-457-455q-22-22 0-43" unicode=""/><glyph d="M104 707 791 20q21-22 43 0l208 209q22 21 0 43L588 727l454 457q22 22 0 43l-208 209q-18 8-21 8-4 0-22-8L104 750q-22-22 0-43" unicode=""/><glyph d="M-92 310q0-54 37-91L127 39q37-37 90-37t90 37l318 317L942 39q37-37 90-37t90 37l183 180q37 37 37 91t-37 91L987 719l318 317q37 37 37 91 0 53-37 90l-183 182q-37 37-90 37t-90-37l-317-318-318 318q-37 37-90 37t-90-37l-182-182q-37-37-37-90 0-54 37-91l317-317-317-318q-37-37-37-91" unicode=""/><glyph d="M-84 115 8 551l996 995q2 1 6 1.5t6 .5q6 0 32-3 29-6 50-14 29-12 63-35 38-26 74-62 40-40 63-74 23-33 35-65 11-34 14-49 5-22 3-33l-2-11-994-995zM29 377q45-23 86-64 37-37 63-86l150 33 43 43q0 5-1 9l-6 25q-5 17-15 38-9 19-28 47-21 29-45 53-43 43-83 65-45 23-66 26l-23 3-43-43z" unicode=""/><glyph d="M-102 850v223q0 36 26 64 28 26 64 26l129 2q5 71 35 123 30 54 75 84t92 45 91 15q114 0 204-95 90 95 205 95 35 0 67-7 36-8 74-26 38-19 71-49 31-28 54-77 23-50 27-110h129q36 0 64-26 26-28 26-64V850q0-37-26-63-27-27-64-27V88q0-38-25-63-26-27-63-27H78Q40-2 14 25q-26 26-26 63v672q-37 0-64 27-26 26-26 63m90 0h1253v223H995q11 0 19 29 8 30 8 59-3 52-25 88t-49 54q-24 14-60 26-30 9-47 11-9 1-22 1-120 0-205-157-85 157-204 157-12 0-21-1-18-2-46-11-37-11-60-26-27-18-49-54-24-37-27-88 0-29 8-59 8-29 18-29H-12zM78 88h1075v717H852l154-273-117 21-55-90-193 342h-53L395 463l-55 90-117-21 154 273H78zm221 1069q3 31 18 52 14 20 35 29 21 8 34 11 18 2 24 2 86 0 155-178h-88q-76 0-133 25-26 14-34 26-10 14-11 33m365-84q30 80 68 128 41 50 87 50 15 0 30-4 17-5 34-13t31-29q13-19 16-48-3-39-45-59-57-25-131-25z" unicode=""/><glyph d="M25 166v657q0 36 26 70 25 33 58 33h170v116q0 186 86 289 86 101 251 101t251-101q85-101 85-289V926h152q35 0 69-34 33-34 33-69V166q0-34-24-67-23-33-56-44l-102-30Q942-2 860-2H371q-81 0-164 27L106 55Q72 66 49 99q-24 33-24 67m421 760h338v151q0 89-45 138-46 49-123 49-78 0-124-49t-46-138z" unicode=""/><glyph d="M-352 119q0-52 35-84 35-35 84-35h1673q49 0 84 35t35 84v981L602 383l-954 717zm0 1194 954-717 957 717q0 49-35 84-37 37-84 37H-233q-47 0-84-37-35-32-35-84" unicode=""/><glyph d="M-227 168q52-4 88-4 251 0 448 153-116 3-210 74Q6 461-29 569q34-6 68-6 49 0 96 12Q8 601-73 700q-83 101-83 230v6q70-42 164-45-75 49-118 128-44 80-44 173t50 182q137-167 332-268 193-100 415-111-10 43-10 82 0 151 106 257 105 106 256 106 76 0 145-30 70-32 120-85 115 22 229 88-42-131-160-201 100 10 209 58-81-117-180-187v-47q0-122-30-243-32-124-88-237-57-113-147-215-90-101-201-174Q780 92 635 49 491 6 328 6 30 6-227 168" unicode=""/><glyph d="M225 702h244V0h268v702h285v236H737v164q0 35 19 58 18 24 39 24h227v250H795q-140 0-233-104t-93-255V938H225z" unicode=""/><glyph d="M-119 977v405q3 20 15 29 8 11 28 14h1333q43 0 43-43V49q0-43-43-43H852q-41 0-41 43v522L244 6q-30-30-60 0l-286 287q-30 29 0 59l581 582H-76q-43 0-43 43" unicode=""/><glyph d="M-448 825q4 10 22 15 74 27 856 302 762 268 854 302 29 10 43-10 10-10 6-35-5-29-136-593-128-554-144-620-9-39-47-39-14 0-27 7L498 414l-60 30-2 2 45 50 762 825q7 7-2 16-4 4-8 4t-8-4L162 557l-219 88q-342 137-367 148-11 3-18 10-10 10-6 22M158 35v395l307-160 2-2L190 20q-10-10-18-10-7 0-10 6-4 7-4 19" unicode=""/><glyph d="M-59 176v1026q0 67 47 114 47 46 118 46h953q13 34 46 58 31 22 71 22 53 0 90-37t37-90-37-90-90-37q-38 0-66 18-30 18-45 49H100q-26 0-42-15-17-15-17-38V176q0-25 18-43t41-18h1033q23 0 39 18 16 17 16 43v610q0 26-16 43-17 17-39 17H522q-26 0-46-18-19-18-19-42V594q0-25 20-40 19-15 45-15h215q15 31 46 50t67 19q52 0 89-37 36-37 36-90 0-54-36-90-36-37-89-37-40 0-71 22-34 23-48 56H520q-70 0-120 48-50 47-50 114v194q0 71 49 119 49 47 121 47h606q72 0 117-47 45-46 45-119V176q0-68-48-118T1126 8H106Q40 8-10 58q-49 49-49 118m845 305q0-27 19-46t47-19q25 0 45 20 18 20 18 45t-18 45q-19 19-45 19-28 0-47-19t-19-45m324 828q0-28 20-48t48-20 48 20q19 19 19 48t-19 48-48 19-48-19q-20-20-20-48" unicode=""/><glyph d="M-100 94v850q0 13 2 21l90 403q7 31 32 51 23 19 56 19h1073q32 0 57-19t31-51l90-401q2-8 2-21V94q0-37-26-63-25-27-64-27H-10q-37 0-64 27-26 26-26 63m90 0h1253v807H-10zm0 852h581v404H80zm672 0h581l-90 404H662z" unicode=""/><glyph d="M-401 147q0 59 41 102 42 42 102 42h1720q60 0 102-42t42-102q0-59-42-101T1462 4H-258q-60 0-102 42-41 43-41 101m0 574q0 59 41 102 43 41 102 41h1720q59 0 102-41 42-42 42-102 0-59-42-101t-102-42H-258q-60 0-102 42-41 43-41 101m0 573q0 59 41 102 42 42 102 42h1720q60 0 102-42t42-102q0-59-42-101t-102-42H-258q-60 0-102 42-41 43-41 101" unicode=""/><glyph d="M-121 1364v8q0 26 12 43 14 16 26 17l13 2h1315q19 0 30-4 12-5 18-14 7-9 10-16 0-1 1-3.5l2-5 2.5-6.5 2.5-7q4-11-2-27-7-17-13-23l-8-9-497-498V92q0-11 1-18t1-16l-3-13q-1-5-7-15-4-6-15-16-14-15-34-15-21 0-34 7l-14 8-283 283q-3 3-5 13-1 5-1 15v494q-426 432-487 490-17 17-24 32-7 14-7 23" unicode=""/><glyph d="M-104 113v1163q0 51 45 78 131 78 313 78 234 0 358-97 127 97 359 97 185 0 315-78 43-25 43-78V113q0-55-45-78-18-12-43-12-26 0-47 12-86 53-223 53-168 0-242-57-25-33-72-33h-88q-45 0-71 33-74 57-244 57-135 0-221-53-21-12-47-12-25 0-43 12-47 23-47 78m90 0q110 63 268 63 102 0 186-23 82-24 129-65v137q-46 42-128 64t-187 22q-159 0-268-65zm0 176q110 63 268 63 105 0 187-22t128-64v989q-46 42-128 64t-187 22q-159 0-268-65zM657 88q48 41 130 65 84 23 184 23 161 0 270-63v133q-109 65-270 65-104 0-185-22-82-22-129-64zm0 178q47 42 129 64 81 22 185 22 161 0 270-63v987q-109 65-270 65-104 0-185-22-82-22-129-64z" unicode=""/><glyph d="M-102 90v359q0 128 73 229 76 103 193 149-75 43-119 118-45 77-45 165 0 134 96 229 95 95 230 95 133 0 228-95t95-229q0-91-45-166-46-76-121-119 127-47 201-159 49 63 127 104-66 40-105 110-40 67-40 150 0 127 91 217 90 90 216 90t217-89q90-90 90-218 0-82-39-150-41-70-106-110 90-44 143-125 53-83 53-182V90q0-37-26-63-27-27-64-27H-12q-37 0-64 27-26 26-26 63m90 0h671v359q0 132-98 225-98 92-237 92-140 0-238-92-98-93-98-225zM90 1110q0-98 69-167t167-69q97 0 166 69t69 167-69 165q-70 68-166 68-97 0-167-68-69-67-69-165M705 90h536v373q0 107-78 180-79 74-190 74t-190-74q-78-73-78-180zm51 940q0-89 64-153t153-64q90 0 154 64 63 63 63 153 0 91-63 154t-154 63q-90 0-153-63-64-64-64-154" unicode=""/><glyph d="m-100 119 454 1255q9 27 32 44 22 16 52 16h350q30 0 52-16 23-17 32-44l455-1255q14-44-12-80-25-39-74-39H866q-29 0-53 18-23 16-31 45l-51 160H489L442 63q-9-29-33-45-24-18-53-18H-14q-48 0-74 39-26 36-12 80m86-29h370l68 223h375l67-223h375L788 1343H438zm522 492 90 315h29l88-315z" unicode=""/><glyph d="M-428 61-4 1239q9 24 32 40 22 15 48 15h327q27 0 49-15t31-40l297-827 144 397q13 37 53 37h219q43 0 53-37l287-793q10-28-6-51-15-24-47-24h-236q-41 0-55 39l-31 102h-151L979-18q-14-41-55-41h-95l-2 8H477q-27 0-50 17-22 16-30 44l-47 150H125L80 10q-9-29-31-45T-2-51h-346q-45 0-70 37t-10 75m569 435h193l-82 295h-27zm670-166 96-269 21-53 39 131h237l43-143h236l-287 792H977zm211-19 57 199h17l57-199z" unicode=""/><glyph d="M29 660q-1 139 59 243 46 82 127 131 81 48 170 49 52 1 134-30 81-31 104-31 21 0 106 33 87 32 143 32h27q24-1 51-6 32-7 65-19 38-13 78-44 41-33 68-74-157-104-155-272 1-60 21-113 18-50 47-83 23-27 56-53 31-24 47-31 18-9 21-9 0-5-9-32-9-29-33-78-29-57-56-95-36-53-62-86-27-33-70-61-42-27-89-29-44-1-114 28-69 29-124 29-59 0-125-28Q446 1 406 0q-45-2-88 28-43 29-73 65-27 32-65 89-66 94-108 216-43 120-43 262m583 444q-7 58 15 118 24 61 61 103 36 44 98 77 57 30 113 32 14-122-74-230-40-46-98-75-60-29-115-25" unicode=""/><glyph d="M8 506v373q0 36 26 62t62 26 62-26 26-62V508q0-36-26-62t-62-26q-38 2-61 26-25 26-27 60m207 473q0 100 56 186 56 85 147 131l-62 113q-4 13 6 16 8 5 15-2l2-2 61-112q77 34 172 34h2q93 0 170-34l2-2 62 114q7 10 16 4 10-3 6-16l-63-113q93-47 148-131 55-85 55-186zm4-602v573h789V377q0-38-28-66t-67-28h-65V88q0-37-25-62-26-26-63-26-36 0-62 26t-26 62v195H553V88q0-37-25-62-26-26-63-26-36 0-62 26t-26 62v195h-64q-39 0-66 28-28 27-28 66m180 780q0-13 10-23 9-10 23-10t24 10q9 10 9 23t-9 23q-10 10-24 10t-23-10q-10-10-10-23m361 0q0-12 11-23 10-10 24-10 13 0 23 10 9 9 9 23 0 13-9 24-10 9-23 9-14 0-24-10-11-11-11-23m282-649v371q0 36 26 62t62 26q34 0 62-26 27-27 27-62V508q0-34-26-60t-63-26q-36 0-62 26t-26 60" unicode=""/><glyph d="M-102 940q0 148 105 253 103 105 253 105 62 0 119-20 54 72 134 114t173 42q112 0 207-62 94-61 139-162 127-5 215-96t88-217q0-130-92-222-91-93-221-93h-64l-100 90h164q92 0 158 66 65 65 65 159 0 91-65 158-67 65-158 65l-51-6q-23 100-102 164-80 65-183 65-121 0-206-85t-85-205v-23h-67v23q0 73 28 139-46 18-96 18-112 0-190-78-78-80-78-192 0-111 78-189 78-79 190-79h119l-101-90h-18Q106 582 3 687q-105 105-105 253m268-582 448 404 449-404H750V0H479v358z" unicode=""/><glyph d="m-51 637 272 231 395-260-274-246zm0 463 393 274 274-246-395-260zm274-799v92l119-82 276 244 275-244 119 82v-92L618 49zm393 307 398 260 270-231-393-275zm0 520 275 246 393-274-270-232z" unicode=""/><glyph d="M-324 0v1434h1856V0zm84 338 623 698 489-506 297 148 279-277v949H-240zM14 463l260 65 144 144 266-92-295 305z" unicode=""/><glyph d="M-94 90v1192q0 62 44 108 44 44 107 44h262q34 0 60-23l59-51-59-68-60 51H57q-26 0-43-17-18-18-18-44V90l180 727q11 35 43 35h316v223H309l314 359 315-359H713V852h315v358h-88l-80 88h168q37 0 64-24 24-27 24-64V897h135q47 0 72-37 26-38 14-78L1143 66q-9-29-33-47-23-19-55-19H-4q-37 0-64 27-26 26-26 63m135 0h1014l196 717H219z" unicode=""/><glyph d="M104 96v1241q0 97 93 97h460v-97H197V96h460V0H243Q137 5 117 26q-13 22-13 70m383 533h283l-47-236 424 328-424 330 47-236H487z" unicode=""/><glyph d="M-27 358v836q0 34 23 57t57 23h1114q34 0 57-23t23-57V358q0-33-23-56t-57-23h-39q0-33-23-56-23-24-56-24v-47q0-64-45-108Q957 0 889 0q-67 0-114 44-46 43-46 108v47H492v-47q0-65-46-108Q399 0 332 0T218 44q-46 43-46 108v47q-33 0-56 24-24 23-24 56H53q-34 0-57 23t-23 56m80 0h80v478q0 141 79 210 80 68 239 68h319q160 0 239-68 78-69 78-210V358h80v836H53zm119-79h877v557q0 123-66 181-65 58-213 58H451q-148 0-213-58-66-58-66-181zm80-127q0-33 24-53 23-19 56-19t56 19q24 20 24 53v86H252zm0 325q0 33 24 57 23 23 56 23 32 0 57-23 23-25 23-57t-24-56-56-24-56 24-24 56m41 160v199q0 62 36 90 34 28 122 28h319q87 0 124-28 36-28 36-90V637zm516-485q0-33 24-53 23-19 56-19 34 0 57 19 23 18 23 53v86H809zm0 325q0 33 24 57 23 23 56 23 34 0 57-23t23-57q0-33-23-56-24-24-57-24-32 0-56 24t-24 56" unicode=""/><glyph d="M-104 717v223q0 13 2 21l88 395q4 33 30 56 25 22 60 22h1075q32 0 56-21 25-23 32-55l90-418V717q0-51-45-78V90q0-38-26-64t-64-26H31Q-7 0-33 26t-26 64v549q-45 27-45 78m90 0h1253v180H-14zm0 223h1253l-88 403H76zM31 90h1163v582H881V539H344v133H31z" unicode=""/><glyph d="M-127 299q0 123 99 212 99 87 239 87h20v653q0 35 24 60 22 25 58 30l893 93h11q33 0 59-23 31-25 31-68V391q0-123-97-211T973 92q-142 0-239 88-99 88-99 211 0 125 98 212 97 87 238 87h24l-2 307-448-45V299q0-127-97-212Q350 0 209 0 69 0-30 87q-97 85-97 212m90 0q0-88 72-148 70-61 174-61 105 0 175 61 71 60 71 148v735l628 64V580q-77 20-108 20-103 0-177-60-73-61-73-149 0-86 73-147 73-62 175-62 104 0 174 61t70 148v952l-895-92V487q-79 21-109 21-104 0-177-61t-73-148" unicode=""/><glyph d="M-102 449q0 127 90 217v364q0 32 9 70 8 33 29 85 20 47 57 90 35 41 90 80 49 35 131 58 80 21 175 21h271q96 0 176-21 79-22 131-58 55-40 89-80 39-46 58-90 19-46 28-85 9-38 9-70V666q90-90 90-217 0-106-63-190-64-84-164-112-10-63-60-105T928 0q-73 0-126 53-52 52-52 127v537q0 74 53 127t125 53q24 0 45-6v139q0 6-2 24-3 13-16 33-15 23-35 38-21 16-66 28-44 12-104 12H479q-59 0-103-12-45-12-66-28-20-15-35-38-13-20-16-33-3-14-3-24V891q21 6 45 6 73 0 126-53 52-52 52-127V180q0-75-52-127Q374 0 301 0q-65 0-115 42-51 43-61 105Q25 175-39 259q-63 84-63 190m90 0q0-81 51-143 50-62 127-77v801q0 9 1 16 3 16 8 33 6 21 17 44 9 19 35 46 19 22 55 44 32 18 83 30t114 12h271q86 0 148-22 65-23 93-50 30-29 48-64 18-38 21-56 3-19 3-33V229q77 15 128 77 50 62 50 143 0 52-23 100-24 46-65 78v403q0 10-1 19-2 13-9 45-8 27-23 61-15 30-45 66-31 36-71 61-42 26-107 44-68 17-147 17H479q-79 0-147-17-64-17-106-44-40-25-71-61-31-37-44-66-16-31-23-62t-9-44q-1-8-1-19V627q-42-31-66-78-24-46-24-100m223-269q0-38 27-64 26-26 63-26 36 0 64 26 26 26 26 64v537q0 36-26 64-28 26-64 26-37 0-63-26-27-27-27-64zm627 0q0-38 27-64 26-26 63-26 36 0 64 26 26 26 26 64v537q0 36-26 64-28 26-64 26-37 0-63-26-27-27-27-64z" unicode=""/><glyph d="M-102 1098q0 137 98 237 99 99 237 99 142 0 244-105 62 14 137 14 76 0 138-14 102 105 243 105 138 0 237-99t99-237q0-135-92-230 25-84 25-174 0-135-53-258-54-122-150-213l119-117q17-20 17-44t-17-44q-18-18-45-18-25 0-43 18L963 147Q808 45 614 45T266 147L137 18Q118-1 93-1T49 18Q33 37 33 61q0 26 16 45l119 117Q71 315 19 436q-54 122-54 258 0 90 25 174-92 95-92 230m90 0q0-69 37-131 55 114 145 200 91 87 205 131-61 45-142 45-101 0-173-72t-72-173m67-404q0-112 44-217 43-104 119-179 76-76 179-119 105-44 217-44 113 0 218 44 102 43 178 119 75 75 120 179 44 105 44 217 0 152-75 281-75 128-204 205-129 75-281 75t-281-75q-130-77-203-205-75-129-75-281m95-124q-33 124 0 248 33 125 124 216 140 140 340 140 197 0 340-140 140-140 140-340 0-197-140-340-142-139-340-139-201 0-340 139-91 91-124 216m30 124q0-180 127-307t307-127q181 0 308 127t127 307-127 307q-129 129-308 129-178 0-307-129-127-127-127-307m121 0q0 19 13 32t32 13h166q15 42 57 58v211q0 19 13 32t32 13 32-13 13-32V797q29-12 49-41 19-28 19-62 0-46-33-79-34-33-80-33-33 0-61 19-29 18-41 48H346q-19 0-32 13t-13 32m553 604q113-44 206-131 90-87 144-200 37 62 37 131 0 101-72 173-73 72-174 72-79 0-141-45" unicode=""/><glyph d="m-410 426 66 418q3 9 8 14 6 6 14 6h164q41 0 72-10 31-14 47-33 19-22 23-45 3-27-2-59-12-77-58-117-45-39-129-39h-51q-7 0-14-4-7-9-9-14l-16-113q-3-9-8-14-6-6-14-6h-78q-8 0-11 6-4 4-4 10m150 227h24q35 0 62 9 29 6 35 49 3 16 0 28-3 10-8 17-10 13-29 16-18 2-43 2h-10q-5 0-9-4l-6-8zm223-90q9 65 60 113 48 45 114 45 29 0 56-6 24-9 36-27l7-8 2 20q4 9 6 11t8 2h78q6 0 10-4 4-7 4-13l-43-266q-3-9-8-14-6-6-14-6h-70q-7 0-10 6-4 4-4 10l4 23-29-23q-31-23-80-23-25 0-55 11-26 10-43 28-21 21-27 56-8 29-2 65m105-2q-2-12 2-29 5-19 10-24 12-12 22-16 13-7 31-7 33 0 57 21 25 22 31 55 3 15 0 31-3 11-14 24-11 11-21 17-17 4-30 4-34 0-58-21t-30-55m315 133q-2 5 2 13 3 6 10 6h78q5 0 12-4 6-3 9-13l47-153 108 159 3 4 5 5q2 2 11 2h77q10 0 13-6 3-9 0-15L496 315l-5-5-4-3q-2-2-10-2h-78q-9 0-12 8-3 7 0 13l82 114zm371-268 65 418q3 9 8 14 6 6 15 6h164q40 0 71-10 34-14 47-33 19-22 23-45 3-27-2-59-12-77-58-117-45-39-126-39h-54q-7 0-14-4-5-5-8-14l-19-119q0-6-4-10-7-4-10-4h-84q-7 0-10 6-4 4-4 10m149 227h25q34 0 61 9 29 6 35 49 3 16 0 28-4 13-8 17-10 13-29 16-18 2-43 2h-10q-4 0-8-4l-6-8zm223-90q9 65 60 113 48 45 114 45 29 0 56-6 25-9 37-27l6-8 2 20q4 9 6 11t8 2h78q6 0 10-4 4-7 4-13l-43-266q-3-9-8-14-6-6-14-6h-70q-7 0-10 6-4 4-4 10l4 23q-11-11-27-23-31-23-82-23-25 0-55 11-26 10-43 28-18 21-27 56-8 29-2 65m105-2q-2-12 2-29 3-18 10-24 10-10 25-16 13-7 28-7 34 0 58 21t30 55q3 16 0 31-1 11-14 24-14 14-20 17-17 4-31 4-33 0-57-21-25-22-31-55m287-135 67 426q0 6 4 10 2 2 10 2h74q6 0 10-4l5-12-66-418q-3-9-8-14-6-6-15-6h-67q-7 0-10 6-4 4-4 10" unicode=""/><glyph d="M-356 70h1904v190q-15-9-37-12-18-2-41-2h-139v18q-20-13-35-14-25-4-36-4H821v71q0 7-2 9t-8 2h-6v-82H659v84q-14-8-34-8-21-3-39-3h-17v-73H393l-43 49-45-49H23v313h288l41-49 45 49h193q19 0 41-2 22-3 35-16v18h172q14 0 39-4 13-1 34-14v18h260v-18q16 11 31 14 21 4 35 4h145v-18q20 13 33 14 17 4 35 4h98v559H-356V795l63 149h139l19-37v37H29l37-80 34 80h521q15 0 32-4 10-1 27-14v18h143v-18q30 13 45 14 25 4 45 4h205l21-37v37h151l21-37v37h149V631h-149l-29 47v-47h-188l-21 51h-47l-20-51h-93q-49-3-90 18v-18H592v80q-2 2-8 2h-9v-82H127v39l-16-39H18L2 670v-39h-180l-21 51h-47l-20-51h-90zm0 606h57l20 49h113l21-49h108v176l78-176h47l78 176V676h55v223h-90L68 748-2 899h-88V688l-90 211h-80zm98 96 35 88 39-88zM70 289h213l67 76 68-76h104v76q34 0 103 4 57 3 57 71 0 43-27 58-28 16-63 16H420l-68-74-67 74H70zm53 47v45h119v45H123v41h135l57-66-59-65zm137 340h180v45H315v45h121v47H315v39h125v47H260zm125-275 82 88V309zm92 275h53v80h58q44 0 47-23 0-27 2-57h53v43q0 22-6 37-4 11-29 22 19 10 27 25 10 16 10 37 0 40-26 49-29 10-62 10H477zm45-266v57h70q13 0 22-6 11-8 11-21 0-14-11-22-8-8-24-8zm8 393v49h68q10 0 25-4 10-3 10-19 0-17-10-20-12-6-25-6zm177-514h53v82h57q27 0 39-9 10-10 10-36v-37h54v45q0 22-7 37-4 11-28 22 19 9 28 25 9 15 9 35 0 42-27 51-29 10-61 10H707zm16 387h55v223h-55zm37-260v51h69q12 0 23-4 10-3 10-21 0-17-10-20-9-6-25-6zm45 370q0-55 26-81 26-29 80-29h62l20 49h111l22-49h109v168l102-168h76v223h-55V743l-94 156h-82V688l-90 211h-80l-76-176h-25q-34 0-43 18-10 16-10 45 0 61 33 64 30 2 76 2v47h-52q-55 0-84-29-26-26-26-84m147-497h178v47h-124v45h122v45h-122v41h124v47H952zm62 483 37 88 36-88zm143-326q0-80 70-65 67 12 67-23 0-13-8-16-11-4-18-4h-105v-49h105q34 0 59 16t25 55q0 81-70 66t-70 20q0 12 11 17 11 4 20 4h98v47h-108q-31 0-53-16-23-17-23-52m209 0q0-80 70-65 67 12 67-23 0-13-8-16-11-4-18-4h-105v-49h105q20 0 41 6 20 6 30 22v84q-24 34-75 25-52-9-52 20 0 12 11 17 11 4 20 4h96v47h-106q-31 0-53-16-23-17-23-52" unicode=""/><glyph d="m-487 965 2 12h274q28 0 49-10 20-12 29-45l59-301 17-93 166 449h180L20 322h-178l-139 522q71-28 135-90 56-59 83-120-27 66-62 116-43 55-97 96-58 50-114 72-80 33-135 47m737-646 106 658h170L422 319zm276 27 25 148 22-13q41-18 76-24 34-8 84-8 34 0 70 16 31 15 31 47 0 20-19 39-20 21-70 43-44 19-96 65-51 39-51 113 0 96 80 158 80 59 207 59 50 0 88-8 21-4 63-20l-22-142-15 8q-30 12-55 19-30 6-72 6-52 0-73-18-25-19-25-39 0-23 27-41 32-24 67-41 74-34 109-78t35-100q0-102-80-164-84-63-215-60-41 0-109 11-52 9-82 24m473-27 252 603q13 31 37 45 21 10 53 10h132l137-658h-158l-7 33q-5 21-6 29-1 9-3 16l-4 21h-218l-6-19q-7-15-30-80zm263 234h143q-1 6-8 37-11 39-33 153l-10 56q-10-29-15-41l-2-4-6-17q-48-128-55-145z" unicode=""/><glyph d="M-276 543q0 71 18 139 17 71 49 125 39 60 86 106 45 45 107 84 70 37 131 54 67 16 133 16 88 0 168-27 79-27 147-82-64-55-104-122-43-75-60-150h47q13 67 56 131 38 61 96 117 57-54 98-117 40-66 54-131h47q-17 75-60 150-40 67-104 122 70 55 149 82 76 27 166 27 65 0 135-16 59-17 129-54 65-43 109-84 46-46 84-106 32-53 51-125 17-79 17-139 0-61-17-137-19-71-51-127-37-59-84-105-47-47-109-86-69-38-129-51-69-19-135-19-82 0-166 29-73 24-149 80 56 50 96 113 46 72 64 139h-48q-21-65-59-121-40-62-88-104-48 42-88 104-38 56-59 121h-48q18-67 64-139 40-63 96-113-73-53-147-80-87-29-168-29-67 0-133 19Q55 50-16 88q-66 42-107 86-48 45-86 105-32 56-49 127-18 64-18 137m51-125h51l35 190V418h39l69 190-30-190h53l43 252h-82l-57-158v158h-78zm252 51q0-12 4-23 2-11 8-20 3-3 16-8 11-4 19-4 20 0 35 6 15 8 22 18v-20h43v12l2 8q0 1 .5 4t1.5 4q0 1 .5 2.5t1 4 .5 4.5.5 6 1.5 6l4 29 2 14q0 2 .5 7t1.5 7q1 3 3 11l2 10v18q0 29-19 45-18 15-55 15-13 0-27-2-9-1-33-11-1-2-1-6-1-3-1-5t-.5-4.5-1-4-.5-2.5l-6-21 33 6q15 3 25 3 9 0 26-5 8-3 8-12v-14h-22q-18 0-39-4-14-4-35-17-13-13-14-22-6-15-6-35m51 10q0 14 12 23 9 6 31 6h14q0-12-4-23-3-9-10-16-1-3-10-8-7-4-15-4-11 0-14 6-4 4-4 16m117-61q8-2 22-2 14-2 35-2 40 0 61 18 21 15 21 51 0 15-10 31-8 14-29 25l-19 8q-2 2-2 6-2 2-2 8 0 9 9 12 12 5 18 5h23l8-2q7-2 8-3l8 48-8 2q-2 0-5 1-4 0-5 1h-33q-37 0-57-17-21-15-21-51 0-19 10-35 7-13 29-22l6-2 6-2 8-9 3-2 2-2q2-2 2-10 0-9-9-12-11-4-22-4-9 0-19 2l-30 6q0-1-.5-2.5t-.5-3-.5-4-.5-4.5-.5-5-1-5-.5-3q-1-2-1.5-5t-.5-5zm155 39q0-24 12-33 10-10 33-10 15 0 23 2 8 0 16 2l8 47q-2-2-8-2-6-2-10-2-8 0-12 4t-4 14v17l4 6q2 2 2 10 2 8 2 12v6l2 10q0 1 .5 4.5t1.5 4.5v20h31l4 52h-27l6 30h-53l-21-139q-2-4-8-29-2-14-2-26m109 47q0-47 24-68 22-22 68-22 17 0 31 2l24 6 8 51q-17-11-28-12-17-4-27-4-11 0-22 4-14 5-17 8t-6 12q-2 8-2 19h109q0 1 .5 2.5t1 4.5.5 5 .5 6 1.5 6v29q0 14-4 31-4 9-15 20-13 13-24 17-17 4-31 4-22 0-37-9-18-10-29-24-12-13-18-37-8-21-8-51m57 39q3 17 12 26t23 9h8q3-3 4-3 2-2 4-2l4-4v-4l4-8v-14zm113-125h55q1 21 10 67 7 34 13 54 6 15 14 20 7 4 16 2 10 31 15 43 3 14 6 17-7 4-13 4-6-3-12-9-9-3-14-8t-12-16l4 29h-52l-12-82q-2-11-3-31-4-29-5-40l-6-38zm129 104q0-27 8-45 6-21 18-33 13-16 31-22 14-8 39-8 17 0 27 2l20 6 8 57q-7-5-24-10-15-4-23-4-7 0-18 4-9 3-17 14-3 3-8 17-4 11-4 26 0 20 4 41 5 19 12 29 9 13 23 18 13 7 31 7 10 0 22-3 7-1 25-10l8 51q-24 12-33 13-14 2-26 2-29 0-50-10-25-14-38-33-15-20-25-49t-10-60m170-53q0-12 4-23 2-11 8-20 3-3 16-8 11-4 19-4 20 0 35 6 16 9 22 20v-22h43l2 9q0 2 .5 5t1.5 4q0 1 .5 3.5t1 5.5.5 6 .5 6.5 1 6 .5 3.5q1 2 1.5 8.5t.5 9.5.5 7 1 6.5.5 3.5l5 24q0 5 2 11v10q2 8 2 12v6q0 29-19 45-18 15-55 15-13 0-27-2-8-1-32-11l-7-22q-4-15-4-21l33 6q15 3 25 3 9 0 26-5 8-3 8-12v-8l-2-3-1-1q-1-1-1-2h-22q-18 0-35-4-14-4-35-17-13-13-14-22-6-15-6-35m51 10q0 14 12 23 9 6 31 6h14q0-15-2-23-3-10-12-16-1-2-10-8-7-4-15-4-11 0-14 6-4 4-4 16m121-61h57l12 78q3 25 11 43 6 15 14 20 6 4 14 2 5 22 9 35 8 19 14 25-2 2-10 2l-17-7q-10-6-12-8-4-4-12-15 1 1 1.5 3t.5 3 1 4l1 3v15h-54q-1-23-10-95-7-58-14-96zm80 174v1zm32-96q0-14 7-29 5-14 16-33 8-11 18-14 12-6 29-6t29 6q9 3 20 14l-6-16h53l43 252h-57l-8-74q-9 9-25 18-15 7-26 7-20 0-35-9-18-11-27-26-8-8-22-39-9-21-9-51m62 8q0 21 2 31l6 18q6 10 14 16 11 4 17 4 14 0 22-8t8-30q0-19-2-29-1-9-10-23l-14-14q-11-4-17-4-13 0-20 10-6 9-6 29" unicode=""/><glyph d="M-80-2h254q8 0 16 2 9 0 15 2 24 1 59 21 27 18 45 38 20 23 31 54 10 29 10 61v871H76q-22-5-35-9-53-18-88-63-33-43-33-105V440h2q26-13 62-24 33-10 65-13 10-2 25-2 14 0 22 2 16 3 29 13 15 8 22 18 10 13 13 27 4 15 4 26v203h151V481q0-10-2-18-5-25-8-31-3-7-16-29-11-12-27-22-23-13-31-16-40-13-53-15l-55-6q-31 0-55 2-24 0-56 4l-43 6q-18 4-23 5l-22 4v2h-4zm483 0h259q6 0 14 2 8 0 14 2 43 9 78 35 32 23 51 65 9 18 12 39 3 18 3 37v869H580q-16 0-31-3-23-4-33-8-54-22-82-63-31-47-31-103V645q0 1 5 2l4 2 4 4q14 11 39 23 21 9 43 12 8 3 43 8l41 4h53q23 0 51-4l41-6 21-3q11-1 20-3 2-2 8-2 2-2 10-2v-74h-6q-44 22-63 27-21 5-66 10-19 3-37 0-29-5-36-8-27-9-43-25t-27-47q-6-21-6-41t6-41q8-25 20-37 14-19 33-26 6-5 29-10l31-7q18 0 34 2 4 0 37 5 26 4 45 12l41 18q2 0 4 2h4v-73h-4q-2-2-4-2l-16-5-10-2q-2 0-4.5-.5t-4-1-2.5-.5l-57-6q-9-2-28-3-20-2-29-3-36 0-62 2-45 5-63 10-10 2-51 17-21 9-45 26h-3zm484 0h250q8 0 16 2 8 0 16 2 29 4 48 12 15 7 40 27 32 29 46 61 14 33 14 74v871h-262q-8 0-17-3-28-3-47-12-24-9-43-28-32-28-45-60-16-36-16-76V690h8q63 0 113 2 60 0 112-2h39l29-4q12-3 24-12 22-13 31-33 9-23 6-45-1-15-14-35-11-13-31-22l-16-7q-1-1-4-1.5t-4-.5q-2 0-5-.5t-4-1.5q2-2 9-2 4 0 6-2l26-6q22-12 25-14 30-20 33-51t-15-56q-9-12-18-18-5-5-23-14-16-7-28-9-14-2-33-2H887zm86 412h100q4 0 6 2h8q18 4 27 18 9 15 6 35-5 18-16 27-13 10-31 10h-96q-2 0-4-2zm0 145h96q15 0 23 8 11 8 14 19 4 14 2 24-3 12-12 21-5 5-15 8-8 2-16 2h-92z" unicode=""/><glyph d="M-195 117q0-23 9-41 7-18 24-35 13-16 37-27 18-8 41-8h1380q22 0 43 8 22 11 35 27 17 17 25 35t8 41v829q0 22-8 43-7 15-25 33-13 13-35 25-21 8-43 8H-84q-23 0-41-8-21-9-37-25-15-15-24-33-9-21-9-43zm89 0v413h1425V109q-2-2-3-4-1-3-3-5l-6-4q-2-2-11-2H-84q-8 0-10 2l-6 4q-4 4-4 9-2 2-2 8m0 676v153q0 4 2 6 0 5 4 9l6 6q2 2 10 2h1380q9 0 11-2l6-6q2-2 3-4 1-3 3-5V793zm86-613h176v90H-20zm264 0h260v90H244z" unicode=""/><glyph d="M0 493.5Q0 462 22 440L440 22q22-22 53.5-22T547 22l646 646q7 7 7 17v440q0 31-22 53t-53 22H684q-9 0-16-7L22 547Q0 525 0 493.5M825 937q0 47 32.5 80t79.5 33 80-33 33-80-33-79.5-80-32.5-79.5 32.5T825 937" horiz-adv-x="1200" unicode=""/></font>
</defs>
</svg>
