<svg xmlns="http://www.w3.org/2000/svg" width="16" height="16"><path d="M15.944 6.038a1.012 1.012 0 0 0-.805-.68l-4.304-.664L8.914.57A1.05 1.05 0 0 0 8 0c-.39 0-.734.234-.914.57L5.165 4.694l-4.328.664c-.351.055-.656.32-.78.68A.965.965 0 0 0 .29 7.053l3.14 3.21-.75 4.57c-.055.375.109.75.406.984a1.04 1.04 0 0 0 1.078.055L8 13.747l3.835 2.125a1.04 1.04 0 0 0 1.078-.055c.297-.234.461-.609.406-.984l-.75-4.57 3.14-3.21a.965.965 0 0 0 .235-1.015Z" fill="#7A8FA3" fill-opacity=".33" fill-rule="evenodd"/></svg>