<svg xmlns="http://www.w3.org/2000/svg" xmlns:xlink="http://www.w3.org/1999/xlink" width="16" height="16"><defs><filter id="b" width="106.2%" height="106.3%" x="-3.1%" y="-3.1%" filterUnits="objectBoundingBox"><feOffset dy="1" in="SourceAlpha" result="shadowOffsetInner1"/><feComposite in="shadowOffsetInner1" in2="SourceAlpha" k2="-1" k3="1" operator="arithmetic" result="shadowInnerInner1"/><feColorMatrix in="shadowInnerInner1" result="shadowMatrixInner1" values="0 0 0 0 0.960784314 0 0 0 0 0.960784314 0 0 0 0 0.960784314 0 0 0 0.5 0"/><feOffset dy="-1" in="SourceAlpha" result="shadowOffsetInner2"/><feComposite in="shadowOffsetInner2" in2="SourceAlpha" k2="-1" k3="1" operator="arithmetic" result="shadowInnerInner2"/><feColorMatrix in="shadowInnerInner2" result="shadowMatrixInner2" values="0 0 0 0 0 0 0 0 0 0 0 0 0 0 0 0 0 0 0.05 0"/><feMerge><feMergeNode in="shadowMatrixInner1"/><feMergeNode in="shadowMatrixInner2"/></feMerge></filter><path id="a" d="M444.944 1508.038a1.012 1.012 0 0 0-.805-.68l-4.304-.664-1.921-4.124a1.05 1.05 0 0 0-.914-.57c-.39 0-.734.234-.914.57l-1.921 4.124-4.328.664c-.351.055-.656.32-.78.68a.965.965 0 0 0 .234 1.015l3.14 3.21-.75 4.57c-.055.375.109.75.406.984a1.04 1.04 0 0 0 1.078.055l3.835-2.125 3.835 2.125a1.04 1.04 0 0 0 1.078-.055c.297-.234.461-.609.406-.984l-.75-4.57 3.14-3.21a.965.965 0 0 0 .235-1.015Z"/></defs><g transform="translate(-429 -1502)" fill="none" fill-rule="evenodd"><use fill="#EEE" xlink:href="#a"/><use fill="#000" filter="url(#b)" xlink:href="#a"/></g></svg>