<svg xmlns="http://www.w3.org/2000/svg" xmlns:xlink="http://www.w3.org/1999/xlink" width="17" height="17"><defs><filter id="b" width="105.9%" height="105.9%" x="-2.9%" y="-2.9%" filterUnits="objectBoundingBox"><feOffset dy="1" in="SourceAlpha" result="shadowOffsetInner1"/><feComposite in="shadowOffsetInner1" in2="SourceAlpha" k2="-1" k3="1" operator="arithmetic" result="shadowInnerInner1"/><feColorMatrix in="shadowInnerInner1" result="shadowMatrixInner1" values="0 0 0 0 0.960784314 0 0 0 0 0.960784314 0 0 0 0 0.960784314 0 0 0 0.5 0"/><feOffset dy="-1" in="SourceAlpha" result="shadowOffsetInner2"/><feComposite in="shadowOffsetInner2" in2="SourceAlpha" k2="-1" k3="1" operator="arithmetic" result="shadowInnerInner2"/><feColorMatrix in="shadowInnerInner2" result="shadowMatrixInner2" values="0 0 0 0 0 0 0 0 0 0 0 0 0 0 0 0 0 0 0.05 0"/><feMerge><feMergeNode in="shadowMatrixInner1"/><feMergeNode in="shadowMatrixInner2"/></feMerge></filter><filter id="e" width="111.8%" height="105.9%" x="-5.9%" y="-2.9%" filterUnits="objectBoundingBox"><feOffset dy="1" in="SourceAlpha" result="shadowOffsetInner1"/><feComposite in="shadowOffsetInner1" in2="SourceAlpha" k2="-1" k3="1" operator="arithmetic" result="shadowInnerInner1"/><feColorMatrix in="shadowInnerInner1" result="shadowMatrixInner1" values="0 0 0 0 0.960784314 0 0 0 0 0.960784314 0 0 0 0 0.960784314 0 0 0 0.5 0"/><feOffset dy="-1" in="SourceAlpha" result="shadowOffsetInner2"/><feComposite in="shadowOffsetInner2" in2="SourceAlpha" k2="-1" k3="1" operator="arithmetic" result="shadowInnerInner2"/><feColorMatrix in="shadowInnerInner2" result="shadowMatrixInner2" values="0 0 0 0 0 0 0 0 0 0 0 0 0 0 0 0 0 0 0.05 0"/><feMerge><feMergeNode in="shadowMatrixInner1"/><feMergeNode in="shadowMatrixInner2"/></feMerge></filter><path id="a" d="M16.94 6.415a1.075 1.075 0 0 0-.855-.722l-4.572-.705L9.47.606A1.115 1.115 0 0 0 8.5 0c-.415 0-.78.249-.971.606L5.487 4.988.89 5.693c-.374.058-.698.34-.83.722-.133.374-.042.797.249 1.08l3.336 3.41-.797 4.855c-.058.399.116.797.432 1.046a1.105 1.105 0 0 0 1.145.058L8.5 14.607l4.075 2.257a1.105 1.105 0 0 0 1.145-.058c.316-.249.49-.647.432-1.046l-.797-4.855 3.336-3.41a1.03 1.03 0 0 0 .25-1.08Z"/><path id="d" d="m8.5 14.607-4.075 2.257a1.105 1.105 0 0 1-1.145-.058 1.136 1.136 0 0 1-.432-1.046l.797-4.855-3.336-3.41a1.025 1.025 0 0 1-.25-1.08c.133-.381.457-.664.83-.722l4.598-.705L7.53.606C7.719.249 8.085 0 8.5 0v14.607Z"/><linearGradient id="c" x1="50%" x2="50%" y1="0%" y2="100%"><stop offset="0%" stop-color="#FFCC69"/><stop offset="100%" stop-color="#FDCE71"/></linearGradient></defs><g fill="none" fill-rule="evenodd"><use fill="#EEE" xlink:href="#a"/><use fill="#000" filter="url(#b)" xlink:href="#a"/><use fill="url(#c)" xlink:href="#d"/><use fill="#000" filter="url(#e)" xlink:href="#d"/></g></svg>