<svg xmlns="http://www.w3.org/2000/svg" width="17" height="17"><defs><linearGradient id="a" x1="50%" x2="50%" y1="0%" y2="100%"><stop offset="0%" stop-color="#FFCC69"/><stop offset="100%" stop-color="#FDCE71"/></linearGradient></defs><g fill="none" fill-rule="evenodd"><path d="M16.94 6.415a1.075 1.075 0 0 0-.855-.722l-4.572-.705L9.47.606A1.115 1.115 0 0 0 8.5 0c-.415 0-.78.249-.971.606L5.487 4.988.89 5.693c-.374.058-.698.34-.83.722-.133.374-.042.797.249 1.08l3.336 3.41-.797 4.855c-.058.399.116.797.432 1.046a1.105 1.105 0 0 0 1.145.058L8.5 14.607l4.075 2.257a1.105 1.105 0 0 0 1.145-.058c.316-.249.49-.647.432-1.046l-.797-4.855 3.336-3.41a1.03 1.03 0 0 0 .25-1.08Z" fill="#7A8FA3" fill-opacity=".33"/><path d="m8.5 14.607-4.075 2.257a1.105 1.105 0 0 1-1.145-.058 1.136 1.136 0 0 1-.432-1.046l.797-4.855-3.336-3.41a1.025 1.025 0 0 1-.25-1.08c.133-.381.457-.664.83-.722l4.598-.705L7.53.606C7.719.249 8.085 0 8.5 0v14.607Z" fill="url(#a)"/></g></svg>