<svg xmlns="http://www.w3.org/2000/svg" xmlns:xlink="http://www.w3.org/1999/xlink" width="17" height="17"><defs><filter id="b" width="100.9%" height="101.3%" x="-.5%" y="-.5%" filterUnits="objectBoundingBox"><feOffset dy="1" in="SourceAlpha" result="shadowOffsetOuter1"/><feGaussianBlur in="shadowOffsetOuter1" result="shadowBlurOuter1" stdDeviation="1"/><feColorMatrix in="shadowBlurOuter1" values="0 0 0 0 0 0 0 0 0 0 0 0 0 0 0 0 0 0 0.2 0"/></filter><filter id="d" width="110%" height="110%" x="-5%" y="-2.5%" filterUnits="objectBoundingBox"><feOffset dy="1" in="SourceAlpha" result="shadowOffsetOuter1"/><feGaussianBlur in="shadowOffsetOuter1" result="shadowBlurOuter1" stdDeviation=".5"/><feComposite in="shadowBlurOuter1" in2="SourceAlpha" operator="out" result="shadowBlurOuter1"/><feColorMatrix in="shadowBlurOuter1" values="0 0 0 0 0 0 0 0 0 0 0 0 0 0 0 0 0 0 0.1 0"/></filter><rect id="a" width="770" height="531" x="0" y="0" rx="4"/><rect id="c" width="40" height="40" x="0" y="0" rx="4"/></defs><g fill="none" fill-rule="evenodd"><path fill="#F5F5F5" d="M-497-1625H943v5483H-497z"/><g transform="translate(-162 -453)"><use xlink:href="#a" fill="#000" filter="url(#b)"/><use xlink:href="#a" fill="#FFF"/></g><g transform="translate(-12 -12)"><use xlink:href="#c" fill="#000" filter="url(#d)"/><rect width="39" height="39" x=".5" y=".5" fill="#F5F5F5" stroke="silver" stroke-linejoin="square" rx="4"/></g><path fill="#797874" fill-rule="nonzero" d="M15.3 6.8h-5.1V1.7a1.7 1.7 0 0 0-3.4 0v5.1H1.7a1.7 1.7 0 0 0 0 3.4h5.1v5.1a1.7 1.7 0 0 0 3.4 0v-5.1h5.1a1.7 1.7 0 0 0 0-3.4"/></g></svg>