<svg xmlns="http://www.w3.org/2000/svg" width="34" height="40"><path fill="#797874" d="M23.333 0H20v3.333h-3.333a1.667 1.667 0 0 1 0-3.333H3.333A3.335 3.335 0 0 0 0 3.333v33.334A3.335 3.335 0 0 0 3.333 40H30a3.335 3.335 0 0 0 3.333-3.333V10zM10 3.333h3.333a1.667 1.667 0 0 1 0 3.334H10zM10 10h3.333a1.667 1.667 0 0 1 0 3.333H10zm10 15a5 5 0 1 1-10 0v-8.333h3.333a1.667 1.667 0 0 1 0 3.333H20zm0-8.333h-3.333a1.667 1.667 0 0 1 0-3.334H20zM20 10h-3.333a1.667 1.667 0 0 1 0-3.333H20zm-5 16.667a1.667 1.667 0 1 0-.001-3.335A1.667 1.667 0 0 0 15 26.667"/></svg>