<svg xmlns="http://www.w3.org/2000/svg" width="22" height="44"><g fill="none" fill-rule="evenodd"><path fill="#AAA" d="M3.44 10.31v1.38h1.37v-1.38zm0 3.44v1.38h1.37v-1.38zm0 3.44v1.37h1.37v-1.37zm3.44-6.88v1.38h1.37v-1.38zm0 3.44v1.38h1.37v-1.38zm0 3.44v1.37h1.37v-1.37zm3.43-6.88v1.38h1.38v-1.38zm0 3.44v1.38h1.38v-1.38zm0 3.44v1.37h1.38v-1.37zm3.44-6.88v1.38h1.38v-1.38zm-.69 2.75v2.75h2.75v-2.75zm2.07 2.07h-1.38v-1.38h1.38zm2.06-4.82v1.38h1.37v-1.38zm0 3.44v1.38h1.37v-1.38zM11 2.38 8.79 4.81h4.39zm9.63 1.06H14.8l-2.79-3a1.38 1.38 0 0 0-2.02 0l-2.79 3H1.38C.61 3.44 0 4.05 0 4.81v15.82C0 21.39.61 22 1.38 22h19.25c.76 0 1.37-.61 1.37-1.37V4.81c0-.76-.61-1.37-1.37-1.37m0 17.19H1.38V8.25h19.25zm0-13.07H1.38V4.81h6.41L11 1.38l3.21 3.43h6.42z"/><path fill="#80807D" d="M3.44 32.31v1.38h1.37v-1.38zm0 3.44v1.38h1.37v-1.38zm0 3.44v1.37h1.37v-1.37zm3.44-6.88v1.38h1.37v-1.38zm0 3.44v1.38h1.37v-1.38zm0 3.44v1.37h1.37v-1.37zm3.43-6.88v1.38h1.38v-1.38zm0 3.44v1.38h1.38v-1.38zm0 3.44v1.37h1.38v-1.37zm3.44-6.88v1.38h1.38v-1.38zm-.69 2.75v2.75h2.75v-2.75zm2.07 2.07h-1.38v-1.38h1.38zm2.06-4.82v1.38h1.37v-1.38zm0 3.44v1.38h1.37v-1.38zM11 24.38l-2.21 2.43h4.39zm9.63 1.06H14.8l-2.79-3a1.38 1.38 0 0 0-2.02 0l-2.79 3H1.38c-.77 0-1.38.61-1.38 1.37v15.82C0 43.39.61 44 1.38 44h19.25c.76 0 1.37-.61 1.37-1.37V26.81c0-.76-.61-1.37-1.37-1.37m0 17.19H1.38V30.25h19.25zm0-13.07H1.38v-2.75h6.41L11 23.38l3.21 3.43h6.42z"/></g></svg>