<svg xmlns="http://www.w3.org/2000/svg" width="22" height="44"><g fill="none" fill-rule="evenodd" transform="translate(1 1)"><circle cx="10" cy="10" r="10" stroke="#CCC"/><path fill="#CCC" d="M5.5 8.5C4.7 8.5 4 9.2 4 10s.7 1.5 1.5 1.5S7 10.8 7 10s-.7-1.5-1.5-1.5m9 0c-.8 0-1.5.7-1.5 1.5s.7 1.5 1.5 1.5S16 10.8 16 10s-.7-1.5-1.5-1.5m-4.5 0c-.8 0-1.5.7-1.5 1.5s.7 1.5 1.5 1.5 1.5-.7 1.5-1.5-.7-1.5-1.5-1.5"/><g transform="translate(0 22)"><circle cx="10" cy="10" r="10" stroke="#AAA"/><path fill="#AAA" d="M5.5 8.5C4.7 8.5 4 9.2 4 10s.7 1.5 1.5 1.5S7 10.8 7 10s-.7-1.5-1.5-1.5m9 0c-.8 0-1.5.7-1.5 1.5s.7 1.5 1.5 1.5S16 10.8 16 10s-.7-1.5-1.5-1.5m-4.5 0c-.8 0-1.5.7-1.5 1.5s.7 1.5 1.5 1.5 1.5-.7 1.5-1.5-.7-1.5-1.5-1.5"/></g></g></svg>