<svg xmlns="http://www.w3.org/2000/svg" width="17" height="13"><path fill="#797874" d="m16.485 12.861.026-.006.022-.006.025-.009.021-.008.023-.01.022-.011.021-.013.021-.013.022-.017.018-.013.032-.03.01-.01q.016-.015.028-.032l.015-.02.015-.02.014-.023.011-.02.012-.024.01-.022.008-.024.008-.023.006-.025.006-.024.004-.029.003-.02.003-.052V1.384a.51.51 0 0 0-.504-.513H.49a.5.5 0 0 0-.355.163l-.01.01-.004.007-.018.023-.028.04-.012.02-.011.024q-.007.01-.01.021l-.01.024-.008.023-.007.024-.006.025-.004.023-.004.027-.002.022L0 1.376v6.368c0 .284.226 0 .504 0 .279 0 .504.284.504 0v-5.22l4.483 4.042-.067.056-4.416 4.496V7.745c0-.284-1.008-.284-1.008 0v4.613c0 .283.226.513.504.513h15.882q.026 0 .05-.002l.023-.004zm-.603-1.743-4.416-4.496-.008-.008 3.32-2.868a.52.52 0 0 0 .058-.723.5.5 0 0 0-.711-.06l-5.673 4.9-6.618-5.965h14.048zm-9.745-3.77a.5.5 0 0 0 .088-.12l1.886 1.7a.5.5 0 0 0 .66.007l1.922-1.66q.027.038.06.073l4.416 4.496H1.722z"/></svg>