<svg xmlns="http://www.w3.org/2000/svg" width="15" height="15" fill="none"><path fill="#DE9B07" fill-rule="evenodd" d="M14.695 11.25 9.486 1.263c-.878-1.684-3.094-1.684-3.972 0L.304 11.25C-.565 12.92.535 15 2.292 15H12.71c1.757 0 2.858-2.079 1.986-3.75Zm-7.82-7.16c0-.376.28-.681.625-.681s.625.305.625.682v4.772c0 .377-.28.682-.625.682-.346 0-.626-.304-.626-.681V4.09zm-.312 7.842c0 .564.42 1.022.937 1.022s.938-.458.938-1.022-.42-1.023-.938-1.023c-.517 0-.937.458-.937 1.023" clip-rule="evenodd"/></svg>