<svg xmlns="http://www.w3.org/2000/svg" xmlns:xlink="http://www.w3.org/1999/xlink" width="17" height="17"><defs><filter id="b" width="100.1%" height="100.2%" x="0%" y="-.1%" filterUnits="objectBoundingBox"><feOffset dy="-1" in="SourceAlpha" result="shadowOffsetInner1"/><feComposite in="shadowOffsetInner1" in2="SourceAlpha" k2="-1" k3="1" operator="arithmetic" result="shadowInnerInner1"/><feColorMatrix in="shadowInnerInner1" values="0 0 0 0 0.8 0 0 0 0 0.8 0 0 0 0 0.8 0 0 0 1 0"/></filter><filter id="d" width="101%" height="101.9%" x="-.5%" y="-.7%" filterUnits="objectBoundingBox"><feOffset dy="1" in="SourceAlpha" result="shadowOffsetOuter1"/><feGaussianBlur in="shadowOffsetOuter1" result="shadowBlurOuter1" stdDeviation="1"/><feColorMatrix in="shadowBlurOuter1" values="0 0 0 0 0 0 0 0 0 0 0 0 0 0 0 0 0 0 0.2 0"/></filter><filter id="e" width="100.7%" height="101.4%" x="-.4%" y="-.4%" filterUnits="objectBoundingBox"><feOffset dy="1" in="SourceAlpha" result="shadowOffsetInner1"/><feComposite in="shadowOffsetInner1" in2="SourceAlpha" k2="-1" k3="1" operator="arithmetic" result="shadowInnerInner1"/><feColorMatrix in="shadowInnerInner1" values="0 0 0 0 0.866666667 0 0 0 0 0.866666667 0 0 0 0 0.866666667 0 0 0 1 0"/></filter><filter id="g" width="100.1%" height="101.4%" x="-.1%" y="-.7%" filterUnits="objectBoundingBox"><feOffset dy="-1" in="SourceAlpha" result="shadowOffsetInner1"/><feComposite in="shadowOffsetInner1" in2="SourceAlpha" k2="-1" k3="1" operator="arithmetic" result="shadowInnerInner1"/><feColorMatrix in="shadowInnerInner1" values="0 0 0 0 0.933333333 0 0 0 0 0.933333333 0 0 0 0 0.933333333 0 0 0 1 0"/></filter><path id="a" d="M0 0h1442v442H0z"/><path id="c" d="M0 0h681v356a4 4 0 0 1-4 4H4a4 4 0 0 1-4-4z"/><path id="f" d="M0 0h681v70H0z"/></defs><g fill="none" fill-rule="evenodd"><path fill="#f4f4f0" d="M-271-125h1440V875H-271z"/><g fill-rule="nonzero" transform="translate(-271 -4)"><use xlink:href="#a" fill="#f4f4f0"/><use xlink:href="#a" fill="#000" filter="url(#b)"/></g><path fill="#000" fill-opacity=".2" fill-rule="nonzero" d="M-271-75h1442v953H-271z"/><g transform="translate(-20 -18)"><use xlink:href="#c" fill="#000" filter="url(#d)"/><use xlink:href="#c" fill="#FFF"/><use xlink:href="#c" fill="#000" filter="url(#e)"/></g><use xlink:href="#f" fill="#000" filter="url(#g)" transform="translate(-20 -18)"/><path fill="#959595" fill-rule="nonzero" d="M15.583 0H1.417C.634 0 0 .634 0 1.417V4.25h17V1.417C17 .634 16.366 0 15.583 0M0 14.167c0 .782.634 1.416 1.417 1.416h14.166c.783 0 1.417-.634 1.417-1.416v-8.5H0zm6.375-7.084h4.25a.708.708 0 0 1 0 1.417h-4.25a.708.708 0 1 1 0-1.417"/></g></svg>