<svg xmlns="http://www.w3.org/2000/svg" width="17" height="16"><path fill="#797874" fill-rule="evenodd" d="M7.668 1.492a5.107 5.107 0 0 1 7.215 0 5.11 5.11 0 0 1 0 7.216l-2.193 2.193-1.414-1.414 2.193-2.194a3.105 3.105 0 0 0 0-4.386A3.1 3.1 0 0 0 11.276 2c-.795 0-1.589.302-2.193.907L6.889 5.1 5.475 3.685zm-2.334 9.55a.997.997 0 0 0 1.415 0l4.667-4.669a1 1 0 0 0-1.414-1.414L5.334 9.627a1 1 0 0 0 0 1.414Zm2.334 2.051a3.105 3.105 0 0 1-4.386 0 3.105 3.105 0 0 1 0-4.386l2.193-2.193L4.06 5.099 1.867 7.293a5.11 5.11 0 0 0 0 7.215A5.1 5.1 0 0 0 5.474 16a5.1 5.1 0 0 0 3.607-1.492l2.194-2.193L9.86 10.9z" clip-rule="evenodd"/></svg>