<svg xmlns="http://www.w3.org/2000/svg" width="129" height="128" fill="none"><path fill="#FFC900" fill-rule="evenodd" d="m18.45 37.748-9.66-5.6c11.724-20.387 31.76-32 55.207-32V11.28c-19.48 0-36.482 10.65-45.547 26.467Z" clip-rule="evenodd"/><path fill="#23A094" fill-rule="evenodd" d="m18.581 90.475-9.788 5.673c-11.724-20.386-11.724-43.613 0-64l9.66 5.6C14.023 45.478 11.49 54.442 11.49 64c0 9.65 2.582 18.695 7.091 26.475" clip-rule="evenodd"/><path fill="#B23386" fill-rule="evenodd" d="M63.997 116.718V128C40.55 128 20.514 116.387 8.79 96l9.724-5.636c9.08 15.755 26.049 26.354 45.483 26.354" clip-rule="evenodd"/><path fill="#FF90E8" fill-rule="evenodd" d="M109.478 90.364 119.202 96c-11.724 20.387-31.76 32-55.207 32v-11.282c19.434 0 36.403-10.599 45.483-26.355Z" clip-rule="evenodd"/><path fill="#90A8ED" fill-rule="evenodd" d="m109.488 37.637 9.724-5.636c11.724 20.386 11.724 43.613 0 64l-9.724-5.637c4.47-7.755 7.028-16.76 7.028-26.363 0-9.605-2.558-18.609-7.028-26.364" clip-rule="evenodd"/><path fill="#FF7051" fill-rule="evenodd" d="M109.478 37.636 119.202 32C107.478 11.613 87.442 0 63.995 0v11.281c19.434 0 36.403 10.6 45.483 26.355" clip-rule="evenodd"/></svg>