<svg xmlns="http://www.w3.org/2000/svg" width="81" height="81" fill="none"><path fill="#000" d="M43.741 80.186c20.455 0 37.037-16.582 37.037-37.037S64.196 6.112 43.741 6.112 6.704 22.694 6.704 43.149s16.582 37.037 37.037 37.037"/><path fill="#FF90E8" stroke="#000" stroke-width="1.557" d="M38.605 76.433c20.892 0 37.828-16.936 37.828-37.828 0-20.89-16.936-37.827-37.828-37.827C17.715.778.779 17.714.779 38.606c0 20.89 16.936 37.827 37.828 37.827Z"/><path fill="#000" d="M35.392 57.272c-10.849 0-17.23-8.701-17.23-19.526 0-11.249 7.02-20.375 20.421-20.375 13.828 0 18.508 9.339 18.72 14.645h-9.998c-.213-2.972-2.765-7.429-8.935-7.429-6.594 0-10.849 5.73-10.849 12.735s4.255 12.734 10.85 12.734c5.956 0 8.509-4.67 9.572-9.338H38.37v-3.82h20.087v19.525h-8.812v-12.31c-.638 4.458-3.404 13.16-14.253 13.16Z"/></svg>