<svg xmlns="http://www.w3.org/2000/svg" width="22" height="21"><path fill="#FFF" d="m11.99 4 .005.149A2.003 2.003 0 0 0 13.99 6H15v1.018c0 1.102.898 2 2 2v9.149a2.834 2.834 0 0 1-2.66 2.828l-.173.005H2.833a2.834 2.834 0 0 1-2.828-2.66L0 18.166v-6.375h1.417v5.666c0 .39.318.709.708.709a.71.71 0 0 0 .702-.613l.006-.096V4zm1.468 12.75H6.375a.71.71 0 0 0-.708.708.71.71 0 0 0 .612.702l.096.007h7.083a.71.71 0 0 0 .709-.709.71.71 0 0 0-.709-.708m0-2.833H6.375a.71.71 0 0 0-.708.708.71.71 0 0 0 .612.702l.096.006h7.083a.71.71 0 0 0 .709-.708.71.71 0 0 0-.709-.708m.709-7.084h-8.5v4.959h8.5zM17 .006c.55 0 1 .45 1 1V3h2.074c.55 0 1 .45 1 1s-.45 1-1 1H18v2.018c0 .51-.388.935-.884.993L17 8.018c-.55 0-1-.45-1-1V5h-2.01c-.55 0-1-.45-1-1s.45-1 1-1H16V1.006c0-.55.45-1 1-1"/></svg>