<svg xmlns="http://www.w3.org/2000/svg" xml:space="preserve" viewBox="0 0 512 512"><path d="M494.4 169.3c-12-9.8-28.5-23.2-46.4-37.7v41.1c11.1 8.9 20.3 16.4 26.1 21.2 3.7 3 5.9 7.6 5.9 12.4V464c0 8.8-7.2 16-16 16H48c-8.8 0-16-7.2-16-16V206.2c0-4.8 2.2-9.4 5.9-12.4 5.8-4.8 15-12.2 26.1-21.2v-41c-17.9 14.5-34.4 27.9-46.4 37.7C6.5 178.4 0 192 0 206.4V464c0 26.5 21.5 48 48 48h416c26.5 0 48-21.5 48-48V206.4c0-14.4-6.5-28-17.6-37.1"/><path d="M400 49.9H112c-26.5 0-48 21.5-48 48v157.5c4.3-3.2 10.3-3.2 14.6.3 5.2 4.2 11 8.9 17.4 14V97.9c0-8.8 7.2-16 16-16h288c8.8 0 16 7.2 16 16v171.8c6.3-5.1 12.1-9.7 17.4-14 4.3-3.5 10.4-3.5 14.6-.3V97.9c0-26.5-21.5-48-48-48M256 32c12.1 0 26.3 8.1 39.7 17.9h50.7C325.1 32.4 291.3 0 256 0c-35.1 0-68.4 31.8-90.4 49.9h50.7C229.7 40.1 244 32 256 32"/><path d="M455.2 263.7c4.2 5.2 3.4 12.7-1.8 16.9-22.8 18.4-55.1 44.2-104.2 83.1-21 16.8-56.9 52.5-93.3 52.3-36.6.3-72.8-35.9-93.3-52.3-49-38.9-81.3-64.7-104.1-83.1-5.2-4.2-6-11.7-1.8-16.9l5-6.2c4.2-5.1 11.7-5.9 16.8-1.8 22.8 18.4 55 44.1 103.9 83 16.9 13.4 50.2 45.7 73.4 45.3 23.2.4 56.6-31.9 73.4-45.3 48.9-38.8 81.2-64.6 103.9-83 5.1-4.2 12.7-3.4 16.8 1.8z"/><path d="M160 269.9v-8c0-6.6 5.4-12 12-12h168c6.6 0 12 5.4 12 12v8c0 6.6-5.4 12-12 12H172c-6.6 0-12-5.4-12-12m0-64v-8c0-6.6 5.4-12 12-12h168c6.6 0 12 5.4 12 12v8c0 6.6-5.4 12-12 12H172c-6.6 0-12-5.4-12-12m0-64v-8c0-6.6 5.4-12 12-12h168c6.6 0 12 5.4 12 12v8c0 6.6-5.4 12-12 12H172c-6.6 0-12-5.4-12-12"/></svg>