<svg xmlns="http://www.w3.org/2000/svg" width="50" height="14" fill="none"><path fill="#000" d="M5.968.001H2.1a.54.54 0 0 0-.531.454l-1.565 9.92a.322.322 0 0 0 .32.372H2.17c.265 0 .49-.193.531-.454l.422-2.676a.54.54 0 0 1 .53-.454h1.225c2.549 0 4.02-1.233 4.403-3.677.173-1.07.008-1.91-.493-2.497C8.238.343 7.263 0 5.968 0Zm.447 3.623c-.212 1.388-1.273 1.388-2.298 1.388h-.584l.41-2.592a.32.32 0 0 1 .318-.272h.268c.698 0 1.357 0 1.698.398.203.237.265.59.188 1.078m11.117-.045H15.68a.32.32 0 0 0-.319.272l-.082.518-.13-.188c-.4-.582-1.295-.777-2.188-.777-2.047 0-3.795 1.55-4.136 3.726-.177 1.085.075 2.122.69 2.846.565.665 1.373.942 2.334.942 1.65 0 2.564-1.06 2.564-1.06l-.083.514a.322.322 0 0 0 .318.373h1.669c.265 0 .49-.192.531-.454l1.001-6.34a.32.32 0 0 0-.317-.372M14.95 7.184c-.179 1.058-1.019 1.769-2.09 1.769-.538 0-.968-.173-1.244-.5-.274-.324-.378-.786-.29-1.301.166-1.05 1.02-1.783 2.075-1.783.526 0 .954.175 1.235.504.283.334.395.799.314 1.311M27.398 3.58h-1.861a.54.54 0 0 0-.445.235l-2.568 3.782-1.088-3.634a.54.54 0 0 0-.516-.384h-1.83a.323.323 0 0 0-.305.427l2.05 6.017-1.928 2.721a.322.322 0 0 0 .263.51h1.86a.54.54 0 0 0 .441-.231l6.192-8.938a.322.322 0 0 0-.265-.506ZM33.562.001h-3.87a.54.54 0 0 0-.53.454l-1.565 9.92a.322.322 0 0 0 .318.372h1.986a.376.376 0 0 0 .37-.318l.445-2.812a.54.54 0 0 1 .53-.454h1.224c2.55 0 4.02-1.233 4.404-3.677.174-1.07.007-1.91-.494-2.497C35.83.343 34.856 0 33.561 0Zm.446 3.623c-.211 1.388-1.272 1.388-2.298 1.388h-.583l.41-2.592a.32.32 0 0 1 .318-.272h.268c.698 0 1.357 0 1.698.398.203.237.264.59.187 1.078m11.117-.045h-1.852a.32.32 0 0 0-.317.272l-.082.518-.13-.188c-.401-.582-1.295-.777-2.188-.777-2.047 0-3.795 1.55-4.135 3.726-.177 1.085.074 2.122.69 2.846.565.665 1.371.942 2.333.942 1.649 0 2.564-1.06 2.564-1.06l-.083.514a.322.322 0 0 0 .319.373h1.668c.264 0 .49-.192.53-.454l1.002-6.34a.323.323 0 0 0-.32-.372Zm-2.582 3.605c-.178 1.058-1.019 1.769-2.09 1.769-.537 0-.968-.173-1.244-.5-.274-.324-.377-.786-.291-1.301.168-1.05 1.021-1.783 2.076-1.783.526 0 .954.175 1.235.504.284.334.396.799.314 1.311M47.309.273 45.72 10.374a.322.322 0 0 0 .318.372h1.596c.265 0 .49-.192.531-.454l1.566-9.92A.322.322 0 0 0 49.414 0h-1.787a.32.32 0 0 0-.318.273"/></svg>