<svg xmlns="http://www.w3.org/2000/svg" width="409" height="406" fill="none"><circle cx="221.5" cy="218.5" r="187.5" fill="#000"/><circle cx="195.5" cy="195.5" r="191.5" fill="#FF90E8" stroke="#000" stroke-width="8"/><path fill="#000" d="M179.232 290C124.308 290 92 245.947 92 191.149 92 134.202 127.539 88 195.386 88c70.002 0 93.694 47.277 94.771 74.139h-50.616c-1.077-15.043-14-37.607-45.232-37.607-33.385 0-54.924 29.011-54.924 64.468s21.539 64.468 54.924 64.468c30.155 0 43.078-23.638 48.463-47.276h-48.463v-19.341H296v98.851h-44.613v-62.319C248.157 245.947 234.156 290 179.232 290"/></svg>