<svg xmlns="http://www.w3.org/2000/svg" width="17" height="12"><g fill="none"><path fill="#DDD" d="m6.745 8.21 4.591-2.381-4.59-2.41v4.79ZM8.5 0q1.594 0 3.078.043 1.485.043 2.177.09l.693.038.161.015q.152.015.218.028.067.015.223.043.157.03.27.076.114.048.266.124t.294.186a2.3 2.3 0 0 1 .422.428q.09.12.275.558t.252.961q.076.61.118 1.3.043.69.053 1.081v1.677q.009 1.38-.171 2.762a3.8 3.8 0 0 1-.237.947q-.17.424-.304.586l-.133.162q-.132.143-.275.252a1.6 1.6 0 0 1-.294.181q-.152.071-.266.12a1.3 1.3 0 0 1-.27.075l-.228.043a6 6 0 0 1-.375.043q-2.381.18-5.947.181a173 173 0 0 1-3.41-.062 74 74 0 0 1-1.902-.071l-.465-.038-.342-.039a5 5 0 0 1-.517-.095 3 3 0 0 1-.483-.2 1.9 1.9 0 0 1-.683-.566q-.09-.12-.275-.558A3.6 3.6 0 0 1 .17 9.41Q.094 8.8.052 8.11T0 7.029V5.352q-.009-1.38.171-2.762.067-.524.237-.947.17-.424.304-.586L.845.895Q.977.752 1.12.643t.294-.186q.152-.076.266-.124.113-.047.27-.076t.223-.043a6 6 0 0 1 .38-.043Q4.933 0 8.5 0"/><path d="M0 0h17v12H0z"/></g></svg>