<svg xmlns="http://www.w3.org/2000/svg" width="370" height="423"><g fill="none"><path stroke="#000" stroke-width="30" d="M76.667 15.979v318.896c0 9.438-6.028 16.202-14.186 19.023-4.908 1.698-10.51 1.975-16.095 1.148-5.363-.794-10.603-2.605-14.902-5.365-5.176-3.324-9.058-8.002-10.437-13.875l-4.395-8.13-1.652.033V352.5c0 31.063 21.375 55.5 46.667 55.5h246.666C333.625 408 355 383.563 355 352.5V15H90.529zM15 324.619l-2.696-4.986L15 321.204z"/><path fill="#000" d="M142 258.375v-7.75c0-6.394 4.331-11.625 9.625-11.625h134.75c5.294 0 9.625 5.231 9.625 11.625v7.75c0 6.394-4.331 11.625-9.625 11.625h-134.75c-5.294 0-9.625-5.231-9.625-11.625m-19 65v-7.75c0-6.394 4.331-11.625 9.625-11.625h134.75c5.294 0 9.625 5.231 9.625 11.625v7.75c0 6.394-4.331 11.625-9.625 11.625h-134.75c-5.294 0-9.625-5.231-9.625-11.625m19-127v-7.75c0-6.394 4.331-11.625 9.625-11.625h134.75c5.294 0 9.625 5.231 9.625 11.625v7.75c0 6.394-4.331 11.625-9.625 11.625h-134.75c-5.294 0-9.625-5.231-9.625-11.625m0-62v-7.75c0-6.394 4.331-11.625 9.625-11.625h134.75c5.294 0 9.625 5.231 9.625 11.625v7.75c0 6.394-4.331 11.625-9.625 11.625h-134.75c-5.294 0-9.625-5.231-9.625-11.625"/></g></svg>