<svg xmlns="http://www.w3.org/2000/svg" width="217" height="18" fill="none"><path fill="#000" d="M2.688 9.392H6.16c2.32 0 3.632-1.552 3.632-3.296C9.792 4.304 8.528 2.8 6.16 2.8H1.216V14h1.472zm0-1.392V4.192h3.344c1.28 0 2.208.656 2.208 1.904S7.312 8 6.032 8zm11.838 6.16c2.304 0 3.856-1.712 3.856-3.952s-1.536-3.952-3.856-3.952c-2.304 0-3.84 1.712-3.84 3.952s1.536 3.952 3.84 3.952m0-1.248c-1.408 0-2.432-1.104-2.432-2.704 0-1.584 1.024-2.704 2.432-2.704 1.424 0 2.432 1.12 2.432 2.704 0 1.6-1.008 2.704-2.432 2.704m5.934-6.496H19.1L21.356 14h1.728l1.68-5.824L26.444 14h1.712l2.256-7.584h-1.36l-1.776 6.24-1.712-6.24h-1.616l-1.712 6.24zm14.55 6.528c-1.248 0-2.4-.8-2.416-2.528h5.488c.064-.288.096-.592.096-.928 0-2.016-1.376-3.232-3.376-3.232-2.192 0-3.616 1.744-3.616 3.904 0 2.48 1.6 4 3.824 4 1.824 0 2.896-.976 3.392-2.448l-1.2-.464c-.288 1.056-.992 1.696-2.192 1.696m-.224-5.472c1.072 0 2.032.576 2.032 1.728 0 .08-.016.144-.016.224h-4.208c.16-1.216 1.04-1.952 2.192-1.952m5.224-1.056V14h1.376V9.168c0-1.024.543-1.696 1.407-1.696.736 0 1.217.416 1.217 1.136 0 .208-.017.336-.048.56h1.343c.065-.256.096-.496.096-.848 0-1.104-.8-2.064-2.08-2.064-.944 0-1.6.48-1.935 1.264V6.416zm10.266 6.528c-1.248 0-2.4-.8-2.416-2.528h5.488c.064-.288.096-.592.096-.928 0-2.016-1.376-3.232-3.376-3.232-2.192 0-3.616 1.744-3.616 3.904 0 2.48 1.6 4 3.824 4 1.824 0 2.896-.976 3.392-2.448l-1.2-.464c-.288 1.056-.992 1.696-2.192 1.696m-.224-5.472c1.072 0 2.032.576 2.032 1.728 0 .08-.016.144-.016.224H47.86c.16-1.216 1.04-1.952 2.192-1.952m8.311 6.688c1.2 0 2.128-.64 2.624-1.52V14h1.328V2.8h-1.392v4.992c-.464-.896-1.376-1.536-2.592-1.536-2.064 0-3.52 1.632-3.52 4 0 2.32 1.456 3.904 3.552 3.904m.224-1.232c-1.2 0-2.4-.912-2.4-2.688 0-1.76 1.2-2.736 2.4-2.736 1.152 0 2.4.992 2.4 2.736 0 1.76-1.248 2.688-2.4 2.688M68.37 2.8V14h1.312v-1.248c.528.864 1.488 1.408 2.592 1.408 2.096 0 3.584-1.536 3.584-3.904s-1.376-4-3.424-4a3.1 3.1 0 0 0-2.688 1.584V2.8zm1.312 7.44c0-1.744 1.2-2.736 2.4-2.736 1.248 0 2.4.976 2.4 2.736s-1.152 2.688-2.4 2.688c-1.2 0-2.4-.944-2.4-2.688m12.616-3.824-2.256 4.992-2.128-4.992H76.41l2.896 6.608-1.872 4.144h1.472L83.77 6.416zM166.297 0c-2.583 0-5.107 2.339-5.398 5.718V.278h-3.708v16.4h3.754V8.74c0-2.223 1.576-5.36 5.352-5.36zm39.377 14.053V2.817h2.174c2.9 0 5.256 1.813 5.256 5.528s-2.356 5.708-5.256 5.708zm-3.715 2.628h6.342c3.897 0 8.699-2.537 8.699-8.336 0-5.709-4.802-8.065-8.699-8.065h-6.342v16.4Zm-14.215-8.155c0-2.99 1.54-5.437 4.077-5.437 2.447 0 3.806 2.447 3.806 5.437s-1.359 5.437-3.806 5.437c-2.537 0-4.077-2.447-4.077-5.437m-3.806.181c0 4.893 2.537 8.336 6.524 8.336 2.899 0 4.621-1.902 5.527-4.983v4.62h3.714V.28h-3.714v4.35c-.815-2.9-2.537-4.621-5.255-4.621-4.078 0-6.796 3.715-6.796 8.698M99.34 17.043c-4.622 0-7.34-3.715-7.34-8.336C92 3.905 94.99.01 100.699.01c5.889 0 7.883 3.986 7.973 6.252h-4.258c-.091-1.269-1.178-3.172-3.806-3.172-2.809 0-4.621 2.447-4.621 5.437s1.812 5.437 4.621 5.437c2.537 0 3.624-1.994 4.078-3.987h-4.078V8.345h8.556v8.336h-3.754v-5.256c-.271 1.903-1.449 5.618-6.07 5.618m17.434 0c-3.534 0-5.708-2.355-5.708-7.067V.28h3.805v9.696c0 2.446 1.178 3.624 3.172 3.624 3.896 0 5.346-4.802 5.346-8.155V.28h3.805v16.4h-3.715v-6.07c-.725 3.353-2.718 6.433-6.705 6.433M149.936 0c-3.247 0-5.295 3.136-5.963 6.037C143.858 2.15 141.947 0 138.889 0c-2.642 0-5.093 2.356-5.73 6.083V.28h-3.71v16.4h3.758V10.8c0-1.457.608-7.44 4.39-7.44 2.45 0 2.706 2.211 2.706 5.232v8.088h3.755V10.8c0-1.457.633-7.44 4.416-7.44 2.448 0 2.701 2.211 2.701 5.232v8.088h3.761V6.979c.017-4.654-1.626-6.979-5-6.979m24.422 0c-4.865 0-8.161 3.814-8.161 8.522 0 5.187 3.135 8.521 8.161 8.521 4.864 0 8.219-3.814 8.219-8.521 0-5.187-3.196-8.522-8.219-8.522m0 14.14c-2.832 0-4.666-2.397-4.666-5.618s1.84-5.619 4.666-5.619c2.825 0 4.592 2.397 4.592 5.619s-1.769 5.618-4.592 5.618"/></svg>