<svg xmlns="http://www.w3.org/2000/svg" width="161" height="137" fill="none"><path fill="#F1F333" stroke="#000" stroke-miterlimit="10" stroke-width="2" d="M141.132 17.52c-19.56-6.619-51.497 1.055-81.144 21.302s-48.432 47.19-49.399 67.813l-4.861 3.327 9.192 13.466c13.846 20.273 56.472 15.282 95.2-11.163s58.914-64.323 45.074-84.57l-9.193-13.465z"/><path fill="#F1F333" stroke="#000" stroke-miterlimit="10" stroke-width="2" d="M100.919 98.803c38.734-26.443 58.909-64.32 45.064-84.601-13.846-20.28-56.47-15.285-95.204 11.159C12.046 51.804-8.13 89.682 5.716 109.963c13.846 20.28 56.47 15.284 95.203-11.16Z"/><path fill="#F1F333" stroke="#000" stroke-miterlimit="10" stroke-width="2" d="M92.813 86.917c30.539-20.85 47.31-49.449 37.458-63.879-9.851-14.43-42.594-9.226-73.133 11.623-30.54 20.85-47.31 49.45-37.46 63.88 9.852 14.429 42.595 9.225 73.135-11.624Z"/></svg>