<svg xmlns="http://www.w3.org/2000/svg" width="165" height="247" fill="none"><path fill="#F1F333" stroke="#000" stroke-miterlimit="10" stroke-width="2" d="M40.784 16.669c-18.157 23.52-22.654 70.568-8.97 120.381s41.558 87.976 69.169 98.939l2.253 8.172 22.624-6.211c34.063-9.357 47.21-69.694 29.341-134.763-17.87-65.07-59.97-110.255-93.994-100.892l-22.624 6.21z"/><path fill="#F1F333" stroke="#000" stroke-miterlimit="10" stroke-width="2" d="M132.58 109.408C114.715 44.333 72.61-.839 38.537 8.515S-8.675 78.206 9.19 143.282s59.97 110.247 94.042 100.893 47.213-69.691 29.348-134.767Z"/><path fill="#F1F333" stroke="#000" stroke-miterlimit="10" stroke-width="2" d="M112.612 114.88c-14.085-51.309-45.157-87.507-69.4-80.852S10.733 87.673 24.819 138.981s45.158 87.507 69.401 80.852c24.244-6.656 32.478-53.645 18.392-104.953Z"/></svg>