<svg xmlns="http://www.w3.org/2000/svg" width="163" height="145" fill="none"><path fill="#F1F333" stroke="#000" stroke-miterlimit="10" stroke-width="2" d="M150.932 115.803c.231-21.273-17.492-50.102-46.798-72.669s-61.699-32.355-82.208-26.71l-4.812-3.699L6.861 26.033c-15.432 20.04 3.08 60.195 41.36 89.676 38.28 29.48 81.831 37.146 97.238 17.119l10.251-13.308z"/><path fill="#F1F333" stroke="#000" stroke-miterlimit="10" stroke-width="2" d="M58.467 102.395c38.28 29.486 81.827 37.142 97.266 17.099s-3.077-60.195-41.357-89.681S32.549-7.329 17.11 12.714s3.077 60.195 41.357 89.681Z"/><path fill="#F1F333" stroke="#000" stroke-miterlimit="10" stroke-width="2" d="M67.519 90.656c30.181 23.248 63.553 30.534 74.538 16.274 10.985-14.261-4.577-44.669-34.758-67.917S43.745 8.479 32.76 22.74s4.577 44.668 34.759 67.916Z"/></svg>