<svg xmlns="http://www.w3.org/2000/svg" width="118" height="87" fill="none"><path fill="#F1F333" stroke="#000" stroke-miterlimit="10" stroke-width="2" d="M111.04 60.978C107.948 47 91.937 30.81 69.29 20.49S23.924 8.696 11.344 15.523l-3.718-1.69-4.688 10.284c-7.057 15.486 11.197 38.978 40.779 52.46 29.58 13.483 59.29 11.865 66.333-3.608l4.689-10.284z"/><path fill="#F1F333" stroke="#000" stroke-miterlimit="10" stroke-width="2" d="M48.4 66.29c29.583 13.487 59.288 11.863 66.349-3.626S103.554 23.686 73.972 10.2 14.684-1.663 7.622 13.827C.563 29.315 18.819 52.804 48.402 66.29Z"/><path fill="#F1F333" stroke="#000" stroke-miterlimit="10" stroke-width="2" d="M52.541 57.218c23.324 10.633 46.305 10.319 51.329-.702 5.024-11.02-9.81-28.574-33.135-39.207-23.324-10.634-46.304-10.32-51.329.701-5.024 11.02 9.811 28.575 33.135 39.208Z"/></svg>