<svg xmlns="http://www.w3.org/2000/svg" width="277" height="185" fill="none"><path fill="#F1F333" stroke="#000" stroke-miterlimit="10" stroke-width="2" d="M258.185 45.657c-26.51-20.212-79.323-24.941-135.117-9.256-55.794 15.686-98.422 47.215-110.536 78.266l-9.153 2.582 7.12 25.34c10.725 38.153 78.507 52.498 151.388 32.014 72.882-20.484 123.294-68.02 112.562-106.129l-7.12-25.34z"/><path fill="#F1F333" stroke="#000" stroke-miterlimit="10" stroke-width="2" d="M154.755 149.265c72.889-20.479 123.285-68.019 112.562-106.183s-78.504-52.5-151.393-32.021C43.034 31.54-7.361 79.08 3.362 117.244s78.504 52.501 151.393 32.021Z"/><path fill="#F1F333" stroke="#000" stroke-miterlimit="10" stroke-width="2" d="M148.483 126.902c57.469-16.147 97.872-51.25 90.243-78.404s-60.403-36.077-117.872-19.93-97.872 51.249-90.242 78.403 60.402 36.078 117.871 19.931Z"/></svg>