<svg xmlns="http://www.w3.org/2000/svg" width="113" height="97" fill="none"><path fill="#F1F333" stroke="#000" stroke-miterlimit="10" stroke-width="2" d="M98.179 12.503c-13.606-4.45-35.69 1.096-56.097 15.34S8.845 60.898 8.32 75.2l-3.346 2.34 6.467 9.27c9.741 13.954 39.253 10.193 65.911-8.412 26.659-18.606 40.383-45.005 30.646-58.941l-6.468-9.27z"/><path fill="#F1F333" stroke="#000" stroke-miterlimit="10" stroke-width="2" d="M70.88 69.131c26.662-18.604 40.379-45.002 30.638-58.962S62.266-.027 35.604 18.578C8.942 37.182-4.775 63.58 4.966 77.54s39.252 10.196 65.914-8.409Z"/><path fill="#F1F333" stroke="#000" stroke-miterlimit="10" stroke-width="2" d="M65.176 60.95C86.197 46.28 97.62 26.336 90.689 16.404c-6.93-9.933-29.59-6.094-50.612 8.574-21.022 14.67-32.444 34.613-25.514 44.546s29.591 6.094 50.613-8.575Z"/></svg>