<svg xmlns="http://www.w3.org/2000/svg" width="24" height="24"><defs><filter id="a" width="200%" height="200%" x="-50%" y="-50%" filterUnits="objectBoundingBox"><feOffset dx=".5" dy=".5" in="SourceAlpha" result="shadowOffsetOuter1"/><feGaussianBlur in="shadowOffsetOuter1" result="shadowBlurOuter1"/><feColorMatrix in="shadowBlurOuter1" result="shadowMatrixOuter1" values="0 0 0 0 0 0 0 0 0 0 0 0 0 0 0 0 0 0 0.07 0"/><feMerge><feMergeNode in="shadowMatrixOuter1"/><feMergeNode in="SourceGraphic"/></feMerge></filter></defs><g fill="none" fill-rule="evenodd" transform="translate(1 1)"><circle cx="11" cy="11" r="11" fill="#C04355" stroke="#A43646"/><path fill="#FFF" d="m13.066 11.097 1.857-1.857a.75.75 0 0 0 0-1.061l-1.06-1.06a.76.76 0 0 0-1.061 0l-1.857 1.857-1.852-1.858a.76.76 0 0 0-1.06 0L6.965 8.18a.76.76 0 0 0 0 1.06l1.857 1.858-1.851 1.857a.75.75 0 0 0 0 1.06l1.06 1.061a.76.76 0 0 0 1.061 0l1.852-1.857 1.857 1.857a.76.76 0 0 0 1.06 0l1.061-1.06a.75.75 0 0 0 0-1.06l-1.857-1.858Z" filter="url(#a)"/></g></svg>