<svg xmlns="http://www.w3.org/2000/svg" width="20" height="20" fill="none"><path fill="#959595" d="M8.184.165a.834.834 0 0 1 .301 1.64A8.33 8.33 0 0 0 1.668 10c0 4.594 3.738 8.333 8.333 8.333s8.333-3.739 8.333-8.333a8.29 8.29 0 0 0-3.342-6.66l-1.486 1.486A.59.59 0 0 1 12.5 4.41V0h4.41a.59.59 0 0 1 .417 1.006l-1.14 1.139A9.95 9.95 0 0 1 20 10c0 5.514-4.486 10-10 10S0 15.514 0 10A9.996 9.996 0 0 1 8.184.165"/><path fill="#959595" d="M8.143 13.518V7.333h-.998a1.4 1.4 0 0 1-.221.592q-.167.24-.416.389a1.7 1.7 0 0 1-.547.203q-.3.053-.628.044v.946h1.555v4.011zm5.864-5.151V7.333h-3.455l-.61 3.42h1.131q.186-.257.398-.371.212-.124.548-.124a1 1 0 0 1 .786.336q.141.16.212.37.07.213.07.451 0 .23-.079.45a1.2 1.2 0 0 1-.212.38.97.97 0 0 1-.777.362 1 1 0 0 1-.698-.246 1.04 1.04 0 0 1-.318-.68H9.748q.009.485.194.856.194.363.513.61.318.247.724.371.416.115.866.115.468.009.884-.15a2.2 2.2 0 0 0 .724-.469 2.16 2.16 0 0 0 .69-1.6q0-.43-.133-.812a1.9 1.9 0 0 0-.371-.671 1.7 1.7 0 0 0-.592-.45 1.9 1.9 0 0 0-.813-.169q-.37 0-.663.115-.291.106-.548.363l-.017-.018.247-1.405z"/></svg>