<svg xmlns="http://www.w3.org/2000/svg" width="18" height="18"><g fill="none" fill-rule="evenodd"><path fill="#015157" d="M9 9.04 1.26 4.555C2.902 1.696 5.711.067 9 .067v8.974"/><path fill="#218488" d="m9 9.04-7.74 4.488c-1.644-2.859-1.644-6.116 0-8.974L9 9.041"/><path fill="#962422" d="M9 9.02v8.974c-3.288 0-6.097-1.629-7.74-4.487z"/><path fill="#CB3246" d="m9 9.02 7.74 4.487c-1.643 2.858-4.452 4.487-7.74 4.487z"/><path fill="#EC5E47" d="m9 9.02 7.74-4.487c1.644 2.859 1.644 6.115 0 8.974z"/><path fill="#F19D1F" d="M9 .047c3.288 0 6.097 1.628 7.74 4.486L9 9.02z"/><path fill="#FFF" d="M16.363 9.02c0 4.082-3.297 7.392-7.363 7.392s-7.363-3.31-7.363-7.392S4.934 1.628 9 1.628s7.363 3.31 7.363 7.392"/></g></svg>