<svg xmlns="http://www.w3.org/2000/svg" width="33" height="23"><g fill="none" fill-rule="evenodd" transform="translate(1 1)"><rect width="28.638" height="20" fill="#DDD" stroke="#CCC" rx="4"/><path fill="#979797" d="M28.966 18.847h1.931c.302 0 .552-.25.552-.552v-1.103a.553.553 0 0 0-.552-.552h-1.93v-1.931a.556.556 0 0 0-.552-.552H27.31a.556.556 0 0 0-.552.552v1.931h-1.93a.556.556 0 0 0-.552.552v1.103c0 .302.25.552.551.552h1.931v1.93c0 .303.25.553.552.553h1.104c.301 0 .551-.25.551-.552v-1.931Z"/><path fill="#999" d="M11.802 9.53h1.42a2.6 2.6 0 0 0-.318-1.016 2.5 2.5 0 0 0-.64-.744 2.8 2.8 0 0 0-.878-.457 3.4 3.4 0 0 0-1.04-.157q-.766 0-1.378.268a2.95 2.95 0 0 0-1.032.739q-.42.471-.645 1.104a4.1 4.1 0 0 0-.224 1.371q0 .72.224 1.344a3.2 3.2 0 0 0 .645 1.086q.42.462 1.032.725.611.263 1.377.263a3.3 3.3 0 0 0 1.13-.185q.514-.184.897-.535.382-.351.616-.85t.29-1.118h-1.42q-.084.664-.462 1.072-.379.406-1.05.406-.495 0-.841-.19a1.6 1.6 0 0 1-.56-.503 2.2 2.2 0 0 1-.314-.706 3.3 3.3 0 0 1-.098-.809q0-.434.098-.84.099-.407.313-.725a1.6 1.6 0 0 1 .56-.508q.346-.19.841-.19a1.54 1.54 0 0 1 .962.333q.196.157.327.365.13.207.168.457m7.587 0h1.42a2.6 2.6 0 0 0-.318-1.016 2.5 2.5 0 0 0-.64-.744 2.8 2.8 0 0 0-.877-.457 3.4 3.4 0 0 0-1.042-.157q-.766 0-1.377.268a2.95 2.95 0 0 0-1.032.739 3.3 3.3 0 0 0-.644 1.104 4.1 4.1 0 0 0-.225 1.371q0 .72.225 1.344.224.624.644 1.086t1.032.725a3.5 3.5 0 0 0 1.377.263 3.3 3.3 0 0 0 1.13-.185q.515-.184.897-.535t.616-.85a3.3 3.3 0 0 0 .29-1.118h-1.42q-.084.664-.462 1.072-.378.406-1.05.406-.495 0-.841-.19a1.6 1.6 0 0 1-.56-.503 2.2 2.2 0 0 1-.313-.706 3.3 3.3 0 0 1-.098-.809q0-.434.098-.84.098-.407.313-.725a1.6 1.6 0 0 1 .56-.508q.345-.19.84-.19a1.54 1.54 0 0 1 .962.333q.197.157.327.365.13.207.168.457"/></g></svg>