<svg xmlns="http://www.w3.org/2000/svg" width="17" height="17"><path fill="#666" fill-rule="evenodd" d="M16.56 11.63 12.202 8.5l4.358-3.13c.266-.207.44-.53.44-.871s-.174-.664-.44-.855L11.78.208A1.1 1.1 0 0 0 11.156 0c-.174 0-.34.042-.49.116a1.08 1.08 0 0 0-.572.947v1.062H8.5c-.382 0-.722.19-.913.515L6.64 4.208 5.71 2.64a1.07 1.07 0 0 0-.913-.515H1.062A1.06 1.06 0 0 0 0 3.188v2.656c0 .59.473 1.062 1.063 1.062h2.05L4.076 8.5l-.963 1.594h-2.05A1.06 1.06 0 0 0 0 11.156v2.656c0 .59.473 1.063 1.063 1.063h3.735c.365 0 .722-.19.913-.515l.93-1.568.946 1.568c.19.324.531.515.913.515h1.594v1.063c0 .398.224.755.573.946.149.074.315.116.49.116.207 0 .44-.058.622-.19l4.781-3.454c.266-.191.44-.515.44-.855s-.174-.664-.44-.872ZM8.5 3.186h2.656V1.063l4.781 3.436-4.78 3.428V5.844H9.561L8.277 7.985 6.964 5.77zm1.594 3.835v2.956L9.206 8.5l.888-1.478Zm-5.296 6.79H1.062v-2.656H3.72l1.286-2.141 1.328 2.216-1.535 2.582Zm4.764-2.656h1.594V9.073l4.781 3.428-4.78 3.437v-2.126H8.5L3.719 5.845H1.063V3.187h3.735l4.764 7.97Z"/></svg>