<svg xmlns="http://www.w3.org/2000/svg" width="385" height="464" fill="none"><ellipse cx="101.078" cy="106.523" fill="#FF90E8" stroke="#000" stroke-width="2.009" rx="101.078" ry="106.523" transform="rotate(-12.312 270.332 -632.104)skewX(.11)"/><path fill="#FF90E8" d="M238.97 176.788c-3.559-16.161-33.639-80.573-36.073-91.622-.654-2.968.314-5.08 2.594-5.578 1.823-.398 4.32.094 6.13 1.082l2.565-14.387c-3.439-1.15-8.057-1.871-13.223-.744-9.573 2.09-14.582 10.442-12.148 21.49 3.051 13.853 32.276 76.55 35.581 91.557.835 3.793-.972 6.434-3.707 7.031-1.823.398-4.284.071-6.847-1.444l-.567 15.507c4.199.984 8.86 1.177 13.266.215 9.725-2.122 15.299-10.079 12.429-23.107m41.57 19.805a178 178 0 0 1-15.05 3.976c-4.293-18.767-14.248-63.965-18.345-83.293 5.318-1.16 11.28-2.289 13.444-2.588l-3.414-15.502c-1.939.596-7.865 1.89-13.147 3.215-1.635-7.42-8.19-37.905-9.679-44.666 3.227-.532 7.178-1.394 14.24-2.59l-3.305-15.007-28.871 6.301c9.203 40.337 31.749 142.702 37.874 171.957l29.631-6.467zm29.913-8.501c-4.03 1.226-7.792 2.22-11.135 2.949-8.761-39.05-29.918-134.388-34.039-155.267l-14.891 3.25c5.171 22.032 32.525 144.78 37.874 171.957 9.652-2.452 18.805-4.277 25.983-5.671zm23.488-28.229c-4.03 1.225-7.793 2.219-11.136 2.949-8.76-39.05-21.624-96.733-25.744-117.61l-14.892 3.25c5.171 22.03 23.635 104.416 28.984 131.594 9.653-2.452 18.806-4.277 25.984-5.671z"/><path stroke="#000" stroke-width="2.009" d="M238.97 176.788c-3.559-16.161-33.639-80.573-36.073-91.622-.654-2.968.314-5.08 2.594-5.578 1.823-.398 4.32.094 6.13 1.082l2.565-14.387c-3.439-1.15-8.057-1.871-13.223-.744-9.573 2.09-14.582 10.442-12.148 21.49 3.051 13.853 32.276 76.55 35.581 91.557.835 3.793-.972 6.434-3.707 7.031-1.823.398-4.284.071-6.847-1.444l-.567 15.507c4.199.984 8.86 1.177 13.266.215 9.725-2.122 15.299-10.079 12.429-23.107Zm41.57 19.805a178 178 0 0 1-15.05 3.976c-4.293-18.767-14.248-63.965-18.345-83.293 5.318-1.16 11.28-2.289 13.444-2.588l-3.414-15.502c-1.939.596-7.865 1.89-13.147 3.215-1.635-7.42-8.19-37.905-9.679-44.666 3.227-.532 7.178-1.394 14.24-2.59l-3.305-15.007-28.871 6.301c9.203 40.337 31.749 142.702 37.874 171.957l29.631-6.467zm29.913-8.501c-4.03 1.226-7.792 2.22-11.135 2.949-8.761-39.05-29.918-134.388-34.039-155.267l-14.891 3.25c5.171 22.032 32.525 144.78 37.874 171.957 9.652-2.452 18.805-4.277 25.983-5.671zm23.488-28.229c-4.03 1.225-7.793 2.219-11.136 2.949-8.76-39.05-21.624-96.733-25.744-117.61l-14.892 3.25c5.171 22.03 23.635 104.416 28.984 131.594 9.653-2.452 18.806-4.277 25.984-5.671z"/><path fill="#F1F333" stroke="#000" stroke-miterlimit="10" stroke-width="2.009" d="M301.803 400.55c14.164-18.53 18.35-43.004 11.488-67.138-5.741-20.158-18.801-38.761-36.761-52.408a107.6 107.6 0 0 0-28.947-15.719l-.471-6.653a63.9 63.9 0 0 0-7.611-25.915 64.1 64.1 0 0 0-17.659-20.488l-108.423-81.847a42.3 42.3 0 0 0-31.226-8.142 42.14 42.14 0 0 0-27.836 16.237l-73.587 96.848a41.88 41.88 0 0 0-8.134 31.11 42.06 42.06 0 0 0 16.325 27.759l109.566 82.722a61.24 61.24 0 0 0 48.998 11.147l10.253-2.07a107.2 107.2 0 0 0 21.699 21.959c17.96 13.647 39.438 21.268 60.443 21.416 25.164.256 47.724-10.246 61.883-28.818Z"/><path stroke="#000" stroke-linecap="round" stroke-linejoin="round" stroke-width="2.009" d="M183.322 322.277a29.2 29.2 0 0 1 4.432-8.329c12.699-16.619 41.01-16.383 63.237.498 22.226 16.88 29.955 43.978 17.263 60.652s-40.996 16.381-63.239-.512c-12.058-9.166-19.851-21.321-22.433-33.257"/><path stroke="#000" stroke-linecap="round" stroke-linejoin="round" stroke-width="2.009" d="m14.417 260.756 73.625-96.782 108.424 81.86a21.9 21.9 0 0 1 6.042 7.006 21.8 21.8 0 0 1 2.594 8.866l4.323 59.937a12.56 12.56 0 0 1-2.545 8.487 12.64 12.64 0 0 1-7.522 4.716l-60.188 12.137a18.94 18.94 0 0 1-15.151-3.453z"/><path fill="#000" stroke="#000" stroke-miterlimit="10" stroke-width="2.009" d="M56.02 243.144q.18 1.014.478 2a7.77 7.77 0 0 0 3.693 4.415 3.72 3.72 0 0 0 4.099-.01 8.2 8.2 0 0 0 2.746-3.205 93 93 0 0 0 4.534-10.96c1.953-5.344 3.812-10.747 5.748-16.103a75 75 0 0 1 3.823-8.826 11.9 11.9 0 0 1 3.832-4.584 7.52 7.52 0 0 1 7.177-.63c.899.344.652.406 1.141-.156 1.561-1.939 3.102-3.919 4.647-5.87l.29-.365 5.462 4.286-.277.35c-1.561 2.038-3.11 4.06-4.687 6.087-.142.203-.097.324.075.541a11.14 11.14 0 0 1 2.684 4.398 700 700 0 0 1-5.4 1.984c-.418-.762-.753-1.537-1.205-2.238a6.5 6.5 0 0 0-2.702-2.289 3.06 3.06 0 0 0-3.291.31 7.7 7.7 0 0 0-2.242 3.065 150 150 0 0 0-5.666 14.65c-1.844 5.202-3.647 10.399-5.58 15.572-.85 2.21-1.85 4.36-2.993 6.434a10.9 10.9 0 0 1-5.115 4.944 8.45 8.45 0 0 1-6.665.023c-.433-.153-.67-.121-.908.209-1.567 2.095-3.18 4.169-4.797 6.314l-.471.588-5.513-4.336 5.466-6.915c-.578-.783-1.16-1.496-1.734-2.265a15.6 15.6 0 0 1-1.999-4.167q-.032-.073-.021-.153a.25.25 0 0 1 .094-.14c1.744-1.13 3.507-2.022 5.278-2.958Zm35.116 26.468c.1.722.193 1.388.477 2a7.85 7.85 0 0 0 3.705 4.399 3.7 3.7 0 0 0 4.087.006 8.1 8.1 0 0 0 2.76-3.207 97 97 0 0 0 4.534-10.959c1.95-5.359 3.811-10.748 5.748-16.104a73 73 0 0 1 3.823-8.826 12 12 0 0 1 3.83-4.598 7.54 7.54 0 0 1 7.179-.616c.899.344.652.406 1.141-.156l4.646-5.869.29-.365 5.463 4.286q-.15.165-.278.349l-4.686 6.087c-.156.205-.097.324.075.541a11.2 11.2 0 0 1 2.683 4.398c-1.821.674-3.645 1.334-5.399 1.985-.418-.763-.753-1.537-1.221-2.251a6.35 6.35 0 0 0-2.686-2.277 3.04 3.04 0 0 0-1.693-.333 3 3 0 0 0-1.598.643 7.6 7.6 0 0 0-2.243 3.051 149 149 0 0 0-5.665 14.664c-1.844 5.203-3.647 10.399-5.58 15.572a53 53 0 0 1-3.007 6.437 10.82 10.82 0 0 1-5.101 4.941 8.46 8.46 0 0 1-6.666.023c-.432-.153-.669-.121-.907.209-1.581 2.098-3.18 4.169-4.797 6.314l-.458.586-5.512-4.335 5.465-6.916c-.577-.783-1.174-1.508-1.734-2.265a16.1 16.1 0 0 1-1.998-4.167l-.023-.167a.4.4 0 0 1 .082-.124c1.795-1.066 3.512-1.98 5.264-2.956Zm35.468 26.833c.101.722.194 1.388.477 2a7.85 7.85 0 0 0 3.706 4.399 3.7 3.7 0 0 0 4.087.006 8.06 8.06 0 0 0 2.76-3.207 97 97 0 0 0 4.536-10.945c1.95-5.359 3.797-10.746 5.748-16.104a73 73 0 0 1 3.823-8.826 11.95 11.95 0 0 1 3.83-4.597 7.5 7.5 0 0 1 7.164-.615c.914.342.667.404 1.146-.227l4.646-5.87.29-.365 5.463 4.286q-.15.165-.278.349l-4.686 6.087c-.158.192-.097.325.073.528a11.3 11.3 0 0 1 2.685 4.412c-1.821.674-3.645 1.334-5.399 1.984-.418-.763-.753-1.537-1.221-2.251a6.35 6.35 0 0 0-2.686-2.276 3.03 3.03 0 0 0-3.292.309 7.66 7.66 0 0 0-2.243 3.051 149 149 0 0 0-5.664 14.664c-1.844 5.203-3.647 10.4-5.58 15.572a53 53 0 0 1-3.007 6.437 10.87 10.87 0 0 1-5.101 4.942 8.46 8.46 0 0 1-6.666.022c-.446-.151-.669-.12-.907.209-1.581 2.098-3.182 4.156-4.797 6.315l-.46.572-5.526-4.334 5.481-6.903c-.577-.784-1.174-1.508-1.734-2.266a16.1 16.1 0 0 1-1.998-4.167.35.35 0 0 1-.023-.166.4.4 0 0 1 .082-.124c1.793-1.081 3.512-1.981 5.271-2.901Z"/><path stroke="#000" stroke-linecap="round" stroke-linejoin="round" stroke-width="2.009" d="M176.967 316.454c.788 5.664 6.033 9.624 11.716 8.845s9.65-6.001 8.862-11.665-6.033-9.625-11.716-8.846-9.65 6.002-8.862 11.666"/></svg>