<svg xmlns="http://www.w3.org/2000/svg" width="278" height="321" fill="none"><path fill="#169387" stroke="#000" stroke-miterlimit="10" stroke-width="2" d="M162.081 314.948c-17.002-52.677-63.534-65.9-120.461-40.388 38.974-29.531 41.57-42.042 7.326-37.56C59.341 223.777 60.284 211.728 1 232.038c59.284-29.282 63.295-42.745 17.713-53.611 42.042-25.04 47.004-69.679-15.828-121.644C66.42 95.286 86.01 87.256 76.112 43.32 105.394 71.428 117.683 59.148 112.96 6c24.097 49.369 58.581 57.159 114.085 17.01-31.415 51.015-16.059 60.227 45.59 27.157-49.129 34.278-53.131 50.08 1.654 48.658-38.503 43.936-47.244 87.632-.951 150.935-54.091-36.849-73.698-29.06-59.284 23.848-32.83-34.012-49.609-20.069-51.974 41.34Z"/><path fill="#169387" stroke="#000" stroke-miterlimit="10" stroke-width="2" d="M245.23 84.52c-10.652 39.574-24.852 103.109-32.119 133.093h-21.826c.531-11.714 1.062-31.407 2.476-51.811 1.423-22.717 3.197-44.904 4.439-59.806h-.694c-2.125 12.777-5.322 29.993-9.932 51.64-4.439 21.295-10.121 48.974-12.957 59.986h-23.069c1.954-27.328 5.998-102.217 7.095-133.093h16.282c-1.062 8.698-2.305 31.947-4.079 65.308a8283 8283 0 0 1-2.836 48.975h.711c2.305-13.488 5.673-32.298 8.869-45.958 6.745-28.751 10.284-49.866 14.731-68.325h17.568c-.857 18.459-1.243 30.173-2.485 60.158-.711 13.488-1.954 37.8-2.837 54.125h.712c3.016-15.614 5.493-31.767 8.869-47.201 4.439-19.873 6.564-33.361 14.371-67.082z"/><path fill="#169387" stroke="#000" stroke-miterlimit="10" stroke-width="2" d="M138.773 227.026h-34.604c5.142-31.415 14.019-89.62 20.404-133.101h33.721l-2.485 16.153c-8.338-.351-12.777-.351-16.505-.531-1.063 7.276-2.305 14.902-3.548 22.709 5.999 0 12.957-.171 15.262-.351l-2.305 16.685c-2.485-.18-9.426-.36-15.622-.36-3.368 20.764-6.744 42.77-9.761 62.994 5.142 0 11.141-.171 17.928-.703z"/><path fill="#169387" stroke="#000" stroke-miterlimit="10" stroke-width="2" d="M113.972 62.9c.583 26.274 3.248 111.806 4.782 134.644-.557-.077-14.32 2.571-14.628 2.836-1.834-8.5-9.332-41.57-15.837-71.401-1.465-6.59-2.502-12.854-3.65-18.853l-.523.103c.857 7.978 1.337 15.288 1.757 20.267 2.15 25.974 3.745 50.063 5.004 72.421l-16.367 3.171c-.857-28.751-3.317-88.832-5.305-134.541l20.378-3.951c1.166 8.81 5.305 32.95 10.644 60.475 1.251 6.453 2.365 13.103 3.427 19.581l.352-.068c-.429-4.071-.754-7.627-.857-9.958-1.714-27.5-4.08-52.711-4.868-71.718z"/></svg>