<svg width="756" height="816" viewBox="0 0 756 816" fill="none" xmlns="http://www.w3.org/2000/svg">
<rect width="756" height="816" fill="#90A8ED"/>
<path d="M613.338 322.258C629.001 316.651 639.974 302.321 642.079 284.569C643.173 275.248 641.738 265.806 637.925 257.231C640.574 256.203 642.942 254.564 644.839 252.45C646.736 250.334 648.108 247.802 648.843 245.057C649.919 241.021 649.569 236.737 647.852 232.931C646.134 229.123 643.154 226.027 639.416 224.165C642.099 222.211 644.031 219.396 644.889 216.19C644.901 216.143 644.915 216.091 644.929 216.04C644.943 215.988 644.955 215.941 644.969 215.89C645.763 212.932 645.603 209.799 644.514 206.937C643.425 204.075 641.462 201.629 638.903 199.948C639.862 196.232 639.315 192.287 637.381 188.972C635.447 185.657 632.282 183.24 628.576 182.247L628.327 182.181C624.621 181.187 620.672 181.698 617.34 183.602C614.008 185.506 611.562 188.649 610.534 192.347C609.667 192.401 608.806 192.532 607.962 192.738C605.132 186.764 600.794 181.63 595.376 177.844L595.033 177.606L594.801 177.443L594.739 177.427L594.683 177.412L584.739 170.974L584.568 170.862C584.104 170.552 583.638 170.246 583.161 169.983L582.661 169.693C578.795 167.452 574.566 165.905 570.167 165.124C569.639 162.785 568.545 160.61 566.98 158.793C566.62 155.92 565.412 153.22 563.51 151.038C561.609 148.855 559.099 147.29 556.303 146.541C553.508 145.791 550.552 145.893 547.814 146.832C545.075 147.771 542.679 149.505 540.931 151.813C539.416 152.345 537.998 153.121 536.734 154.111L534.491 150.821L534.423 150.718C534.222 150.418 534.024 150.108 533.807 149.829L533.77 149.779L533.54 149.476C530.363 145.324 526.055 142.178 521.134 140.414C520.897 140.325 520.676 140.251 520.425 140.173C504.945 134.9 484.178 141.707 471.768 156.225C461.144 168.654 459.494 184.091 467.538 194.864L470.312 198.948C468.48 199.872 466.865 201.173 465.573 202.765C464.28 204.358 463.339 206.207 462.812 208.189C462.555 209.212 462.125 210.182 461.541 211.06C458.097 210.703 454.638 211.587 451.786 213.551C448.934 215.516 446.876 218.433 445.98 221.779L445.877 222.163C444.981 225.508 445.306 229.063 446.794 232.189C448.282 235.316 450.835 237.809 453.995 239.222C454.061 240.274 453.949 241.33 453.661 242.344C452.905 245.162 453.014 248.142 453.972 250.898C454.93 253.653 456.694 256.057 459.034 257.798C458.827 258.321 458.651 258.856 458.504 259.4C457.764 262.16 457.852 265.078 458.758 267.788C459.663 270.499 461.347 272.883 463.598 274.643C463.362 278.013 464.306 281.36 466.267 284.111C468.228 286.861 471.085 288.844 474.347 289.719C477.61 290.593 481.076 290.305 484.15 288.904C487.225 287.503 489.716 285.076 491.198 282.038C493.462 281.717 495.618 280.867 497.493 279.558C499.368 278.25 500.91 276.518 501.993 274.504C503.325 275.909 504.766 277.206 506.304 278.383C506.469 278.513 506.641 278.639 506.818 278.767C507.892 279.559 509.009 280.291 510.164 280.96L519.452 286.996C519.692 287.171 519.936 287.347 520.184 287.509L520.295 287.584C520.999 288.044 521.743 288.442 522.518 288.773C523.323 289.179 524.145 289.56 524.97 289.932C524.703 290.596 524.476 291.275 524.289 291.965C523.054 296.597 523.705 301.53 526.101 305.68C528.496 309.831 532.441 312.862 537.069 314.107C540.376 314.99 543.867 314.917 547.135 313.895C550.404 312.874 553.315 310.947 555.533 308.337C562.017 316.833 570.743 322.814 580.585 325.451C581.292 325.641 581.991 325.828 582.726 325.97C587.781 327.07 592.996 327.223 598.107 326.422C598.585 326.345 599.059 326.246 599.523 326.124L608.135 323.869C609.376 323.603 610.61 323.275 611.821 322.897C612.339 322.713 612.845 322.5 613.338 322.258Z" fill="#F1F333" stroke="black" stroke-width="2" stroke-miterlimit="10"/>
<path d="M627.931 281.643C626.405 294.479 618.397 304.212 608.012 307.595L604.981 308.391C601.308 309.115 597.526 309.075 593.871 308.273C577.247 304.698 565.499 286.938 567.669 268.676C569.224 255.581 577.525 245.73 588.238 242.531C592.628 241.226 597.278 241.059 601.75 242.046C618.353 245.605 630.12 263.386 627.931 281.643ZM612.918 294.177L614.994 276.719L598.651 273.204L598.24 276.611L606.029 278.286C604.668 282.279 602.092 286.005 597.244 284.977C591.878 283.82 589.025 277.951 589.754 271.685C590.484 265.418 594.569 261.045 599.937 262.197C601.816 262.571 603.501 263.603 604.687 265.107C605.874 266.612 606.486 268.489 606.413 270.405L614.55 272.153C614.941 267.374 612.123 258.207 600.853 255.78C589.93 253.426 583.269 260.364 582.076 270.421C580.929 280.103 585.195 288.999 594.021 290.897C602.845 292.794 606.016 285.498 607.018 281.627L605.712 292.633L612.918 294.177Z" fill="#FF90E8"/>
<path d="M604.996 308.395L608.028 307.599C607.034 307.923 606.021 308.189 604.996 308.395Z" fill="#FFC900"/>
<path d="M604.997 308.393L596.104 310.723C592.764 311.244 589.356 311.14 586.054 310.417C569.43 306.842 557.684 289.077 559.853 270.82C561.277 258.815 568.368 249.54 577.786 245.606L588.235 242.512L588.227 242.54C577.528 245.744 569.228 255.594 567.659 268.686C565.488 286.947 577.245 304.71 593.859 308.282C597.525 309.085 601.316 309.123 604.997 308.393Z" fill="black"/>
<path d="M608.009 307.594C618.399 304.197 626.403 294.478 627.929 281.641C630.099 263.379 618.347 245.618 601.729 242.04" fill="#FF90E8"/>
<path d="M608.009 307.594C618.399 304.197 626.403 294.478 627.929 281.641C630.099 263.379 618.347 245.618 601.729 242.04" stroke="black" stroke-width="2" stroke-linecap="round" stroke-linejoin="round"/>
<path d="M601.727 242.043C597.255 241.056 592.606 241.223 588.215 242.527C577.516 245.731 569.216 255.581 567.647 268.673C565.476 286.934 577.233 304.697 593.848 308.27C597.504 309.071 601.286 309.112 604.958 308.388C605.983 308.182 606.995 307.916 607.989 307.592" stroke="black" stroke-width="2" stroke-linecap="round" stroke-linejoin="round"/>
<path d="M577.662 245.612L577.756 245.582L588.209 242.489L589.699 242.049" stroke="black" stroke-width="2" stroke-linecap="round" stroke-linejoin="round"/>
<path d="M577.764 245.603C568.346 249.537 561.254 258.812 559.831 270.817C557.661 289.074 569.412 306.84 586.032 310.414C589.334 311.136 592.741 311.24 596.082 310.72L604.975 308.389L608.006 307.593L608.211 307.538" stroke="black" stroke-width="2" stroke-linecap="round" stroke-linejoin="round"/>
<path d="M587.077 188.386C597.539 195.29 601.364 210.747 595.52 229.054C587.377 254.549 563.511 276.073 542.317 277.031C536.977 277.274 532.31 276.189 528.441 274.017L518.174 267.341C521.999 269.432 526.596 270.482 531.845 270.24C553.038 269.282 576.9 247.757 585.043 222.262C590.815 204.186 587.161 188.896 577 181.862L587.077 188.386Z" fill="black"/>
<path d="M518.168 267.338C506.541 260.977 502.045 244.928 508.172 225.737C516.31 200.24 540.176 178.717 561.372 177.753C567.036 177.497 571.943 178.737 575.946 181.156L576.967 181.811L577.004 181.821C587.174 188.858 590.819 204.145 585.047 222.221C576.904 247.716 553.042 269.241 531.849 270.2C526.59 270.479 522.003 269.431 518.168 267.338ZM568.279 216.351C570.177 209.74 569.042 198.3 554.692 198.952C540.785 199.578 529.862 211.303 525.376 225.347C521.061 238.863 524.213 249.426 535.476 248.917C546.74 248.407 553.072 237.411 555.51 231.818L550.604 247.186L559.756 246.774L567.539 222.394L546.69 223.34L545.171 228.108L555.099 227.653C552.132 233.531 547.619 239.482 541.441 239.762C534.602 240.07 532.467 233.116 535.257 224.371C538.047 215.627 544.754 208.274 551.593 207.966C557.996 207.672 558.867 213.121 557.906 216.818L568.279 216.351Z" fill="#FF90E8"/>
<path d="M576.962 181.832L575.941 181.177C576.289 181.38 576.627 181.602 576.962 181.832Z" fill="#FFC900"/>
<path d="M554.632 199.004C568.989 198.328 570.118 209.791 568.22 216.403L557.846 216.874C558.807 213.177 557.936 207.728 551.533 208.022C544.694 208.33 537.991 215.685 535.196 224.428C532.402 233.171 534.542 240.126 541.381 239.818C547.559 239.538 552.091 233.592 555.039 227.709L545.107 228.159L546.626 223.39L567.475 222.444L559.692 246.825L550.539 247.237L555.446 231.868C553.008 237.461 546.666 248.455 535.413 248.967C524.159 249.479 520.997 238.914 525.312 225.397C529.803 211.355 540.726 199.629 554.632 199.004Z" fill="black"/>
<path d="M528.438 274.016C532.307 276.188 536.974 277.273 542.313 277.03C563.508 276.072 587.374 254.549 595.516 229.053C601.361 210.746 597.531 195.288 587.074 188.386" stroke="black" stroke-width="2" stroke-linecap="round" stroke-linejoin="round"/>
<path d="M576.963 181.833C576.628 181.603 576.29 181.381 575.943 181.178C571.946 178.735 567.039 177.495 561.368 177.775" stroke="black" stroke-width="2" stroke-linecap="round" stroke-linejoin="round"/>
<path d="M561.372 177.755C540.176 178.719 516.31 200.242 508.173 225.739C502.028 244.92 506.541 260.978 518.169 267.34C521.994 269.43 526.59 270.481 531.839 270.239C553.033 269.28 576.894 247.756 585.037 222.26C590.81 204.185 587.156 188.895 576.994 181.861" stroke="black" stroke-width="2" stroke-linecap="round" stroke-linejoin="round"/>
<path d="M575.879 181.139L575.94 181.175L576.958 181.835L576.997 181.86L587.074 188.384" stroke="black" stroke-width="2" stroke-linecap="round" stroke-linejoin="round"/>
<path d="M528.422 274.042L528.528 274.115" stroke="black" stroke-width="2" stroke-linecap="round" stroke-linejoin="round"/>
<path d="M515.469 265.581L518.164 267.333L528.439 274.016" stroke="black" stroke-width="2" stroke-linecap="round" stroke-linejoin="round"/>
<path d="M526.032 162.525C529.46 167.655 528.247 175.39 522.101 182.577C513.547 192.586 498.62 197.791 488.85 194.189C486.604 193.414 484.622 192.022 483.129 190.174L479.75 185.183C481.232 186.988 483.186 188.347 485.394 189.107C495.182 192.735 510.11 187.509 518.646 177.495C524.711 170.402 525.972 162.77 522.704 157.644L526.032 162.525Z" fill="black"/>
<path d="M479.707 185.169C475.646 180.061 476.67 171.929 483.108 164.398C491.662 154.389 506.59 149.184 516.359 152.786C518.737 153.596 520.814 155.107 522.316 157.121L522.651 157.613C525.919 162.739 524.658 170.371 518.593 177.464C510.039 187.473 495.116 192.68 485.341 189.076C483.139 188.319 481.189 186.967 479.707 185.169ZM512.154 171.613C514.272 168.975 515.938 163.582 509.312 161.128C502.884 158.758 495.691 162.001 490.981 167.503C486.447 172.82 485.867 178.192 491.067 180.118C496.268 182.044 501.24 178.261 503.412 176.19L498.255 182.22L502.479 183.779L510.659 174.208L501.026 170.661L499.43 172.53L504.001 174.217C501.534 176.32 498.354 178.156 495.497 177.104C492.337 175.941 492.694 172.379 495.629 168.944C498.563 165.509 503.006 163.459 506.165 164.622C509.123 165.711 508.482 168.348 507.339 169.841L512.154 171.613Z" fill="#FF90E8"/>
<path d="M522.671 157.618L522.336 157.127C522.454 157.284 522.566 157.449 522.671 157.618Z" fill="#FFC900"/>
<path d="M509.333 161.116C515.962 163.561 514.289 168.977 512.175 171.601L507.384 169.815C508.527 168.322 509.169 165.685 506.21 164.596C503.051 163.433 498.607 165.488 495.674 168.918C492.74 172.348 492.382 175.915 495.542 177.078C498.399 178.13 501.579 176.294 504.046 174.191L499.475 172.504L501.071 170.635L510.705 174.182L502.524 183.753L498.3 182.194L503.457 176.164C501.285 178.235 496.311 182.008 491.112 180.092C485.914 178.177 486.495 172.785 491.026 167.477C495.698 161.985 502.887 158.756 509.333 161.116Z" fill="black"/>
<path d="M483.089 190.162C484.581 192.011 486.564 193.403 488.81 194.177C498.593 197.804 513.526 192.579 522.061 182.566C528.206 175.378 529.42 167.644 525.992 162.514" stroke="black" stroke-width="2" stroke-linecap="round" stroke-linejoin="round"/>
<path d="M522.675 157.617C522.57 157.448 522.458 157.282 522.34 157.125C520.837 155.111 518.761 153.6 516.383 152.79" stroke="black" stroke-width="2" stroke-linecap="round" stroke-linejoin="round"/>
<path d="M516.378 152.794C506.595 149.167 491.662 154.392 483.127 164.406C476.688 171.936 475.663 180.073 479.726 185.177C481.208 186.982 483.162 188.341 485.371 189.101C495.159 192.729 510.087 187.503 518.622 177.489C524.687 170.396 525.948 162.764 522.68 157.638" stroke="black" stroke-width="2" stroke-linecap="round" stroke-linejoin="round"/>
<path d="M522.316 157.097L522.335 157.122L522.675 157.615L522.685 157.633L526.008 162.518" stroke="black" stroke-width="2" stroke-linecap="round" stroke-linejoin="round"/>
<path d="M483.078 190.165L483.115 190.215" stroke="black" stroke-width="2" stroke-linecap="round" stroke-linejoin="round"/>
<path d="M478.816 183.856L479.705 185.17L483.091 190.157" stroke="black" stroke-width="2" stroke-linecap="round" stroke-linejoin="round"/>
<path d="M485.13 231.32C477.556 229.29 470.658 236.079 468.295 244.898L467.981 244.814C470.346 235.986 467.77 226.668 460.191 224.637L460.294 224.253C467.873 226.284 474.766 219.493 477.129 210.674L477.443 210.758C475.079 219.581 477.659 228.906 485.233 230.935" fill="#FFC900"/>
<path d="M485.13 231.32C477.556 229.29 470.658 236.079 468.295 244.898L467.981 244.814C470.346 235.986 467.77 226.668 460.191 224.637L460.294 224.253C467.873 226.284 474.766 219.493 477.129 210.674L477.443 210.758C475.079 219.581 477.659 228.906 485.233 230.935" stroke="black" stroke-width="2" stroke-linecap="round" stroke-linejoin="round"/>
<path d="M631.133 211.211C625.194 209.62 619.795 214.942 617.942 221.857L617.694 221.79C619.546 214.875 617.532 207.567 611.593 205.976L611.674 205.676C617.612 207.267 623.011 201.945 624.864 195.03L625.113 195.096C623.26 202.012 625.275 209.32 631.213 210.911" fill="#FFC900"/>
<path d="M631.133 211.211C625.194 209.62 619.795 214.942 617.942 221.857L617.694 221.79C619.546 214.875 617.532 207.567 611.593 205.976L611.674 205.676C617.612 207.267 623.011 201.945 624.864 195.03L625.113 195.096C623.26 202.012 625.275 209.32 631.213 210.911" stroke="black" stroke-width="2" stroke-linecap="round" stroke-linejoin="round"/>
<path d="M483.875 253.844L478.377 274.364" stroke="black" stroke-width="2" stroke-linecap="round" stroke-linejoin="round"/>
<path d="M472.82 261.871L489.43 266.322" stroke="black" stroke-width="2" stroke-linecap="round" stroke-linejoin="round"/>
<path d="M552.828 159.325L549.433 171.998" stroke="black" stroke-width="2" stroke-linecap="round" stroke-linejoin="round"/>
<path d="M546.004 164.289L556.259 167.037" stroke="black" stroke-width="2" stroke-linecap="round" stroke-linejoin="round"/>
<path d="M541.102 298.733C542.981 299.237 544.913 298.121 545.417 296.241C545.92 294.361 544.805 292.429 542.926 291.925C541.047 291.422 539.115 292.538 538.611 294.417C538.108 296.297 539.223 298.229 541.102 298.733Z" stroke="black" stroke-width="2" stroke-linecap="round" stroke-linejoin="round"/>
<path d="M630.753 242.575C632.64 243.081 634.58 241.961 635.086 240.073C635.592 238.186 634.472 236.245 632.585 235.74C630.698 235.234 628.758 236.354 628.252 238.242C627.746 240.13 628.866 242.07 630.753 242.575Z" stroke="black" stroke-width="2" stroke-linecap="round" stroke-linejoin="round"/>
<path d="M499.538 212.881C501.117 213.304 502.739 212.367 503.163 210.787C503.586 209.208 502.649 207.585 501.07 207.162C499.491 206.739 497.868 207.676 497.445 209.255C497.021 210.835 497.958 212.458 499.538 212.881Z" stroke="black" stroke-width="2" stroke-linecap="round" stroke-linejoin="round"/>
<path d="M614.992 276.718L612.916 294.176L605.75 292.633L607.056 281.627C606.063 285.501 602.888 292.796 594.058 290.897C585.228 288.999 580.966 280.103 582.114 270.421C583.302 260.363 589.99 253.437 600.891 255.78C612.142 258.202 614.96 267.369 614.587 272.153L606.451 270.405C606.524 268.49 605.912 266.612 604.725 265.107C603.538 263.603 601.854 262.572 599.975 262.198C594.607 261.046 590.536 265.422 589.792 271.685C589.049 277.947 591.903 283.808 597.282 284.977C602.126 286.019 604.702 282.292 606.067 278.287L598.277 276.612L598.688 273.204L614.992 276.718Z" fill="black"/>
<path d="M231.846 226.617L227.203 209.584C230.786 208.429 233.989 206.323 236.47 203.49C238.95 200.657 240.615 197.204 241.286 193.499C241.958 189.795 241.611 185.977 240.282 182.454C238.954 178.931 236.694 175.834 233.744 173.495L227.991 168.932C228.011 168.859 228.03 168.785 228.015 168.709C228.312 165.382 227.804 162.033 226.533 158.944C225.262 155.856 223.266 153.119 220.713 150.965L207.186 139.553C206.625 139.08 206.039 138.636 205.433 138.223C198.792 133.722 191.336 130.561 183.483 128.918L165.767 98.271L165.597 97.9957L165.292 97.498L165.022 97.0882L164.735 96.6596L164.409 96.2136L164.138 95.861C164.016 95.6992 163.886 95.5423 163.761 95.3939C163.635 95.2455 163.588 95.1825 163.498 95.0868L163.086 94.6174L162.823 94.3389L162.385 93.8843L162.106 93.6156L161.657 93.2011C161.554 93.1019 161.448 93.0161 161.344 92.9235L160.898 92.5528C160.782 92.45 160.662 92.3605 160.538 92.2626L160.115 91.941C159.983 91.8413 159.846 91.7398 159.699 91.6431L159.305 91.3725L158.841 91.0688L158.452 90.8352L157.962 90.5462L157.574 90.3345L157.069 90.0772L156.65 89.8717L156.165 89.6483L155.694 89.4504L155.235 89.2627L154.698 89.0687L154.27 88.9539L153.66 88.7907L153.386 88.7171L124.228 80.4953C121.586 79.7495 118.823 79.5341 116.097 79.8616C113.372 80.1891 110.738 81.0529 108.348 82.4033C105.958 83.7537 103.859 85.564 102.172 87.7297C100.486 89.8953 99.2441 92.3735 98.5197 95.0213L90.3886 124.778L90.3725 124.838C90.3204 125.032 90.2702 125.22 90.2182 125.414C90.1661 125.608 90.141 125.702 90.1033 125.843C90.1007 125.866 90.0946 125.888 90.0854 125.91C89.8883 126.835 89.7545 127.772 89.6851 128.716C89.6761 128.749 89.6671 128.783 89.6582 128.816C89.6418 129.092 89.6303 129.376 89.6205 129.653L89.6157 129.831C89.6047 130.087 89.6071 130.346 89.618 130.6L89.6155 130.85C89.625 131.082 89.6346 131.315 89.6527 131.542L89.6705 131.877C89.6872 132.082 89.7058 132.281 89.7328 132.475C89.7598 132.669 89.7632 132.763 89.7809 132.911C89.7986 133.059 89.8292 133.24 89.8549 133.412C89.8806 133.584 89.9062 133.756 89.9386 133.929C89.9709 134.103 89.9878 134.201 90.0158 134.338C90.0437 134.474 90.0949 134.739 90.142 134.938L90.2273 135.263C90.2824 135.485 90.3375 135.708 90.4011 135.926L90.4789 136.198C90.5523 136.433 90.619 136.666 90.7009 136.897C90.7269 136.981 90.7575 137.063 90.7925 137.144C90.8726 137.38 90.9526 137.617 91.0479 137.851L91.1628 138.118L91.4474 138.797C91.5886 139.101 91.7315 139.397 91.8812 139.696L91.9872 139.889C92.116 140.132 92.2381 140.373 92.3753 140.611L92.3663 140.644L110.27 171.477C107.848 179.001 106.895 186.92 107.464 194.803C107.513 195.532 107.603 196.259 107.735 196.978L110.859 214.407C111.415 217.509 112.668 220.444 114.524 222.99C116.381 225.536 118.792 227.627 121.575 229.105L122.771 239.315C123.133 242.414 124.188 245.393 125.858 248.029C127.527 250.665 129.769 252.892 132.416 254.544C135.063 256.196 138.048 257.232 141.15 257.573C144.251 257.915 147.39 257.554 150.334 256.518C152.528 260.075 155.743 262.888 159.56 264.591C163.377 266.294 167.618 266.807 171.731 266.064C175.844 265.321 179.637 263.356 182.617 260.424C185.596 257.493 187.623 253.732 188.434 249.632L189.535 244.05L202.264 250.59C205.853 252.438 209.903 253.202 213.919 252.788C217.935 252.374 221.743 250.801 224.88 248.259C228.016 245.717 230.345 242.317 231.582 238.474C232.819 234.631 232.911 230.511 231.846 226.617Z" fill="#FF90E8" stroke="black" stroke-width="2" stroke-miterlimit="10"/>
<path d="M147.733 108.651L110.441 130.182L150.538 199.633L187.83 178.102L147.733 108.651Z" stroke="black" stroke-width="2" stroke-linecap="round" stroke-linejoin="round"/>
<path d="M137.153 149.754C143.317 151.406 149.653 147.747 151.305 141.583C152.957 135.418 149.299 129.082 143.134 127.43C136.97 125.778 130.634 129.437 128.982 135.601C127.33 141.766 130.988 148.102 137.153 149.754Z" fill="black" stroke="black" stroke-width="2" stroke-linecap="round" stroke-linejoin="round"/>
<path d="M147.398 134.105C146.231 132.22 144.376 130.864 142.227 130.323C140.077 129.782 137.802 130.098 135.881 131.206" stroke="white" stroke-width="2" stroke-linecap="round" stroke-linejoin="round"/>
<path d="M150.537 199.627L131.326 210.741L128.203 193.312C127.647 185.528 129.324 177.747 133.036 170.882V170.882" stroke="black" stroke-width="2" stroke-linecap="round" stroke-linejoin="round"/>
<path d="M188.041 177.978L207.26 166.888L193.735 155.47C187.268 151.097 179.691 148.656 171.888 148.432V148.432" stroke="black" stroke-width="2" stroke-linecap="round" stroke-linejoin="round"/>
<path d="M172.18 186.821L165.856 190.473L150.328 163.577C150.087 163.162 149.931 162.704 149.868 162.228C149.805 161.753 149.836 161.269 149.961 160.806C150.085 160.342 150.299 159.908 150.591 159.528C150.884 159.147 151.248 158.828 151.664 158.589V158.589C152.079 158.349 152.538 158.192 153.013 158.129C153.489 158.066 153.972 158.098 154.436 158.222C154.899 158.346 155.333 158.561 155.714 158.853C156.094 159.145 156.413 159.51 156.652 159.926L172.18 186.821Z" stroke="black" stroke-width="2" stroke-linecap="round" stroke-linejoin="round"/>
<path d="M110.434 130.187L118.572 100.432L147.721 108.659" stroke="black" stroke-width="2" stroke-linecap="round" stroke-linejoin="round"/>
<path d="M139.817 206.126L143.414 236.894L155.975 216.369L168.024 245.591L174.479 212.931L211.757 232.091L201.719 195.392L220.79 189.809L198.575 172.202" stroke="black" stroke-width="2" stroke-linecap="round" stroke-linejoin="round"/>
<path d="M106.316 654.288C87.262 654.288 68.9416 647.854 52.3235 635.169C41.3201 626.704 31.8993 616.362 24.4958 604.621C22.4316 601.285 21.6093 597.328 22.1733 593.446C22.7373 589.564 24.6515 586.005 27.5798 583.394L28.097 582.916C38.5144 573.406 43.5169 566.206 45.8675 561.912C57.195 541.215 73.7214 535.946 85.5924 535.18C89.6359 534.93 93.695 535.191 97.6729 535.959C101.464 532.084 106.414 528.19 112.412 525.951C121.991 522.364 132.827 522.292 143.186 525.493L150.388 513.246C152.121 510.294 154.719 507.945 157.831 506.519C160.944 505.092 164.419 504.657 167.787 505.271C171.156 505.886 174.254 507.52 176.661 509.954C179.069 512.387 180.67 515.502 181.248 518.875V518.921L205.474 510.759C208.694 509.676 212.167 509.6 215.431 510.542C218.695 511.484 221.593 513.398 223.74 516.03C225.887 518.662 227.179 521.886 227.445 525.271C227.711 528.657 226.938 532.043 225.229 534.977L225.189 535.049L216.592 549.907L223.605 551.216C227.009 551.849 230.132 553.524 232.541 556.009C234.951 558.495 236.528 561.667 237.055 565.088C237.581 568.509 237.031 572.009 235.48 575.103C233.929 578.198 231.454 580.733 228.398 582.36L215.957 588.984L220.043 595.032C221.889 597.759 222.887 600.971 222.91 604.264C222.934 607.556 221.983 610.782 220.176 613.536C218.369 616.289 215.787 618.446 212.756 619.735C209.725 621.025 206.381 621.389 203.143 620.782L200.747 620.337L202.292 629.697C202.843 633.04 202.362 636.472 200.914 639.536C199.467 642.6 197.12 645.151 194.187 646.85C191.254 648.549 187.873 649.315 184.494 649.046C181.115 648.778 177.897 647.487 175.27 645.347L160.865 633.604C153.176 641.301 143.695 646.966 133.273 650.092C124.548 652.835 115.461 654.249 106.316 654.288Z" fill="#F1F333" stroke="black" stroke-width="2"/>
<path d="M163.792 553.848C163.792 553.848 163.793 554.018 163.747 554.332C163.446 557.768 161.036 578.55 147.024 594.109L146.238 592.937C138.165 588.82 123.865 592.702 118.738 599.378C90.9232 597.414 79.3403 612.469 79.3403 612.469L79.2617 613.032C53.8632 609.464 39.072 596.439 38.5547 595.974C39.2095 595.817 61.0591 590.594 68.9884 587.563C75.6147 585.03 79.6546 581.155 84.6243 578.4L85.1481 578.576C85.8814 578.838 93.8435 591.013 99.9918 591.87C103.423 592.328 109.905 590.758 115.588 588.859C120.093 587.36 124.1 585.659 125.737 584.611C130.216 581.718 127.047 563.437 127.047 563.437L126.916 563.116C130.399 561.637 134.439 560.779 139.907 560.668C150.632 560.426 163.792 553.848 163.792 553.848Z" fill="black"/>
<path d="M38.5547 595.961C39.7595 594.789 53.1822 583.203 60.3781 570.047C67.574 556.891 77.2777 552.558 86.5362 551.955C92.401 551.696 98.2358 552.928 103.495 555.536C103.495 555.536 109.564 544.906 118.116 541.705C126.667 538.505 138.112 539.787 148.006 546.215C148.576 546.595 149.139 546.948 149.682 547.282C158.561 552.78 163.792 553.827 163.792 553.827C163.792 553.827 150.625 560.373 139.9 560.615C134.433 560.726 130.393 561.584 126.909 563.063C123.557 564.49 120.709 566.473 117.585 568.908C114.462 571.343 112.766 572.783 110.298 573.673C107.679 574.629 104.169 574.923 97.281 574.982C92.8439 574.973 88.4812 576.121 84.6243 578.314C79.6546 581.089 75.6146 584.964 68.9884 587.478C61.0591 590.508 39.2422 595.731 38.5547 595.889" stroke="black" stroke-width="2" stroke-linecap="round" stroke-linejoin="round"/>
<path d="M38.5547 595.964C39.0851 596.887 71.4699 651.731 128.193 634.261C142.768 629.765 151.83 620.738 157.376 610.318C170.255 586.1 164.153 554.328 164.153 554.328" stroke="black" stroke-width="2" stroke-linecap="round" stroke-linejoin="round"/>
<path d="M163.792 553.848C163.792 553.848 163.793 554.018 163.747 554.332C163.446 557.768 161.036 578.55 147.024 594.109C140.931 600.923 133.111 605.966 124.388 608.705C107.037 614.256 91.8464 614.806 79.2617 613.038C53.8632 609.471 39.072 596.446 38.5547 595.981" stroke="black" stroke-width="2" stroke-linecap="round" stroke-linejoin="round"/>
<path d="M85.1562 578.547C85.8896 578.809 93.8516 590.983 99.9999 591.841C103.431 592.299 109.913 590.728 115.597 588.83C120.101 587.331 124.109 585.629 125.745 584.582C130.224 581.689 127.055 563.407 127.055 563.407" stroke="black" stroke-width="2" stroke-linecap="round" stroke-linejoin="round"/>
<path d="M210.667 526.694L210.661 526.701L190.166 562.125L220.41 567.754L191.581 583.09L206.058 604.507L180.24 599.683L185.662 632.541L158.875 610.699" stroke="black" stroke-width="2" stroke-linecap="round" stroke-linejoin="round"/>
<path d="M149.715 547.225L164.644 521.815C164.644 521.815 168.494 544.299 169.227 544.312C169.96 544.325 210.032 526.96 210.654 526.698" stroke="black" stroke-width="2" stroke-linecap="round" stroke-linejoin="round"/>
<path d="M110.484 574.226L115.474 588.272" stroke="black" stroke-width="2" stroke-linecap="round" stroke-linejoin="round"/>
<path d="M79.3359 612.477C79.3359 612.477 90.9188 597.423 118.733 599.386C123.86 592.71 138.16 588.828 146.234 592.945" stroke="black" stroke-width="2" stroke-linecap="round" stroke-linejoin="round"/>
<path d="M673.508 659.332C674.736 655.564 674.962 651.542 674.165 647.66C674.525 646.185 674.733 644.677 674.788 643.16C674.906 639.159 673.992 635.194 672.133 631.647C670.275 628.101 667.535 625.092 664.177 622.911C662.732 621.966 661.185 621.186 659.566 620.587L659.201 620.227C658.221 619.313 657.167 618.481 656.05 617.741C656.5 615.238 656.47 612.673 655.961 610.182L652.642 593.853C652.371 592.521 651.967 591.221 651.435 589.97C653.642 585.487 654.102 580.342 652.724 575.537C651.346 570.732 648.23 566.61 643.981 563.975L626.994 553.408C624.414 551.803 621.506 550.801 618.486 550.477C615.465 550.153 612.411 550.515 609.55 551.536C606.69 552.557 604.097 554.211 601.966 556.374C599.834 558.537 598.219 561.153 597.24 564.028L596.804 565.304C595.815 565.321 594.828 565.414 593.853 565.583L576.857 568.513C575.513 568.745 574.197 569.113 572.928 569.611C570.398 567.216 567.356 565.428 564.033 564.383L563.541 564.239C559.262 560.508 553.756 558.486 548.079 558.562C542.402 558.639 536.954 560.808 532.78 564.653C529.003 565.851 525.6 568.005 522.902 570.906C513.612 574.93 507.573 585.168 506.394 599.429C505.991 604.299 505.789 618.04 506.783 627.028C507.202 630.747 507.491 639.94 507.633 647.348L505.297 651.322C502.587 655.934 501.82 661.433 503.166 666.612C504.511 671.79 507.859 676.222 512.472 678.933L584.21 720.992C588.824 723.702 594.324 724.469 599.502 723.126C604.68 721.782 609.112 718.437 611.824 713.827L614.153 709.864C620.681 706.405 628.888 702.176 632.319 700.72C640.636 697.248 652.556 690.35 656.62 687.632C668.539 679.682 674.513 669.406 673.508 659.332Z" fill="#F1F333" stroke="black" stroke-width="2" stroke-miterlimit="10"/>
<path d="M611.83 649.191C611.83 649.191 623.726 648.158 633.6 641.764C643.473 635.369 646.72 633.098 649.124 635.364C653.57 639.546 643.808 645.801 640.252 648.336C635.664 651.599 625.83 656.324 625.83 656.324" stroke="black" stroke-width="2" stroke-linecap="round" stroke-linejoin="round"/>
<path d="M641.123 647.907C641.123 647.907 650.855 641.816 653.463 640.569C656.973 638.868 659.093 641.617 659.025 643.372C658.955 645.366 656.174 647.962 652.786 650.523C649.399 653.084 636.379 661.89 631.507 664.045" stroke="black" stroke-width="2" stroke-linecap="round" stroke-linejoin="round"/>
<path d="M652.768 650.52C652.768 650.52 656.996 648.926 658.465 652.299C659.649 655.016 657.932 656.684 653.626 660.273C649.319 663.863 638.311 671.655 633.265 672.766" stroke="black" stroke-width="2" stroke-linecap="round" stroke-linejoin="round"/>
<path d="M622.477 651.619C622.477 651.619 631.553 663.256 633.439 675.927" stroke="black" stroke-width="2" stroke-linecap="round" stroke-linejoin="round"/>
<path d="M652.795 660.879C652.795 660.879 656.235 659.297 657.567 662.903C658.728 666.044 652.501 671.524 649.136 673.785C645.771 676.046 634.35 682.654 626.869 685.785C619.387 688.917 600.248 699.319 600.248 699.319L594.7 708.759L560.763 688.813C560.763 688.813 569.253 673.597 575.83 662.406C582.408 651.215 594.045 645.828 601.881 642.913C609.717 639.997 613.842 637.052 617.135 635.099C620.986 632.818 624.584 637.909 621.625 641.342C618.666 644.775 605.529 653.518 605.529 653.518C606.923 659.431 606.121 665.648 603.274 671.014" stroke="black" stroke-width="2" stroke-linecap="round" stroke-linejoin="round"/>
<path d="M614.836 663.031C614.836 663.031 617.825 670.748 616.854 676.137" stroke="black" stroke-width="2" stroke-linecap="round" stroke-linejoin="round"/>
<path d="M561.768 619.878C561.768 619.878 556.882 608.983 557.663 597.237C558.443 585.492 558.847 581.564 555.7 580.561C549.89 578.714 549.171 590.292 548.686 594.631C548.071 600.222 548.727 611.113 548.727 611.113" stroke="black" stroke-width="2" stroke-linecap="round" stroke-linejoin="round"/>
<path d="M548.643 593.636C548.643 593.636 549.235 582.174 549.049 579.285C548.828 575.391 545.398 574.871 543.892 575.78C542.187 576.82 541.271 580.514 540.685 584.714C540.099 588.914 538.729 604.581 539.225 609.884" stroke="black" stroke-width="2" stroke-linecap="round" stroke-linejoin="round"/>
<path d="M540.692 584.754C540.692 584.754 540.018 580.287 536.365 580.643C533.408 580.932 532.791 583.247 531.75 588.756C530.709 594.264 529.258 607.673 530.745 612.617" stroke="black" stroke-width="2" stroke-linecap="round" stroke-linejoin="round"/>
<path d="M554.483 611.759C554.483 611.759 539.904 609.486 527.913 614.009" stroke="black" stroke-width="2" stroke-linecap="round" stroke-linejoin="round"/>
<path d="M531.643 589.785C531.643 589.785 531.352 586.01 527.556 586.596C524.247 587.109 522.486 595.222 522.151 599.256C521.816 603.29 521.589 616.491 522.501 624.549C523.414 632.606 523.629 654.391 523.629 654.391L518.081 663.831L552.355 683.974L567.772 657.742C574.346 646.556 573.393 633.763 572.13 625.493C570.868 617.223 571.426 612.189 571.53 608.362C571.658 603.885 565.457 603.224 563.897 607.48C562.338 611.735 561.09 627.466 561.09 627.466C555.247 629.122 550.206 632.846 546.905 637.943" stroke="black" stroke-width="2" stroke-linecap="round" stroke-linejoin="round"/>
<path d="M548.201 624.014C548.201 624.014 540 625.154 535.767 628.619" stroke="black" stroke-width="2" stroke-linecap="round" stroke-linejoin="round"/>
<path d="M608.579 619.632L635.767 595.782L639.313 613.229L608.579 619.632Z" stroke="black" stroke-width="2" stroke-linecap="round" stroke-linejoin="round"/>
<path d="M606.454 600.819L636.252 577.882L618.101 566.587L606.454 600.819Z" stroke="black" stroke-width="2" stroke-linecap="round" stroke-linejoin="round"/>
<path d="M586.912 619.125L597.753 582.538L579.605 585.666L586.912 619.125Z" stroke="black" stroke-width="2" stroke-linecap="round" stroke-linejoin="round"/>
<path d="M363.022 442.382C359.976 380.242 381.392 365.059 445.862 361.899C511.977 358.659 534.776 371.517 538.241 433.794C541.892 495.669 517.393 507.192 452.101 510.393C389.737 513.449 366.056 504.288 363.022 442.382Z" fill="#FF90E8" stroke="black" stroke-width="3" stroke-miterlimit="10"/>
<path d="M491.617 386.651C493.807 384.331 496.983 382.907 500.92 382.736L501.304 382.723C505.155 382.637 508.446 383.532 510.996 384.665L507.397 393.17C506.082 392.504 504.572 392.051 503.184 392.003L502.786 392.001C501.328 392.033 500.048 392.614 499.173 393.724C498.381 394.73 498.029 396.032 498.016 397.431L498.018 397.711C498.075 400.271 499.138 405.464 500.622 411.818C502.123 418.244 504.106 426.067 506.087 433.998C508.07 441.941 510.05 450 511.554 456.934C512.973 463.475 513.94 468.897 514.117 472.268L514.142 472.915C514.261 478.21 512.809 481.999 510.451 484.481C508.164 486.888 504.861 488.239 500.818 488.408L500.424 488.421C497.006 488.497 493.551 487.842 490.446 486.719L492.837 477.406C494.394 478.274 495.975 478.702 497.404 478.743L497.802 478.744C499.441 478.707 500.992 478.075 502.121 476.87C503.184 475.735 503.786 474.185 503.821 472.379L503.82 472.014C503.744 468.628 502.708 462.929 501.249 456.24C499.78 449.504 497.847 441.615 495.921 433.783C493.992 425.94 492.07 418.153 490.613 411.584C489.237 405.378 488.309 400.399 488.147 397.496L488.125 396.943C488.026 392.532 489.357 389.047 491.617 386.651ZM482.31 384.566L482.529 394.345C482.066 394.341 481.554 394.342 481.025 394.347C479.616 394.361 477.944 394.399 476.391 394.433L474.914 394.466L474.925 395.944C475.131 423.479 476.278 469.06 476.967 487.814L466.432 488.051C466.28 469.403 465.389 423.697 464.771 396.195L464.737 394.695L463.238 394.729C460.865 394.782 458.397 394.837 456.676 394.93L456.457 385.145L482.31 384.566ZM450.97 385.269L451.191 395.079C448.653 395.036 446.58 395.024 444.82 395.019C442.704 395.014 441.065 395.016 439.6 394.979L438.027 394.939L438.063 396.512C438.128 399.401 438.158 402.327 438.19 405.336C438.222 408.341 438.256 411.427 438.328 414.619L438.363 416.162L439.904 416.084C443.742 415.888 448.089 415.762 450.661 415.627L450.889 425.775C448.263 425.723 443.907 425.729 439.939 425.818L438.452 425.851L438.473 427.339C438.703 443.898 439.097 461.445 439.601 477.574L439.648 479.06L441.135 479.027C444.843 478.944 449.123 478.73 453.768 478.293L453.993 488.332L429.428 488.883C429.129 463.883 428.132 419.589 427.107 385.805L450.97 385.269ZM388.422 386.295C398.052 386.435 405.744 388.114 411.102 391.505C416.465 394.898 419.629 400.089 419.984 407.641L420.01 408.38C420.201 416.907 415.778 421.743 410.791 424.051L409.9 424.463L409.922 425.446L409.932 425.871L409.951 426.758L410.739 427.167C417.068 430.459 421.431 439.441 422.008 453.769L422.052 455.173C422.316 466.926 419.295 475.436 413.762 481.122C408.487 486.542 400.731 489.598 390.758 490.267C390.24 455.356 389.418 418.806 388.422 386.295ZM400.038 432.728C400.211 446.742 400.681 461.335 400.999 475.457L401.061 478.237L403.35 476.658C408.571 473.057 412.327 466.781 412.313 455.508L412.3 454.401C412.132 446.945 411.047 441.563 409.265 437.843C407.459 434.075 404.899 431.954 401.879 431.249L400.015 430.814L400.038 432.728ZM399.291 399.506C399.441 406.153 399.603 413.366 399.772 420.862L399.813 422.692L401.599 422.293C404.032 421.749 406.282 420.422 407.89 418.211C409.394 416.142 410.266 413.396 410.3 409.994L410.295 409.306C410.23 406.402 409.522 403.872 407.949 401.89C406.369 399.899 404.052 398.634 401.104 398.005L399.249 397.61L399.291 399.506Z" fill="#FFC900" stroke="black" stroke-width="3"/>
<path d="M377.523 260.608L167.57 330.317L211.745 463.363L421.697 393.654L377.523 260.608Z" fill="#FF90E8" stroke="black" stroke-width="3" stroke-miterlimit="10"/>
<path d="M200.483 330.689C204.746 329.238 208.725 329.103 211.937 329.491L210.905 340.357C209.066 340.022 207.026 340.066 205.393 340.621C203.875 341.138 202.737 342.165 202.193 343.603C201.698 344.911 201.755 346.394 202.21 347.883L202.306 348.181C203.236 350.911 206.149 356.153 209.934 362.538C213.756 368.987 218.581 376.782 223.439 384.701C228.304 392.629 233.207 400.687 237.209 407.69C240.982 414.291 243.893 419.849 245.244 423.461L245.492 424.157C247.445 429.892 247.175 434.552 245.439 438.108C243.756 441.557 240.592 444.181 236.229 445.76L235.803 445.909C232.039 447.19 227.975 447.659 224.149 447.479L223.532 436.121C225.584 436.585 227.505 436.52 229.1 436.066L229.521 435.934C231.237 435.35 232.657 434.17 233.443 432.531C234.181 430.989 234.304 429.157 233.736 427.23L233.614 426.843C232.381 423.221 229.32 417.417 225.45 410.664C221.556 403.871 216.766 395.987 212 388.158C207.229 380.319 202.482 372.536 198.656 365.914C195.044 359.663 192.327 354.569 191.151 351.459L190.935 350.864C189.305 346.076 189.554 341.788 191.211 338.362C192.816 335.045 195.817 332.382 200.067 330.835L200.483 330.689ZM269.379 308.917C283.747 350.1 299.763 393.817 309.205 419.561L297.64 423.498C293.076 409.52 290.236 399.33 283.324 379.511L283.312 379.478L282.619 377.606C279.07 367.889 274.315 353.018 270.223 340.531L269.93 339.639L269 339.511L268.644 339.462L266.548 339.177L266.972 341.25C272.207 366.87 279.246 395.945 283.847 417.262C281.797 417.879 279.513 418.655 277.685 419.354C267.26 397.56 255.31 371.744 244.124 348.196L243.206 346.263L241.702 347.786L241.449 348.041L240.789 348.711L241.103 349.596C245.605 362.32 250.731 376.88 254.82 388.393L254.82 388.394C260.253 403.87 265.925 420.522 269.992 432.911L258.569 436.799C250.791 410.581 236.305 365.111 223.485 324.552C224.925 324.059 227.259 323.257 229.613 322.427C231.388 321.802 233.181 321.159 234.614 320.623C235.213 320.399 235.754 320.189 236.209 320.007C241.865 330.63 254.461 353.465 264.41 372.616L267.218 371.659C263.608 351.565 258.905 323.222 256.881 312.919C258.391 312.466 260.77 311.712 263.089 310.966C265.463 310.202 267.858 309.418 269.379 308.917ZM302.922 297.511C312.602 320.172 337.889 376.542 351.2 405.263L339.54 409.233C335.801 399.376 328.707 381.431 320.77 361.928L320.237 360.618L318.897 361.073L312.05 363.404L310.721 363.857L311.084 365.213C315.967 383.412 320.989 401.085 324.793 414.254L313.27 418.177C306.073 386.288 295.273 341.552 285.613 303.404L302.922 297.511ZM330.317 288.184C336.704 308.311 352.042 352.885 364.165 388.007L364.652 389.42L366.066 388.938C369.034 387.928 372.309 386.681 375.786 385.234L379.334 395.653C372.744 397.749 364.672 400.374 356.179 403.521C348.037 377.8 325.929 313.756 318.292 292.279L330.317 288.184ZM358.701 278.521C365.087 298.647 380.425 343.221 392.548 378.344L393.036 379.756L394.45 379.275C397.419 378.264 400.693 377.017 404.169 375.571L407.717 385.99C401.127 388.085 393.056 390.711 384.564 393.858C376.421 368.137 354.313 304.093 346.676 282.615L358.701 278.521ZM298.036 310.27L297.579 310.426L296.274 310.87L296.607 312.208C299.376 323.338 303.025 337.053 306.826 351.21L307.242 352.757L308.759 352.241C309.672 351.931 310.623 351.607 311.574 351.283C312.525 350.959 313.476 350.636 314.389 350.325L315.888 349.814L315.297 348.345C309.766 334.594 304.186 321.2 299.9 311.104L299.355 309.821L298.036 310.27Z" fill="#FFC900" stroke="black" stroke-width="3"/>
</svg>
