<svg width="170" height="139" viewBox="0 0 170 139" fill="none" xmlns="http://www.w3.org/2000/svg">
<path d="M151.856 127.342C164.137 118.843 170.324 103.87 168.028 87.9912C166.417 76.984 160.957 66.9037 152.618 59.5398C145.443 53.1926 136.812 49.4287 127.889 48.6489C127.828 39.4744 125.916 31.0187 122.291 24.005C117.886 15.4839 110.963 9.2282 102.686 6.30072L102.333 6.17442L102.093 6.08727H102.037H101.984L91.8636 2.81564L91.6936 2.75905C91.2188 2.59787 90.7439 2.4454 90.269 2.32342C90.0947 2.27114 89.9161 2.22319 89.7375 2.17962C83.2808 0.410942 76.2316 0.633117 69.2609 2.83308C66.4642 3.73287 63.7607 4.89995 61.1879 6.31816C59.8808 5.37949 58.4894 4.56426 57.0316 3.88298C56.8268 3.78714 56.622 3.70001 56.4129 3.61288C42.9724 -2.28127 23.8725 2.21446 11.6606 14.2511C1.20451 24.5582 -1.44003 38.2111 4.93386 48.4877L7.17758 52.4868C7.26036 52.6524 7.34751 52.8179 7.43464 52.9791L7.46512 53.0314C7.79654 53.6196 8.17231 54.1818 8.58916 54.7129C11.0627 58.0544 14.3401 60.7171 18.1173 62.4542C20.4613 63.5364 22.9365 64.3082 25.4802 64.75C25.3495 66.0569 25.2406 67.3638 25.1796 68.6707C24.6524 79.8404 26.7785 90.0648 31.3313 98.2373C35.4832 105.691 41.5739 111.219 48.7582 114.186L49.294 114.399C50.4098 114.836 51.5486 115.211 52.7053 115.523L62.1681 118.599C62.4121 118.695 62.6648 118.791 62.9219 118.873L63.0308 118.913C63.7578 119.132 64.5028 119.286 65.2571 119.374C67.528 119.85 69.8421 120.09 72.1625 120.089C76.0881 120.068 79.987 119.441 83.7208 118.229C85.0279 117.824 86.2913 117.357 87.5635 116.804C89.9051 120.454 92.7406 123.763 95.9894 126.636C104.071 133.79 113.991 137.662 124.116 137.662C124.774 137.662 125.423 137.662 126.094 137.614C130.734 137.394 135.293 136.316 139.539 134.434C139.937 134.254 140.325 134.058 140.702 133.846L147.643 129.891C148.658 129.372 149.651 128.802 150.614 128.192C151.044 127.933 151.459 127.649 151.856 127.342Z" fill="#FFC900" stroke="black" stroke-width="2" stroke-miterlimit="10"/>
<path d="M152.418 81.0385C158.517 95.7412 153.559 111.943 141.369 118.477L137.613 120.098C124.225 124.572 108.859 116.613 102.659 101.688C96.2856 86.3228 101.993 69.3243 115.399 63.4258L115.865 63.2297C129.601 57.5142 145.97 65.4776 152.418 81.0385Z" fill="#FFC900"/>
<path d="M137.614 120.076L141.369 118.455C140.672 118.825 139.957 119.17 139.217 119.474C138.685 119.697 138.154 119.893 137.614 120.076Z" fill="#FFC900"/>
<path d="M137.614 120.076L132.451 122.302C118.71 128.004 102.342 120.032 95.8935 104.493C89.4456 88.9538 95.3577 71.7376 109.099 66.0351L115.399 63.4213C101.993 69.3198 96.2856 86.3183 102.66 101.683C108.859 116.599 124.225 124.55 137.614 120.076Z" fill="#FFC900"/>
<path d="M115.865 63.2076C129.601 57.5052 145.97 65.4773 152.418 81.0164C158.517 95.7191 153.559 111.92 141.369 118.455C140.672 118.825 139.957 119.169 139.217 119.474C138.685 119.697 138.154 119.91 137.613 120.076C124.225 124.55 108.859 116.59 102.659 101.666C96.2856 86.3007 101.993 69.3022 115.399 63.4037" stroke="black" stroke-width="2" stroke-linecap="round" stroke-linejoin="round"/>
<path d="M115.865 63.2079L115.399 63.404L109.099 66.0178C95.3577 71.7202 89.4456 88.9409 95.8935 104.476C102.341 120.01 118.71 128 132.451 122.285L137.614 120.058L141.369 118.438" stroke="black" stroke-width="2" stroke-linecap="round" stroke-linejoin="round"/>
<path d="M59.4844 24.8413C63.0831 32.0772 56.8138 42.5151 45.4776 48.1565C34.1414 53.798 22.0341 52.5129 18.431 45.2596L16.1394 41.3127C20.3349 47.6294 31.8236 48.5355 42.5891 43.1772C53.812 37.5967 60.0683 27.3113 56.6918 20.0885L59.4844 24.8413Z" fill="#FFC900"/>
<path d="M56.6918 20.0886C60.0682 27.3158 53.812 37.6012 42.589 43.1773C31.8149 48.5356 20.3349 47.6296 16.1394 41.3128L15.5425 40.2847C11.9395 33.0444 18.2132 22.6066 29.5494 16.9695C40.1493 11.694 51.4201 12.4868 55.7769 18.5247L56.6918 20.0886Z" fill="#FFC900"/>
<path d="M55.7769 18.529C56.0856 18.9511 56.3581 19.3984 56.5916 19.8664C56.6264 19.9404 56.6656 20.0145 56.6918 20.0885C60.0682 27.3157 53.812 37.6011 42.589 43.1772C31.8149 48.5356 20.3349 47.6295 16.1394 41.3128C15.9177 40.9837 15.7183 40.6402 15.5425 40.2846C11.9395 33.0443 18.2132 22.6065 29.5494 16.9694C40.1493 11.6982 51.4201 12.4911 55.7769 18.529Z" stroke="black" stroke-width="2" stroke-linecap="round" stroke-linejoin="round"/>
<path d="M15.5425 40.289L16.1393 41.3171L18.431 45.264C22.034 52.4999 34.1413 53.7981 45.4775 48.161C56.8137 42.5239 63.0787 32.086 59.4844 24.8414L56.6917 20.0799L55.7768 18.5203L55.6287 18.2633" stroke="black" stroke-width="1.21898" stroke-linecap="round" stroke-linejoin="round"/>
<path d="M98.9607 18.6422C114.379 24.6627 119.259 49.0539 109.852 73.0967C100.446 97.1394 80.3313 111.785 64.9085 105.769L57.293 103.491C72.2191 106.636 90.3605 92.391 99.148 69.9034C108.55 45.8433 103.67 21.452 88.2562 15.4489C87.8597 15.2921 87.4589 15.1527 87.0538 15.0133L87.0842 14.9175L98.9607 18.6422Z" fill="#FFC900"/>
<path d="M88.2605 15.4404C103.679 21.4653 108.558 45.8565 99.1523 69.8949C90.3648 92.3825 72.2234 106.628 57.2972 103.482L54.2127 102.563C38.7943 96.5384 33.9147 72.1515 43.3209 48.1088C52.47 24.6672 71.8095 10.1823 87.058 15.0004C87.4763 15.1442 87.864 15.2836 88.2605 15.4404Z" fill="#FFC900"/>
<path d="M54.217 102.585L57.3016 103.504C56.2499 103.283 55.2182 102.976 54.217 102.585Z" fill="#FFC900"/>
<path d="M87.0407 15.0134C87.4459 15.1441 87.8467 15.2835 88.2432 15.449C103.662 21.4739 108.541 45.8651 99.135 69.9035C90.3475 92.3911 72.2061 106.636 57.2799 103.491C56.2282 103.27 55.1965 102.963 54.1954 102.572C38.7769 96.5471 33.8974 72.1602 43.3036 48.1174C52.4788 24.6671 71.7922 10.1822 87.0407 15.0134Z" stroke="black" stroke-width="2" stroke-linecap="round" stroke-linejoin="round"/>
<path d="M87.0887 14.9175L98.9607 18.6422C114.379 24.6627 119.259 49.0539 109.853 73.0967C100.446 97.1394 80.3314 111.785 64.9086 105.769L57.293 103.491L54.2085 102.572" stroke="black" stroke-width="2" stroke-linecap="round" stroke-linejoin="round"/>
<path d="M44.7805 21.2082C50.5271 23.9005 48.6232 28.614 46.5232 30.7922L42.3713 28.8449C43.504 27.5946 44.2839 25.2858 41.7178 24.0878C38.9817 22.7809 34.8516 24.3012 31.9631 27.1372C29.0746 29.9732 28.4777 33.1403 31.2224 34.4254C33.697 35.5842 36.6814 34.1858 39.0645 32.4955L35.0868 30.631L36.6596 29.0802L45.0027 33.0009L36.9384 40.96L33.2788 39.2479L38.3544 34.2424C36.2501 35.9327 31.5143 38.9255 27.0269 36.8171C22.5395 34.7086 23.4544 29.9253 27.8982 25.5297C32.5251 20.9207 39.1996 18.5988 44.7805 21.2082Z" fill="black"/>
<path d="M71.7398 34.3469C84.0345 30.4262 87.6767 40.1016 87.5678 46.2746L78.6801 49.0932C78.6539 45.6648 76.6324 41.1428 71.1517 42.8854C65.2875 44.7412 61.1835 52.6741 60.7914 60.9033C60.3993 69.1325 63.8716 74.6694 69.7314 72.8092C75.0248 71.132 77.5735 64.9242 78.7629 59.1389L70.2542 61.8356L70.4633 57.3485L88.3259 51.6852L87.2411 74.6302L79.399 77.1133L80.083 62.6502C79.2683 68.0651 76.3231 79.0693 66.6817 82.1275C57.0403 85.1856 51.8427 76.7604 52.4439 64.0398C53.0582 50.8226 59.8242 38.1195 71.7398 34.3469Z" fill="black"/>
<path d="M142.166 88.4659L144.423 104.088L137.849 104.414L136.42 94.5691C136.463 98.1544 135.405 105.22 127.305 105.621C119.206 106.022 113.438 99.3045 112.188 90.644C110.881 81.6482 115.072 74.0899 125.07 73.5889C135.391 73.0748 139.966 80.3717 140.755 84.6061L133.292 84.9764C132.909 83.3 131.941 81.8148 130.562 80.7873C129.183 79.7598 127.484 79.2573 125.768 79.3698C120.844 79.6137 118.331 84.3578 119.141 89.9601C119.951 95.5623 123.79 99.9797 128.726 99.7401C133.17 99.5179 134.538 95.6887 134.79 91.8987L127.645 92.2515L127.21 89.2021L142.166 88.4659Z" fill="black"/>
</svg>
