<svg width="133" height="149" viewBox="0 0 133 149" fill="none" xmlns="http://www.w3.org/2000/svg">
<path d="M121.704 47.1724C118.23 42.8884 113.738 39.5435 108.637 37.4433C108.372 33.9847 107.074 30.6852 104.911 27.9731C102.748 25.2609 99.8196 23.2612 96.5059 22.2333C95.8538 22.0336 95.1903 21.8733 94.5189 21.7535C92.3936 17.7668 88.8004 14.7631 84.4996 13.3779C82.195 10.603 79.0734 8.62588 75.5795 7.72836C71.2758 6.62024 66.7109 7.20942 62.83 9.37389L62.3378 9.21388C59.3229 8.29419 56.1139 8.21637 53.0581 8.98884C50.0023 9.7613 47.216 11.3546 45.0008 13.5964C39.6942 13.0883 34.3402 13.4588 29.1543 14.6931C26.8405 15.2345 24.7062 16.3655 22.9591 17.9759C21.2119 19.5863 19.9113 21.6214 19.1838 23.8832C18.6173 24.1156 18.0481 24.3614 17.4752 24.6252C15.8325 25.3816 14.3549 26.454 13.1269 27.7814C11.8988 29.1087 10.9444 30.6649 10.318 32.3611C9.69154 34.0574 9.40543 35.8604 9.47597 37.6672C9.54651 39.474 9.97228 41.2493 10.7291 42.8916C11.9494 45.5519 13.9916 47.7503 16.5551 49.1633C16.3943 49.6365 16.2506 50.1179 16.1275 50.6127C15.2504 54.2703 15.6781 57.4931 16.0777 60.3451C16.2794 61.6684 16.4281 62.9062 16.4813 64.1997C16.5136 65.6641 16.3761 67.1273 16.0714 68.56C15.5224 71.8669 14.7647 76.3959 16.08 83.1869C17.1736 88.8004 20.3666 98.404 22.5746 104.715L16.142 116.031C15.0767 117.912 14.469 120.016 14.3681 122.175C14.2673 124.334 14.6761 126.486 15.5614 128.457C16.4468 130.429 17.7839 132.164 19.4646 133.523C21.1452 134.882 23.1221 135.827 25.2355 136.28L69.5134 145.835L69.7023 145.873C72.7068 146.478 75.8271 146.063 78.5691 144.694C81.3111 143.326 83.5181 141.082 84.8407 138.318C87.1471 133.493 94.8125 117.172 96.5453 109.777C97.7232 104.743 98.961 93.134 100.867 69.7215L100.989 68.187C101.105 67.3684 101.268 66.5572 101.478 65.7575C103.359 67.5771 105.721 68.8198 108.286 69.3385C110.284 69.7418 112.347 69.6956 114.325 69.2033C116.304 68.711 118.147 67.785 119.723 66.4922C122.54 64.1876 124.33 60.8616 124.701 57.2413C125.072 53.6209 123.995 50.0008 121.704 47.1724Z" fill="#FFC900" stroke="black" stroke-width="2" stroke-miterlimit="10"/>
<path d="M44.267 74.5702C44.267 74.5702 46.3412 54.7636 48.0706 45.1074C49.2958 38.2803 52.347 29.2695 54.0285 24.5708C54.334 23.719 54.9555 23.0173 55.7643 22.6111C56.5731 22.2049 57.5072 22.1253 58.3731 22.3888C59.2018 22.6405 59.9091 23.1881 60.3603 23.9273C60.8114 24.6664 60.975 25.5456 60.82 26.3975C59.556 33.3244 56.9285 51.5309 58.4929 57.8525C61.6287 41.2371 64.2113 31.7855 67.4916 23.7057C68.0823 22.261 69.9103 20.4851 72.134 21.0687C74.1138 21.5845 75.007 23.5668 74.6787 25.3593L69.5175 60.2836" stroke="black" stroke-width="2" stroke-linecap="round" stroke-linejoin="round"/>
<path d="M72.0836 43.1331L76.0381 28.3118C76.3893 27.6095 76.962 27.0424 77.6678 26.698C78.3736 26.3537 79.1732 26.2512 79.9431 26.4064C80.8635 26.5917 81.6742 27.1315 82.2 27.9092C82.7258 28.687 82.9247 29.6403 82.7535 30.5633C81.5005 37.2958 80.0952 50.9217 77.6219 62.1322C80.2741 54.5907 85.7687 42.6077 88.2793 37.2567C88.6366 36.4974 89.2561 35.8926 90.0238 35.5535C90.7915 35.2144 91.6559 35.1639 92.4579 35.4111V35.4111C93.3037 35.669 94.0193 36.2396 94.459 37.0066C94.8987 37.7736 95.0294 38.6794 94.8245 39.5394C93.1715 46.491 87.7288 61.5181 87.2804 67.0457C86.6985 74.1662 84.6576 100.155 83.1321 106.659C81.6066 113.163 72.4232 132.395 72.4232 132.395L28.14 122.82L37.7001 106.02C37.7001 106.02 31.09 88.0873 29.6244 80.5544C28.1589 73.0215 30.5394 70.7342 30.2615 63.6511C29.9837 56.5681 27.6197 52.4732 32.2416 51.7046C36.995 50.9111 39.8048 61.7437 40.0348 74.3414C40.0348 74.3414 53.2557 74.2374 59.1673 93.5224" stroke="black" stroke-width="2" stroke-linecap="round" stroke-linejoin="round"/>
<path d="M53.5978 57.7268C53.5978 57.7268 75.2071 60.3797 82.038 64.5223" stroke="black" stroke-width="2" stroke-linecap="round" stroke-linejoin="round"/>
<path d="M61.7661 73.1992C61.7661 73.1992 63.2752 78.4001 72.3533 85.1255" stroke="black" stroke-width="2" stroke-linecap="round" stroke-linejoin="round"/>
<path d="M30.2197 61.739C30.2197 61.739 32.9644 59.7357 33.0125 57.4046C33.0606 55.0735 31.7447 54.1671 29.6193 54.165" stroke="black" stroke-width="2" stroke-linecap="round" stroke-linejoin="round"/>
<path d="M45.822 27.6265C45.822 27.6265 40.1344 26.2702 32.3117 28.0982" stroke="black" stroke-width="2" stroke-linecap="round" stroke-linejoin="round"/>
<path d="M38.9326 34.3241C38.9326 34.3241 31.934 33.1299 23.2532 37.1257" stroke="black" stroke-width="2" stroke-linecap="round" stroke-linejoin="round"/>
<path d="M100.03 49.1915C104.372 50.0548 108.269 52.4232 111.035 55.879" stroke="black" stroke-width="2" stroke-linecap="round" stroke-linejoin="round"/>
</svg>
