<svg width="136" height="138" viewBox="0 0 136 138" fill="none" xmlns="http://www.w3.org/2000/svg">
<path d="M3.49043 92.0588L10.6388 79.8012C8.09677 78.159 6.04817 75.8575 4.71179 73.1422C3.37541 70.4269 2.80128 67.3998 3.05067 64.3837C3.30005 61.3677 4.3636 58.4759 6.12781 56.017C7.89201 53.5581 10.2907 51.6243 13.0679 50.422L18.4835 48.0763C18.4835 48.015 18.4835 47.9537 18.5113 47.898C18.9725 45.2533 20.0639 42.7587 21.6932 40.6251C23.3225 38.4915 25.4417 36.7817 27.8716 35.6404L40.7475 29.5952C41.2818 29.3447 41.8285 29.1215 42.3855 28.9266C48.4778 26.8137 54.924 25.9109 61.3623 26.2689L81.4923 6.16083L81.6817 5.98253L82.0215 5.65937L82.3168 5.39751L82.6289 5.1245L82.9742 4.84592L83.2584 4.62863C83.3865 4.52834 83.5204 4.43362 83.6485 4.34447C83.7767 4.25533 83.8268 4.21633 83.9159 4.16061L84.3338 3.88203L84.5956 3.72044L85.0302 3.45858L85.3032 3.30815L85.7378 3.07971C85.8381 3.02399 85.9383 2.97942 86.0386 2.92927L86.462 2.73426C86.5735 2.67855 86.685 2.63398 86.802 2.58383L87.1975 2.42225C87.3201 2.37211 87.4482 2.32196 87.5819 2.27739L87.9442 2.14925L88.3676 2.00995L88.7185 1.90966L89.1587 1.78708L89.5041 1.70351L89.9498 1.6088L90.3176 1.53636L90.7411 1.46393L91.1478 1.40822L91.5434 1.35807L92.0003 1.31907H92.3568H92.8638H93.0923L117.44 1.00149C119.646 0.97204 121.836 1.37969 123.884 2.20092C125.932 3.02215 127.797 4.24072 129.372 5.78633C130.946 7.33194 132.199 9.17402 133.058 11.2063C133.918 13.2386 134.366 15.4209 134.377 17.6273L134.5 42.4211V42.4712C134.5 42.6328 134.5 42.7888 134.5 42.9504C134.5 43.112 134.5 43.19 134.5 43.307C134.497 43.3254 134.497 43.3442 134.5 43.3627C134.461 44.122 134.369 44.8778 134.227 45.6248C134.227 45.6526 134.227 45.6805 134.227 45.7083C134.182 45.9256 134.132 46.1485 134.082 46.3658L134.049 46.5051C134.004 46.7057 133.948 46.9062 133.887 47.1013L133.837 47.2963C133.781 47.4746 133.726 47.6528 133.664 47.8256L133.581 48.0819C133.525 48.2379 133.469 48.3883 133.408 48.5332C133.347 48.678 133.324 48.7505 133.28 48.8619C133.235 48.9733 133.174 49.107 133.118 49.2352C133.063 49.3633 133.007 49.4915 132.946 49.6196C132.884 49.7478 132.851 49.8202 132.801 49.9205C132.751 50.0208 132.656 50.2158 132.578 50.3607L132.444 50.5947C132.355 50.7563 132.266 50.9178 132.171 51.0738L132.054 51.2688C131.948 51.436 131.848 51.6031 131.737 51.7647C131.699 51.8245 131.658 51.8822 131.614 51.9374C131.503 52.1046 131.391 52.2717 131.269 52.4333L131.124 52.6172L130.762 53.0852C130.589 53.2914 130.416 53.4919 130.238 53.6925L130.115 53.8207C129.965 53.9822 129.82 54.1438 129.664 54.2998V54.3277L109.35 74.5416C109.665 80.8864 108.757 87.2326 106.676 93.2344C106.486 93.7908 106.265 94.3359 106.013 94.867L99.9619 107.749C98.8851 110.041 97.3015 112.059 95.3306 113.65C93.3596 115.24 91.0529 116.362 88.5848 116.931L85.5316 124.608C84.6058 126.939 83.1674 129.032 81.3228 130.732C79.4782 132.431 77.2747 133.694 74.8758 134.426C72.4769 135.158 69.944 135.34 67.4649 134.96C64.9857 134.58 62.6238 133.647 60.5543 132.23C58.1108 134.536 55.0293 136.051 51.7118 136.579C48.3942 137.107 44.9946 136.623 41.9561 135.191C38.9176 133.758 36.3812 131.443 34.6778 128.548C32.9744 125.652 32.183 122.311 32.4068 118.959L32.7132 114.396L21.4699 116.825C18.2988 117.513 14.996 117.264 11.9642 116.107C8.93246 114.951 6.30299 112.936 4.39662 110.31C2.49026 107.685 1.38939 104.56 1.22849 101.319C1.06758 98.0784 1.85355 94.8607 3.49043 92.0588Z" fill="#FFC900" stroke="black" stroke-width="2" stroke-miterlimit="10"/>
<path d="M93.3353 17.9717L117.809 42.4453L72.2304 88.0242L47.7571 63.5506L93.3353 17.9717Z" stroke="black" stroke-width="2" stroke-linecap="round" stroke-linejoin="round"/>
<path d="M92.9974 52.0837C87.8679 52.0837 83.7096 47.9253 83.7096 42.7957C83.7096 37.6662 87.8679 33.5078 92.9974 33.5078C98.1269 33.5078 102.285 37.6662 102.285 42.7957C102.285 47.9253 98.1269 52.0837 92.9974 52.0837Z" fill="black" stroke="black" stroke-width="2" stroke-linecap="round" stroke-linejoin="round"/>
<path d="M88.2996 37.8024C89.5977 36.5823 91.3197 35.9152 93.101 35.9422C94.8823 35.9692 96.5833 36.6883 97.8438 37.9473" stroke="white" stroke-width="2" stroke-linecap="round" stroke-linejoin="round"/>
<path d="M72.232 88.0199L84.8349 100.645L90.8857 87.7636C92.9364 81.8356 93.2533 75.4456 91.7994 69.3438V69.3438" stroke="black" stroke-width="2" stroke-linecap="round" stroke-linejoin="round"/>
<path d="M47.6172 63.4097L35.0032 50.8011L47.879 44.7503C53.8089 42.7006 60.1998 42.3817 66.3042 43.831V43.831" stroke="black" stroke-width="2" stroke-linecap="round" stroke-linejoin="round"/>
<path d="M58.0909 73.575L62.2417 77.7258L79.8923 60.0749C80.1654 59.8026 80.3822 59.4792 80.53 59.123C80.6778 58.7669 80.7539 58.3851 80.7539 57.9994C80.7539 57.6138 80.6778 57.232 80.53 56.8759C80.3822 56.5197 80.1654 56.1963 79.8923 55.924V55.924C79.6201 55.6509 79.2967 55.4343 78.9406 55.2864C78.5844 55.1386 78.2026 55.0625 77.817 55.0625C77.4314 55.0625 77.0496 55.1386 76.6934 55.2864C76.3373 55.4343 76.0138 55.6509 75.7415 55.924L58.0909 73.575Z" stroke="black" stroke-width="2" stroke-linecap="round" stroke-linejoin="round"/>
<path d="M117.812 42.4501L117.684 17.6562L93.3422 17.9794" stroke="black" stroke-width="2" stroke-linecap="round" stroke-linejoin="round"/>
<path d="M79.2031 95.2957L70.0101 118.435L64.5276 99.8867L49.0944 120.067L50.8773 93.3679L17.9494 100.488L33.3771 74.0845L19.7323 65.7827L40.6424 56.7344" stroke="black" stroke-width="2" stroke-linecap="round" stroke-linejoin="round"/>
</svg>
