<svg width="391" height="307" viewBox="0 0 391 307" fill="none" xmlns="http://www.w3.org/2000/svg">
<path d="M200.807 199.655C197.761 137.514 219.177 122.332 283.647 119.172C349.762 115.931 372.561 128.79 376.026 191.067C379.677 252.942 355.179 264.465 289.886 267.665C227.522 270.722 203.841 261.56 200.807 199.655Z" fill="#FF90E8" stroke="black" stroke-width="3" stroke-miterlimit="10"/>
<path d="M329.403 143.924C331.592 141.603 334.768 140.179 338.705 140.008L339.09 139.996C342.94 139.909 346.231 140.804 348.782 141.938L345.182 150.443C343.867 149.776 342.357 149.324 340.969 149.275L340.571 149.273C339.113 149.306 337.833 149.887 336.958 150.997C336.166 152.003 335.814 153.305 335.801 154.704L335.803 154.984C335.861 157.544 336.924 162.736 338.408 169.091C339.908 175.517 341.892 183.339 343.872 191.271C345.855 199.213 347.835 207.272 349.339 214.206C350.758 220.748 351.725 226.17 351.902 229.541L351.927 230.187C352.046 235.482 350.594 239.271 348.236 241.754C345.949 244.161 342.646 245.512 338.603 245.68L338.209 245.693C334.791 245.77 331.336 245.115 328.231 243.992L330.622 234.678C332.179 235.546 333.76 235.975 335.189 236.015L335.587 236.016C337.226 235.98 338.778 235.348 339.907 234.142C340.969 233.007 341.571 231.458 341.606 229.652L341.606 229.287C341.53 225.9 340.493 220.202 339.034 213.512C337.565 206.776 335.633 198.888 333.706 191.055C331.778 183.212 329.855 175.425 328.398 168.857C327.022 162.65 326.094 157.671 325.932 154.769L325.91 154.216C325.811 149.804 327.142 146.32 329.403 143.924ZM320.095 141.838L320.315 151.617C319.851 151.614 319.339 151.615 318.81 151.62C317.402 151.634 315.729 151.671 314.176 151.706L312.699 151.739L312.71 153.216C312.916 180.752 314.063 226.333 314.752 245.086L304.217 245.324C304.065 226.675 303.174 180.97 302.556 153.467L302.523 151.967L301.023 152.001C298.65 152.054 296.182 152.109 294.461 152.203L294.242 142.418L320.095 141.838ZM288.756 142.542L288.976 152.351C286.438 152.308 284.366 152.297 282.605 152.292C280.489 152.286 278.85 152.288 277.385 152.252L275.812 152.212L275.848 153.785C275.913 156.674 275.943 159.6 275.975 162.608C276.007 165.614 276.041 168.699 276.113 171.892L276.148 173.434L277.689 173.356C281.527 173.16 285.874 173.035 288.446 172.899L288.675 183.047C286.048 182.995 281.692 183.002 277.724 183.091L276.237 183.124L276.258 184.611C276.489 201.171 276.882 218.717 277.386 234.846L277.433 236.333L278.92 236.3C282.628 236.216 286.908 236.003 291.553 235.566L291.778 245.604L267.213 246.155C266.914 221.156 265.917 176.861 264.893 143.077L288.756 142.542ZM226.207 143.567C235.837 143.708 243.529 145.386 248.888 148.777C254.25 152.17 257.414 157.362 257.769 164.914L257.795 165.653C257.986 174.179 253.563 179.015 248.576 181.324L247.685 181.736L247.707 182.718L247.717 183.143L247.737 184.03L248.524 184.439C254.853 187.731 259.217 196.714 259.793 211.042L259.837 212.446C260.101 224.199 257.081 232.708 251.547 238.395C246.272 243.815 238.516 246.87 228.543 247.54C228.025 212.629 227.203 176.078 226.207 143.567ZM237.823 190C237.997 204.015 238.467 218.607 238.784 232.73L238.846 235.509L241.135 233.931C246.357 230.329 250.113 224.054 250.098 212.78L250.085 211.674C249.917 204.218 248.832 198.836 247.05 195.116C245.244 191.347 242.685 189.226 239.664 188.522L237.8 188.086L237.823 190ZM237.077 156.779C237.226 163.426 237.388 170.639 237.557 178.135L237.598 179.964L239.384 179.565C241.817 179.021 244.067 177.694 245.675 175.483C247.179 173.414 248.051 170.668 248.085 167.267L248.081 166.578C248.015 163.674 247.308 161.144 245.734 159.162C244.154 157.172 241.838 155.906 238.889 155.278L237.035 154.882L237.077 156.779Z" fill="#FFC900" stroke="black" stroke-width="3"/>
<path d="M215.308 17.8807L5.35547 87.5898L49.5297 220.636L259.482 150.926L215.308 17.8807Z" fill="#FF90E8" stroke="black" stroke-width="3" stroke-miterlimit="10"/>
<path d="M38.2681 87.9618C42.5311 86.5104 46.5097 86.3756 49.7217 86.7637L48.6906 97.6298C47.006 97.3224 45.1536 97.3333 43.5994 97.7643L43.1777 97.8939C41.6604 98.4105 40.5221 99.4376 39.978 100.876C39.4834 102.183 39.5401 103.666 39.995 105.156L40.0914 105.454C41.0207 108.184 43.9343 113.426 47.7192 119.811C51.5416 126.259 56.3657 134.055 61.2243 141.973C66.0888 149.902 70.9917 157.96 74.9943 164.962C78.7673 171.563 81.6779 177.122 83.0288 180.734L83.2775 181.43C85.2299 187.164 84.9598 191.824 83.2239 195.381C81.5408 198.829 78.3767 201.453 74.0145 203.032L73.5883 203.181C69.8237 204.463 65.76 204.932 61.9344 204.752L61.3171 193.394C63.3692 193.857 65.2897 193.792 66.8848 193.338L67.3062 193.207C69.0225 192.622 70.4425 191.442 71.2277 189.804C71.9666 188.262 72.0892 186.429 71.5216 184.502L71.3992 184.115C70.1662 180.494 67.105 174.689 63.235 167.937C59.3413 161.143 54.551 153.26 49.7852 145.43C45.0138 137.592 40.2675 129.809 36.4413 123.186C32.8293 116.935 30.1118 111.841 28.936 108.732L28.7206 108.137C27.0905 103.348 27.3393 99.0604 28.9964 95.635C30.6015 92.3172 33.6017 89.6544 37.8523 88.1074L38.2681 87.9618ZM107.164 66.1892C121.532 107.372 137.548 151.089 146.99 176.833L135.425 180.77C130.861 166.793 128.021 156.603 121.109 136.784L121.097 136.75L120.404 134.878C116.855 125.162 112.1 110.291 108.008 97.8035L107.715 96.9111L106.785 96.7837L106.429 96.7348L104.334 96.4493L104.757 98.5222C109.992 124.143 117.031 153.217 121.632 174.535C119.582 175.152 117.298 175.928 115.47 176.626C105.045 154.833 93.0955 129.016 81.9094 105.469L80.9909 103.536L79.4871 105.059L79.2346 105.314L78.5745 105.983L78.8882 106.868C83.3901 119.593 88.5158 134.152 92.6052 145.665L92.6053 145.666C98.0378 161.143 103.71 177.794 107.777 190.184L96.3544 194.072C88.5761 167.853 74.0901 122.383 61.2701 81.8246C62.7099 81.3312 65.0445 80.5294 67.3981 79.6999C69.1731 79.0744 70.9665 78.4316 72.399 77.8957C72.9982 77.6715 73.5394 77.461 73.9939 77.2794C79.6504 87.9027 92.2458 110.738 102.195 129.888L105.003 128.932C101.393 108.837 96.6898 80.4949 94.6662 70.1913C96.1761 69.738 98.5549 68.9848 100.874 68.2387C103.248 67.4747 105.643 66.6903 107.164 66.1892ZM140.707 54.7835C150.388 77.444 175.674 133.814 188.985 162.536L177.325 166.506C173.586 156.649 166.492 138.703 158.555 119.2L158.022 117.89L156.682 118.345C154.552 119.071 151.965 119.951 149.835 120.676L148.506 121.129L148.869 122.485C153.752 140.684 158.774 158.357 162.578 171.526L151.055 175.449C143.858 143.56 133.058 98.8247 123.398 60.6763L140.707 54.7835ZM168.103 45.4567C174.489 65.5833 189.827 110.157 201.95 145.28L202.437 146.692L203.851 146.211C206.82 145.2 210.094 143.953 213.571 142.507L217.119 152.926C210.529 155.021 202.457 157.646 193.965 160.793C185.822 135.073 163.714 71.0287 156.077 49.5512L168.103 45.4567ZM196.486 35.7935C202.872 55.9199 218.21 100.494 230.333 135.617L230.821 137.029L232.235 136.547C235.204 135.537 238.478 134.29 241.955 132.843L245.502 143.262C238.913 145.358 230.841 147.983 222.349 151.13C214.207 125.409 192.098 61.3653 184.461 39.8879L196.486 35.7935ZM135.821 67.5423L135.365 67.698L134.059 68.1422L134.392 69.4803C137.161 80.6105 140.81 94.3251 144.612 108.483L145.027 110.03L146.544 109.514C148.37 108.892 150.348 108.219 152.174 107.597L153.673 107.086L153.083 105.617C147.551 91.8662 141.972 78.4725 137.685 68.3765L137.14 67.0935L135.821 67.5423Z" fill="#FFC900" stroke="black" stroke-width="3"/>
</svg>
