<svg width="756" height="720" viewBox="0 0 756 720" fill="none" xmlns="http://www.w3.org/2000/svg">
<g clip-path="url(#clip0_56_1834)">
<rect width="756" height="720" fill="#F1F333"/>
<path d="M378.478 -43.0898C458.739 -43.0898 537.086 -29.1597 603.299 -3.16113L606.442 -1.91406C672.799 24.6804 723.432 62.2136 751.738 105.633L752.403 106.66C780.335 150.138 784.618 197.407 764.761 242.264L764.287 243.322C743.872 288.536 699.822 329.164 637.936 359.666L636.28 360.482L637.936 361.299C699.338 391.562 743.183 431.795 763.805 476.584L764.287 477.643C784.683 522.814 780.555 570.486 752.403 614.306C724.669 657.475 674.907 694.889 609.565 721.615L606.442 722.88C539.573 749.68 460.013 764.056 378.478 764.056C296.943 764.056 217.383 749.68 150.514 722.88C84.1563 696.285 33.5229 658.752 5.2168 615.332L4.55273 614.306C-23.3793 570.828 -27.6621 523.559 -7.80566 478.702L-7.33203 477.643C13.0833 432.429 57.1334 391.801 119.02 361.299L120.676 360.482L119.02 359.666C57.6172 329.403 13.7733 289.171 -6.84863 244.382L-7.33203 243.322C-27.5687 198.504 -23.6622 151.224 3.89746 107.688L4.55273 106.66C32.2868 63.4911 82.048 26.0763 147.39 -0.649414L150.514 -1.91406C217.383 -28.7139 296.943 -43.0898 378.478 -43.0898Z" fill="#FFC900" stroke="black" stroke-width="1.81994"/>
<path d="M45 481H215.571C219.122 481 222 483.878 222 487.429V729H45V481Z" fill="black" stroke="black" stroke-width="2"/>
<path d="M37 473H207.571C211.122 473 214 475.878 214 479.429V729H37V473Z" fill="white" stroke="black" stroke-width="2"/>
<rect x="59" y="514" width="96" height="8" rx="4" fill="#FFC900"/>
<rect x="59" y="533" width="112" height="6" rx="3" fill="#D6D3D1"/>
<rect x="59.8569" y="684" width="120.857" height="5.78571" rx="2.89286" fill="#D6D3D1"/>
<rect x="85.2144" y="574.071" width="59.7857" height="5.78571" rx="2.89286" fill="#D6D3D1"/>
<rect x="85" y="591" width="55" height="6" rx="3" fill="#D6D3D1"/>
<rect x="85.2144" y="608.786" width="74.5714" height="5.14286" rx="2.57143" fill="#D6D3D1"/>
<rect x="85" y="626" width="68" height="5" rx="2.5" fill="#D6D3D1"/>
<rect x="85.2144" y="642.857" width="86.1429" height="5.78571" rx="2.89286" fill="#D6D3D1"/>
<rect x="85" y="660" width="75" height="6" rx="3" fill="#D6D3D1"/>
<rect x="59" y="547.286" width="97.7143" height="5.78571" rx="2.89286" fill="#D6D3D1"/>
<circle cx="65.6426" cy="576.643" r="5.78571" fill="#23A094"/>
<circle cx="65.6426" cy="594" r="5.78571" fill="#23A094"/>
<circle cx="65.6426" cy="611.357" r="5.78571" fill="#23A094"/>
<circle cx="65.6426" cy="628.714" r="5.78571" fill="#23A094"/>
<circle cx="65.6426" cy="646.071" r="5.78571" fill="#23A094"/>
<circle cx="65.6426" cy="662.786" r="5.78571" fill="#23A094"/>
<path d="M63.0713 577.3L64.5307 578.572L67.5713 575.357" stroke="white" stroke-width="0.366541"/>
<path d="M63.0713 594.402L64.5307 595.928L67.5713 592.071" stroke="white" stroke-width="0.366541"/>
<path d="M63.0713 611.759L64.5307 613.286L67.5713 609.429" stroke="white" stroke-width="0.366541"/>
<path d="M63.0713 629.116L64.5307 630.643L67.5713 626.786" stroke="white" stroke-width="0.366541"/>
<path d="M63.0713 646.085L64.5307 647.357L67.5713 644.143" stroke="white" stroke-width="0.366541"/>
<path d="M63.0713 663.442L64.5307 664.714L67.5713 661.5" stroke="white" stroke-width="0.366541"/>
<rect x="278.524" y="265.677" width="403.476" height="248.293" rx="6.84989" fill="black" stroke="black" stroke-width="2.13108"/>
<rect x="270" y="257.152" width="403.476" height="248.293" rx="6.84989" fill="white" stroke="black" stroke-width="2.13108"/>
<path d="M294.343 472.046C294.343 470.371 296.031 469.247 297.559 469.848L297.707 469.912L309.898 475.65C311.603 476.452 311.712 478.806 310.154 479.78L309.998 479.87L297.806 486.324C296.235 487.156 294.343 486.017 294.343 484.239V472.046Z" fill="#23A094" stroke="black" stroke-width="2.13108"/>
<rect x="324.314" y="474.408" width="318.125" height="7.75915" rx="3.87957" fill="#F4F4F0"/>
<rect x="324.314" y="474.408" width="155.183" height="7.75915" rx="3.87957" fill="#FFC900"/>
<path d="M666.228 257H277.154C273.371 257 270.304 260.067 270.304 263.85V456.256H673.078V263.85C673.078 260.067 670.011 257 666.228 257Z" fill="#FF90E8" stroke="black" stroke-width="2.13108" stroke-miterlimit="10"/>
<mask id="mask0_56_1834" style="mask-type:alpha" maskUnits="userSpaceOnUse" x="351" y="268" width="162" height="189">
<rect x="351.285" y="268.721" width="160.896" height="187.535" fill="#C4C4C4"/>
</mask>
<g mask="url(#mask0_56_1834)">
<path d="M496.153 307.488V327.333C496.153 332.528 494.089 337.51 490.416 341.183C486.742 344.857 481.76 346.92 476.565 346.92H459.805C457.752 346.92 455.719 347.325 453.822 348.111C451.925 348.896 450.202 350.048 448.751 351.5C447.299 352.952 446.148 354.675 445.363 356.572C444.577 358.469 444.174 360.502 444.174 362.555V394.969H387.514V307.488C387.514 302.294 389.577 297.311 393.251 293.638C396.924 289.965 401.906 287.901 407.101 287.901H476.565C481.76 287.901 486.742 289.965 490.416 293.638C494.089 297.311 496.153 302.294 496.153 307.488Z" fill="#23A094" stroke="black" stroke-width="2.13108" stroke-miterlimit="10"/>
<path d="M435.687 394.988V411.947H468.91V398.717H490.871V418.926C490.871 420.591 490.542 422.24 489.901 423.779C489.261 425.317 488.323 426.715 487.14 427.892C485.958 429.07 484.554 430.004 483.008 430.641C481.463 431.278 479.807 431.606 478.134 431.606H445.654V467.977H387.514V428.017C387.512 425.661 387.978 423.329 388.883 421.154C389.788 418.978 391.116 417.001 392.79 415.337C394.463 413.672 396.45 412.353 398.637 411.454C400.823 410.555 403.167 410.095 405.532 410.098H416.335V394.988H435.687Z" fill="#FFC900" stroke="black" stroke-width="2.13108" stroke-miterlimit="10"/>
<path d="M491.019 398.697C491.019 385.584 495.481 363.662 491.019 361.603C486.557 359.544 476.643 358.866 473.212 359.549C469.781 360.232 476.618 373.938 473.757 375.169C470.897 376.401 470.352 363.114 465.582 366.693C460.813 370.273 470.213 382.588 470.213 382.588L468.726 398.717L491.019 398.697Z" fill="#23A094" stroke="black" stroke-width="2.13108" stroke-miterlimit="10"/>
<path d="M479.149 322.669C481.752 322.669 483.863 320.559 483.863 317.956C483.863 315.352 481.752 313.242 479.149 313.242C476.546 313.242 474.436 315.352 474.436 317.956C474.436 320.559 476.546 322.669 479.149 322.669Z" fill="#FFC900" stroke="black" stroke-width="2.13108" stroke-miterlimit="10"/>
<path d="M404.328 322.669C406.932 322.669 409.042 320.559 409.042 317.956C409.042 315.352 406.932 313.242 404.328 313.242C401.725 313.242 399.615 315.352 399.615 317.956C399.615 320.559 401.725 322.669 404.328 322.669Z" fill="#FFC900" stroke="black" stroke-width="2.13108" stroke-miterlimit="10"/>
</g>
<rect x="543.539" y="322.308" width="26.0296" height="54.7991" rx="13.0148" fill="#23A094" stroke="black" stroke-width="2.13108" stroke-miterlimit="10"/>
<path d="M576.418 363.407C576.418 374.378 567.525 383.272 556.554 383.272C545.583 383.272 536.689 374.378 536.689 363.407" stroke="black" stroke-width="2.13108" stroke-miterlimit="10"/>
<line x1="556.934" y1="383.272" x2="556.934" y2="455.881" stroke="black" stroke-width="2.13108" stroke-miterlimit="10"/>
<path d="M543.539 346.505H569.911" stroke="black" stroke-width="2.13108" stroke-miterlimit="10"/>
<path d="M543.539 353.817H569.911" stroke="black" stroke-width="2.13108" stroke-miterlimit="10"/>
<line x1="270.304" y1="456.256" x2="673.078" y2="456.256" stroke="black" stroke-width="2.13108"/>
<path d="M71.3512 117.679C75.0438 108.379 82.2733 100.922 91.4538 96.9453C100.634 92.9685 111.016 92.7959 120.322 96.4655C122.237 97.2195 124.088 98.1288 125.856 99.1844L159.81 103.532C169.197 101.085 179.118 101.695 188.132 105.274C199.431 109.759 208.488 118.544 213.318 129.702C218.148 140.86 218.355 153.48 213.894 164.792C211.536 170.772 207.941 176.186 203.345 180.678C204.799 180.867 206.216 181.274 207.548 181.886C207.826 181.997 208.092 182.075 208.325 182.167C211.983 183.615 220.497 188.571 220.129 203.121C219.986 208.64 218.598 214.889 216.107 221.182C213.617 227.476 210.352 232.987 206.68 237.11C196.99 247.966 187.394 245.756 183.736 244.308C181.233 243.304 178.989 241.747 177.172 239.754L160.791 223.004L159.936 222.666L155.811 233.089C154.136 237.309 150.856 240.692 146.691 242.496C142.527 244.3 137.817 244.378 133.595 242.713L72.4081 218.502C68.1915 216.827 64.8117 213.547 63.0099 209.382C61.2081 205.217 61.1314 200.507 62.7965 196.284L69.3645 179.686C66.2573 177.937 63.8887 175.122 62.6967 171.761C61.5048 168.4 61.5703 164.72 62.881 161.403L67.5088 149.708C68.2874 147.737 69.4821 145.958 71.0112 144.492C67.8233 135.817 67.9443 126.271 71.3512 117.679Z" fill="#23A094" stroke="black" stroke-width="1.30248" stroke-miterlimit="10"/>
<path d="M97.2541 152.718L158.441 176.929C159.656 177.409 160.25 178.784 159.77 179.999L141.07 227.257C140.589 228.472 139.215 229.067 138 228.586L76.8136 204.375C75.5989 203.895 75.004 202.52 75.4848 201.305L94.1843 154.047C94.6651 152.832 96.0395 152.237 97.2541 152.718Z" stroke="black" stroke-width="1.30248" stroke-linecap="round" stroke-linejoin="round"/>
<path d="M158.776 176.469C142.804 170.149 134.981 152.073 141.303 136.096C147.625 120.118 165.699 112.289 181.671 118.609C197.643 124.929 205.465 143.005 199.143 158.982C192.821 174.96 174.748 182.789 158.776 176.469Z" stroke="black" stroke-width="1.30248" stroke-linecap="round" stroke-linejoin="round"/>
<path d="M96.9528 152.529C85.1524 147.86 79.3729 134.505 84.0438 122.701C88.7147 110.896 102.067 105.112 113.868 109.782C125.668 114.451 131.448 127.805 126.777 139.61C122.106 151.414 108.753 157.199 96.9528 152.529Z" stroke="black" stroke-width="1.30248" stroke-linecap="round" stroke-linejoin="round"/>
<path d="M159.185 118.075L120.974 113.181" stroke="black" stroke-width="1.30248" stroke-linecap="round" stroke-linejoin="round"/>
<path d="M91.8868 159.359L80.2 154.735L75.574 166.426L87.2608 171.05" stroke="black" stroke-width="1.30248" stroke-linecap="round" stroke-linejoin="round"/>
<path d="M105.217 167.422L141.887 181.932C145.023 183.173 146.559 186.722 145.318 189.86L145.316 189.864C144.075 193.002 140.526 194.539 137.389 193.298L100.719 178.788C97.5831 177.547 96.047 173.998 97.2885 170.86L97.2903 170.856C98.5317 167.718 102.081 166.181 105.217 167.422Z" stroke="black" stroke-width="1.30248" stroke-linecap="round" stroke-linejoin="round"/>
<path d="M128.867 213.313C125.634 212.034 124.051 208.376 125.331 205.142C126.61 201.909 130.268 200.325 133.5 201.604C136.732 202.883 138.315 206.541 137.036 209.774C135.756 213.007 132.099 214.592 128.867 213.313Z" fill="black" stroke="black" stroke-width="1.30248" stroke-linecap="round" stroke-linejoin="round"/>
<path d="M111.382 206.394C108.15 205.115 106.567 201.457 107.846 198.224C109.126 194.991 112.783 193.406 116.015 194.685C119.248 195.964 120.831 199.622 119.551 202.856C118.272 206.089 114.615 207.673 111.382 206.394Z" stroke="black" stroke-width="1.30248" stroke-linecap="round" stroke-linejoin="round"/>
<path d="M156.426 189.277L173.467 196.021L167.949 209.966L150.908 203.223L156.426 189.277Z" stroke="black" stroke-width="1.30248" stroke-linecap="round" stroke-linejoin="round"/>
<path d="M200.38 194.92L173.641 196.089" stroke="black" stroke-width="1.30248" stroke-linecap="round" stroke-linejoin="round"/>
<path d="M168.122 210.035L186.821 229.188" stroke="black" stroke-width="1.30248" stroke-linecap="round" stroke-linejoin="round"/>
<path d="M174.412 136.955C171.384 135.757 169.901 132.331 171.1 129.302C172.298 126.273 175.724 124.789 178.752 125.987C181.78 127.185 183.263 130.612 182.064 133.64C180.866 136.669 177.44 138.153 174.412 136.955Z" stroke="black" stroke-width="1.30248" stroke-linecap="round" stroke-linejoin="round"/>
<path d="M161.698 169.087C158.67 167.888 157.187 164.462 158.385 161.433C159.584 158.404 163.01 156.92 166.038 158.118C169.065 159.316 170.548 162.743 169.35 165.772C168.151 168.8 164.725 170.285 161.698 169.087Z" stroke="black" stroke-width="1.30248" stroke-linecap="round" stroke-linejoin="round"/>
<path d="M157.637 139.241C154.609 138.043 153.126 134.617 154.324 131.588C155.523 128.559 158.949 127.075 161.977 128.273C165.004 129.471 166.487 132.898 165.289 135.926C164.09 138.955 160.664 140.439 157.637 139.241Z" stroke="black" stroke-width="1.30248" stroke-linecap="round" stroke-linejoin="round"/>
<path d="M178.472 166.8C175.444 165.602 173.961 162.175 175.16 159.147C176.358 156.118 179.784 154.634 182.812 155.832C185.84 157.03 187.323 160.456 186.124 163.485C184.926 166.514 181.5 167.998 178.472 166.8Z" stroke="black" stroke-width="1.30248" stroke-linecap="round" stroke-linejoin="round"/>
<path d="M150.911 155.011C147.883 153.813 146.4 150.386 147.599 147.357C148.797 144.328 152.223 142.844 155.251 144.042C158.279 145.24 159.762 148.667 158.563 151.696C157.365 154.725 153.939 156.209 150.911 155.011Z" stroke="black" stroke-width="1.30248" stroke-linecap="round" stroke-linejoin="round"/>
<path d="M185.224 150.967C182.196 149.769 180.713 146.342 181.912 143.313C183.11 140.284 186.536 138.8 189.564 139.998C192.591 141.197 194.074 144.623 192.876 147.652C191.677 150.681 188.251 152.165 185.224 150.967Z" stroke="black" stroke-width="1.30248" stroke-linecap="round" stroke-linejoin="round"/>
<path d="M169.016 150.59C167.332 149.923 166.507 148.017 167.174 146.332C167.84 144.647 169.746 143.822 171.431 144.488C173.115 145.155 173.94 147.061 173.273 148.746C172.606 150.431 170.701 151.256 169.016 150.59Z" stroke="black" stroke-width="1.30248" stroke-linecap="round" stroke-linejoin="round"/>
<path d="M108.534 123.261C106.277 122.368 105.171 119.813 106.065 117.554C106.958 115.296 109.513 114.189 111.77 115.083C114.028 115.976 115.134 118.531 114.24 120.789C113.346 123.048 110.792 124.154 108.534 123.261Z" stroke="black" stroke-width="1.30248" stroke-linecap="round" stroke-linejoin="round"/>
<path d="M99.0486 147.233C96.7911 146.34 95.6854 143.785 96.579 141.526C97.4726 139.268 100.027 138.161 102.285 139.055C104.542 139.948 105.648 142.503 104.754 144.761C103.861 147.02 101.306 148.126 99.0486 147.233Z" stroke="black" stroke-width="1.30248" stroke-linecap="round" stroke-linejoin="round"/>
<path d="M96.018 124.969C93.7604 124.076 92.6547 121.521 93.5483 119.262C94.4419 117.004 96.9964 115.897 99.254 116.791C101.512 117.684 102.617 120.239 101.724 122.497C100.83 124.756 98.2755 125.862 96.018 124.969Z" stroke="black" stroke-width="1.30248" stroke-linecap="round" stroke-linejoin="round"/>
<path d="M111.565 145.525C109.307 144.632 108.201 142.077 109.095 139.819C109.989 137.56 112.543 136.454 114.801 137.347C117.058 138.24 118.164 140.795 117.27 143.054C116.377 145.312 113.822 146.419 111.565 145.525Z" stroke="black" stroke-width="1.30248" stroke-linecap="round" stroke-linejoin="round"/>
<path d="M90.9989 136.731C88.7413 135.838 87.6356 133.283 88.5292 131.025C89.4228 128.766 91.9773 127.66 94.2349 128.553C96.4924 129.446 97.5981 132.001 96.7045 134.26C95.8109 136.518 93.2564 137.625 90.9989 136.731Z" stroke="black" stroke-width="1.30248" stroke-linecap="round" stroke-linejoin="round"/>
<path d="M116.599 133.711C114.342 132.817 113.236 130.262 114.13 128.004C115.023 125.746 117.578 124.639 119.835 125.532C122.093 126.426 123.199 128.981 122.305 131.239C121.412 133.497 118.857 134.604 116.599 133.711Z" stroke="black" stroke-width="1.30248" stroke-linecap="round" stroke-linejoin="round"/>
<path d="M104.509 133.434C103.252 132.936 102.636 131.513 103.134 130.255C103.631 128.997 105.054 128.38 106.312 128.878C107.569 129.376 108.185 130.799 107.688 132.057C107.19 133.315 105.767 133.931 104.509 133.434Z" stroke="black" stroke-width="1.30248" stroke-linecap="round" stroke-linejoin="round"/>
<path d="M188.132 230.204C184.617 228.813 184.841 219.919 188.632 210.337C192.424 200.756 198.347 194.116 201.862 195.507C205.377 196.898 205.153 205.792 201.362 215.374C197.57 224.955 191.647 231.595 188.132 230.204Z" fill="black" stroke="black" stroke-width="1.30248" stroke-linecap="round" stroke-linejoin="round"/>
<path d="M761.974 626.783C769.73 646.73 770.889 661.237 761.779 674.164C752.863 686.815 734.008 698.136 701.124 711.293L697.898 712.573L697.896 712.573C680.606 719.403 666.59 723.844 655.054 726.059C643.517 728.274 634.516 728.251 627.229 726.206C612.734 722.14 604.666 709.966 596.986 690.213C589.654 671.358 587.658 657.66 595.76 645.322C599.839 639.111 606.524 633.167 616.563 627.082C626.599 620.998 639.937 614.802 657.264 608.064C692.107 594.516 714.546 589.664 730.118 592.913C745.527 596.129 754.415 607.344 761.974 626.783Z" fill="#FF90E8" stroke="black" stroke-width="1.78545"/>
<rect x="626.462" y="649.122" width="105.697" height="66.486" rx="16.9618" transform="rotate(-21.2476 626.462 649.122)" fill="black" stroke="black" stroke-width="1.78545"/>
<rect x="617.839" y="645.327" width="105.697" height="66.486" rx="16.9618" transform="rotate(-21.2476 617.839 645.327)" fill="#F4F4F0" stroke="black" stroke-width="1.78545"/>
<path d="M661.9 647.863C661.524 646.66 662.495 645.449 663.75 645.556L663.878 645.571L693.102 650.07C694.418 650.273 695.044 651.782 694.3 652.851L694.223 652.953L675.715 676.013C674.854 677.085 673.156 676.824 672.658 675.543L661.942 647.983L661.9 647.863Z" fill="#FF90E8" stroke="black" stroke-width="1.78545"/>
<path d="M478.078 106.035L418.353 107.932L418.288 107.894L426.844 93.3695C431.088 85.4867 416.305 69.269 393.829 57.1378C371.352 45.0066 349.693 41.557 345.449 49.4398L333.723 69.2442L295.036 33.0256L396.633 29.8071L478.078 106.035Z" fill="#FF90E8"/>
<path d="M333.723 69.2442L345.407 49.4065C349.65 41.5237 371.31 44.9733 393.787 57.1045C416.263 69.2357 431.045 85.4534 426.802 93.3361L412.45 117.707L412.389 117.681C415.973 109.67 401.302 93.7655 379.182 81.8278C356.706 69.6966 335.043 66.2557 330.805 74.136L333.723 69.2442Z" fill="#FF90E8"/>
<path d="M379.189 81.8615C401.308 93.7992 415.979 109.703 412.395 117.715L412.206 118.099C407.963 125.982 386.305 122.539 363.829 110.408C341.352 98.2764 326.568 82.0525 330.811 74.1697C335.055 66.2869 356.71 69.7241 379.189 81.8615Z" fill="#FF90E8"/>
<path d="M334.087 69.6152L333.699 69.255L295.012 33.0364L396.628 29.8104L478.04 106.03L418.316 107.927" stroke="black" stroke-width="1.55539" stroke-linecap="round" stroke-linejoin="round"/>
<path d="M412.163 44.7892L412.38 44.6428C414.898 42.9404 438.388 26.1229 436.236 -5.44352" stroke="black" stroke-width="1.55539" stroke-linecap="round" stroke-linejoin="round"/>
<path d="M345.382 49.5176C349.625 41.6348 371.285 45.0844 393.762 57.2155C416.238 69.3467 431.02 85.5644 426.777 93.4472" stroke="black" stroke-width="1.55539" stroke-linecap="round" stroke-linejoin="round"/>
<path d="M412.394 117.709L412.205 118.093C407.961 125.976 386.304 122.533 363.828 110.402C341.351 98.2704 326.566 82.0465 330.81 74.1637C335.053 66.2809 356.711 69.7243 379.187 81.8555C401.297 93.7685 415.977 109.697 412.394 117.709Z" stroke="black" stroke-width="1.55539" stroke-linecap="round" stroke-linejoin="round"/>
<path d="M330.81 74.1638L345.383 49.417" stroke="black" stroke-width="1.55539" stroke-linecap="round" stroke-linejoin="round"/>
<path d="M412.454 117.734L427.027 92.9869" stroke="black" stroke-width="1.55539" stroke-linecap="round" stroke-linejoin="round"/>
<path d="M341.405 69.9688C348.332 79.739 371.917 101.208 410.838 108.922" stroke="black" stroke-width="1.55539"/>
<path d="M683.078 136.286C684.033 136.489 684.906 136.97 685.587 137.669C686.268 138.368 686.727 139.253 686.905 140.211C687.083 141.17 686.972 142.16 686.586 143.056C686.201 143.952 685.558 144.713 684.74 145.244C683.921 145.774 682.963 146.05 681.987 146.037C681.011 146.024 680.061 145.721 679.256 145.168C678.452 144.615 677.83 143.837 677.469 142.931C677.107 142.024 677.023 141.032 677.226 140.078C677.499 138.8 678.269 137.683 679.366 136.972C680.463 136.261 681.798 136.014 683.078 136.286Z" fill="#FF90E8"/>
<path d="M674.004 107.807L660.438 137.381C659.018 136.498 657.503 135.473 655.827 134.299C650.46 130.535 644.726 124.479 639.215 120.688L674.004 107.807Z" fill="#FF90E8"/>
<path d="M660.438 137.382L656.262 146.488L656.012 146.724L646.989 137.164C640.886 130.58 624.354 135.957 610.096 149.172C595.839 162.388 589.241 178.446 595.359 185.033L600.645 190.636L566.748 203.356L597.764 136.039L639.216 120.688C644.727 124.48 650.46 130.535 655.827 134.299C657.503 135.473 659.018 136.498 660.438 137.382Z" fill="#FF90E8"/>
<path d="M606.493 187.518C605.363 192.164 605.836 196.105 608.191 198.64L595.346 185.027C589.243 178.443 595.826 162.386 610.084 149.167C624.342 135.947 640.86 130.572 646.977 137.158L659.822 150.771C657.428 148.199 653.449 147.454 648.638 148.287C641.137 149.587 631.615 154.729 622.928 162.783C614.175 170.913 608.307 180.112 606.493 187.518Z" fill="#FF90E8"/>
<path d="M659.836 150.774C665.939 157.358 659.353 173.414 645.098 186.634C630.843 199.854 614.322 205.229 608.205 198.643C605.849 196.108 605.376 192.167 606.507 187.521C614.013 186.229 623.557 181.084 632.256 173.007C641.159 164.742 647.038 156.163 648.729 148.698L648.654 148.276C653.463 147.456 657.442 148.202 659.836 150.774Z" fill="#FF90E8"/>
<path d="M648.651 148.288L648.726 148.711C647.034 156.182 641.163 164.756 632.253 173.02C623.557 181.083 614.013 186.228 606.504 187.533C608.304 180.124 614.172 170.925 622.939 162.799C631.628 154.731 641.15 149.588 648.651 148.288Z" fill="#FF90E8"/>
<path d="M600.89 190.542L600.645 190.633L566.749 203.353L597.763 136.04L674.004 107.808L656.262 146.485" stroke="black" stroke-width="1.55539" stroke-linecap="round" stroke-linejoin="round"/>
<path d="M659.835 150.774C665.938 157.358 659.352 173.414 645.097 186.634C630.842 199.854 614.321 205.229 608.204 198.643C605.849 196.108 605.375 192.167 606.506 187.521C608.306 180.112 614.174 170.912 622.941 162.786C631.628 154.732 641.15 149.589 648.651 148.289C653.462 147.456 657.441 148.202 659.835 150.774Z" stroke="black" stroke-width="1.55539" stroke-linecap="round" stroke-linejoin="round"/>
<path d="M659.835 150.775L646.99 137.162C640.886 130.578 624.354 135.955 610.097 149.17C595.839 162.386 589.242 178.444 595.359 185.031L608.204 198.644" stroke="black" stroke-width="1.55539" stroke-linecap="round" stroke-linejoin="round"/>
<path d="M648.726 148.71C647.034 156.181 641.163 164.756 632.253 173.019C623.557 181.082 614.013 186.227 606.503 187.533L606.392 187.552" stroke="black" stroke-width="1.55539" stroke-linecap="round" stroke-linejoin="round"/>
<path d="M623.62 125.435C623.62 125.435 622.751 117.188 630.607 117.244C633.357 117.265 636.257 118.649 639.225 120.69C644.736 124.481 650.47 130.536 655.836 134.301C657.513 135.474 659.028 136.5 660.448 137.383C666.032 140.865 670.157 142.217 676.758 142.175" stroke="black" stroke-width="1.55539" stroke-linecap="round" stroke-linejoin="round"/>
<path d="M686.889 142.13C686.686 143.084 686.206 143.957 685.507 144.637C684.808 145.318 683.923 145.776 682.964 145.954C682.004 146.132 681.013 146.022 680.116 145.637C679.219 145.252 678.456 144.611 677.924 143.793C677.392 142.975 677.114 142.018 677.127 141.043C677.139 140.068 677.441 139.119 677.993 138.315C678.546 137.511 679.325 136.89 680.231 136.528C681.138 136.167 682.131 136.083 683.086 136.286C684.366 136.558 685.485 137.326 686.198 138.422C686.911 139.518 687.159 140.852 686.889 142.13V142.13Z" stroke="black" stroke-width="1.55539" stroke-linecap="round" stroke-linejoin="round"/>
<path d="M686.543 138.813C686.543 138.813 690.235 137.581 692.53 125.777" stroke="black" stroke-width="1.55539" stroke-linecap="round" stroke-linejoin="round"/>
<path d="M696.673 130.083C693.201 138.818 686.542 138.812 686.542 138.812C686.542 138.812 690.795 142.539 699.194 136.262" stroke="black" stroke-width="1.55539" stroke-linecap="round" stroke-linejoin="round"/>
<path d="M551.07 20.141L567.53 -23.2778L614.433 -19.7978L604.174 7.25253L603.597 6.98694C604.779 3.81921 604.898 0.649611 603.684 -1.99912L599.93 -9.9509C597.028 -16.2859 587.618 -17.244 578.91 -12.0816C570.201 -6.91929 565.497 2.37537 568.399 8.71037L572.151 16.662C573.653 19.9404 576.9 21.7777 580.895 22.074L580.874 22.358L551.07 20.141Z" fill="#FF90E8"/>
<path d="M571.303 12.1893C571.238 13.7434 571.53 15.2832 572.15 16.6613L568.398 8.70975C565.497 2.37475 570.204 -6.93394 578.909 -12.0823C587.614 -17.2306 597.027 -16.2723 599.929 -9.95153L603.683 -1.99974C603.021 -3.4236 602.029 -4.61694 600.81 -5.457C596.574 -8.45849 589.408 -8.13344 582.675 -4.14392C575.845 -0.0986689 571.482 6.4827 571.303 12.1893Z" fill="#FF90E8"/>
<path d="M571.304 12.1891C571.473 6.49021 575.846 -0.0989252 582.665 -4.13073C589.409 -8.11949 596.574 -8.44454 600.8 -5.4438L600.768 -5.38906C600.549 0.306039 596.192 6.83647 589.401 10.8531C582.691 14.8301 575.545 15.1623 571.304 12.1891Z" fill="#FF90E8"/>
<path d="M580.872 22.3517L580.893 22.0677C584.609 22.3435 588.974 21.2823 593.172 18.7981C598.237 15.8013 601.95 11.402 603.597 7.00656L604.175 7.27215L597.974 23.6264L580.872 22.3517Z" fill="#FF90E8"/>
<path d="M589.417 10.8553C596.203 6.84113 600.56 0.302176 600.784 -5.38687L600.816 -5.44161C602.035 -4.60155 603.027 -3.4082 603.69 -1.98434C604.902 0.675749 604.782 3.8338 603.602 7.00172C601.954 11.4086 598.241 15.8078 593.177 18.7933C588.979 21.2775 584.614 22.3386 580.897 22.0629C576.908 21.7669 573.66 19.9296 572.153 16.6508C571.533 15.2727 571.242 13.7329 571.306 12.1788C575.546 15.1634 582.692 14.8312 589.417 10.8553Z" fill="#FF90E8"/>
<path d="M616.324 25.5732C616.082 25.9643 615.742 26.2679 615.349 26.4456C614.956 26.6233 614.527 26.667 614.116 26.5714C613.706 26.4758 613.331 26.2451 613.041 25.9084C612.75 25.5717 612.557 25.1442 612.485 24.6798C612.413 24.2155 612.465 23.7352 612.636 23.2997C612.806 22.8642 613.087 22.493 613.443 22.2331C613.799 21.9731 614.213 21.8361 614.634 21.8392C615.055 21.8424 615.464 21.9857 615.808 22.2509C616.038 22.427 616.233 22.6526 616.383 22.915C616.533 23.1774 616.635 23.4713 616.683 23.78C616.731 24.0886 616.724 24.4059 616.662 24.7136C616.6 25.0214 616.486 25.3135 616.324 25.5732Z" fill="#FF90E8"/>
<path d="M616.325 25.5733C616.567 25.1819 616.702 24.7207 616.712 24.248C616.722 23.7752 616.607 23.3121 616.381 22.9172C616.156 22.5223 615.83 22.2134 615.445 22.0294C615.06 21.8455 614.633 21.7948 614.218 21.8837C613.803 21.9727 613.419 22.1973 613.114 22.5292C612.809 22.861 612.597 23.2853 612.505 23.7483C612.412 24.2113 612.444 24.6922 612.595 25.1304C612.747 25.5685 613.011 25.9441 613.356 26.2097C613.584 26.3862 613.843 26.5097 614.116 26.5733C614.389 26.6368 614.671 26.6391 614.947 26.58C615.223 26.5209 615.486 26.4015 615.723 26.2288C615.959 26.0561 616.164 25.8333 616.325 25.5733Z" stroke="black" stroke-width="1.55539" stroke-linecap="round" stroke-linejoin="round"/>
<path d="M608.974 28.8185C612.389 28.9434 613.802 26.718 613.888 26.5788C613.858 26.7507 613.181 30.2958 610.26 31.6897" stroke="black" stroke-width="1.55539" stroke-linecap="round" stroke-linejoin="round"/>
<path d="M613.882 26.5716C613.882 26.5716 615.059 30.814 612.964 33.1972" stroke="black" stroke-width="1.55539" stroke-linecap="round" stroke-linejoin="round"/>
<path d="M600.779 -5.38783C600.56 0.307272 596.204 6.8377 589.412 10.8543C582.687 14.8302 575.541 15.1624 571.3 12.1892L571.276 12.1731" stroke="black" stroke-width="1.55539" stroke-linecap="round" stroke-linejoin="round"/>
<path d="M603.684 -1.9858L599.93 -9.9376C597.029 -16.2726 587.618 -17.2307 578.91 -12.0683C570.202 -6.90599 565.498 2.38868 568.399 8.72367L572.151 16.6753" stroke="black" stroke-width="1.55539" stroke-linecap="round" stroke-linejoin="round"/>
<path d="M571.304 12.1901C571.473 6.49124 575.846 -0.0978948 582.665 -4.1297C589.408 -8.11847 596.574 -8.44351 600.8 -5.44277C602.019 -4.60271 603.011 -3.40936 603.673 -1.9855C604.886 0.674588 604.766 3.83264 603.586 7.00056C601.938 11.4074 598.225 15.8067 593.161 18.7921C588.963 21.2763 584.598 22.3375 580.881 22.0617C576.892 21.7657 573.644 19.9284 572.137 16.6496C571.524 15.2737 571.237 13.7386 571.304 12.1901Z" stroke="black" stroke-width="1.55539" stroke-linecap="round" stroke-linejoin="round"/>
<path d="M606.117 3.06836C606.117 3.06836 618.442 4.21416 615.303 21.4209" stroke="black" stroke-width="1.55539" stroke-linecap="round" stroke-linejoin="round"/>
<path d="M580.871 22.3515L551.071 20.1405L567.532 -23.2783L614.434 -19.7983L604.174 7.26626L597.771 23.6344L580.871 22.3515Z" stroke="black" stroke-width="1.55539" stroke-linecap="round" stroke-linejoin="round"/>
</g>
<defs>
<clipPath id="clip0_56_1834">
<rect width="756" height="720" fill="white"/>
</clipPath>
</defs>
</svg>
