<svg xmlns="http://www.w3.org/2000/svg" width="40" height="40" fill="none"><path fill="#DC341E" stroke="#000" stroke-miterlimit="10" stroke-width=".5" d="M12.737 30.094a.6.6 0 0 1 .28-.291.81.81 0 0 1 .854.08c.11.091.176.21.19.335.059.534.187 1.012.42 1.36 1.645 2.46 5.05 3.387 7.625 3.73l8.08 1.125q.391.054.788.055c.738 0 1.466-.142 2.122-.415a4.5 4.5 0 0 0 1.652-1.152c.43-.485.71-1.045.818-1.635a3.07 3.07 0 0 0-.2-1.755l-1.616-3.826 2.981-2.636c.474-.41.83-.9 1.042-1.435.213-.534.277-1.1.188-1.656-.13-.76-.545-1.47-1.19-2.033-.646-.563-1.49-.953-2.42-1.116l-2.666-.47a5.5 5.5 0 0 0 .34-2.714 5.9 5.9 0 0 0-1.02-2.602 7.4 7.4 0 0 0-2.212-2.062 9.3 9.3 0 0 0-3.043-1.186l-2.29-.465a4.9 4.9 0 0 0-.869-2.42c-.511-.745-1.224-1.386-2.085-1.876a8 8 0 0 0-2.888-.958 8.6 8.6 0 0 0-3.116.152 7.6 7.6 0 0 0-2.725 1.23c-.782.57-1.394 1.276-1.792 2.065a4.7 4.7 0 0 0-.502 2.487c.067.85.37 1.675.888 2.417l-8.1 18.282a3.07 3.07 0 0 0-.229 1.767c.1.596.376 1.163.805 1.654.428.491.997.892 1.657 1.169.66.276 1.394.42 2.138.42 1.905 0 4.133-.955 4.812-2.486z"/><path fill="#000" d="M21.006 21.748c1.959.397 3.296 2.02 2.757 3.541l-.127.294c-1.036 1.983-3.614.546-4.834 1.97.666-1.293 2.204-5.805 2.204-5.805"/><path stroke="#000" stroke-linecap="round" stroke-linejoin="round" stroke-width=".5" d="M15.997 11.511q.235.039.474.04c.593-.001 1.164-.181 1.6-.506.434-.325.702-.77.75-1.247.047-.476-.13-.95-.495-1.327-.366-.376-.894-.627-1.479-.704a2.8 2.8 0 0 0-1.678.292c-.494.264-.847.669-.988 1.133-.142.465-.061.955.225 1.374s.758.736 1.32.887q.133.036.27.058m-.136.134.088.017 8.665 1.761c.494.1.957.281 1.361.532.404.25.74.565.986.925.247.36.4.757.448 1.166a2.46 2.46 0 0 1-.165 1.214l-1.67 3.848-1.81 4.177-.127.294M6.642 31.971l5.349-12.077 3.693-8.344m2.884 16.342a.9.9 0 0 0 .233-.338c.667-1.294 2.205-5.806 2.205-5.806"/><path stroke="#000" stroke-linecap="round" stroke-linejoin="round" stroke-width=".5" d="m25.615 21.12 7.755 1.364-4.894 4.327 2.505 5.924-8.097-1.124c-3.901-.517-5.241-2.022-4.31-3.715q.097-.178.234-.338c1.22-1.426 3.798.012 4.834-1.971q.076-.144.127-.294c.539-1.52-.798-3.144-2.757-3.541l-8.758-1.78"/></svg>