<svg xmlns="http://www.w3.org/2000/svg" width="38" height="34" fill="none"><path fill="#FF90E8" stroke="#000" stroke-miterlimit="10" stroke-width=".5" d="M36.123 14.24a4.459 4.459 0 0 0-1.049-2.03 4.374 4.374 0 0 0-.341-.82 4.564 4.564 0 0 0-1.593-1.677 4.587 4.587 0 0 0-3.224-.619l-.097-.025a4.774 4.774 0 0 0-.78-.106 3.915 3.915 0 0 0-.766-1.265l-2.184-2.422a3.957 3.957 0 0 0-.59-.535 3.927 3.927 0 0 0-1.216-2.56A3.956 3.956 0 0 0 21.656 1.1L17.734 1a3.97 3.97 0 0 0-3.135 1.412 3.936 3.936 0 0 0-.84 3.323l.053.259a3.65 3.65 0 0 0-.471.339L10.758 8.51a3.94 3.94 0 0 0-.555.574 4.516 4.516 0 0 0-2.023 0l-.098.025a4.534 4.534 0 0 0-3.178.574 4.504 4.504 0 0 0-1.981 2.541 4.482 4.482 0 0 0-1.049 2.032c-1.17 1.597-1.174 3.92.043 6.44.416.86 1.747 3.195 2.808 4.61.44.586 1.403 2.106 2.163 3.34v.9c0 1.046.417 2.048 1.159 2.787a3.964 3.964 0 0 0 2.798 1.155l16.307-.017c1.05 0 2.056-.416 2.798-1.155a3.935 3.935 0 0 0 1.16-2.787v-.898c.76-1.229 1.726-2.754 2.162-3.34 1.06-1.408 2.39-3.75 2.808-4.61 1.225-2.52 1.214-4.842.043-6.44Z"/><path stroke="#000" stroke-linecap="round" stroke-linejoin="round" stroke-width=".5" d="M24.688 18.64s1.908-1.352 2.942-3.407c1.034-2.055 1.357-2.76 1.989-2.615 1.167.264.138 2.284-.211 3.063-.452 1.005-1.645 2.774-1.645 2.774m1.75-2.933s1.04-1.99 1.357-2.458c.424-.634 1.056-.38 1.219-.078.186.343-.026 1.055-.345 1.822-.318.767-1.644 3.54-2.254 4.385"/><path stroke="#000" stroke-linecap="round" stroke-linejoin="round" stroke-width=".5" d="M31.741 14.81s.557-.687 1.14-.264c.47.34.346.791-.026 1.822-.371 1.031-1.458 3.434-2.2 4.121m-3.925-2.495s2.69 1.062 4.268 3.01"/><path stroke="#000" stroke-linecap="round" stroke-linejoin="round" stroke-width=".5" d="M32.775 16.553s.424-.608 1.008-.132c.508.414 0 1.954-.345 2.668-.344.714-1.618 2.958-2.572 4.227-.954 1.268-3.156 4.915-3.156 4.915v2.14h-7.72s-.076-3.404-.076-5.94c0-2.537 1.432-4.597 2.468-5.864 1.035-1.267 1.44-2.172 1.802-2.827.424-.765 1.539-.264 1.38.607-.16.872-1.512 3.645-1.512 3.645a4.888 4.888 0 0 1 1.357 3.171"/><path stroke="#000" stroke-linecap="round" stroke-linejoin="round" stroke-width=".5" d="M26.571 20.673s1.272 1.004 1.644 2.008m-14.903-4.023s-1.91-1.352-2.944-3.408c-1.035-2.056-1.357-2.758-1.99-2.615-1.165.264-.136 2.286.213 3.065.452 1.003 1.645 2.773 1.645 2.773m-1.751-2.936s-1.039-1.99-1.357-2.458c-.424-.635-1.056-.383-1.22-.08-.185.344.027 1.057.345 1.822.319.766 1.644 3.54 2.254 4.385"/><path stroke="#000" stroke-linecap="round" stroke-linejoin="round" stroke-width=".5" d="M6.258 14.827s-.558-.686-1.14-.264c-.471.341-.345.792.026 1.824.371 1.03 1.458 3.433 2.201 4.12m3.928-2.495s-2.691 1.06-4.27 3.01"/><path stroke="#000" stroke-linecap="round" stroke-linejoin="round" stroke-width=".5" d="M5.228 16.571s-.425-.607-1.008-.133c-.509.415 0 1.956.344 2.669.344.712 1.617 2.959 2.572 4.226.955 1.267 3.156 4.916 3.156 4.916v2.14h7.796v-5.946c0-2.536-1.432-4.597-2.467-5.865-1.035-1.268-1.441-2.171-1.804-2.827-.423-.766-1.537-.264-1.378.607.16.872 1.511 3.646 1.511 3.646a4.883 4.883 0 0 0-1.357 3.17"/><path stroke="#000" stroke-linecap="round" stroke-linejoin="round" stroke-width=".5" d="M11.429 20.698s-1.274 1.004-1.645 2.007m11.417-8.723 2.227-6.71 2.333 2.588zm-2.229-2.96 2.76-6.815-4.192-.105zm-1.484 5.019-1.803-7.237-2.757 2.324z"/></svg>