<svg xmlns="http://www.w3.org/2000/svg" width="24" height="38" fill="none"><path fill="#F1F333" stroke="#000" stroke-miterlimit="10" stroke-width=".5" d="M19.59 12.517a6 6 0 0 0-.867-.417 5.8 5.8 0 0 0-1.037-.89l.656-3.906a5.5 5.5 0 0 0-.386-3.105 5.37 5.37 0 0 0-2.008-2.366 5.2 5.2 0 0 0-2.957-.831 5.2 5.2 0 0 0-2.912.98 5.23 5.23 0 0 0-5.59-.228 5.37 5.37 0 0 0-2.045 2.113 5.5 5.5 0 0 0-.648 2.893l.553 10.736A7.24 7.24 0 0 0 1 21.7v4.922c0 2.813.96 4.2 2.404 5.423q.203.16.38.35c.055.167.083.342.082.517 0 .071-.006.142-.006.215 0 1.027.4 2.012 1.112 2.738A3.76 3.76 0 0 0 7.656 37h11.337a3.76 3.76 0 0 0 2.685-1.135 3.9 3.9 0 0 0 1.111-2.739V18.83c0-3.875-2.005-5.618-3.198-6.313ZM3.87 32.823v.079c-.004-.05 0-.079 0-.079Z"/><path stroke="#000" stroke-linecap="round" stroke-linejoin="round" stroke-width=".5" d="M14.228 26.654v-1.62c0-.438-.084-.872-.248-1.277a3.4 3.4 0 0 0-.71-1.083 3.3 3.3 0 0 0-1.06-.724 3.2 3.2 0 0 0-1.253-.254H9.274l3.232-.904c.392-.11.73-.367.945-.718a1.69 1.69 0 0 0-.018-1.79 1.61 1.61 0 0 0-1.687-.715l-4.381.914a3.2 3.2 0 0 0-1.845 1.14 3.32 3.32 0 0 0-.724 2.074v4.923c0 2.22.81 1.978 1.906 3.29s.953 3.208.953 3.208"/><path stroke="#000" stroke-linecap="round" stroke-linejoin="round" stroke-width=".5" d="M13.673 18.888s.031-2.195 1.318-2.976c.955-.578 4.001-.923 4.001 2.917v14.29H7.655"/><path stroke="#000" stroke-linecap="round" stroke-linejoin="round" stroke-width=".5" d="M16.42 15.54s-.43-1.378-1.81-1.378-2.383.438-2.763 1.896c-.381 1.457-.43 1.555-.43 1.555"/><path stroke="#000" stroke-linecap="round" stroke-linejoin="round" stroke-width=".5" d="M6.226 18.944 5.593 6.55c-.02-.4.11-.791.366-1.094a1.5 1.5 0 0 1 2.116-.188c.311.26.508.635.549 1.043l.942 9.45 2.119-9.703a1.52 1.52 0 0 1 .631-.935 1.47 1.47 0 0 1 1.09-.227v0c.386.073.728.297.953.624.224.328.313.733.247 1.127l-1.276 7.61m-5.533 1.605 4.05.195m1.667 3.89-.012.112a1.68 1.68 0 0 0 .362 1.227 1.6 1.6 0 0 0 1.116.588v0c.396.032.789-.087 1.104-.333s.53-.603.603-1.001l.494-2.684m.715 1.604-1.047.389m-6.241-1.937c0 .145 0 1.263 1.19 1.02 1.191-.243 1.477-.923 1.477-.923"/><path stroke="#000" stroke-linecap="round" stroke-linejoin="round" stroke-width=".5" d="M13.847 20.966c.048-.534.143-1.506 1.048-1.457.97.051 1.382 1.02 1.287 1.944"/></svg>