<svg xmlns="http://www.w3.org/2000/svg" width="36" height="36" fill="none"><path fill="#90A8ED" stroke="#000" stroke-width=".5" d="M7.68 35.75a2.8 2.8 0 0 1-1.704-.577L2.19 32.282a2.82 2.82 0 0 1-1.06-1.717l-.83-4.44a2.83 2.83 0 0 1 .92-2.65v-.001l1.984-1.727.228-.198-.238-.187-.21-.165a2.82 2.82 0 0 1-.395-4.04 2.8 2.8 0 0 1 1.231-.838l1.558-.534.228-.079-.07-.23a2.825 2.825 0 0 1 1.022-3.085c.31-.23.663-.392 1.039-.48l1.366-.311.268-.062-.086-.26-.8-2.426a2.825 2.825 0 0 1 1.138-3.25 2.8 2.8 0 0 1 1.145-.428l.17-.024.039-.167a6.13 6.13 0 0 1 2.153-3.405A6.1 6.1 0 0 1 16.788.25h12.203a6.1 6.1 0 0 1 4.315 1.794 6.13 6.13 0 0 1 1.79 4.323V18.59a6.13 6.13 0 0 1-1.79 4.323 6.1 6.1 0 0 1-4.315 1.793h-.986l-.072.128a2.82 2.82 0 0 1-3.41 1.26l-1.466-.534-.23-.084-.089.228-.28.722A2.82 2.82 0 0 1 20.19 28.2h-.241l-.048.19-.869 3.513q-.03.119-.066.227a2.82 2.82 0 0 1-1.583 1.7 2.8 2.8 0 0 1-2.319-.067l-.012-.006-2.743-1.166-.152-.065-.12.115-2.398 2.314a2.8 2.8 0 0 1-1.958.795Z"/><path fill="#000" d="M32.048 6.594v12.223a3.3 3.3 0 0 1-2.03 3.046c-.4.165-.828.25-1.26.25H24.59l-.079.04-2.06-4.218 4.581-.801-3.554-2.228 5.62-7.225-9.174 4.29-1.359-4.742-2.729 3.925-2.586-1.517.016-.027V6.594a3.3 3.3 0 0 1 2.03-3.046c.4-.166.828-.251 1.26-.251h12.203a3.28 3.28 0 0 1 3.04 2.035c.165.4.25.829.25 1.262"/><path fill="#000" d="m18.164 14.464.812 5.267-.946 3.818-1.959 7.911-.785-4.426 2.88-12.503h-.015z"/><path fill="#000" d="m18.164 14.528-2.88 12.504-.027-.15 2.891-12.348zm-7.006 9.828.833 4.432-4.535 4.369-.834-4.433z"/><path stroke="#000" stroke-linecap="round" stroke-linejoin="round" stroke-width=".5" d="M13.265 9.61V6.594a3.3 3.3 0 0 1 2.03-3.046c.4-.166.828-.251 1.26-.251h12.203a3.285 3.285 0 0 1 3.04 2.035c.165.4.25.829.25 1.262v12.223a3.3 3.3 0 0 1-2.03 3.046c-.4.165-.828.25-1.26.25H24.59"/><path stroke="#000" stroke-linecap="round" stroke-linejoin="round" stroke-width=".5" d="m11.342 16.876-.006-.004-3.333-1.982 4.645-1.075-1.857-5.623 2.458 1.444 2.587 1.518 2.728-3.925 1.36 4.742 9.174-4.29-5.622 7.225 3.555 2.226-4.58.802 2.06 4.218.74 1.518-4.276-1.557-1.367 3.517-1.437-2.046"/><path stroke="#000" stroke-linecap="round" stroke-linejoin="round" stroke-width=".5" d="m18.148 14.534-6.812 2.339-6.83 2.345s1.365 1.084 3.124 2.446l-4.796 4.17 3.782 2.89m4.542-4.368 4.122 2.698.004-.022"/><path stroke="#000" stroke-linecap="round" stroke-linejoin="round" stroke-width=".5" d="m7.456 33.157-.834-4.433 4.536-4.369.833 4.433m4.079 2.672.042.026"/><path stroke="#000" stroke-linecap="round" stroke-linejoin="round" stroke-width=".5" d="m2.839 25.833.833 4.433 3.79 2.89 4.53-4.368s3.14 2.073 4.076 2.67m2.08-16.925.016-.07.813 5.268-.947 3.818-1.958 7.911-.001.004-.001-.006-.787-4.426-.026-.15z"/></svg>