<svg xmlns="http://www.w3.org/2000/svg" width="36" height="26" fill="none"><path fill="#23A094" stroke="#000" stroke-width=".5" d="M25.688 1.01c.362.37.605.84.696 1.35v.336l.33-.112 4.052-1.376a2.5 2.5 0 0 1 1.515-.034c.497.145.938.439 1.265.843a2.575 2.575 0 0 1 .227 2.912l-.003.006-.005.01-1.437 2.501-.175.305.346.066 1.173.22c.518.097.993.354 1.36.736s.608.869.688 1.395a2.6 2.6 0 0 1-.24 1.54 2.56 2.56 0 0 1-1.078 1.114l-2.081 1.116-.243.13.153.23.684 1.02a2.58 2.58 0 0 1 .02 2.843 2.55 2.55 0 0 1-1.13.952 2.5 2.5 0 0 1-1.463.16l-.4-.074-.351-.066.057.352.259 1.578c.084.514.01 1.041-.21 1.512a2.55 2.55 0 0 1-1.025 1.123 2.525 2.525 0 0 1-2.88-.23l-2.408-1.98-.176-.145-.16.162a10.7 10.7 0 0 1-4.51 2.717h-.003c-1.435.455-2.93.69-4.434.696-3.126 0-6.137-1.063-8.877-3.171A19.6 19.6 0 0 1 .63 16.663a2.58 2.58 0 0 1 .47-3.26l.004-.004.085-.08c1.76-1.618 2.614-2.853 3.022-3.605 1.846-3.398 4.522-4.252 6.44-4.377a7.7 7.7 0 0 1 1.957.128l.133.026.095-.098c.618-.637 1.416-1.267 2.373-1.627 1.545-.583 3.3-.597 4.985-.072l.19.059.1-.172 1.205-2.065A2.55 2.55 0 0 1 22.822.483a2.52 2.52 0 0 1 2.866.527Z"/><path fill="#000" d="M23.714 8.235q.002.001-.007.082c-.05.58-.454 4.083-2.797 6.706l-.132-.198c-1.35-.694-3.741-.04-4.599 1.086-4.652-.33-6.59 2.207-6.59 2.207l-.012.095c-4.248-.601-6.722-2.797-6.808-2.876.11-.026 3.763-.907 5.09-1.418 1.108-.427 1.783-1.08 2.615-1.545l.087.03c.123.044 1.454 2.097 2.483 2.242.574.077 1.658-.188 2.608-.508.754-.253 1.424-.54 1.698-.716.749-.488.219-3.57.219-3.57l-.022-.054c.582-.25 1.258-.394 2.172-.413 1.794-.04 3.995-1.15 3.995-1.15"/><path stroke="#000" stroke-linecap="round" stroke-linejoin="round" stroke-width=".5" d="M2.769 15.335c.201-.197 2.446-2.15 3.65-4.369s2.826-2.948 4.374-3.05a5.8 5.8 0 0 1 2.837.604s1.015-1.792 2.445-2.332 3.344-.323 5 .76q.142.097.28.18c1.484.927 2.36 1.104 2.36 1.104s-2.203 1.103-3.997 1.144c-.914.02-1.59.164-2.172.413-.561.24-1.037.575-1.56.985-.522.41-.806.654-1.219.804-.438.16-1.024.21-2.177.22a4.24 4.24 0 0 0-2.116.562c-.832.468-1.507 1.121-2.615 1.545-1.327.51-4.975 1.392-5.09 1.418"/><path stroke="#000" stroke-linecap="round" stroke-linejoin="round" stroke-width=".5" d="M2.769 15.335c.088.155 5.505 9.401 14.991 6.456 2.438-.758 3.954-2.28 4.881-4.036 2.154-4.083 1.134-9.44 1.134-9.44"/><path stroke="#000" stroke-linecap="round" stroke-linejoin="round" stroke-width=".5" d="M23.714 8.235q.002.001-.007.082c-.05.58-.454 4.083-2.797 6.706a8.5 8.5 0 0 1-3.786 2.46c-2.902.936-5.442 1.03-7.547.731-4.248-.601-6.722-2.797-6.808-2.875"/><path stroke="#000" stroke-linecap="round" stroke-linejoin="round" stroke-width=".5" d="M10.562 12.399c.123.044 1.455 2.097 2.483 2.241.574.077 1.658-.187 2.608-.507.754-.253 1.424-.54 1.698-.716.749-.488.219-3.57.219-3.57m13.984-6.189L28.126 9.63l5.058.95-4.822 2.585 2.421 3.61-4.318-.813.907 5.54-4.48-3.683m-1.532-10.7 2.497-4.284s.644 3.79.766 3.793c.123.002 6.825-2.926 6.929-2.97M14.8 11.67l.834 2.368M9.59 18.119s1.937-2.538 6.589-2.207c.858-1.126 3.25-1.78 4.6-1.086"/></svg>