<svg xmlns="http://www.w3.org/2000/svg" width="32" height="38" fill="none"><path fill="#FFC900" stroke="#000" stroke-miterlimit="10" stroke-width=".5" d="M30.54 12.378a6.76 6.76 0 0 0-1.555-2.687 6.7 6.7 0 0 0-2.587-1.702c-1.314-.484-2.736-.532-4.091-.342a16.5 16.5 0 0 0-.465-2.28 5.96 5.96 0 0 0-2.604-3.48 5.9 5.9 0 0 0-4.265-.774 5.93 5.93 0 0 0-3.65 2.346 6 6 0 0 0-1.09 4.214l.076.687c.067.633.135 1.285-1.014 3.247-.599.778-3.395 2.517-5.905 3.668a4.1 4.1 0 0 0-2.007 1.997 4.12 4.12 0 0 0-.235 2.828l3.84 13.898A4.1 4.1 0 0 0 6.91 36.47a4.06 4.06 0 0 0 3.098.382l14.986-4.18a7.2 7.2 0 0 0 4-2.885 7.25 7.25 0 0 0 1.213-4.795q.104-.24.192-.478a6.33 6.33 0 0 0 .133-3.777q.192-.523.29-1.073a6.9 6.9 0 0 0-.21-3.352 6.9 6.9 0 0 0-.073-3.933Z"/><path stroke="#000" stroke-linecap="round" stroke-linejoin="round" stroke-width=".5" d="m25.92 24.39.137.493c.22.796.116 1.646-.288 2.365a3.1 3.1 0 0 1-1.868 1.467l-14.986 4.18-3.84-13.897s6.296-2.876 7.705-5.268c1.41-2.392 1.78-3.938 1.583-5.804l-.081-.735a1.87 1.87 0 0 1 .3-1.26 1.86 1.86 0 0 1 1.767-.816 1.85 1.85 0 0 1 1.237.7c.15.193.262.414.327.65.264.955.495 2.188.41 3.397-.177 2.531-1.742 6.09-1.742 6.09l6.548-1.667-1.22-.38"/><path stroke="#000" stroke-linecap="round" stroke-linejoin="round" stroke-width=".5" d="M22.836 25.33s3.171-.582 3.706-2.154a2.23 2.23 0 0 0-.792-2.58"/><path stroke="#000" stroke-linecap="round" stroke-linejoin="round" stroke-width=".5" d="M22.988 21.847s3.438-.73 3.817-2.907c.308-1.768-.825-2.413-.825-2.413m-3.406 1.513s2.683-.669 3.889-2.36c.637-.9.398-3.154-1.46-3.836-1.58-.58-4.239.221-5.5 1.135-1.261.913-1.073 2.46-1.073 2.46M14.481 8.93s1.54-.225 1.508-1.46c-.04-1.591-1.13-1.786-1.13-1.786"/></svg>