<svg xmlns="http://www.w3.org/2000/svg" width="18" height="18"><g fill="none" fill-rule="evenodd"><path fill="#C04355" d="M13.28 1.25c-1.898 0-3.524 1.081-4.28 2.637C8.244 2.33 6.618 1.25 4.729 1.25 2.119 1.25 0 4.194 0 6.708c0 .193.035.387.062.571.553 4.913 8.015 9.492 8.015 9.492.51.308 1.336.308 1.846-.017 0 0 7.444-4.711 8.024-9.475.018-.184.053-.378.053-.571 0-2.514-2.118-5.458-4.72-5.458Z"/><path stroke="#F5F5F5" stroke-linecap="round" stroke-linejoin="round" stroke-width="2" d="m9.365 16.323-1.94-3.848 2.798-3.881-1.93-3.303 1.072-3.368"/></g></svg>