<svg xmlns="http://www.w3.org/2000/svg" width="412" height="412" fill="none"><g clip-path="url(#a)"><path fill="#FFC900" d="M414.358 205.225c0 19.411-2.674 38.204-7.677 56.028a194 194 0 0 1-1.7 5.729 202 202 0 0 1-4.03 11.665 197 197 0 0 1-5.405 12.891 204 204 0 0 1-7.838 15.348c-25.894 45.858-68.765 80.919-120.126 96.729-19.035 5.864-39.241 9.082-60.177 9.22q-.711.006-1.421.005c-50.59 0-96.972-17.963-133.066-47.839a210 210 0 0 1-19.696-18.573C18.71 309.382-2.39 259.759-2.39 205.225a208 208 0 0 1 4.478-43.014 206 206 0 0 1 3.549-14.254C26.096 76.769 83.74 21.232 156.294 3.547a210 210 0 0 1 49.69-5.938c17.157 0 33.834 2.067 49.788 5.963q4.295 1.049 8.523 2.276c39.987 11.59 75.009 34.8 101.138 65.711a207 207 0 0 1 9.287 11.828c14.849 20.373 26.067 43.537 32.713 68.556a205 205 0 0 1 2.784 11.905 207.7 207.7 0 0 1 4.141 41.377"/><path fill="#FFC900" stroke="#000" stroke-linecap="round" stroke-linejoin="round" stroke-miterlimit="10" stroke-width="2" d="M374.72 83.386c-.279 4.118-1.092 8.689-3.01 12.626h-31.731s8.522-13.199 7.804-24.453h17.65a207 207 0 0 1 9.287 11.827"/><path fill="#F1F333" stroke="#000" stroke-linecap="round" stroke-linejoin="round" stroke-miterlimit="10" stroke-width="2" d="M338.436 123.33s1.336 12.892-5.442 20.156h27.316s9.037-8.798 8.728-20.156zm-50.263 53.101h35.428s3.647-6.036 3.902-16.984c.255-10.947-2.464-16.73-2.464-16.73h-33.478c0 .004 3.2 16.858-3.388 33.714"/><path fill="#E2442F" stroke="#000" stroke-linecap="round" stroke-linejoin="round" stroke-miterlimit="10" stroke-width="2" d="M350.9 129.196s3.253-2.865 4.654-1.228 1.2 4.879-1.951 5.354c-3.15.474-5.545-1.838-2.703-4.126"/><path stroke="#000" stroke-linecap="round" stroke-linejoin="round" stroke-miterlimit="10" stroke-width="2" d="M355.656 86.94s5.065.511 6.951.99c1.881.479 4.074.479 4.074.479m-12.804-6.038s2.157-1.297 2.74-1.67c.583-.376.719 1.568 3.183 1.023a49 49 0 0 1 4.757-.785m-66.066 84.443s2.826.155 5.39-.409c2.563-.565 4.004-.594 6.161.213 2.156.805 2.978 1.411 4.21.212 1.232-1.195 2.621.593 3.032 2.026m-17.728-10.976s4.69-4.637 5.443-4.502c.751.135 1.918 4.228 2.739 3.818s2.226-2.557 2.842-2.116c.617.443 1.027 3.614 1.919 2.796.891-.818.788-1.637 2.805-.479 2.021 1.158 5.923.921 5.923.921"/><path fill="#FFC900" stroke="#000" stroke-linecap="round" stroke-linejoin="round" stroke-miterlimit="10" stroke-width="2" d="M21.331 141.818h42.514s4.999-11.594 7.118-24.012c2.124-12.412 1.097-15.826 1.097-15.826H31.395s1.232 15.826-10.064 39.838"/><path fill="#F1F333" stroke="#000" stroke-linecap="round" stroke-linejoin="round" stroke-miterlimit="10" stroke-width="2" d="M20.648 175.582h42.994s10.815-16.031 9.106-37.992H28.312c0-.004-1.232 21.392-7.664 37.992"/><path fill="#F1F333" stroke="#000" stroke-linecap="round" stroke-linejoin="round" stroke-miterlimit="10" stroke-width="2" d="M34.956 171.283h39.568s-4.383 25.919-3.491 37.038H36.048c.004 0-4.038-19.44-1.092-37.038"/><path fill="#FFC900" stroke="#000" stroke-linecap="round" stroke-linejoin="round" stroke-miterlimit="10" stroke-width="2" d="M22.049 200.477h37.584s-3.902 23.021-.821 37.038H23.486s-10.68-8.287-1.437-37.038"/><path stroke="#000" stroke-linecap="round" stroke-linejoin="round" stroke-miterlimit="10" stroke-width="2" d="M41.733 123.875s6.675-.07 9.415-1.126 3.183 1.158 4.177 0 1.919.684 1.919.684m-19.343-7.948s1.508-2.047 2.19-2.898c.686-.851 1.984 2.558 2.875 1.449s1.951-1.416 2.773-.069c.821 1.346.238 1.076 2.772.155 2.535-.921 5.545 0 6.983.749s4.588-.307 6.778-.069M39.175 149.68s1.594-2.251 3.031-3.172 2.387 1.15 4.108 2.275 3.413-2.173 5.085-2.504c1.672-.332 3.208 1.702 3.208 1.702m-20.234 9.271s1.257 1.227 3.183.867c1.927-.36 3.365.459 4.802.663 1.438.205 2.337-.945 4.47-.127 2.131.819 7.212-.155 7.212-.155m-11.4 26.936s2.568-2.299 3.595-2.914c1.027-.613 2.567 2.968 4.058 2.353 1.491-.613 4.313-2.729 5.853-.928 1.54 1.8 5.751 1.493 5.751 1.493m-15.099 8.387s2.62-.868 4.724-.922c2.103-.052 1.745-.204 4.058-.359 2.313-.156 5.648 0 5.648 0m-34.385 27.199s1.232-.683 2.02-1.432c.79-.749 1.816.479 2.946 1.432 1.13.954 2.431-.99 4.313-.134 1.881.851 2.67-1.429 4.243-.561s4.896.798 4.896.798m-19.548-9.378s1.302-.544 1.848-.683c.547-.135 1.779 1.125 3.492.683s3.697-.593 4.896.094c1.2.688 3.594-1.174 5.373-.785"/><path fill="#fff" stroke="#000" stroke-linecap="round" stroke-linejoin="round" stroke-miterlimit="10" stroke-width="2" d="M200.011 107.951s6.059-8.868 11.912-12.687 11.398-4.74 11.706-.92c.309 3.818-8.831 12.703-23.618 13.607m-3.028 38.454s7.546-7.469 12.988-11.357c5.443-3.888 13.918-7.571 14.993-4.756 1.077 2.816-10.831 12.376-27.981 16.113m8.881 11.254s9.908-5.68 17.096-8.235c7.188-2.553 12.015-2.046 12.015.361s-13.757 8.128-29.111 7.874m-1.691 17.804s8.112-5.32 14.067-6.908c5.957-1.588 11.658-.769 11.756 1.277.099 2.047-8.933 6.245-25.823 5.631"/><path stroke="#000" stroke-linecap="round" stroke-linejoin="round" stroke-miterlimit="10" stroke-width="2" d="M83.868 319.981v-13.096m159.823 39.546v-39.546"/><path fill="#F1F333" d="m119.809 282.637 1.849 8.902h-12.631c-.686-6.004 1.906-14.198 1.906-14.198l9.64-3.532.013-.004h.008q.119-.019.238-.049c.238-.057.481-.139.715-.246q.234-.097.468-.233c.226-.127.452-.27.669-.426q.109-.073.218-.159.105-.075.21-.164a13 13 0 0 0 1.581-1.514c.046-.049.09-.103.132-.147a18 18 0 0 0 .488-.594c.087-.106.14-.18.16-.205-.02.201-.044.439-.073.705q-.024.215-.045.462c-.054.573-.111 1.24-.161 1.956l-.028.503c-.033.463-.058.942-.074 1.425q-.013.33-.021.658v.013q-.007.247-.008.487-.006.412 0 .818c0 .213.004.418.008.627q.012.325.029.638.017.278.041.544c.008.115.016.226.033.332q.024.262.061.508c.013.082.025.168.041.249q.043.246.099.467c.054.217.115.418.185.593 1.129 2.812 3.08.561 4.054-2.357.978-2.914 1.236-11.165 1.236-11.165q.055.183.103.372c.46 1.843.974 8.951 2.001 12.278s2.772 1.535 3.285-1.281c.095-.528.222-1.272.362-2.136l.062-.385c.07-.437.143-.9.217-1.379.025-.16.054-.319.074-.483q.01-.046.017-.094.036-.21.065-.421l.05-.324q.041-.252.078-.499a5 5 0 0 1 .041-.262l.111-.733c.09-.602.18-1.182.262-1.731l.087-.585q.083-.547.152-1.015a18 18 0 0 0 .098-.651q.013-.075.021-.143.024-.154.041-.291.028-.16.045-.29l.025-.168q.02-.105.025-.164l.004-.037c0-.004.004-.004.004-.004q-.005.068-.004.135c0 .132 0 .258-.004.389-.008.532-.025 1.052-.037 1.556-.05 2.299.361 12.634 2.366 12.736 2 .102 4.054-8.75 4.054-8.75s1.59 4.813 2.465 6.908c.628 1.51 2.221 2.333 3.096 2.558z"/><path fill="#F1F333" d="M173.427 238.461a157 157 0 0 1-1.553-3.148c-5.701-11.868-11.398-28.951-11.398-28.951h-.005a36 36 0 0 1-.78.225c-.132.037-.267.078-.403.111a9 9 0 0 1-.415.11c-.115.028-.23.061-.345.09a47 47 0 0 1-.817.209l-.017.004q-.492.123-.989.233-.585.141-1.175.258c-.091.024-.185.041-.272.058q-.022.007-.044.008-.31.067-.616.122-1.19.24-2.404.426.08.418.136.843.013.148.033.291c.012.102.02.209.029.311a17 17 0 0 1 .036.671q.013.452-.004.912-.001.104-.008.213l-.016.299-.025.303-.004.057q-.03.27-.066.54l-.037.27a10 10 0 0 1-.099.537q-.03.166-.069.327-.036.165-.078.332-.037.166-.087.327c-.049.184-.102.36-.16.541a7 7 0 0 1-.136.404 16 16 0 0 1-.361.897c-.037.086-.078.167-.115.253q-.11.24-.234.471-.185.356-.394.692a8 8 0 0 1-.288.445q-.115.166-.23.324a9 9 0 0 1-.242.32 8 8 0 0 1-.251.302q-.128.153-.263.295a8 8 0 0 1-.459.47 9 9 0 0 1-.49.439q-.204.169-.414.326c-.14.107-.288.205-.436.304a10 10 0 0 1-.685.409 11 11 0 0 1-.949.446 6 6 0 0 1-.481.176q-.122.045-.251.082l-.25.074a1 1 0 0 1-.103.028 5 5 0 0 1-.353.086q-.136.031-.271.058l-.276.048a7 7 0 0 1-.431.062 4 4 0 0 1-.308.036l-.16.013c-.111.008-.222.012-.337.021-1.248.057-2.608-.099-4.074-.508a14 14 0 0 1-.436-.131c-.144-.041-.283-.09-.423-.139q-.192-.066-.382-.139a6 6 0 0 1-.378-.148c-.123-.048-.242-.102-.366-.155a11 11 0 0 1-.846-.405 12 12 0 0 1-.452-.245 15 15 0 0 1-1.264-.807c-.034-.021-.063-.045-.095-.065l-.431-.328q-.136-.103-.271-.213a12 12 0 0 1-.263-.221 15 15 0 0 1-1.228-1.158 12 12 0 0 1-.337-.364q-.208-.228-.399-.454a18 18 0 0 1-.534-.659 18 18 0 0 1-.821-1.15c-.082-.127-.165-.25-.243-.377a20 20 0 0 1-.673-1.13 15 15 0 0 1-.238-.442 22 22 0 0 1-.831-1.727 13 13 0 0 1-.217-.515q-.08-.19-.152-.372a25 25 0 0 1-.369-.995 15 15 0 0 1-.202-.602 26 26 0 0 1-.362-1.203c-.04-.135-.073-.262-.107-.389q-.04-.007-.082-.021c-.263-.052-.525-.118-.784-.18l-.053-.012q-.347-.08-.686-.168-.377-.093-.752-.192l-.276-.073a4 4 0 0 1-.271-.074q-.435-.118-.871-.242-.48-.135-.961-.282a61 61 0 0 1-2.928-.97 43 43 0 0 1-1.82-.679l-.554-.221a37 37 0 0 1-.941-.389 48 48 0 0 1-1.228-.536 17 17 0 0 0-.953.069q-.235.024-.464.053l-.51.074q-.254.042-.501.09-.19.035-.381.078c-.198.04-.387.086-.576.135a5 5 0 0 0-.303.082 9 9 0 0 0-.296.086 7 7 0 0 0-.391.122q-.265.087-.518.184c-.147.058-.291.111-.435.173a6 6 0 0 0-.419.18l-.16.073a1 1 0 0 0-.156.074 14 14 0 0 0-.788.409c-.071.037-.136.078-.206.119-.119.07-.238.139-.353.217q-.197.123-.387.254-.006.001-.011.008-.21.147-.407.294l-.156.123a4 4 0 0 0-.148.119c-.086.069-.168.143-.251.213-.045.036-.086.078-.127.114a8 8 0 0 0-.76.778q-.17.202-.317.405c-.048.065-.094.136-.139.201-1.713 2.591-35.05 53.474-36.899 56.339-1.848 2.865-6.506 10.984-2.81 17.524C67.883 288.522 80 288.673 80 288.673l30.935-11.333 9.64-3.532a2 2 0 0 1-.222.025q-.08.007-.148.008a2.5 2.5 0 0 1-1.474-.409c-2.925-1.899-6.466-10.645-.974-20.52l17.609-7.571s9.76.204 14.02 3.789c4.259 3.577 4.004 8.541 3.799 10.641-.205 2.095-2.464 22.559-2.567 22.865H161.7v-1.207q-.044-.005-.087-.017-.004.006-.008 0a.6.6 0 0 1-.136-.052.3.3 0 0 1-.095-.054 1 1 0 0 1-.131-.102c-1.589-1.486-1.589-8.902-1.076-15.962.025-.339.05-.667.082-.994l.021-.192q.024-.295.061-.577.03-.282.066-.565c-.004-.004 0-.004 0-.004l-2.354-19.121a15 15 0 0 0 1.044-1.244c1.097 2.468 3.273 6.675 5.845 8.054.004-.004.004-.004.008-.004q.062-.043.123-.082a1 1 0 0 1 .095-.057q.072-.048.14-.082.363-.19.764-.282a1 1 0 0 1 .131-.033c.09-.021.189-.037.283-.045q.122-.018.251-.024c.103-.009.201-.013.304-.013a5 5 0 0 1 1.105.127c.53.114 1.047.303 1.516.545q.215.11.418.232.155.094.296.193c.095.066.19.131.276.2 1.691 1.335 3.54-.507 5.75-.613 2.21-.098 2.21 2.357 4.264 1.432.271-.123.518-.221.747-.303h.005a.3.3 0 0 1 .048-.02c-1.486-2.035-4.509-6.462-8.029-13.309m-62.863 17.389-.078.033-2.021.826-17.54 7.167v-.004l19.561-28.706v-.004l.02-.025c.058 5.091.148 14.951.058 20.713"/><path stroke="#000" stroke-linecap="round" stroke-linejoin="round" stroke-miterlimit="10" stroke-width="2" d="M110.933 277.342s-2.592 8.194-1.906 14.197m1.459-56.373s.226 16.649 0 20.721m-19.559 7.989 23.955-35.159m43.972 14.135s2.358 5.754 6.083 7.747"/><path stroke="#000" stroke-linecap="round" stroke-linejoin="round" stroke-miterlimit="10" stroke-width="2" d="M157.567 214.258s10.405 18.896.481 29.536l2.288 19.65"/><path fill="#FF90E8" d="M196.158 282.126s-3.849.409-4.411-2.967c-.567-3.376-2.826-8.951-3.339-10.384-.514-1.432-2.412-3.838-2.412-3.838s-.821 6.499-2.669 11.615-3.081 6.343-4.724 3.986c-1.644-2.35-1.232-7.26-1.232-8.95 0-1.691.64-11.406.64-11.406h-.337s-1.947 15.854-5.34 18.924c-3.384 3.069-4.929-.868-5.027-3.426-.107-2.558.821-8.39 1.281-10.334.44-1.862 1.355-6.814 1.43-7.236-.153.598-2.645 10.236-3.64 14.398-1.026 4.298-3.541 10.183-5.134 8.697-1.589-1.486-1.589-8.902-1.076-15.962.513-7.059 2.415-11.868 4.058-13.968 1.643-2.095 4.724-1.326 6.416 0 1.692 1.335 3.541-.507 5.751-.613 2.21-.098 2.21 2.357 4.263 1.432 2.054-.917 2.769-.712 3.952.516s2.514-1.076 4.519-1.023c2.004.049 4.004 2.455 4.362 6.597.361 4.142 2.669 23.942 2.669 23.942"/><path stroke="#000" stroke-linecap="round" stroke-linejoin="round" stroke-miterlimit="10" stroke-width="2" d="M185.996 264.936s-.821 6.5-2.669 11.615-3.081 6.343-4.724 3.99-1.232-7.264-1.232-8.954.644-11.411.644-11.411h-.337s-1.951 15.859-5.339 18.929-4.93-.868-5.033-3.43c-.102-2.562.822-8.39 1.283-10.333.459-1.945 1.437-7.265 1.437-7.265s-2.621 10.129-3.647 14.426c-1.027 4.297-3.542 10.182-5.135 8.697s-1.593-8.901-1.076-15.961 2.415-11.868 4.058-13.964 4.724-1.33 6.416 0 3.541-.512 5.751-.614c2.21-.103 2.21 2.353 4.263 1.432 2.055-.92 2.773-.716 3.952.512s2.513-1.072 4.518-1.024c2.005.05 4.005 2.457 4.363 6.598.357 4.142 2.669 23.942 2.669 23.942s-3.853.409-4.415-2.967c-.563-3.377-2.826-8.954-3.335-10.387-.51-1.432-2.412-3.831-2.412-3.831m0 0 .309-4.809M77.81 269.233l39.947-16.317"/><path fill="#FF90E8" d="M153.184 259.772c-.205 2.095-2.464 22.559-2.567 22.866s-2.822-.463-3.697-2.558-2.465-6.909-2.465-6.909-2.053 8.852-4.053 8.75c-2.005-.102-2.416-10.436-2.366-12.736.016-.671.04-1.375.045-2.091-.045.307-1.336 9.044-1.841 11.807-.513 2.816-2.259 4.609-3.285 1.281-1.028-3.327-1.541-10.437-2.001-12.278a10 10 0 0 0-.103-.372s-.259 8.251-1.236 11.164c-.973 2.919-2.925 5.169-4.054 2.358-.933-2.325-.325-8.808-.086-10.989-.144.197-3.874 5.23-6.745 3.369-2.925-1.9-6.466-10.646-.974-20.521l17.609-7.571s9.76.204 14.02 3.789c4.26 3.577 4.005 8.541 3.799 10.641"/><path stroke="#000" stroke-linecap="round" stroke-linejoin="round" stroke-miterlimit="10" stroke-width="2" d="M125.479 270.061s-3.82 5.272-6.745 3.373c-2.924-1.9-6.469-10.646-.977-20.521l17.613-7.571s9.756.204 14.015 3.785 4.005 8.545 3.8 10.641-2.464 22.558-2.567 22.87c-.103.311-2.827-.458-3.697-2.558s-2.465-6.909-2.465-6.909.925-9.822.513-11.819c-.41-1.997-.87-3.119-.87-3.119"/><path stroke="#000" stroke-linecap="round" stroke-linejoin="round" stroke-miterlimit="10" stroke-width="2" d="M130.851 267.531s-.259 8.251-1.232 11.169c-.974 2.918-2.924 5.165-4.058 2.353s0-11.713 0-11.713"/><path stroke="#000" stroke-linecap="round" stroke-linejoin="round" stroke-miterlimit="10" stroke-width="2" d="M138.081 267.085s-1.327 9.004-1.84 11.815-2.26 4.605-3.286 1.277c-1.027-3.327-1.54-10.436-2.005-12.278-.464-1.841-1.335-3.02-1.335-3.02"/><path stroke="#000" stroke-linecap="round" stroke-linejoin="round" stroke-miterlimit="10" stroke-width="2" d="M144.456 273.174s-2.054 8.848-4.059 8.75c-2.004-.098-2.414-10.437-2.361-12.737.053-2.299.205-5.013-.72-7.113"/><path fill="#FF90E8" stroke="#000" stroke-linecap="round" stroke-linejoin="round" stroke-miterlimit="10" stroke-width="2" d="M125.804 205.524s1.984 13.435 12.733 16.44c10.75 2.999 15.745-7.642 13.28-15.213-2.464-7.572-26.013-1.227-26.013-1.227"/><path fill="#FF90E8" stroke="#000" stroke-linecap="round" stroke-linejoin="round" stroke-miterlimit="10" stroke-width="2" d="M181.56 137.675c-7.545-6.421-7.545-18.11 0-24.535 8.91-7.584 14.345-17.685 14.345-28.78 0-23.536-24.461-42.612-54.632-42.612s-54.631 19.08-54.631 42.613c0 11.094 5.435 21.199 14.344 28.779 7.545 6.421 7.545 18.11 0 24.535-8.91 7.584-14.344 17.685-14.344 28.78 0 23.536 24.461 42.612 54.631 42.612s54.632-19.08 54.632-42.612c0-11.091-5.435-21.196-14.345-28.78"/><path stroke="#000" stroke-linecap="round" stroke-linejoin="round" stroke-miterlimit="10" stroke-width="2" d="M148.77 187.995s4.517-.614 6.776.409m-11.809-25.424-17.354 5.677m33.119 2.454h16.069"/><path fill="#000" d="M168.823 181.422a2.69 2.69 0 0 0 2.694-2.684 2.69 2.69 0 0 0-2.694-2.685 2.69 2.69 0 0 0-2.695 2.685 2.69 2.69 0 0 0 2.695 2.684m-33.375-.873a2.69 2.69 0 0 0 2.694-2.685 2.69 2.69 0 0 0-2.694-2.684 2.69 2.69 0 0 0-2.695 2.684 2.69 2.69 0 0 0 2.695 2.685"/><path fill="#23A094" stroke="#000" stroke-linecap="round" stroke-linejoin="round" stroke-miterlimit="10" stroke-width="2" d="M284.768 280.762v17.733l83.655 3.684 2.021-45.155-76.64-11.049z"/><path fill="#F2F334" stroke="#000" stroke-linecap="round" stroke-linejoin="round" stroke-miterlimit="10" stroke-width="2" d="m395.482 233.914 10.833-5.144 2.312 4.706-12.426 7.007-4.107-4.858zm-58.072-3.765s13.062-2.116 16.902-16.78h18.698s.686 12.822-5.886 17.464c-6.572 4.636-29.714-.684-29.714-.684"/><path fill="#90A8ED" stroke="#000" stroke-linecap="round" stroke-linejoin="round" stroke-miterlimit="10" stroke-width="2" d="M319.338 230.148h61.047c2.769 0 6.367-3.118 11.398-3.581 5.033-.462 6.63 2.047 6.293 4.707s-3.315 4.756-8.297 5.525-79.379 4.809-79.277 4.502 8.836-11.153 8.836-11.153"/><path fill="#23A094" stroke="#000" stroke-linecap="round" stroke-linejoin="round" stroke-miterlimit="10" stroke-width="2" d="M385.059 244.812s6.321-.02 9.871-.02c3.548 0 5.603-3.119 4.781-5.779s-6.848-2.865-8.696-2.865h-73.431l-5.846 8.664z"/><path fill="#90A8ED" stroke="#000" stroke-linecap="round" stroke-linejoin="round" stroke-miterlimit="10" stroke-width="2" d="M390.76 252.793h2.103c2.465 0 5.077-1.825 5.208-4.383s-1.77-3.598-4.029-3.598h-85.044l2.07 7.981zm-83.758 8.459h87.607s3.627-.41 3.458-3.204c-.172-2.796-2.739-5.251-4.896-5.251H307.63z"/><path fill="#fff" d="M406.68 261.252h-54.553s2.501 2.934 2.74 3.172c.238.237-.103 1.33-.547 1.604-.448.27-1.848.205-1.848.205v18.277c0 3.479 2.941 3.344 2.941 3.344l-2.531 3.684h42.662"/><path stroke="#000" stroke-linecap="round" stroke-linejoin="round" stroke-miterlimit="10" stroke-width="2" d="M406.68 261.252h-54.553s2.501 2.934 2.74 3.172c.238.237-.103 1.33-.547 1.604-.448.27-1.848.205-1.848.205v18.277c0 3.479 2.941 3.344 2.941 3.344l-2.531 3.684h42.662m2.968-6.753h-33.1m35.539-6.139h-38.209m-4.244-5.32h40.32m6.163-6.344h-44.227"/><path fill="#F2F334" stroke="#000" stroke-linecap="round" stroke-linejoin="round" stroke-miterlimit="10" stroke-width="2" d="m364.59 244.812 4.177 4.846 7.529-.753-4.723-4.093z"/><path fill="#000" stroke="#000" stroke-linecap="round" stroke-linejoin="round" stroke-miterlimit="10" stroke-width="2" d="M255.773 204.877h78.352l-41.692 86.662h-75.272z"/><path fill="#fff" stroke="#000" stroke-linecap="round" stroke-linejoin="round" stroke-miterlimit="10" stroke-width="2" d="m121.66 291.539-1.848-8.902h86.259l34.606-77.76h15.096l-38.612 86.662z"/><path fill="#98282A" stroke="#000" stroke-linecap="round" stroke-linejoin="round" stroke-miterlimit="10" stroke-width="2" d="M395.545 291.539a205 205 0 0 1-7.837 15.348H250.329v-15.348zm-145.217 0H62.098v15.348h188.23z"/><path stroke="#000" stroke-linecap="round" stroke-linejoin="round" stroke-miterlimit="10" stroke-width="2" d="M267.581 403.616v-38.614"/><path fill="#98282A" stroke="#000" stroke-linecap="round" stroke-linejoin="round" stroke-miterlimit="10" stroke-width="2" d="M267.752 346.654v18.573H73.089a210 210 0 0 1-19.696-18.573z"/><path fill="#90A8ED" stroke="#000" stroke-linecap="round" stroke-linejoin="round" stroke-miterlimit="10" stroke-width="2" d="M99.491 330.622s3.208-1.464 7.04-.851c3.832.615 3.973 2.73 3.357 4.469-.617 1.74-6.495 5.285-12.406 3.545-5.91-1.74-2.11 3.785-2.11 3.785s9.035 2.117 16.019-2.999 3.253-11.902-1.574-12.757c-4.826-.851-11.193 0-11.193 0z"/><path fill="#90A8ED" stroke="#000" stroke-linecap="round" stroke-linejoin="round" stroke-miterlimit="10" stroke-width="2" d="M62.714 319.982c0 18.827 8.626 26.447 8.626 26.447h21.565s7.599-9.053 7.599-26.447zm164.201 10.64s3.08-.204 3.183-1.432-1.849-2.915-1.849-2.915h-84.472s-10.668 5.321-1.273 20.157h88.383s1.027-4.658-.957-4.658h-5.168z"/><path fill="#fff" stroke="#000" stroke-linecap="round" stroke-linejoin="round" stroke-miterlimit="10" stroke-width="2" d="M145.072 330.623h81.845v11.153h-79.586s-6.161-2.149-2.259-11.153"/><path stroke="#000" stroke-linecap="round" stroke-linejoin="round" stroke-miterlimit="10" stroke-width="2" d="M155.444 334h71.472m-64.76 3.854h64.761m-45.286-7.231v11.153m25.774 4.652v66.407m-86.819-139.031-40.587 14.868s-12.118-.151-15.814-6.691c-3.697-6.541.957-14.656 2.805-17.521s35.19-53.748 36.899-56.343c1.712-2.591 7.04-6.217 15.268-2.685 9.706 4.17 41.565 3.994 41.314.929 0 0 5.697 17.083 11.399 28.951s9.533 16.473 9.533 16.473"/><path stroke="#000" stroke-linecap="round" stroke-linejoin="round" stroke-miterlimit="10" stroke-width="2" d="M414.358 205.225c0 19.411-2.674 38.204-7.677 56.028a194 194 0 0 1-1.7 5.729 202 202 0 0 1-4.03 11.665 195 195 0 0 1-5.406 12.891 204 204 0 0 1-7.837 15.348c-25.894 45.858-68.765 80.919-120.126 96.729-19.035 5.865-39.241 9.082-60.177 9.22q-.711.006-1.421.005c-50.59 0-96.972-17.963-133.066-47.839a210 210 0 0 1-19.696-18.573C18.71 309.382-2.39 259.759-2.39 205.225a208 208 0 0 1 4.478-43.014 206 206 0 0 1 3.549-14.254C26.096 76.769 83.74 21.232 156.294 3.547a210 210 0 0 1 49.69-5.938c17.157 0 33.834 2.067 49.788 5.963q4.295 1.049 8.523 2.276c39.987 11.59 75.009 34.8 101.138 65.711a207 207 0 0 1 9.287 11.828c14.849 20.373 26.067 43.537 32.713 68.556a205 205 0 0 1 2.784 11.905 207.7 207.7 0 0 1 4.141 41.377"/></g><rect width="411" height="411" x=".5" y=".5" stroke="#000" rx="205.5"/><defs><clipPath id="a"><rect width="412" height="412" fill="#fff" rx="206"/></clipPath></defs></svg>