<svg xmlns="http://www.w3.org/2000/svg" width="412" height="412" fill="none"><g clip-path="url(#a)"><path fill="#90A8ED" d="M415.251-3.25H-3.25v418.501h418.501z"/><path fill="#fff" d="M415.246 118.643h-75.159s-5.733-9.597-.932-14.927 11.595-2.294 13.716.206c2.124 2.5 3.738 3.609 5.182 2.01s3.395-4.142 7.939-2.668c4.545 1.479 7.858 6.478 10.616 6.068s3.396-3.484 8.027-4.021c4.632-.535 5.946 2.747 7.39 4.389 1.444 1.641 2.588-1.148 4.501-2.831 1.912-1.683 6.456.043 8.62 1.926 2.164 1.885 3.101 3.484 4.757 2.132 1.657-1.352 5.347-.821 5.347-.821v8.537"/><path stroke="#000" stroke-linecap="round" stroke-linejoin="round" stroke-miterlimit="10" stroke-width="2" d="M415.246 118.643h-75.159s-5.733-9.597-.932-14.927 11.595-2.294 13.716.206c2.124 2.5 3.738 3.609 5.182 2.01s3.395-4.142 7.939-2.668c4.545 1.479 7.858 6.478 10.616 6.068s3.396-3.484 8.027-4.021c4.632-.535 5.946 2.747 7.39 4.389 1.444 1.641 2.588-1.148 4.501-2.831 1.912-1.683 6.456.043 8.62 1.926 2.164 1.885 3.101 3.484 4.757 2.132 1.657-1.352 5.347-.821 5.347-.821v8.537"/><path fill="#fff" stroke="#000" stroke-linecap="round" stroke-linejoin="round" stroke-miterlimit="10" stroke-width="2" d="M202.664 90.201h63.877s-2.625-3.452-6.668-4.338c-4.048-.88-5.052.91-6.668 0-1.62-.91-4.27-2.3-6.224-1.258-1.953 1.041-3.461 1.685-4.825.615-1.369-1.07-4.412-3.694-8.455-3.505-4.048.188-4.826 3.747-6.921 2.784-2.094-.964-2.094-4.522-6.308-4.847-4.215-.319-6.391 4.338-7.87 3.83s-2.902-3.587-6.642-3.612c-3.744-.029-4.022 4.174-3.296 10.331M-3.25 103.203h51.143c.375 0-1.295-4.34-4.465-4.34s-2.714.376-5.006-1.376c-2.296-1.752-6.05-2.335-8.93-1.044-2.88 1.296-4.133 2.212-5.926.75s-3.09-3.717-7.26-3.3c-4.171.418-5.215 2.797-7.218 1.297-2.002-1.505-5.568-5.801-12.338-5.801z"/><path fill="#FFC900" stroke="#000" stroke-linecap="round" stroke-linejoin="round" stroke-miterlimit="10" stroke-width="2" d="M340.598 198.873s2.408-2.76 6.384-4.01 5.03.691 7.399-2.328c2.366-3.02 5.707-2.843 8.919-2.628 3.212.216 3.467-3.318 6.722-4.309 3.255-.989 5.115 2.589 7.313-.646 2.197-3.231 2.495-4.697 5.495-3.706 3 .99 4.606 1.25 5.793-.946 1.183-2.196 3.212-3.147 5.241-2.069 2.029 1.079 3.044-.946 5.962-2.456 2.918-1.509 4.524 1.809 6.553 1.206s3.765-2.372 5.327-2.931c1.563-.559 2.992.559 3.544 1.809v44.363l-91.014-9.023z"/><path fill="#FFC900" stroke="#000" stroke-linecap="round" stroke-linejoin="round" stroke-miterlimit="10" stroke-width="2" d="M-3.25 178.883s2.218-5.873 6.01-5.873c3.793 0 6.106 3.984 6.106 3.984s2.528-4.953 6.819-4.953c4.29 0 7.45 5.579 7.45 5.579s2.528-5.579 7.03-5.579c4.501 0 6.78 5.164 6.78 5.164s2.988-5.164 6.483-5.164c3.496 0 6.527 5.75 6.527 5.75s3.59-6.508 9.313-2.017c5.722 4.493 84.418 2.189 84.418 2.189s2.562-4.761 6.436-4.761 6.402 3.526 6.402 3.526 2.976-3.971 7.86-3.971c4.883 0 7.524 4.533 7.524 4.533s3.619-5.407 8.714-5.81c5.095-.399 58.008 6.144 58.008 6.144s7.661-1.303 12.631.712c4.97 2.013 5.22 2.853 8.213 2.39s7.914-1.427 12.042.797c4.127 2.224 4.884 4.362 8.25 4.362 3.367 0 10.19 1.384 12.842 3.693s3.577 3.021 6.738 2.558c3.156-.463 7.872-.42 11.621 1.889s5.137 1.971 7.24 1.26c2.107-.711 6.359-1.551 9.39-.086s4.209 2.854 5.684 2.224 6.402-1.049 8.633.587c2.232 1.637 2.106 2.267 4.252 1.551 2.146-.711 3.917-.377 4.798.883.886 1.26 1.853 1.26 3.96.839 2.107-.42 4.171 2.1 5.473 2.181 1.307.086 3.495 1.384 4.463 3.188.967 1.804-82.243 13.149-82.243 13.149L-3.25 224.283z"/><path fill="#23A094" stroke="#000" stroke-linecap="round" stroke-linejoin="round" stroke-miterlimit="10" stroke-width="2" d="M-3.25 242.912v-37.318h418.501v209.657H-3.25z"/><path stroke="#000" stroke-linecap="round" stroke-linejoin="round" stroke-miterlimit="10" stroke-width="2" d="M392.496 229.973h5.688m-8.938-9.752h3.251m-26.005 8.127 2.438-.813m-72.323-4.064 2.438 4.875m4.877-10.563v8.939m6.5-12.189-1.625 9.752m39.006 12.188h3.25m-27.629 33.318-1.625 13.002m-4.875-12.189v13.001"/><path fill="#FFC900" d="M310.422 277.105s1.197 3.201 1.625 4.064z"/><path stroke="#000" stroke-linecap="round" stroke-linejoin="round" stroke-miterlimit="10" stroke-width="2" d="M310.422 277.105s1.197 3.201 1.625 4.064m-12.19 6.499h4.064m9.751 6.502h3.25m54.447 20.314h3.251m-4.876 28.444h4.063m-12.19 8.125h10.564m4.063 19.504h2.438m4.064 8.125h1.625m-49.57-6.5h2.438m7.312-22.754-3.25 11.376m-4.063-11.376v13.002"/><path fill="#FFC900" d="M330.738 355.117s1.092 2.501 1.626 3.251z"/><path stroke="#000" stroke-linecap="round" stroke-linejoin="round" stroke-miterlimit="10" stroke-width="2" d="M330.738 355.117s1.092 2.501 1.626 3.251m-12.19 8.124h4.063m-47.132-8.125h3.251m-27.629-34.131 4.063-.812m-15.44 6.502h1.625m16.252 38.193h4.063m-48.758-5.689-2.438 11.376m-4.063-17.876v14.627m-10.564-8.94 5.688 13.002m-65.821-61.76h-1.625m-12.189 6.502h4.063m-12.19 4.875h3.25m-72.324 64.198-1.626 11.376m-6.5-17.064 1.626 12.189m-8.94-4.064 5.688 10.564m-20.315-31.691h1.625m15.441-14.627h1.626m-21.942-1.627h.813m98.326 26.819h-4.063m-1.625-12.19h3.251m-16.253 4.063h3.25m-15.438-41.444-4.876 17.878m-4.875-17.878v13.815m-10.565-7.315 6.501 13.002"/><path fill="#FFC900" d="M65.01 313.609s1.51.385 2.438-.75z"/><path stroke="#000" stroke-linecap="round" stroke-linejoin="round" stroke-miterlimit="10" stroke-width="2" d="M65.01 313.609s1.51.385 2.438-.75m-23.568 4.065h1.626m-48.756-8.127h2.438m14.627-41.443h1.625m12.189-11.377h1.625m-3.25-34.131-.813 8.126m-7.314-11.376 3.25 10.564m-7.312-5.689 4.063 7.313"/><path fill="#FFC900" stroke="#000" stroke-linecap="round" stroke-linejoin="round" stroke-miterlimit="10" stroke-width="2" d="M383.786 240.346s2.559-.787 5.579-.59c3.017.199 5.627 1.184 4.483 2.364-1.144 1.183-7.91 1.019-9.834.231-1.919-.791-1.377-1.729-.228-2.005M182.54 372.841s1.509-.586 2.943-.656c1.433-.075 3.582 1.144 2.923 4.044-.658 2.901-5.358 1.339-6.544 0-1.191-1.343-.605-2.994.678-3.388m-50.706-25.113s3.566-1.276 6.651-1.524 5.305 1.305 4.286 2.953-9.468 2.457-11.718 1.462c-2.248-.991-.284-2.544.781-2.891M23.95 329.759s3.765-2.23 7.652-1.175 4.32 3.931 1.627 4.944c-2.696 1.015-9.118.204-10.07-.971-.95-1.176-.04-2.384.79-2.798m34.593-100.141s-11.039-1.748-11.4 1.587c-.36 3.336 9.049 4.229 11.852 3.295 2.808-.936-.453-4.882-.453-4.882M5.688 246.744c.053 1.972-4.849 2.574-8.938 2.732v-6.501c3.436.425 8.881 1.457 8.938 3.769"/><path stroke="#000" stroke-linecap="round" stroke-linejoin="round" stroke-miterlimit="10" stroke-width="2" d="m179.59 263.289-2.438 15.44m5.688-9.75-4.063 11.376m-6.502-25.191 4.064 22.754m-10.564-32.506 4.876 30.067M41.443 252.727l4.876 20.315m-8.126-7.313 6.501 8.938m-3.25 2.437-5.688-4.063"/><path fill="#98282A" d="M158.461 303.922c-10.496-2.27-20.802-5.266-28.722-8.778a69 69 0 0 1-3.909-1.882l-.886-.473c-1.818-1.001-3.431-2.029-4.798-3.095-7.58-5.893-9.094-17.09-9.094-17.09-2.61 9.344-9.012 16.334-26.865 23.125s-27.875 5.837-27.875 5.837 6.149-5.64 12.04-12.375c5.8-6.632 9.816-15.04 9.94-15.298-2.218 2.403-4.639 4.548-6.737 5.76-3.556 2.046-28.009 11.395-29.982 12.148l-.043.017c-.022.008-.039.021-.065.025q-.01.008-.021.009a51 51 0 0 1-5.01 1.805c-8.59 2.609-19.37 2.021-19.37 2.021 3.707-.843 12.212-5.137 23.666-15.913s16.111-19.979 16.111-19.979L66.271-3.25h36.775s-1.066 176.372-1.066 192.086c0 15.716 8.083 31.654 15.048 45.323 6.962 13.673 6.063 22.7 15.385 40.998 9.318 18.298 26.048 28.765 26.048 28.765"/><path fill="#98282A" d="M178.325 307.985s-5.028-.757-20.536-4.126c0 0-16.65-10.464-25.923-28.759-9.277-18.29-8.383-27.319-15.311-40.989-6.928-13.667-14.977-29.602-14.977-45.314S102.639-3.25 102.639-3.25h36.151s5.922 217.974 5.922 222.263c0 4.293.586 27.104 10.895 42.593 10.308 15.488 29.616 20.684 29.616 20.684-.368 2.411-.334 4.744.055 6.927-.274-.068-12.517-3.059-22.209-5.724-9.807-2.695-15.674-7.237-15.674-7.237 3.774 15.063 30.93 31.729 30.93 31.729"/><path stroke="#000" stroke-linecap="round" stroke-linejoin="round" stroke-miterlimit="10" stroke-width="2" d="m130.02 286.043-1.625 8.939m-1.625-14.627-1.625 13.002m-4.065-17.878 3.251 17.065M96.702 3.25l-6.5 155.211m68.26 145.461s-16.85-10.467-26.238-28.765-8.483-27.328-15.494-40.997-15.152-29.612-15.152-45.326S102.652-3.25 102.652-3.25"/><path stroke="#000" stroke-linecap="round" stroke-linejoin="round" stroke-miterlimit="10" stroke-width="2" d="M125.957 203.156s1.403 19.173 3.689 32.243c2.281 13.065 7.546 24.605 9.652 29.695 2.106 5.091 8.6 11.198 8.6 11.198M119.455-3.25l8.126 190.966"/><path stroke="#000" stroke-linecap="round" stroke-linejoin="round" stroke-miterlimit="10" stroke-width="2" d="M109.705 272.547s1.526 11.196 9.142 17.087c7.621 5.892 22.858 10.86 38.522 14.225 15.661 3.365 20.744 4.126 20.744 4.126s-27.431-16.666-31.239-31.733c0 0 5.926 4.546 15.833 7.237 9.907 2.695 22.438 5.724 22.438 5.724l3.385-2.274-3.441-4.649s-19.503-5.196-29.916-20.684-11.005-38.3-11.005-42.593S138.186-3.25 138.186-3.25M77.124 273.856s-4.033 8.791-9.892 15.7-11.974 12.693-11.974 12.693 9.969.978 27.725-5.988c17.757-6.965 24.125-14.134 26.721-23.719 0 0-1.758-15.286 0-28.755M85.325 232.41v23.659c0 6.296-3.385 12.844-4.063 13.722"/><path stroke="#000" stroke-linecap="round" stroke-linejoin="round" stroke-miterlimit="10" stroke-width="2" d="M40.63 291.731s26.912-10.114 30.686-12.256c3.777-2.142 8.585-7.216 11.442-11.505 2.857-4.288 10.872-20.073 12.016-24.81 1.144-4.738-1.258-19.174-2.173-25.152-.916-5.977-3.892-24.136-3.55-31.918m-19.978 17.879-3.25 59.321M78.824-3.25l-9.752 192.592"/><path stroke="#000" stroke-linecap="round" stroke-linejoin="round" stroke-miterlimit="10" stroke-width="2" d="M66.125-3.25 56.72 259.838s-4.647 9.206-16.062 19.984-19.899 15.074-23.594 15.916c0 0 10.747.59 19.312-2.021 8.564-2.609 14.862-6.818 17.716-10.946 2.855-4.127 11.501-17.601 16.29-27.452 4.788-9.849 5.71-19.703 5.71-20.968 0-1.263 9.233-195.196 9.233-195.196"/><path fill="#F1F333" d="M226.721 247.284c-3.619 1.465-4.797 6.178-4.797 6.178s-1.68-1.6-2.248-2.595h-.004c.568-4.997-1.706-9.888-1.706-9.888l-3.404 10.934-.302-.445s-4.585-7.131-5.514-8.419c-.924-1.282-5.051-2.735-5.051-2.735l-4.964 7.796 8.038 10.823s2.863 3.731 5.514 6.928c1.406 1.689 3.349 2.52 5.15 2.769v1.017c-2.077-.191-4.015.126-5.636.956-2.6 1.325-7.517 5.031-11.45 8.126H186.09s3.086-8.35 4.547-17.086c1.461-8.74.899-11.005 2.416-17.365 1.311-5.496 3.082-8.389 5.682-9.43a41 41 0 0 0 5.231 1.032c.967 1.093 2.734 2.618 5.588 3.482 4.384 1.325 6.58-.809 6.675-3.625a36 36 0 0 0 2.312-.445c1.204 2.092 4.664 7.851 8.18 11.992"/><path stroke="#000" stroke-linecap="round" stroke-linejoin="round" stroke-miterlimit="10" stroke-width="2" d="M217.783 268.979v.812m-31.693 8.938s3.085-8.391 4.547-17.169c1.456-8.778.898-11.055 2.411-17.446 1.517-6.391 3.649-9.28 6.958-9.833s18.072 0 18.072 0 4.277 7.68 8.643 12.85"/><path fill="#F1F333" stroke="#000" stroke-linecap="round" stroke-linejoin="round" stroke-miterlimit="10" stroke-width="2" d="M227.535 273.584s7.326-4.607 15.015-3.666c7.685.941 11.581 12.997 2.404 31.404-2.359 4.728-17.079-9.291-17.079-9.291z"/><path fill="#000" stroke="#000" stroke-linecap="round" stroke-linejoin="round" stroke-miterlimit="10" stroke-width="2" d="M242.286 301.107s6.845-2.667 11.332-4.452c4.488-1.784 9.627-.673 9.671 2.226s-5.567 8.161-13.986 10.569-13.854-.127-12.668-2.517 5.651-5.826 5.651-5.826"/><path fill="#FECB00" d="M262.478 299.045s-4.254 4.599-8.126 6.501c0 0 7.356-3.772 8.126-6.501"/><path stroke="#000" stroke-linecap="round" stroke-linejoin="round" stroke-miterlimit="10" stroke-width="2" d="m232.41 281.168 3.251-2.438"/><path fill="#F1F333" d="M194.566 284.164s12.58-10.816 17.353-13.331c4.773-2.52 12.3-.456 17.856 6.065 5.561 6.525 12.523 21.745 13.198 24.721 0 0-1.517 3.892-5.165 5.553 0 0-6.683-2.231-11.624-8.24-4.941-6.007-6.12-11.845-6.12-11.845s-5.164 17.166-17.068 17.455c-11.904.285-20.665-11.675-16.79-25.291h14.312"/><path stroke="#000" stroke-linecap="round" stroke-linejoin="round" stroke-miterlimit="10" stroke-width="2" d="M194.566 284.164s12.58-10.816 17.353-13.331c4.773-2.52 12.3-.456 17.856 6.065 5.561 6.525 12.523 21.745 13.198 24.721 0 0-1.517 3.892-5.165 5.553 0 0-6.683-2.231-11.624-8.24-4.941-6.007-6.12-11.845-6.12-11.845s-5.164 17.166-17.068 17.455c-11.904.285-20.665-11.675-16.79-25.291h14.312"/><path fill="#FF90E8" stroke="#000" stroke-linecap="round" stroke-linejoin="round" stroke-miterlimit="10" stroke-width="2" d="M203.156 234.581s1.702 3.818 6.426 5.49 6.866-1.433 6.545-5.109c-.322-3.677-12.971-.381-12.971-.381"/><path fill="#FF90E8" stroke="#000" stroke-linecap="round" stroke-linejoin="round" stroke-miterlimit="10" stroke-width="2" d="M233.467 185.859c5.495-3.768 9.061-9.074 9.468-15.141.863-12.732-12.482-23.998-29.801-25.161s-32.056 8.212-32.919 20.944c-.412 6.068 2.407 11.807 7.343 16.27a8.453 8.453 0 0 1-.898 13.302c-5.495 3.768-9.061 9.074-9.468 15.141-.863 12.732 12.482 23.998 29.8 25.161s32.057-8.212 32.92-20.944c.412-6.068-2.407-11.807-7.343-16.27a8.453 8.453 0 0 1 .898-13.302"/><path fill="#000" d="M228.348 225.909a1.625 1.625 0 1 0 0-3.25 1.625 1.625 0 0 0 0 3.25m-13.408-.813c1.122 0 2.031-.546 2.031-1.219s-.909-1.219-2.031-1.219-2.032.546-2.032 1.219.91 1.219 2.032 1.219"/><path fill="#FF90E8" stroke="#000" stroke-linecap="round" stroke-linejoin="round" stroke-miterlimit="10" stroke-width="2" d="M226.384 256.789s-2.472-1.839-3.726-3.38c0 0 1.098-4.865 4.471-6.372 0 0 2.768 2.965 3.569 3.42.806.458-4.314 6.332-4.314 6.332"/><path fill="#F1F333" d="M218.176 240.537s5.212 10.193-1.007 16.401c-6.219 6.21-4.973-2.182-4.973-2.182l.958.438"/><path stroke="#000" stroke-linecap="round" stroke-linejoin="round" stroke-miterlimit="10" stroke-width="2" d="M218.176 240.537s5.212 10.193-1.007 16.401c-6.219 6.21-4.973-2.182-4.973-2.182l.958.438"/><path fill="#FF90E8" stroke="#000" stroke-linecap="round" stroke-linejoin="round" stroke-miterlimit="10" stroke-width="2" d="M234.04 254.522s1.914 1.86 5.649 2.471c0 0-2.79-.056-4.341-.197-1.55-.141.085 1.035 1.381 1.424 1.3.388 2.02.615 2.02.615s-2.545.167-3.405.253c-.856.085.906 1.282 1.516 1.423.615.141 1.69.782 1.69.782h-3.541c-.72 0 .94 2.343 6.307 1.954 5.366-.389 5.556-4.104 4.201-6.865s-5.387-4.468-5.387-4.468-6.159.804-6.094 1.013c.063.21.004 1.595.004 1.595"/><path fill="#F1F333" d="M240.946 250.287s1.508.753 1.877 1.949c.37 1.196.027 2.695-.614 2.899s-1.964-.783-2.484-.856"/><path stroke="#000" stroke-linecap="round" stroke-linejoin="round" stroke-miterlimit="10" stroke-width="2" d="M240.946 250.287s1.508.753 1.877 1.949c.37 1.196.027 2.695-.614 2.899s-1.964-.783-2.484-.856"/><path fill="#000" d="m229.104 251.751 2.615-11.214h11.256l-4.019 13.647s-2.011-.24-3.338-.24-3.374 1.622-3.374 1.622l-4.709.411z"/><path fill="#fff" d="m234.036 240.537-3.119 13.821-2.569.806 3.675-14.627z"/><path stroke="#000" stroke-linecap="round" stroke-linejoin="round" stroke-miterlimit="10" stroke-width="2" d="m229.104 251.751 2.615-11.214h11.256l-4.019 13.647s-2.011-.24-3.338-.24-3.374 1.622-3.374 1.622l-4.709.411z"/><path fill="#FF90E8" stroke="#000" stroke-linecap="round" stroke-linejoin="round" stroke-miterlimit="10" stroke-width="2" d="m214.719 250.409 5.195 8.304 6.501-2.32s-.043-4.015.508-5c.552-.984 2.618-.446 2.618-.446l-.716 3.213s.043.939.466.67c.422-.269 1.224-1.162 2.151-2.01s2.363-.356 1.94.802c-.422 1.158-1.099 3.304-1.099 3.304s1.099-1.34 2.151-1.426c1.056-.091-1.014 2.635-1.138 3.213-.125.579.926-.091 1.732-.715.803-.625.716.939.423 2.274-.297 1.34-.969 2.767-2.026 3.305s-9.627 3.66-11.529 4.776c-1.9 1.117-6.501.981-9.161-2.456s-5.532-7.453-5.532-7.453l-.797-8.969z"/><path fill="#F1F333" d="M204.028 240.537s4.102 1.458 5.021 2.746c.919 1.292 5.483 8.45 5.483 8.45s-5.65 2.708-7.449 7.494l-7.991-10.864"/><path stroke="#000" stroke-linecap="round" stroke-linejoin="round" stroke-miterlimit="10" stroke-width="2" d="M204.028 240.537s4.102 1.458 5.021 2.746c.919 1.292 5.483 8.45 5.483 8.45s-5.65 2.708-7.449 7.494l-7.991-10.864"/><path fill="#fff" stroke="#000" stroke-linecap="round" stroke-linejoin="round" stroke-miterlimit="10" stroke-width="2" d="M415.25 47.944h-97.88s-7.724-7.881-6.884-12.679c.84-4.797 9.739-4.043 13.545-1.919 3.808 2.124 7.108 4.902 8.343 2.879 1.23-2.02 5.345-5.432 12.062-4.016 6.718 1.416 9.826 6.72 11.866 5.354 2.046-1.365 3.417-4.546 10.383-3.714 6.97.832 10.606 5.154 10.606 5.154s2.267-3.359 8.058-3.359 9.32 4.496 10.804 3.664c1.483-.831 2.743-3.207 7.416-2.928 4.672.278 7.527 4.093 7.527 4.093s1.723-2.047 4.15-1.69v9.16z"/><path stroke="#000" stroke-linecap="round" stroke-linejoin="round" stroke-miterlimit="10" stroke-width="2" d="M415.251-3.25H-3.25v418.501h418.501z"/><path stroke="#000" stroke-linecap="round" stroke-linejoin="round" stroke-miterlimit="10" stroke-width="2" d="M220.221 250.287c.615.935 2.438 2.438 2.438 2.438"/></g><rect width="411" height="411" x=".5" y=".5" stroke="#000" rx="205.5"/><defs><clipPath id="a"><rect width="412" height="412" fill="#fff" rx="206"/></clipPath></defs></svg>