<svg xmlns="http://www.w3.org/2000/svg" width="412" height="425" fill="none"><rect width="411" height="411" x=".5" y="13.5" fill="#FFC900" rx="205.5"/><rect width="411" height="411" x=".5" y="13.5" stroke="#000" rx="205.5"/><path fill="#F1F333" d="M229.1 354.239v38.027a207 207 0 0 1-25.979 2.415q-3.159.098-6.344.098a208 208 0 0 1-34.615-2.886v-37.635z"/><path stroke="#000" stroke-linecap="round" stroke-linejoin="round" stroke-width="3" d="M202.701 394.78v-18.856m26.397-21.685v37.712m-66.936-37.712v37.712"/><path fill="#F1F333" stroke="#000" stroke-linecap="round" stroke-linejoin="round" stroke-width="3" d="M194.87 269.389c-2.148.197-13.475 9.692-12.889 17.9.586 8.209 16.112 24.525 16.112 24.525l29.161-8.343s4.122 4.175 5.798 5.475c1.675 1.302 11.096-1.977 11.096-1.977l.035-11.607a109 109 0 0 0-6.968-8.781c-4.621-5.34-8.722-8.572-15.492-9.561-6.768-.989-26.853-7.631-26.853-7.631"/><path fill="#FF90E8" stroke="#000" stroke-linecap="round" stroke-linejoin="round" stroke-width="3" d="M191.962 280.701h15.508c7.656 0 32.85-5.957 45.084-22.306 12.233-16.348 10.733-35.509-.197-48.372-10.93-12.865-12.956-11.487-14.068-19.228a16.25 16.25 0 0 1 .676-7.559 16.2 16.2 0 0 1 4.036-6.42c1.308-1.181 15.638-12.076 17.471-25.924 1.834-13.849-.326-27.035-15.116-38.915-14.789-11.881-34.482-17.653-57.191-15.684-22.708 1.97-42.794 14.502-49.727 27.693-6.934 13.192-6.87 28.481 0 39.049 6.871 10.568 13.349 12.207 16.423 19.424s.589 14.372-5.105 19.424c-5.692 5.052-12.956 12.206-15.574 22.642-2.618 10.434-1.571 21.132 7.527 33.602 9.096 12.47 28.919 19.622 28.919 19.622z"/><path fill="#000" d="M227.684 239.22a2.357 2.357 0 1 0-.002-4.714 2.357 2.357 0 0 0 .002 4.714m-21.213 0c1.041 0 1.886-1.056 1.886-2.357 0-1.303-.845-2.357-1.886-2.357s-1.885 1.054-1.885 2.357c0 1.301.844 2.357 1.885 2.357"/><path fill="#FF90E8" stroke="#000" stroke-linecap="round" stroke-linejoin="round" stroke-width="3" d="M218.728 258.075a4.715 4.715 0 1 0-.001-9.43 4.715 4.715 0 0 0 .001 9.43m25.488 37.712s-7.103 9.569-11.347 13.144c0 0 7.167 5.551 12.075 7.081 4.91 1.531 10.552-.831 10.552-.831l-.267-11.165s-6.828-4.095-11.013-8.229"/><path fill="#F1F333" d="M204.625 301.611s-7.824-15.767-8.495-17.222c-.669-1.455-5.817-13.115-16.048-13.115s-17.922 7.813-17.922 13.378v69.588h66.938v-63.162a8.2 8.2 0 0 0-1.603-4.701"/><path stroke="#000" stroke-linecap="round" stroke-linejoin="round" stroke-width="3" d="M204.625 301.611s-7.824-15.767-8.495-17.222c-.669-1.455-5.817-13.115-16.048-13.115s-17.922 7.813-17.922 13.378v69.588h66.938v-63.162a8.2 8.2 0 0 0-1.603-4.701m-38.936 27.324-12.256-16.971"/><path fill="#000" stroke="#000" stroke-linecap="round" stroke-linejoin="round" stroke-width="3" d="m252.501 310.284 21.103-59.752 55.43.329-19.968 56.912 2.344 11.754-10.724 13.028h-53.675l1.191-17.044z"/><path fill="#fff" stroke="#000" stroke-linecap="round" stroke-linejoin="round" stroke-width="3" d="m255.958 316.112 24.995-65.58h-7.386l-24.669 67.881z"/><path fill="#FF90E8" d="m249.541 316.51 2.231-6.497c-5.859-1.47-6.902 6.228-8.203 6.228h-31.442l-7.555-14.797c-5.6 6.962-16.013 12.724-16.013 12.724s3.514 6.428 7.812 13.522c4.296 7.096 11.585 7.031 16.727 6.83 5.145-.201 29.557-.868 29.557-.868s7.093 2.676 10.218 2.676 9.245-.868 9.245-3.214-8.593-2.41-8.593-2.41c2.93.337 9.832-1.338 9.503-3.347-.328-2.008-9.046-1.338-9.046-1.338s8.331-.67 8.331-2.812-9.245-1.676-9.245-1.676c6.64.27 9.245-2.008 9.245-3.615s-4.167-1.406-6.768-1.406h-7.098"/><path stroke="#000" stroke-linecap="round" stroke-linejoin="round" stroke-width="3" d="m249.541 316.51 2.231-6.497c-5.859-1.47-6.902 6.228-8.203 6.228h-31.442l-7.555-14.797c-5.6 6.962-16.013 12.724-16.013 12.724s3.514 6.428 7.812 13.522c4.296 7.096 11.585 7.031 16.727 6.83 5.145-.201 29.557-.868 29.557-.868s7.093 2.676 10.218 2.676 9.245-.868 9.245-3.214-8.593-2.41-8.593-2.41c2.93.337 9.832-1.338 9.503-3.347-.328-2.008-9.046-1.338-9.046-1.338s8.331-.67 8.331-2.812-9.245-1.676-9.245-1.676c6.64.27 9.245-2.008 9.245-3.615s-4.167-1.406-6.768-1.406h-7.098"/><path fill="#FF90E8" d="M312.803 312.11s-8.224-1.176-10.58-1.127-5.105.1-5 2.071c.092 1.969 4.171 2.47 5.198 2.623 1.026.154 8.421.505 8.421.505s-9.264-.542-11.251-.642c-2-.102-3.302 2.018-2.223 3.632s7.421 2.357 11.764 2.357c0 0-5.777 0-7.883-.169-2.092-.169-3.908 1.784-3.329 3.564.592 1.78 10.856 2.66 10.856 2.66s-5.882-.271-9.185 1.577c-3.302 1.849-2.355 4.812-.921 5.619 1.448.807 3.987.573 5.501.573h1.881c3.303 0 10.725 0 10.725-7.567v-9.925c0-4.807-1.961-9.719-8.198-10.76l-1.5 4.269"/><path stroke="#000" stroke-linecap="round" stroke-linejoin="round" stroke-width="3" d="M312.803 312.11s-8.224-1.176-10.58-1.127-5.105.1-5 2.071c.092 1.969 4.171 2.47 5.198 2.623 1.026.154 8.421.505 8.421.505s-9.264-.542-11.251-.642c-2-.102-3.302 2.018-2.223 3.632s7.421 2.357 11.764 2.357c0 0-5.777 0-7.883-.169-2.092-.169-3.908 1.784-3.329 3.564.592 1.78 10.856 2.66 10.856 2.66s-5.882-.271-9.185 1.577c-3.302 1.849-2.355 4.812-.921 5.619 1.448.807 3.987.573 5.501.573h1.881c3.303 0 10.725 0 10.725-7.567v-9.925c0-4.807-1.961-9.719-8.198-10.76l-1.5 4.269"/><path fill="#fff" stroke="#000" stroke-linecap="round" stroke-linejoin="round" stroke-width="2" d="M363.579 1H246.425a10.4 10.4 0 0 0-7.372 3.051A10.43 10.43 0 0 0 236 11.426V44.62a10.415 10.415 0 0 0 6.433 9.634c1.264.524 2.62.793 3.988.793h55.994l-4.824 40.704 6.287-2.83-6.399 52.197 6.399-4.876-5.302 50.101 5.822-4.088L302.246 233l10.323-59.269-7.172 3.878 6.75-51.987-7.116 3.878 7.96-50.364-7.074 3.932 4.247-28.022h53.401a10.46 10.46 0 0 0 7.383-3.053 10.5 10.5 0 0 0 2.25-3.383c.535-1.265.802-2.622.802-3.991V11.427A10.427 10.427 0 0 0 363.579 1"/><path fill="#000" d="M261 33.454c.617-1.652.556-1.529 2.469-.692 2.743 1.199 5.597 1.502 8.47.251 1.181-.52 1.4-1.647.328-2.33a7.6 7.6 0 0 0-3.368-1.269 9.64 9.64 0 0 1-5.039-1.96c-1.147-.82-.815-2.255-.551-3.419.528-2.29 2.482-3.4 4.605-3.88 1.53-.34 3.266-.045 4.861.163.42.057 1.087.916 1.007 1.29-.094.293-.258.56-.482.782s-.5.39-.805.491c-1.018.234-2.142.031-3.181.212-1.124.19-2.239.56-2.767 1.978.933.273 1.843.515 2.734.802 1.478.475 3.033.832 4.413 1.506 1.735.842 2.957 4.326 1.931 6.361a4.5 4.5 0 0 1-1.451 1.845 4.9 4.9 0 0 1-2.23.922c-2.331.462-4.567.7-6.875.26a6.2 6.2 0 0 1-2.298-.802 5.9 5.9 0 0 1-1.771-1.6zM343.247 19c.972 1.081.725 2.465.725 3.715 0 2.135-.203 4.275-.435 6.406-.131 1.397-.9 1.998-2.061 1.86-.943-.112-1.567-1.09-1.465-2.358.116-1.562.304-3.114.42-4.671a24 24 0 0 0 .073-2.514c0-1.206.421-2.082 1.596-2.438zm-29.046 11.766h-2.896c-.684 0-1.032.291-1.032 1.035-.014.074-.014.147-.027.219-.308 2.07-.308 2.138 1.689 1.903 1.757-.205 3.473-.616 5.229-.834.402-.051 1.099.21 1.193.513.268.79.376 1.627.349 2.464 0 .278-.603.697-.965.762-2.293.413-4.586.775-6.892 1.086q-1.266.147-2.534.043c-1.005-.06-1.34-.813-1.314-1.763a35 35 0 0 1 .215-3.524c.228-1.737.577-3.448.804-5.18.188-1.36.282-2.73.389-4.094a3.36 3.36 0 0 1 .992-2.065 2.9 2.9 0 0 1 2.038-.806c2.025-.047 4.049-.256 6.06-.513 1.167-.15 2.615 1.133 2.494 2.404-.094 1.044-.952 1.146-1.596 1.228-2.131.27-4.276.428-6.421.586-.872.072-1.086.522-1.113 1.942 0 .984.563.813 1.099.808 1.676 0 3.352-.03 5.014-.064 1.167-.026 1.998.74 2.038 1.844 0 .992-.925 1.976-1.944 2.015h-2.882zm-27.015 1.706c-1.335.294-2.387.53-3.433.769q-.352.119-.715.194c-1.421.131-1.713.416-2.082 1.898-.188.741-.339 1.582-.77 2.12a1.5 1.5 0 0 1-.749.302 1.43 1.43 0 0 1-.784-.144 2.3 2.3 0 0 1-.509-.823 2.45 2.45 0 0 1-.139-.985c.253-1.595.524-3.263 1.172-4.69 1.295-2.87 2.227-5.98 4.166-8.461a14 14 0 0 1 1.992-2.197c1.149-.954 2.649-.32 3.351 1.085 1.569 3.163 1.28 6.526 1.225 9.898-.028 1.355.165 2.711.055 4.067a4.5 4.5 0 0 1-.812 2.305c-.234.298-1.239.226-1.624-.081-.385-.308-.55-1.117-.578-1.718a38 38 0 0 1 .234-3.539m-4.024-3.43.259.375c1.049 0 2.1.04 3.146-.036a.94.94 0 0 0 .371-.298 1 1 0 0 0 .207-.466 16.6 16.6 0 0 0-.152-3.209c-.179-.962-.908-1.157-1.431-.384-.867 1.284-1.608 2.676-2.4 4.018m45.001-3.904c.935.28 1.797.508 2.615.797 1.374.473 2.835.837 4.107 1.52 1.622.877 2.732 4.329 1.739 6.34a4.4 4.4 0 0 1-1.33 1.778 4.4 4.4 0 0 1-2.017.911c-2.396.548-4.705.771-7.072.105a8.5 8.5 0 0 1-2.207-1.077c-.935-.618-1.301-2.217-.716-3.098.132-.197.687-.258.979-.162.731.254 1.388.701 2.119.947 2.309.775 4.618.907 6.868-.189 1.038-.508 1.154-1.459.351-2.3a4.7 4.7 0 0 0-1.564-1.007 4.5 4.5 0 0 0-1.812-.307c-1.812-.03-3.2-1.008-4.603-1.923-.351-.228-.511-.916-.57-1.41-.351-3.286 1.505-5.087 4.793-5.932 1.242-.32 2.674.03 4.004.175.176.002.336.043.497.12a1.2 1.2 0 0 1 .395.321 1.1 1.1 0 0 1 .219.46 1.2 1.2 0 0 1 .014.514c-.131.295-.321.56-.555.774a2.1 2.1 0 0 1-.818.466c-.921.227-1.929 0-2.864.184-1.009.21-2.017.578-2.572 1.993M293 32.832c.068-3.64.233-7.27 1.3-10.77.206-.69.548-1.137 1.287-1.052.753.086 1.136.388 1.013 1.254-.178 1.187-.41 2.368-.52 3.564-.15 2.011-.219 4.032-.356 6.048-.055.929.329 1.263 1.123 1.231 1.752-.068 3.491-.036 5.174-.79 1.027-.45 1.561-.085 1.876.97.315 1.056-.123 2.53-.876 2.68-2.601.523-5.175 1.443-7.885.83-1.794-.41-2.081-.75-2.136-2.707zm49.998 2.802a1.4 1.4 0 0 1-.44.97 1.5 1.5 0 0 1-1.015.396c-.746-.047-1.59-.924-1.541-1.597a1.68 1.68 0 0 1 .575-1.02 1.68 1.68 0 0 1 1.113-.382c.709.007 1.345.79 1.308 1.633"/></svg>