<svg xmlns="http://www.w3.org/2000/svg" width="412" height="412" fill="none"><g clip-path="url(#a)"><rect width="412" height="412" fill="#23A094" rx="206"/><path fill="#1D1D1B" d="M340.211 99.83h10.218l-14.523 154.367H166.905l20.218-113.465 13.641-36.113z"/><path fill="#000" d="m350.429 98.036.187.01a1.79 1.79 0 0 1 1.602 1.764l-.007.187-14.524 154.369a1.79 1.79 0 0 1-1.78 1.625H166.906a1.795 1.795 0 0 1-1.761-2.109l20.217-113.465.037-.163a2 2 0 0 1 .052-.157l13.641-36.112.113-.244c.303-.54.867-.892 1.497-.914l139.448-4.79zm-148.415 8.334-13.159 34.842-19.813 111.192h165.237l14.185-150.782h-8.242z"/><path fill="#98282A" d="M362.031 254.197H-88.623v13.173h450.654z"/><path fill="#000" d="M363.82 252.404v16.76H-90.411v-16.76zm-450.653 13.174h447.076v-9.587H-86.833z"/><path fill="#000" d="M286.791 254.198V243.54c0-.99.801-1.793 1.789-1.793s1.789.803 1.789 1.793v10.658c0 .99-.801 1.793-1.789 1.793a1.79 1.79 0 0 1-1.789-1.793"/><path fill="#fff" d="M208.939 99.83h131.273l-15.2 143.71H166.905l24.188-128.724z"/><path fill="#000" d="m342.201 98.036-15.579 147.297H164.748l24.705-131.481 18.336-15.397.5-.419zm-149.469 17.741-23.669 125.97h154.339l14.821-140.125H209.59z"/><path fill="#23A094" d="M209.186 109.38h121.396l-13.941 118.922H187.123l2.308-60.609 7.57-43.665z"/><path fill="#000" d="M330.582 107.587c.511 0 .997.218 1.337.601.339.382.5.894.44 1.402l-13.941 118.922a1.79 1.79 0 0 1-1.776 1.583H187.123a1.79 1.79 0 0 1-1.787-1.862l2.308-60.608.024-.238 7.57-43.667.056-.227c.07-.224.183-.432.334-.613l12.184-14.649.135-.145a1.8 1.8 0 0 1 1.24-.499zm-131.901 17.221-7.468 43.078-2.231 58.623H315.05l13.522-115.336H210.024z"/><path fill="#fff" d="m311.124 128.347.81-.634H246.39l-10.041 58.738-.454.357h.395l-.055.324.409-.324h67.949z"/><path fill="#000" d="m296.468 178.658.181.009a1.794 1.794 0 0 1 0 3.569l-.181.009h-48.097a1.79 1.79 0 0 1-1.789-1.794c0-.99.801-1.793 1.789-1.793zm-13.201-6.448.183.009a1.79 1.79 0 0 1 1.606 1.784c0 .928-.704 1.693-1.606 1.785l-.183.008h-39.554a1.79 1.79 0 0 1-1.789-1.793c0-.99.801-1.793 1.789-1.793zm16.524-4.054.183.009a1.79 1.79 0 0 1 1.606 1.784c0 .929-.704 1.693-1.606 1.785l-.183.009h-55.34a1.79 1.79 0 0 1-1.789-1.794c0-.99.801-1.793 1.789-1.793zm1.063-5.757.184.009a1.79 1.79 0 0 1 1.605 1.785c0 .928-.703 1.692-1.605 1.784l-.184.009h-55.621a1.79 1.79 0 0 1-1.789-1.793c0-.991.801-1.794 1.789-1.794zm-1.063-5.851.183.009a1.79 1.79 0 0 1 1.606 1.784 1.79 1.79 0 0 1-1.606 1.784l-.183.009h-50.588a1.79 1.79 0 0 1-1.789-1.793c0-.99.801-1.793 1.789-1.793zm-15.047-5.295.183.009a1.79 1.79 0 0 1 1.606 1.784c0 .929-.704 1.693-1.606 1.785l-.183.008h-18.046a1.79 1.79 0 0 1-1.789-1.793c0-.99.801-1.793 1.789-1.793z"/><path fill="#FF90E8" d="m244.406 139.316-.946 5.52h65.821l.617-5.52z"/><path fill="#000" d="m309.898 137.522.189.011a1.79 1.79 0 0 1 1.59 1.982l-.619 5.52a1.79 1.79 0 0 1-1.777 1.593H243.46a1.79 1.79 0 0 1-1.763-2.096l.946-5.519.035-.16a1.79 1.79 0 0 1 1.727-1.331zm-64.315 5.52h62.098l.217-1.933h-61.983z"/><path fill="#FF90E8" d="M245.461 133.13h65.127l-.69 6.187h-65.493z"/><path fill="#000" d="m310.588 131.337.189.01a1.79 1.79 0 0 1 1.588 1.982l-.69 6.187a1.79 1.79 0 0 1-1.777 1.594h-65.493a1.795 1.795 0 0 1-1.762-2.096l1.055-6.187.035-.158a1.79 1.79 0 0 1 1.728-1.332zm-64.062 6.186h61.772l.29-2.6H246.97z"/><path fill="#98282A" d="M245.462 133.13h65.126l.607-5.417h-64.806z"/><path fill="#000" d="m311.195 125.919.19.01a1.79 1.79 0 0 1 1.588 1.983l-.606 5.416a1.793 1.793 0 0 1-1.779 1.594h-65.126a1.79 1.79 0 0 1-1.762-2.097l.926-5.416.034-.159a1.79 1.79 0 0 1 1.73-1.331zm-63.612 5.416h61.407l.204-1.83h-61.296z"/><path fill="#000" d="M311.394 125.93c.982.11 1.689.998 1.579 1.982l-6.602 59.096a1.79 1.79 0 0 1-1.778 1.594h-68.699a1.79 1.79 0 0 1-1.789-1.793c0-.991.801-1.794 1.789-1.794h67.099l6.425-57.502.028-.18a1.79 1.79 0 0 1 1.948-1.403"/><path fill="#000" d="m311.933 125.919.182.009a1.794 1.794 0 0 1 0 3.569l-.182.008h-64.036l-9.901 57.928-.041.18a1.79 1.79 0 0 1-2.024 1.286 1.793 1.793 0 0 1-1.461-2.07l10.155-59.42.035-.157a1.79 1.79 0 0 1 1.728-1.333z"/><path fill="#FF90E8" d="M255.99 214.212s2.444-8.475 4.985-11.146 4.986-3.316 7.245-2.303 6.141 2.992 6.141 2.992l4.801 12.253s-15.557 4.675-16.48 4.919"/><path fill="#000" d="M264.183 198.816c1.637-.498 3.257-.368 4.767.31l.937.431a156 156 0 0 1 3.045 1.474 277 277 0 0 1 2.066 1.037l.128.064.035.018.008.005h.002v.002l-.603 1.189.605-1.189c.389.199.692.534.852.942l4.801 12.253a1.794 1.794 0 0 1-.975 2.31l-.176.063h-.004l-.007.003-.035.011-.129.038-.496.149-1.775.532-5.45 1.636c-3.975 1.19-8.143 2.435-8.643 2.567l-.18.037a1.79 1.79 0 0 1-2.005-1.315 1.795 1.795 0 0 1 1.275-2.191l2.911-.856a8654 8654 0 0 0 11.065-3.313l.583-.176-3.841-9.802-.03-.014c-.396-.2-.949-.477-1.57-.785a124 124 0 0 0-3.854-1.846l-.002-.001c-.748-.336-1.481-.39-2.266-.151-.826.251-1.819.863-2.952 2.054-.449.472-.983 1.31-1.548 2.436-.549 1.095-1.068 2.345-1.52 3.539a66 66 0 0 0-1.39 4.085l-.079.263-.019.065-.005.016v.003a1.79 1.79 0 0 1-2.215 1.226 1.795 1.795 0 0 1-1.223-2.221l1.719.498-1.719-.499.001-.002.002-.007.005-.019.023-.077.086-.288a69 69 0 0 1 1.469-4.316c.476-1.258 1.044-2.63 1.668-3.875.609-1.214 1.333-2.437 2.154-3.301 1.408-1.48 2.907-2.527 4.504-3.012"/><path fill="#FF90E8" d="M269.65 205.737s6.02-4.791 7.386-5.619c1.366-.829 4.859.276 6.753 4.19 1.895 3.913 3.391 15.616 3.391 15.616s-8.633 5.435-10.144 5.571-10.65.277-10.65.277l-7.153-10.546"/><path fill="#000" d="M278.556 198.085c.814.071 1.662.334 2.477.755 1.64.847 3.256 2.395 4.364 4.684h.002c.56 1.157 1.043 2.776 1.455 4.444.419 1.7.793 3.572 1.102 5.299.31 1.731.559 3.335.73 4.506.086.586.152 1.064.198 1.397l.052.387.012.102.004.026.002.007v.004l.014.259a1.8 1.8 0 0 1-.629 1.334l-.208.153v.001h-.002l-.005.004-.019.012-.075.046-.28.175c-.242.15-.588.365-1.008.623-.839.516-1.978 1.208-3.165 1.904a81 81 0 0 1-3.5 1.954c-.529.274-1.035.519-1.474.706-.371.157-.908.366-1.408.411l.002.002c-.835.076-3.583.147-6.015.198-1.24.026-2.432.048-3.314.063l-1.059.017-.293.006h-.096l-.005.001h-.002a1.79 1.79 0 0 1-1.37-.607l-.138-.179-7.152-10.545-.094-.158a1.796 1.796 0 0 1 .568-2.334 1.79 1.79 0 0 1 2.376.329l.11.147 6.608 9.744.484-.007c.879-.016 2.068-.037 3.302-.063 2.46-.052 4.978-.12 5.719-.181.029-.01.146-.045.381-.145.322-.137.738-.338 1.23-.592.98-.507 2.17-1.181 3.333-1.863 1.16-.68 2.276-1.358 3.103-1.865l.375-.233q-.044-.323-.101-.718a142 142 0 0 0-.713-4.395 81 81 0 0 0-1.053-5.07c-.402-1.627-.815-2.939-1.202-3.739v-.001c-.786-1.625-1.864-2.587-2.785-3.063-.465-.241-.865-.343-1.149-.368-.267-.023-.346.027-.308.007-.594.368-2.313 1.671-4.011 2.989-.832.647-1.624 1.268-2.208 1.729l-.697.551-.192.153-.051.04-.012.01-.003.002v.002c-.774.616-1.9.485-2.514-.291a1.795 1.795 0 0 1 .288-2.518v-.002h.002l.003-.001.013-.011.052-.042.194-.154.704-.557c.588-.464 1.387-1.092 2.229-1.746 1.63-1.265 3.579-2.753 4.374-3.236l.292-.158c.695-.33 1.463-.402 2.156-.341"/><path fill="#FF90E8" d="M293.113 220.438s3.405-3.046 2.064-4.933-2.814-2.813-3.601-4.009c-.786-1.198-4.708-8.429-7.798-7.186-3.091 1.241-9.417 4.698-9.417 4.698"/><path fill="#000" d="M291.918 219.101v.002h-.002zq.005-.002.017-.014l.081-.077a9 9 0 0 0 1.154-1.346c.283-.413.449-.76.507-1.006.017-.073.017-.118.018-.141-.564-.789-1.16-1.391-1.774-1.988-.573-.558-1.314-1.244-1.841-2.045v-.002c-.498-.759-1.537-2.65-2.928-4.36-.686-.845-1.35-1.5-1.928-1.871-.574-.367-.77-.281-.781-.276h-.002c-1.455.584-3.737 1.721-5.711 2.744a220 220 0 0 0-3.242 1.716l-.203.11q-.034.02-.052.028l-.014.007-.004.004-.164.079a1.787 1.787 0 0 1-2.262-.795 1.8 1.8 0 0 1 .714-2.435h.002l.004-.001q.004-.004.014-.009l.055-.03.208-.114.767-.411c.647-.346 1.542-.822 2.535-1.336 1.961-1.016 4.386-2.227 6.022-2.884v-.002c1.54-.62 2.997-.085 4.04.583 1.051.673 1.998 1.669 2.776 2.627 1.537 1.889 2.85 4.207 3.141 4.652l.222.3c.252.304.603.64 1.124 1.147.646.629 1.447 1.427 2.216 2.509h.002c.72 1.012.739 2.131.528 3.023-.203.856-.638 1.624-1.038 2.208a12 12 0 0 1-1.202 1.473c-.171.18-.319.327-.426.43l-.131.123-.039.037-.014.012-.005.005h-.002c-.006-.006-.088-.097-1.191-1.336l1.191 1.338a1.786 1.786 0 0 1-2.526-.144 1.8 1.8 0 0 1 .014-2.404z"/><path fill="#FF90E8" d="M277.023 214.492s7.352-1.614 9.432-1.566c2.078.048 5.63 5.803 6.505 7.278s3.97 4.974 4.388 5.804c.417.828-.924 3.961-4.018 2.579-3.095-1.381-6.241-4.256-6.241-4.256l-19.651 3.972-2.494-10.358"/><path fill="#000" d="M286.737 211.149a3.8 3.8 0 0 1 1.422.473c.452.25.874.575 1.254.914.758.676 1.503 1.545 2.161 2.397 1.323 1.714 2.47 3.594 2.921 4.354h.002c.356.599 1.245 1.722 2.22 2.935.462.574.93 1.151 1.305 1.635.331.426.722.947.921 1.341h.002c.416.827.258 1.737.101 2.268a4.8 4.8 0 0 1-1.087 1.888 4.3 4.3 0 0 1-2.283 1.287c-.855.173-1.76.085-2.68-.256l-.395-.161c-1.731-.772-3.418-1.931-4.633-2.854a36 36 0 0 1-1.385-1.109l-18.792 3.8a1.79 1.79 0 0 1-2.042-1.166l-.051-.171-2.492-10.358-.035-.181a1.79 1.79 0 0 1 1.354-1.982c.9-.218 1.806.288 2.106 1.145l.051.177 2.089 8.679 17.964-3.63.21-.03c.491-.04.98.125 1.348.462l.006.004.021.019.092.082a29 29 0 0 0 1.717 1.401c1.132.859 2.565 1.828 3.928 2.436l.331.124c.295.087.48.073.579.053a.7.7 0 0 0 .386-.228c.096-.102.169-.224.218-.336a19 19 0 0 0-.375-.503c-.35-.451-.79-.996-1.263-1.585-.895-1.112-1.992-2.477-2.511-3.351v-.002c-.425-.716-1.488-2.45-2.678-3.993-.599-.776-1.189-1.447-1.708-1.91a3.5 3.5 0 0 0-.607-.455q-.06-.031-.089-.042c-.371.001-1.053.068-1.977.205-.947.139-2.034.332-3.071.528a165 165 0 0 0-3.575.724l-.232.05-.059.013-.016.003h-.005a1.793 1.793 0 0 1-.765-3.502h.001l.006-.002.015-.003.065-.014.241-.053a160 160 0 0 1 3.658-.741 81 81 0 0 1 3.218-.551c.975-.144 1.962-.26 2.652-.244z"/><path fill="#FF90E8" d="M278.193 220.202s8.215 0 8.769 3.133-.044 9.304-1.477 11.791-4.106.826-3.873-.648c.232-1.475-.138-5.678-1.201-6.18s-2.677 5.804-7.939 6.383c-5.262.577-5.586-13.469-5.586-13.469"/><path fill="#000" d="m278.226 218.409.08.002.288.005c.244.007.588.02 1.001.046.822.051 1.943.156 3.098.369 1.132.209 2.41.542 3.487 1.102 1.042.541 2.261 1.492 2.543 3.089l.103.707c.205 1.721.154 3.904-.082 5.949-.265 2.291-.802 4.766-1.71 6.344-.526.913-1.258 1.592-2.156 1.935-.891.34-1.792.29-2.549.023a3.96 3.96 0 0 1-1.848-1.359c-.451-.609-.789-1.466-.638-2.424.068-.431.066-1.438-.062-2.502-.109.152-.219.311-.338.469-1.209 1.606-3.141 3.653-6.159 4.208l-.619.091c-2.296.252-3.862-1.181-4.804-2.693-.935-1.5-1.522-3.443-1.906-5.229-.391-1.819-.603-3.639-.72-4.989a47 47 0 0 1-.134-2.119l-.004-.127-.001-.037v-.014l.005-.184a1.79 1.79 0 0 1 3.558-.082l.014.182v.029l.004.106a42 42 0 0 0 .122 1.938c.109 1.265.306 2.923.654 4.543.355 1.653.837 3.113 1.443 4.083.598.96 1.045 1.065 1.38 1.028l.347-.051c1.704-.311 2.934-1.474 3.964-2.842.269-.358.514-.715.748-1.063.222-.33.463-.694.678-.991.198-.274.488-.657.847-.945.331-.267 1.139-.765 2.114-.414l.197.083.002.001.192.102c.427.252.713.597.894.867.217.323.377.676.497 1 .239.647.4 1.398.508 2.11.195 1.29.256 2.778.14 3.777.03.024.07.049.113.065.061.021.084.011.089.008a.3.3 0 0 0 .093-.063c.054-.049.138-.144.236-.313l.194-.384c.446-.994.839-2.655 1.062-4.579.218-1.884.24-3.755.085-5.083l-.076-.534a.1.1 0 0 0-.011-.028.5.5 0 0 0-.075-.1c-.097-.105-.277-.247-.58-.405-.619-.321-1.499-.575-2.489-.758a23 23 0 0 0-2.673-.317 23 23 0 0 0-1.111-.045h-.07a1.793 1.793 0 0 1 0-3.587v1.793l.002-1.793z"/><path fill="#FF90E8" d="m227.557 209.563 8.122-6.494s10.432.369 11.264.461c.83.092 2.308 1.93 3.046 2.786.739.854 1.706 3.202 2.075 4.628s-2.123 4.47-2.123 4.47l-13.017.32z"/><path fill="#000" d="m235.772 201.277.087.003.334.012 1.193.042c.991.036 2.323.087 3.681.139 2.642.101 5.556.219 6.069.275l.001-.002c.705.078 1.277.461 1.593.697.375.278.735.618 1.047.937.616.63 1.232 1.378 1.562 1.76h.001c.561.648 1.076 1.67 1.463 2.556.306.704.592 1.461.805 2.144l.187.651.066.342c.107.79-.111 1.539-.298 2.04-.239.638-.582 1.263-.9 1.781a19 19 0 0 1-1.211 1.733l-.091.116-.035.042-.001.003-.002.002a1.8 1.8 0 0 1-1.146.641l-.192.014-13.018.32a1.8 1.8 0 0 1-1.026-.294l-9.367-6.171a1.793 1.793 0 0 1-.133-2.901l8.122-6.494.129-.092c.266-.176.573-.279.891-.296zm-5.173 8.144 6.837 4.506 11.597-.286c.179-.249.387-.548.583-.868.259-.422.471-.826.596-1.159.064-.173.083-.275.091-.319-.162-.594-.445-1.4-.778-2.163-.373-.857-.711-1.437-.889-1.642v-.002c-.409-.474-.9-1.072-1.413-1.597a6 6 0 0 0-.626-.569l-.034-.025-.435-.024a635 635 0 0 0-5.198-.217c-1.354-.052-2.683-.101-3.673-.137l-.98-.037z"/><path fill="#000" d="m246.042 212.839 1.041.725a1.786 1.786 0 0 1-2.489.452 1.795 1.795 0 0 1-.453-2.493l.028-.044.063-.117c-.992.037-2.042.551-2.973 1.239a10.7 10.7 0 0 0-1.415 1.261l-.068.075-.011.011.002.002a1.787 1.787 0 0 1-2.523.201 1.796 1.796 0 0 1-.202-2.527l1.327 1.133-1.326-1.135.002-.003.005-.004.011-.014.036-.04.119-.131c.1-.109.241-.259.419-.434.356-.35.868-.815 1.499-1.282 1.217-.899 3.108-1.976 5.302-1.946 1.023.014 2.086.257 2.83 1.051.78.832.821 1.844.729 2.5-.092.653-.342 1.224-.521 1.577a6 6 0 0 1-.344.598l-.03.044-.014.021-.001.004h-.002zm-1.903-1.313-.001.002.001-.004.002-.001zm1.473 1.016-.122-.086.552.383z"/><path fill="#F1F333" d="m183.522 323.134-47.911-2.472-6.093 16.136 4.339 17.249 72.652-3.029s4.844 0 8.308-7.831c3.463-7.83-3.139-15.108-4.479-16.489s-31.247-37.344-31.247-37.344l-58.343 2.521s2.338 8.166 6.093 12.835c3.755 4.668 13.478 16.194 13.478 16.194"/><path fill="#000" d="M179.222 287.567c.481.035.931.263 1.244.639l-1.375 1.149a321 321 0 0 1 1.375-1.147h.002l.003.005.016.019.065.077.249.302.952 1.143 3.405 4.093c2.825 3.392 6.605 7.931 10.426 12.511a5936 5936 0 0 0 10.676 12.768c1.495 1.782 2.771 3.297 3.714 4.409.471.557.858 1.01 1.146 1.344a34 34 0 0 0 .459.523l.031.035.011.011.335.355c.919.993 2.725 3.133 4.045 5.963 1.467 3.147 2.405 7.324.632 11.722l-.18.427c-1.864 4.214-4.175 6.476-6.175 7.667a9.2 9.2 0 0 1-2.54 1.057 7 7 0 0 1-.82.147 4 4 0 0 1-.26.021q-.044.003-.077.002l.002.002-72.652 3.028a1.79 1.79 0 0 1-1.808-1.352l-4.34-17.251a1.8 1.8 0 0 1 .062-1.073l6.093-16.135.122-.261a1.79 1.79 0 0 1 1.642-.895l.594.03c-.791-.942-1.709-2.033-2.678-3.191-2.898-3.462-6.278-7.524-8.168-9.874-2.048-2.545-3.65-5.954-4.722-8.625a60 60 0 0 1-1.253-3.421 43 43 0 0 1-.328-1.028q-.057-.184-.086-.284l-.023-.077-.007-.021-.002-.007v-.004a1.794 1.794 0 0 1 1.643-2.285l58.342-2.522zm-56.038 5.998c.235.67.522 1.458.863 2.308 1.035 2.579 2.479 5.588 4.187 7.712 1.865 2.318 5.223 6.353 8.125 9.82a2480 2480 0 0 0 3.751 4.471l1.076 1.278 42.428 2.189.183.019a1.794 1.794 0 0 1-.366 3.564l-46.611-2.406-5.431 14.385 3.847 15.29 71.198-2.969h.037l.058-.005c.069-.008.198-.026.373-.068.35-.084.894-.266 1.548-.655 1.288-.767 3.133-2.42 4.733-6.036l.248-.615c1.121-3.061.504-6.038-.673-8.563-.947-2.03-2.211-3.661-3.043-4.616l-.659-.72c-.395-.407-2.582-2.997-5.534-6.514-2.994-3.568-6.86-8.193-10.682-12.775s-7.603-9.122-10.428-12.515l-3.406-4.092-.724-.869z"/><path fill="#000" d="M147.934 304.066a1.786 1.786 0 0 1 2.386.237l.115.141 12.119 16.468.101.154a1.796 1.796 0 0 1-.479 2.354 1.786 1.786 0 0 1-2.386-.237l-.115-.141-12.119-16.468-.101-.154a1.797 1.797 0 0 1 .479-2.354"/><path fill="#000" d="m166.905 303.716.184.009a1.79 1.79 0 0 1 1.605 1.784c0 .928-.703 1.692-1.605 1.784l-.184.009h-28.37a1.79 1.79 0 0 1-1.789-1.793c0-.99.801-1.793 1.789-1.793zm-30.71 39.99s-.798 5.528-1.968 8.659c-1.171 3.133-6.555.923-6.555.923s.975-5.823 1.58-6.011 6.943-3.571 6.943-3.571"/><path fill="#000" d="M135.581 342.022a1.78 1.78 0 0 1 1.642.217c.483.34.763.893.76 1.474l-.019.251v.005l-.002.014-.008.051-.028.189a81 81 0 0 1-.521 2.982c-.305 1.563-.738 3.511-1.27 5.122l-.234.667c-.506 1.353-1.51 2.148-2.607 2.531-1.023.356-2.105.353-2.976.259a13 13 0 0 1-2.305-.483c-.296-.09-.542-.175-.718-.239q-.132-.048-.209-.078l-.063-.025-.019-.007-.006-.003h-.003l-.002-.002a1.794 1.794 0 0 1-1.086-1.956v-.002l.001-.003.002-.014.009-.053.033-.191.122-.677c.103-.56.248-1.313.413-2.077a28 28 0 0 1 .553-2.209c.098-.316.215-.656.355-.95.069-.144.173-.337.318-.527a2.03 2.03 0 0 1 1.008-.724h.002l.23-.114c.214-.102.499-.242.834-.411.668-.338 1.508-.773 2.335-1.207.827-.432 1.634-.861 2.236-1.18l.724-.383.2-.107.053-.028.014-.007.003-.004h.002zm-1.803 4.989c-.832.436-1.69.88-2.381 1.229-.339.171-.645.323-.892.441l-.048.144a25 25 0 0 0-.475 1.907c-.098.453-.187.906-.265 1.313.311.073.646.137.983.174.621.067 1.105.029 1.421-.081.241-.084.349-.187.429-.401l.196-.559c.403-1.223.759-2.761 1.046-4.176zm-3.998 1.977.001.002q.104-.035.194-.078c-.068.028-.133.057-.195.076"/><path fill="#FF90E8" d="m129.98 320.307 5.631.369s3.722 10.274.584 23.045c0 0-2.19 6.242-8.143 6.777-5.952.534 1.928-30.176 1.928-30.176"/><path fill="#000" d="m130.096 318.517 5.632.37.261.035a1.8 1.8 0 0 1 1.305 1.142l-1.683.611 1.683-.61.001.004.014.042.037.107q.047.137.126.387c.104.333.245.814.403 1.427.316 1.225.699 2.981.979 5.147.524 4.056.692 9.576-.636 15.732l-.285 1.24a2 2 0 0 1-.051.164l-1.687-.593 1.687.595v.002l-.001.003-.004.009-.009.024q-.01.031-.028.077a13 13 0 0 1-.482 1.079 14.7 14.7 0 0 1-1.602 2.515c-1.475 1.858-3.915 3.931-7.543 4.257a3.16 3.16 0 0 1-2.17-.585c-.601-.437-.989-1.034-1.247-1.608-.501-1.114-.689-2.554-.741-4.018-.105-2.988.347-6.921.963-10.747.621-3.855 1.429-7.717 2.079-10.607a208 208 0 0 1 1.06-4.488l.066-.261.018-.07a1.79 1.79 0 0 1 1.672-1.383zm1.263 3.676c-.199.822-.468 1.961-.772 3.313-.641 2.851-1.432 6.634-2.037 10.39-.609 3.784-1.012 7.43-.921 10.049.047 1.339.221 2.21.428 2.673q.02.039.037.068c2.217-.264 3.786-1.537 4.862-2.893a11 11 0 0 0 1.207-1.895c.128-.254.219-.462.276-.599q.025-.062.04-.105c1.479-6.081 1.341-11.573.827-15.555a39 39 0 0 0-.893-4.711q-.078-.298-.149-.544z"/><path fill="#fff" d="m124.259 319.997 5.719.309s4.003 17.687-2.307 31.016-10.679-10.933-10.679-10.933z"/><path fill="#000" d="m130.075 318.516.292.04a1.79 1.79 0 0 1 1.355 1.354l-1.743.397 1.743-.396h.002v.006l.004.012.01.045.035.167q.046.215.122.614c.102.532.237 1.3.379 2.259.285 1.918.596 4.614.704 7.739.21 6.015-.323 13.794-3.387 20.675l-.304.664c-.832 1.757-1.724 3.103-2.734 3.958-1.083.916-2.389 1.317-3.74.9-1.192-.368-2.087-1.282-2.737-2.17-.677-.924-1.259-2.057-1.756-3.22-.997-2.333-1.767-5.059-2.283-7.159a71 71 0 0 1-.752-3.402l-.038-.212-.011-.056-.003-.016v-.005l-.002-.002a1.8 1.8 0 0 1 .077-.921l7.266-20.392.12-.268c.328-.593.97-.959 1.662-.921zm-11.235 22.013.103.513c.129.62.319 1.494.567 2.501.499 2.032 1.216 4.539 2.099 6.605.443 1.036.901 1.894 1.352 2.511.478.653.801.831.905.864.022.006.021.005.034.001.027-.007.143-.044.345-.215.438-.37 1.065-1.181 1.81-2.756l.271-.592c2.741-6.158 3.278-13.303 3.076-19.082a66 66 0 0 0-.667-7.338 54 54 0 0 0-.248-1.52l-2.994-.162zm-7.877-21.142 6.768.368-2.031 5.344-5.724 1.782z"/><path fill="#000" d="m111.059 317.597 6.77.368.211.025c.486.085.919.368 1.191.788.273.42.354.933.234 1.413l-.062.203-2.032 5.343c-.171.45-.514.811-.949 1.003l-.192.072-5.723 1.783a1.788 1.788 0 0 1-2.304-1.948l.987-7.495.03-.171a1.79 1.79 0 0 1 1.839-1.384m1.055 6.741 2.222-.694.849-2.233-2.667-.145z"/><path fill="#fff" d="M114.902 325.467s-1.909-5.465-3.94-6.081-6.709-.858-9.6 3.04-3.878 7.156-3.878 7.156-1.045 20.699 0 22.047c1.046 1.349 7.633 3.258 10.646 2.889 3.013-.368 6.772-3.81 6.772-3.81z"/><path fill="#000" d="M99.926 321.357c3.54-4.773 9.183-4.407 11.554-3.688l-.002.002c1.062.322 1.85 1.158 2.367 1.825.564.726 1.053 1.579 1.443 2.35a27 27 0 0 1 1.202 2.758l.072.192.019.055.007.021.002.001.075.293q.025.149.024.301v25.241c0 .441-.161.864-.45 1.191l-.131.133-.002.001-.005.004-.011.01-.04.037-.141.125a26 26 0 0 1-2.251 1.744c-1.346.927-3.346 2.104-5.312 2.344-1.869.229-4.55-.238-6.755-.852-1.139-.317-2.243-.699-3.155-1.107a10 10 0 0 1-1.272-.665 4.8 4.8 0 0 1-.839-.655l-.255-.289c-.334-.432-.455-.951-.506-1.182a10 10 0 0 1-.161-1.069c-.079-.765-.124-1.739-.149-2.821-.05-2.173-.016-4.921.05-7.601a513 513 0 0 1 .38-10.329l.009-.175.003-.045v-.014s0-.002 1.788.089l-1.788-.091q.012-.22.076-.429l1.712.52-1.712-.522.003-.007.003-.014.013-.042a12 12 0 0 1 .218-.616c.153-.406.384-.98.71-1.676a31.3 31.3 0 0 1 3.207-5.348m10.518-.254c-1.689-.512-5.405-.63-7.648 2.394a27.7 27.7 0 0 0-2.839 4.73 20 20 0 0 0-.7 1.691l-.03.639a495 495 0 0 0-.348 9.588c-.065 2.663-.097 5.342-.049 7.428.025 1.048.069 1.913.133 2.538q.033.31.065.497l.042.03c.192.121.467.266.823.425.71.318 1.639.644 2.655.927 2.102.585 4.221.887 5.365.747 1.046-.128 2.433-.855 3.719-1.74.595-.41 1.11-.813 1.48-1.116v-24.095a24 24 0 0 0-1.014-2.317c-.34-.672-.71-1.301-1.076-1.772a3.3 3.3 0 0 0-.461-.501z"/><path fill="#fff" d="M109.207 351.015a123 123 0 0 1 1.569-16.275c1.478-9.091 4.494-14.862 6.954-14.987s7.326.309 7.326.309 3.63 1.78 2.338 13.45a78.7 78.7 0 0 1-5.307 20.757l-12.895-3.254"/><path fill="#000" d="M118.168 317.945c1.287-.029 2.924.045 4.256.126.774.047 1.47.099 1.972.138l.596.047.164.014.044.006h.015l.163.022q.243.045.464.154l-.786 1.61c.729-1.493.784-1.601.79-1.608l.005.002.009.005.019.009.042.023.1.058q.109.065.249.168c.188.138.411.331.65.592.481.524 1.008 1.303 1.456 2.444.888 2.267 1.461 5.949.796 11.955l-.002.007a80.5 80.5 0 0 1-5.427 21.231 1.79 1.79 0 0 1-2.093 1.061l-12.894-3.255-.175-.053a1.79 1.79 0 0 1-1.151-1.972c.171-5.455.697-10.894 1.581-16.28.757-4.658 1.92-8.549 3.261-11.342.668-1.391 1.415-2.581 2.233-3.46.788-.847 1.846-1.619 3.136-1.685zm-.347 3.6c.059-.003-.184-.006-.699.548-.486.522-1.047 1.366-1.625 2.569-1.007 2.096-1.964 5.068-2.669 8.747l-.287 1.62v.003a121 121 0 0 0-1.492 14.601l9.951 2.513a77 77 0 0 0 4.615-18.832l.105-1.031c.449-5.006-.11-7.772-.676-9.216-.266-.68-.536-1.065-.704-1.265l-.222-.017c-.487-.038-1.162-.088-1.911-.133a60 60 0 0 0-3.443-.128z"/><path fill="#FF90E8" d="M150.657 209.054s-13.201-4.884-17.448-18.425 1.569-22.847 4.8-27.176c3.231-4.33 5.171-10.226 1.293-16.398-3.877-6.172-12.001-6.356-17.818-13.45-5.815-7.093-10.523-19.069-3.783-32.887 6.738-13.819 24.278-26.808 46.803-28.558s43.019 8.751 46.343 24.965c3.323 16.213-4.155 22.57-6.186 25.794s-4.615 10.595-.276 16.582c4.337 5.988 12.924 5.251 20.308 16.398s7.016 34.73-18.832 49.009c-25.849 14.279-55.204 4.146-55.204 4.146"/><path fill="#000" d="M165.449 70.298c11.171-.681 21.85 1.56 30.264 6.024 8.676 4.604 15.086 11.665 16.886 20.443l.291 1.555c1.302 7.631.261 13.174-1.483 17.276-.922 2.17-2.02 3.892-3.003 5.261-.486.678-.954 1.28-1.338 1.783q-.298.39-.519.693l-.374.545c-.894 1.419-1.942 3.817-2.264 6.51-.318 2.666.082 5.519 1.922 8.059v.002l.36.464c1.843 2.242 4.435 3.314 8.055 5.276 3.759 2.037 8.025 4.814 11.937 10.719l.369.574c7.481 12.076 6.495 35.708-18.595 50.298l-1.233.699c-13.331 7.364-27.513 8.408-38.284 7.645a87 87 0 0 1-13.193-1.961 68 68 0 0 1-3.779-.979 41 41 0 0 1-1.289-.399l-.095-.032-.007-.001-.001-.002.58-1.695-.621 1.681h-.001l-.006-.002-.012-.005-.038-.014-.133-.053a17 17 0 0 1-.473-.198c-.402-.174-.97-.434-1.66-.788a35.7 35.7 0 0 1-5.269-3.327c-3.897-2.964-8.382-7.646-10.721-14.511l-.22-.671c-4.5-14.353 1.704-24.27 5.075-28.787 2.888-3.87 4.446-8.745 1.509-13.871l-.298-.497c-1.643-2.615-4.19-4.009-7.498-5.747-3.021-1.588-6.549-3.413-9.587-6.818l-.601-.704c-6.125-7.471-11.14-20.193-4.01-34.812l.339-.676c7.275-14.186 25.206-27.116 47.935-28.882zM150.074 210.75l-.037-.012.619-1.683zm43.963-131.259c-7.772-4.124-17.785-6.259-28.368-5.614l-1.027.07c-21.62 1.68-38.374 13.978-45.026 26.942l-.309.616c-6.349 13.016-1.947 24.247 3.558 30.962l.503.588c2.544 2.853 5.524 4.425 8.583 6.033 3.177 1.669 6.63 3.455 8.864 7.012l.395.658c3.881 6.796 1.602 13.25-1.77 17.769-3.091 4.142-8.516 12.834-4.524 25.565l.19.585c2.041 5.992 5.974 10.133 9.5 12.814a32 32 0 0 0 4.738 2.993 25 25 0 0 0 1.825.848l.074.028.008.003.055.018.23.075c.208.066.522.163.933.284.823.24 2.038.573 3.579.928a83 83 0 0 0 12.643 1.879c10.369.734 23.789-.293 36.307-7.208l1.153-.653c23.457-13.631 23.714-35.044 17.364-45.307l-.312-.487c-3.473-5.242-7.194-7.671-10.658-9.549-3.151-1.708-6.661-3.175-9.128-6.168l-.481-.62c-2.498-3.447-2.975-7.272-2.578-10.594.393-3.295 1.653-6.195 2.79-7.999l.243-.366c.255-.372.545-.756.835-1.135.4-.525.825-1.074 1.273-1.699.887-1.236 1.831-2.723 2.617-4.572 1.459-3.433 2.443-8.279 1.247-15.275l-.269-1.429c-1.524-7.436-7.024-13.732-15.057-17.995"/><path fill="#F1F333" d="M127.949 258.648s16.525-45.63 17.909-47.657 25.479-16.121 49.204-10.133 52.158 14.002 52.96 13.939 9.723-4.3 15.752-1.721c6.03 2.581 10.466 10.503 9.727 17.873s-8.863 13.512-16.927 12.591-64.864-8.229-64.864-8.229l-8.434 23.337z"/><path fill="#000" d="M161.521 201.217c9.344-3.089 21.668-5.205 33.978-2.098 11.879 2.998 24.93 6.502 35.104 9.246 5.09 1.373 9.456 2.555 12.6 3.39 1.573.418 2.831.745 3.718.967q.656.163 1.004.24l.164-.055c.187-.065.887-.318 1.293-.46a43 43 0 0 1 4.135-1.244c3.164-.763 7.387-1.303 10.959.225l.643.294c3.176 1.557 5.826 4.356 7.623 7.63 1.922 3.5 2.949 7.685 2.539 11.776-.43 4.288-2.984 8.088-6.427 10.663-3.45 2.58-7.945 4.048-12.484 3.53-4.049-.463-20.281-2.521-35.479-4.462-7.604-.971-14.956-1.913-20.407-2.613l-6.546-.84-1.036-.135-7.945 21.987a1.79 1.79 0 0 1-1.681 1.184h-55.327a1.79 1.79 0 0 1-1.466-.765 1.8 1.8 0 0 1-.217-1.641l1.683.613a357 357 0 0 1-1.681-.613v-.002l.002-.007.009-.024.036-.098.138-.382.528-1.454c.455-1.252 1.106-3.042 1.892-5.197 1.571-4.311 3.68-10.081 5.833-15.914a1659 1659 0 0 1 6.098-16.307 322 322 0 0 1 2.23-5.705c.295-.728.551-1.342.759-1.813.18-.406.392-.866.589-1.155l.196-.254c.21-.245.457-.46.664-.631.315-.259.704-.547 1.153-.851.899-.609 2.101-1.335 3.555-2.113 2.909-1.559 6.887-3.364 11.571-4.912m33.103 1.38c-11.414-2.881-23.002-.943-31.983 2.026-4.477 1.48-8.265 3.203-11.004 4.67-1.37.734-2.463 1.395-3.239 1.921q-.582.397-.884.648c-.107.088-.167.146-.195.173a13 13 0 0 0-.255.552c-.186.42-.427.995-.716 1.709a323 323 0 0 0-2.202 5.639 1616 1616 0 0 0-6.084 16.268c-2.151 5.827-4.26 11.59-5.83 15.898-.697 1.913-1.287 3.539-1.729 4.755h51.519l8.006-22.156.129-.282a1.79 1.79 0 0 1 1.78-.886h.002l.009.002.03.004.122.015.477.062 1.817.232 6.544.841c5.45.699 12.802 1.642 20.406 2.613 15.216 1.943 31.414 3.999 35.431 4.458 3.526.403 7.126-.739 9.939-2.842 2.819-2.109 4.697-5.066 5.006-8.148.329-3.278-.493-6.739-2.112-9.687-1.522-2.773-3.678-4.967-6.058-6.136l-.479-.221c-2.458-1.051-5.711-.76-8.715-.035-1.46.352-2.775.785-3.793 1.142-.636.223-.812.292-1.291.46-.17.06-.338.118-.486.163-.072.022-.235.072-.426.105l-.199.025c-.289.022-.571-.034-.599-.039a9 9 0 0 1-.39-.077 40 40 0 0 1-1.116-.266c-.914-.228-2.194-.564-3.77-.982-3.153-.838-7.53-2.021-12.613-3.392-10.174-2.745-23.202-6.243-35.049-9.232"/><path fill="#FFC900" d="M238.357 364.714c-.86 13.203-2.463 37.707-2.89 41.024-.429 3.316-3.265 13.082-11.019 13.082H53.605c-8.124-8.598-8.37-19.162-8.988-24.321-.617-5.158-24.95-336.6-25.047-337.905 14.383-3.464 30.213-7.24 32.558-7.66 4.43-.8 16.83-1.29 27.725 6.783 10.893 8.074 13.293 23.186 13.293 34.24s-1.477 27.913-1.477 30.216 8.264 230.845 8.264 230.845h121.192c3.987 0 18.093.489 17.232 13.696"/><path fill="#FFC900" d="M53.605 418.819H15.878c-3.14 0-10.71-2.949-11.263-9.949-.554-7.001-20.187-325.56-20.31-329.798-.121-4.238-1.875-13.502 10.831-16.582 0 0 11.647-2.83 24.434-5.896.096 1.315 24.434 332.768 25.047 337.905.614 5.135.864 15.722 8.988 24.32"/><path fill="#000" d="m21.355 56.465.004.043.012.182.052.713.205 2.785.777 10.568 2.776 37.765c2.3 31.275 5.373 73.029 8.466 114.944 6.188 83.877 12.444 168.27 12.746 170.807l.235 2.203c.576 5.579 1.594 14.023 8.276 21.097l-2.598 2.466c-7.536-7.979-8.677-17.586-9.241-23.197l-.224-2.144c-.313-2.632-6.58-87.186-12.762-170.967-3.092-41.916-6.165-83.671-8.465-114.947L18.836 71.02l-.775-10.57-.205-2.784-.052-.713-.014-.18-.004-.046v-.012c.005-.003.095-.01 1.784-.135a98 98 0 0 1 1.784-.128z"/><path fill="#000" d="M91.357 89.944c0-10.803-2.343-24.826-12.1-32.442l-.47-.357c-10.356-7.678-22.192-7.214-26.343-6.465-2.15.388-16.315 3.763-30.056 7.068a12508 12508 0 0 0-18.551 4.477c-2.498.605-4.568 1.108-6.013 1.46l-1.675.405-.44.107-.114.028-.035.009h-.002l-.423-1.742.421 1.742h-.001c-5.859 1.419-8.056 4.137-8.959 6.709-.99 2.822-.571 5.698-.503 8.08l.241 4.316c2.258 38.475 19.544 318.822 20.064 325.39.222 2.807 1.836 4.858 3.887 6.262 2.1 1.438 4.432 2.036 5.592 2.036h208.569c2.995 0 5.161-1.85 6.729-4.435 1.574-2.595 2.327-5.613 2.518-7.084.418-3.247 2.015-27.652 2.879-40.913l.026-.547c.084-2.679-.545-4.618-1.497-6.053-1.029-1.55-2.532-2.658-4.273-3.447-3.542-1.603-7.731-1.737-9.705-1.737H98.207l-.063-1.728 1.789-.065-1.79.063v-.007l-.001-.031q0-.042-.004-.125l-.017-.49-.07-1.912-.262-7.257-.936-25.924a669531 669531 0 0 1-2.84-78.817c-2.065-57.378-4.134-115.15-4.134-116.358 0-1.226.379-6.149.742-11.939.37-5.882.736-12.81.736-18.277m3.578 0c0 5.589-.373 12.616-.743 18.503-.375 5.978-.735 10.636-.735 11.713l.002.054.003.168.017.587.07 2.103c.06 1.799.15 4.371.262 7.605.226 6.47.55 15.586.937 26.462.774 21.751 1.807 50.536 2.84 79.249s2.066 57.355 2.841 78.817l.936 25.924.262 7.257.03.839h119.466c2.03 0 6.888.112 11.177 2.054 2.174.984 4.282 2.474 5.779 4.73 1.415 2.132 2.198 4.821 2.095 8.146l-.033.672c-.857 13.143-2.463 37.749-2.9 41.142v.001c-.239 1.846-1.119 5.369-3.009 8.485-1.895 3.125-5.027 6.159-9.786 6.159H15.876c-1.979-.001-5.002-.877-7.609-2.662-2.658-1.82-5.105-4.746-5.436-8.94-.52-6.581-17.81-287-20.071-325.554l-.243-4.332c-.053-1.857-.572-5.734.706-9.374 1.366-3.891 4.645-7.346 11.491-9.005h.002l.007-.001.03-.007.112-.027.44-.108 1.677-.407 6.015-1.458c4.997-1.21 11.707-2.832 18.556-4.48 13.645-3.282 27.973-6.695 30.257-7.107 4.71-.85 17.674-1.366 29.105 7.11l.538.409c11.17 8.713 13.482 24.312 13.482 35.273"/><path fill="#FFC900" d="M82.343 292.428H68.957c-3.416 0-11.263-4.791-12.647-13.912-1.384-9.119 3.97-19.868 11.816-19.868h10.262c-2.09 2.458-12.06 16.052 3.955 33.78"/><path fill="#000" d="m82.265 256.855-2.516 2.956c-.928 1.091-3.708 4.787-4.399 10.227-.679 5.347.623 12.668 8.32 21.187l2.707 2.996h-17.42c-1.218 0-2.62-.41-3.992-1.066-1.402-.67-2.892-1.654-4.298-2.937-2.639-2.408-5.043-5.928-5.962-10.503l-.163-.928c-.754-4.969.32-10.339 2.656-14.503 2.32-4.137 6.112-7.429 10.928-7.429zm-14.139 3.587c-3.03 0-5.838 2.083-7.81 5.6-1.958 3.49-2.868 8.055-2.238 12.205l.133.755c.747 3.722 2.7 6.59 4.865 8.565 1.156 1.055 2.354 1.839 3.428 2.352 1.103.527 1.962.716 2.452.716h9.561c-6.163-8.02-7.45-15.264-6.715-21.049.492-3.872 1.876-6.985 3.15-9.144z"/><path fill="#FFC900" d="M218.51 292.428H82.345c-16.015-17.728-6.03-31.322-3.955-33.78h136.52c1.846 0 10.985 4.853 12.093 15.447s-3.969 18.333-8.493 18.333"/><path fill="#FFC900" d="M214.91 256.855c.54.001 1.115.158 1.605.333.533.191 1.131.464 1.765.811 1.267.694 2.744 1.723 4.187 3.103 2.892 2.765 5.708 6.999 6.315 12.806.587 5.614-.455 10.556-2.328 14.156-1.809 3.474-4.678 6.157-7.944 6.157H81.552l-.533-.59c-8.32-9.209-10.037-17.55-9.21-24.047.815-6.402 4.065-10.732 5.216-12.095l.535-.634zm-135.656 3.587c-1.179 1.563-3.304 4.941-3.897 9.598-.665 5.223.561 12.328 7.793 20.595h135.36c1.258 0 3.189-1.188 4.773-4.231 1.518-2.918 2.461-7.142 1.941-12.121-.501-4.787-2.809-8.276-5.225-10.586-1.211-1.158-2.435-2.004-3.435-2.551a9 9 0 0 0-1.252-.58c-.367-.131-.481-.124-.402-.124z"/><path fill="#000" d="m80.027 259.498.001-.002-.105.116c-.08.091-.204.234-.36.427a19 19 0 0 0-1.234 1.744 20.7 20.7 0 0 0-2.684 6.576c-1.185 5.487-.477 13.451 8.026 22.864l-1.328 1.204-1.326 1.204c-9.221-10.208-10.315-19.334-8.87-26.03a24.3 24.3 0 0 1 3.152-7.725 22 22 0 0 1 1.48-2.089c.195-.242.358-.432.475-.564q.088-.097.142-.154l.041-.045.014-.016.008-.007z"/><path fill="#000" d="m214.908 256.855.409.028c.413.053.829.174 1.197.305a13 13 0 0 1 1.764.811c1.267.694 2.744 1.723 4.187 3.103 2.892 2.765 5.708 6.999 6.316 12.806.587 5.614-.455 10.556-2.329 14.156-1.809 3.474-4.679 6.157-7.945 6.157H68.957c-1.218 0-2.62-.41-3.992-1.066-1.402-.67-2.892-1.654-4.298-2.937-2.639-2.408-5.043-5.928-5.962-10.503l-.163-.928c-.754-4.969.32-10.339 2.656-14.503 2.32-4.137 6.112-7.429 10.928-7.429zm-147.347 3.611c-2.813.242-5.396 2.279-7.245 5.576-1.958 3.49-2.868 8.055-2.238 12.205l.133.755c.747 3.722 2.7 6.59 4.865 8.565 1.156 1.055 2.354 1.839 3.428 2.352 1.103.527 1.962.716 2.452.716h149.551c1.257 0 3.188-1.187 4.773-4.231 1.518-2.918 2.463-7.142 1.942-12.121-.501-4.787-2.809-8.276-5.225-10.586-1.211-1.158-2.434-2.004-3.434-2.551a9 9 0 0 0-1.253-.58c-.275-.098-.408-.118-.425-.122l.023-.002H68.127z"/></g><rect width="411" height="411" x=".5" y=".5" stroke="#000" rx="205.5"/><defs><clipPath id="a"><rect width="412" height="412" fill="#fff" rx="206"/></clipPath></defs></svg>