<svg width="25" height="22" fill="none" xmlns="http://www.w3.org/2000/svg"><path fill-rule="evenodd" clip-rule="evenodd" d="M8.001 11.001c3.032 0 5.5-2.467 5.5-5.5s-2.468-5.5-5.5-5.5a5.507 5.507 0 0 0-5.5 5.5c0 3.033 2.467 5.5 5.5 5.5Zm14.294.12 1.415-1.414a1.004 1.004 0 0 0 0-1.415 1.004 1.004 0 0 0-1.415 0l-1.414 1.415-1.414-1.415a1.003 1.003 0 0 0-1.414 0 1.004 1.004 0 0 0 0 1.415l1.414 1.414-1.414 1.414a1.003 1.003 0 0 0 0 1.414 1.003 1.003 0 0 0 1.414 0l1.414-1.414 1.414 1.414a1.004 1.004 0 0 0 1.415 0 1.003 1.003 0 0 0 0-1.414l-1.415-1.414ZM.001 18.376c0-2.964 3.588-5.375 8-5.375 4.411 0 8 2.411 8 5.375v3.625h-16v-3.625Z" fill="#000"/></svg>