<svg xmlns="http://www.w3.org/2000/svg" xmlns:xlink="http://www.w3.org/1999/xlink" width="256" height="157"><defs><ellipse id="a" cx="5.884" cy="6.989" rx="5.884" ry="5.999"/><ellipse id="e" cx="17.888" cy="18.987" rx="17.888" ry="17.996"/><rect id="c" width="200.34" height="154.05" x=".989" y=".99" rx="4"/></defs><g fill="none" fill-rule="evenodd"><g transform="rotate(17 12.132 669.715)"><rect width="62.964" height="113.738" y=".99" fill="#EEE" stroke="#E7E7E7" rx="4"/><rect width="54.378" height="93.582" x="4.293" y="16.827" fill="#FFF" stroke="#E7E7E7" stroke-width=".5" rx="2"/><rect width="20.034" height="2.16" x="21.465" y="9.629" fill="#D8D8D8" rx="2"/><g transform="translate(25.607 46.07)"><mask id="b" fill="#fff"><use xlink:href="#a"/></mask><use fill="#F5F5F5" stroke="#DDD" stroke-opacity=".627" stroke-width=".5" xlink:href="#a"/><path fill="#CCC" d="M9.414 12.508v.319a.157.157 0 0 1-.045.114.151.151 0 0 1-.113.047H2.041a.151.151 0 0 1-.112-.047.157.157 0 0 1-.046-.114v-.319c0-.217.052-.41.156-.577a1.29 1.29 0 0 1 .405-.41c.165-.104.348-.2.55-.286.2-.086.402-.169.603-.247a5.36 5.36 0 0 0 .55-.25c.165-.087.3-.198.404-.331a.727.727 0 0 0 .156-.46 2.098 2.098 0 0 1-.1-.114 3.62 3.62 0 0 1-.227-.338 4.16 4.16 0 0 1-.287-.55 4.224 4.224 0 0 1-.226-.758 4.511 4.511 0 0 1-.101-.958c0-.26.05-.508.149-.744.099-.236.233-.44.402-.613a1.895 1.895 0 0 1 1.332-.563 1.895 1.895 0 0 1 1.734 1.175c.099.237.149.485.149.745 0 .24-.018.474-.052.703-.034.229-.079.43-.134.606-.055.174-.117.34-.184.496a3.066 3.066 0 0 1-.202.398 7.03 7.03 0 0 1-.184.283c-.055.08-.1.138-.134.176l-.052.056a.73.73 0 0 0 .156.46c.105.133.24.244.405.331.165.088.349.17.55.25.2.078.402.16.603.247.2.086.384.182.55.287.165.105.3.241.404.409.104.167.156.36.156.577Z" mask="url(#b)"/></g><g transform="translate(13.321 61.458)"><rect width="15.063" height="4.799" x="11.345" y="8.158" fill="#36A9AE" rx="2"/><rect width="18.829" height="1.44" x="9.462" y="3.359" fill="#EEE" rx="4"/><rect width="35.775" height="1.44" x=".989" fill="#EEE" rx="4"/><rect width="9.414" height=".96" x="14.169" y="10.078" fill="#178C8C" rx="2"/></g></g><g transform="translate(.41 .465)"><mask id="d" fill="#fff"><use xlink:href="#c"/></mask><use fill="#FFF" stroke="#E7E7E7" xlink:href="#c"/><g mask="url(#d)"><g transform="translate(81.125 40.312)"><mask id="f" fill="#fff"><use xlink:href="#e"/></mask><use fill="#F5F5F5" stroke="#DDD" stroke-opacity=".627" stroke-width=".5" xlink:href="#e"/><path fill="#CCC" d="M28.62 35.543v.956c0 .135-.047.25-.14.344a.463.463 0 0 1-.34.14H6.204a.463.463 0 0 1-.341-.14.468.468 0 0 1-.14-.344v-.956c0-.652.158-1.23.475-1.732a3.852 3.852 0 0 1 1.23-1.226c.503-.315 1.06-.601 1.671-.86a62.552 62.552 0 0 1 1.834-.743 16.403 16.403 0 0 0 1.671-.748 3.747 3.747 0 0 0 1.23-.995 2.16 2.16 0 0 0 .475-1.378 6.322 6.322 0 0 1-.307-.343c-.13-.154-.36-.491-.688-1.012a12.42 12.42 0 0 1-.872-1.654c-.253-.58-.483-1.338-.688-2.272a13.362 13.362 0 0 1-.307-2.873c0-.78.15-1.525.453-2.233a5.805 5.805 0 0 1 1.224-1.84 5.766 5.766 0 0 1 1.828-1.23 5.546 5.546 0 0 1 2.219-.456c.775 0 1.515.152 2.22.455a5.766 5.766 0 0 1 1.827 1.232c.514.517.922 1.13 1.224 1.839.302.708.453 1.453.453 2.233 0 .72-.052 1.422-.156 2.109-.105.686-.24 1.291-.409 1.816a15.46 15.46 0 0 1-.559 1.49 9.2 9.2 0 0 1-.614 1.193c-.205.326-.392.609-.56.849a5.12 5.12 0 0 1-.407.528l-.157.17c0 .517.158.976.475 1.377.317.401.727.733 1.23.995.503.263 1.06.512 1.671.748.611.237 1.223.484 1.834.743.61.259 1.168.545 1.671.86.503.315.913.724 1.23 1.226.317.503.475 1.08.475 1.732Z" mask="url(#f)"/></g></g><g mask="url(#d)"><g transform="translate(46.78 84.494)"><rect width="45.792" height="14.397" x="31.482" y="24.475" fill="#36A9AE" rx="2"/><rect width="57.24" height="4.319" x="25.758" y="10.078" fill="#EEE" rx="4"/><rect width="108.756" height="4.319" fill="#EEE" rx="4"/><rect width="28.62" height="2.879" x="40.068" y="30.234" fill="#178C8C" rx="2"/></g></g><g mask="url(#d)"><path fill="#EEE" stroke="#979797" stroke-opacity=".083" d="M-.442-.45H202.76v12.957H-.442z"/><g transform="translate(5.282 5.31)" fill="#D8D8D8"><ellipse cx="1.431" cy="1.44" rx="1.431" ry="1.44"/><ellipse cx="8.586" cy="1.44" rx="1.431" ry="1.44"/><ellipse cx="15.741" cy="1.44" rx="1.431" ry="1.44"/></g></g></g></g></svg>