<svg xmlns="http://www.w3.org/2000/svg" width="48" height="41"><g fill="none"><path fill="#797874" d="M3.004 25.928A3.753 3.753 0 0 0 7.5 22.25a3.749 3.749 0 1 0 7.5 0 3.749 3.749 0 1 0 7.5 0 3.75 3.75 0 0 0 3.946 3.745c2.03-.104 3.551-1.923 3.551-3.954V18.5l-3.057-6.12A2.495 2.495 0 0 0 24.706 11H5.292c-.946 0-1.81.535-2.232 1.38L0 18.5v3.608c0 1.812 1.223 3.476 3.004 3.82Zm23.581 2.791a6.969 6.969 0 0 1-.335.008c-.116 0-.226-.02-.34-.027v5.482H4.09V28.7c-.114.007-.224.027-.34.027-.42 0-.845-.04-1.264-.121C1.56 28.427.73 28.029 0 27.497V41h30V27.495a6.29 6.29 0 0 1-3.415 1.224Z"/><path fill="#CCC" d="M40 13h1.5a6.5 6.5 0 1 0 0-13h-5A6.498 6.498 0 0 0 35 12.819V16l5-3Z"/></g></svg>