<svg xmlns="http://www.w3.org/2000/svg" width="312" height="37" fill="none"><rect width="311.172" height="35.586" x=".414" y=".414" fill="#fff" rx="2.897"/><rect width="89.778" height="14.839" x="10.345" y="10.787" fill="#EFEFE9" stroke="#DDD" stroke-width=".828" rx="2.897"/><path fill="#EFEFE9" stroke="#DDD" stroke-width=".828" d="M232.138.414h76.552a2.897 2.897 0 0 1 2.896 2.896v29.793c0 1.6-1.297 2.897-2.896 2.897h-76.552V.414Z"/><path fill="#CCC" d="M251.978 12.713V22.76h1.337v-4.6h4.614v-1.126h-4.614V13.84h5.261v-1.126h-6.598Zm8.754 6.416c0-.441.056-.83.169-1.168.122-.347.286-.638.492-.872.207-.235.446-.413.718-.535a2.205 2.205 0 0 1 1.758 0c.282.122.526.3.732.535.206.234.366.525.478.872.122.338.183.727.183 1.168 0 .44-.061.835-.183 1.182a2.453 2.453 0 0 1-.478.858c-.206.225-.45.398-.732.52a2.205 2.205 0 0 1-1.758 0 2.178 2.178 0 0 1-.718-.52 2.646 2.646 0 0 1-.492-.858 3.81 3.81 0 0 1-.169-1.182Zm-1.266 0c0 .534.075 1.032.225 1.491.15.46.375.863.675 1.21.3.338.671.605 1.112.802.441.188.947.281 1.519.281.582 0 1.088-.093 1.52-.281a3.23 3.23 0 0 0 1.111-.802c.3-.347.525-.75.675-1.21.15-.46.225-.957.225-1.491a4.78 4.78 0 0 0-.225-1.492 3.317 3.317 0 0 0-.675-1.21 3.146 3.146 0 0 0-1.111-.815c-.432-.197-.938-.296-1.52-.296-.572 0-1.078.099-1.519.296a3.14 3.14 0 0 0-1.112.816c-.3.337-.525.74-.675 1.21a4.78 4.78 0 0 0-.225 1.49Zm8.543-6.416V22.76h1.196V12.713h-1.196Zm3.119 0V22.76h1.195V12.713h-1.195Zm3.92 6.416c0-.441.057-.83.169-1.168a2.6 2.6 0 0 1 .493-.872 2.08 2.08 0 0 1 .717-.535 2.205 2.205 0 0 1 1.759 0c.281.122.525.3.731.535.207.234.366.525.479.872.122.338.183.727.183 1.168 0 .44-.061.835-.183 1.182a2.454 2.454 0 0 1-.479.858 2.13 2.13 0 0 1-.731.52 2.205 2.205 0 0 1-1.759 0 2.164 2.164 0 0 1-.717-.52 2.63 2.63 0 0 1-.493-.858 3.84 3.84 0 0 1-.169-1.182Zm-1.266 0c0 .534.075 1.032.225 1.491.15.46.375.863.676 1.21.3.338.67.605 1.111.802.441.188.947.281 1.519.281.582 0 1.088-.093 1.52-.281a3.22 3.22 0 0 0 1.111-.802c.3-.347.526-.75.676-1.21.15-.46.225-.957.225-1.491a4.78 4.78 0 0 0-.225-1.492 3.319 3.319 0 0 0-.676-1.21c-.3-.346-.67-.618-1.111-.815-.432-.197-.938-.296-1.52-.296-.572 0-1.078.099-1.519.296a3.137 3.137 0 0 0-1.111.816 3.304 3.304 0 0 0-.676 1.21 4.78 4.78 0 0 0-.225 1.49Zm15.676 3.63 2.321-7.274h-1.238l-1.632 5.951h-.028l-1.519-5.951h-1.309l-1.463 5.951h-.028l-1.646-5.951h-1.323l2.336 7.274h1.294l1.463-5.783h.029l1.477 5.783h1.266Z"/><rect width="40.273" height="14.839" x="251.452" y="11.172" fill="#fff" stroke="#DDD" stroke-width=".828" rx="2.897"/><rect width="311.172" height="35.586" x=".414" y=".414" stroke="#DDD" stroke-width=".828" rx="2.897"/></svg>