<svg xmlns="http://www.w3.org/2000/svg" width="277" height="277" fill="none" viewBox="0 0 297 277"><rect width="275.248" height="275.248" x=".5" y=".5" fill="#fff" stroke="#DDD" rx="3.5"/><path fill="#F7F7F7" stroke="#DDD" d="M.5 4A3.5 3.5 0 0 1 4 .5h268.248a3.5 3.5 0 0 1 3.5 3.5v131.521H.5V4Z"/><path fill="#fff" stroke="#DDD" d="m68.842 94.147 23.035-23.035a3.5 3.5 0 0 1 4.95 0l8.75 8.75a4.5 4.5 0 0 0 6.364 0l38.118-38.118a3.5 3.5 0 0 1 4.95 0l52.403 52.403c2.205 2.205.644 5.975-2.475 5.975H71.317c-3.118 0-4.68-3.77-2.475-5.975Z"/><circle cx="112.038" cy="45.721" r="6.659" fill="#fff" stroke="#DDD"/><rect width="227.033" height="24.867" x="24.672" y="158.857" fill="#F4F4F0" stroke="#DDD" rx="3.5"/><rect width="20" height="11" x="52.5" y="232.5" fill="#F4F4F0" stroke="#DDD" rx="1.5"/><rect width="20" height="11" x="78.5" y="232.5" fill="#F7F7F7" stroke="#DDD" rx="1.5"/><path fill="#F4F4F0" stroke="#DDD" d="M32.73 227.757a1.5 1.5 0 0 1 2.609 0l2.095 3.693a2.5 2.5 0 0 0 1.673 1.216l4.16.851a1.5 1.5 0 0 1 .806 2.482l-2.864 3.134a2.498 2.498 0 0 0-.64 1.966l.476 4.22a1.5 1.5 0 0 1-2.11 1.533l-3.867-1.756a2.504 2.504 0 0 0-2.068 0l-3.866 1.756a1.5 1.5 0 0 1-2.11-1.533l.475-4.22a2.497 2.497 0 0 0-.639-1.966l-2.865-3.134a1.5 1.5 0 0 1 .807-2.482l4.16-.851a2.5 2.5 0 0 0 1.672-1.216l2.096-3.693Z"/></svg>