<svg xmlns="http://www.w3.org/2000/svg" xmlns:xlink="http://www.w3.org/1999/xlink" width="256" height="157"><defs><rect id="a" width="46.806" height="74.9" x=".158" y=".111" rx="2"/><rect id="c" width="200" height="155" x="18" y="0" rx="4"/></defs><g fill="none" fill-rule="evenodd"><g transform="rotate(-15 162.771 26.212)"><rect width="62.964" height="113.738" x="1" y=".99" fill="#EEE" stroke="#E7E7E7" rx="4"/><rect width="54.378" height="84.6" x="5.293" y="16.827" fill="#FFF" stroke="#E7E7E7" stroke-width=".5" rx="2"/><rect width="20.034" height="2.16" x="22.465" y="9.629" fill="#D8D8D8" rx="2"/></g><g transform="rotate(-15 240.838 -20.84)"><mask id="b" fill="#fff"><use xlink:href="#a"/></mask><use fill="#FFF" stroke="#E7E7E7" xlink:href="#a"/><g mask="url(#b)"><g transform="rotate(.25 -14060.762 679.873)"><rect width="42.867" height="9.155" x=".453" y=".298" fill="#36A9AE" rx="1"/><rect width="26.792" height="1.831" x="8.491" y="3.96" fill="#178C8C" rx="2"/></g></g><g mask="url(#b)"><g transform="translate(2.743 42.057)"><g transform="translate(0 4.773)" fill="#EEE"><rect width="19.657" height="1.499" x=".26" y="8.792" rx="4"/><rect width="41.828" height="1.499" x=".343" y="4.599" rx="4"/><rect width="37.348" height="1.499" x=".343" y=".781" rx="4"/></g><rect width="19.657" height="2.187" x=".26" y=".027" fill="#CCC" rx="4"/></g></g><path fill="#F6F6F6" stroke="#E9E9E9" mask="url(#b)" d="M0 0h47.04v35.127H0z"/><g fill="#FDCE71" mask="url(#b)"><path d="m38.14 9.557 2.401-3.851h7.487v7.702h-7.487l-2.4-3.851Z"/></g></g><g transform="translate(37 1)"><mask id="d" fill="#fff"><use xlink:href="#c"/></mask><use fill="#FFF" stroke="#E7E7E7" xlink:href="#c"/><path fill="#F6F6F6" stroke="#E9E9E9" mask="url(#d)" d="M18-14h201v90H18z"/><g mask="url(#d)"><g transform="translate(27 89.5)"><rect width="57.24" height="4.319" x=".758" y="39.078" fill="#EEE" rx="4"/><rect width="121.8" height="4.319" x="1" y="27" fill="#EEE" rx="4"/><rect width="108.756" height="4.319" x="1" y="16" fill="#EEE" rx="4"/><rect width="57.24" height="6.3" x=".758" y=".078" fill="#CCC" rx="4"/></g><g transform="translate(162 85.5)"><rect width="45.792" height="14.397" x=".482" y=".475" fill="#36A9AE" rx="2"/><rect width="28.62" height="2.879" x="9.068" y="6.234" fill="#178C8C" rx="2"/></g></g><path fill="#FDCE71" d="M189 24.75 196.284 13H219v23.5h-22.716L189 24.75Z"/><text fill="#61460C" font-family="Helvetica Neue" font-size="8.609" font-weight="bold" transform="translate(189 13)"><tspan x="12.613" y="15">$2</tspan></text></g></g></svg>