<svg width="65" height="64" fill="none" xmlns="http://www.w3.org/2000/svg"><rect x="1.365" y="1" width="62" height="62" rx="31" fill="#fff" stroke="#CCC" stroke-width="2" stroke-dasharray="5 5"/><mask id="a" mask-type="alpha" maskUnits="userSpaceOnUse" x="2" y="2" width="61" height="60"><rect x="2.365" y="2" width="60" height="60" rx="30" fill="#fff"/></mask><g mask="url(#a)"><path fill="#fff" d="M2.365 2h60v60h-60z"/><path fill-rule="evenodd" clip-rule="evenodd" d="M25.445 21.063h8.779v7.023h7.023v12.291c0 .97-.786 1.756-1.755 1.756h-5.268v-3.512h2.27c.782 0 1.174-.945.621-1.498l-4.647-4.647-4.647 4.647c-.553.553-.161 1.498.62 1.498h2.271v3.512h-5.267c-.97 0-1.756-.786-1.756-1.756V22.82c0-.97.787-1.756 1.756-1.756Zm10.535 5.268v-5.268l5.267 5.268H35.98Z" fill="#959595"/></g></svg>