<svg width="878" height="889" viewBox="0 0 878 889" fill="none" xmlns="http://www.w3.org/2000/svg">
<path d="M724.127 443.603L722.307 444.5L724.127 445.397C792.136 478.917 840.544 523.564 862.979 573.251C885.393 622.892 880.857 675.28 849.919 723.435C818.958 771.628 763.015 813.294 689.518 842.75C616.033 872.202 528.602 888 439 888C349.398 888 261.967 872.202 188.482 842.75C114.985 813.294 59.0423 771.628 28.0807 723.435C-2.85658 675.28 -7.39342 622.892 15.0206 573.251C37.4558 523.564 85.8637 478.917 153.873 445.397L155.693 444.5L153.873 443.603C85.8637 410.083 37.4558 365.436 15.0206 315.749C-7.39342 266.108 -2.85658 213.72 28.0807 165.565C59.0423 117.372 114.985 75.7056 188.482 46.2498C261.967 16.7984 349.398 1 439 1C528.602 1 616.033 16.7984 689.518 46.2498C763.015 75.7056 818.958 117.372 849.919 165.565C880.857 213.72 885.393 266.108 862.979 315.749C840.544 365.436 792.136 410.083 724.127 443.603Z" fill="#FFC900" stroke="black" stroke-width="2"/>
</svg>
