<svg width="172" height="157" viewBox="0 0 172 157" fill="none" xmlns="http://www.w3.org/2000/svg">
<path d="M166.635 118.603L161.113 111.857L161.046 108.067C163.467 106.755 165.494 104.811 166.912 102.44C168.331 100.069 169.089 97.3575 169.108 94.5901C169.125 91.6961 168.332 88.8558 166.82 86.3937C165.309 83.9316 163.14 81.9471 160.56 80.6668L159.703 32.2931C159.644 28.8694 158.455 25.5627 156.323 22.8941C154.191 20.2256 151.236 18.3467 147.926 17.5536L147.913 16.8029C147.912 16.7412 147.911 16.6847 147.91 16.6281C147.907 16.4893 147.905 16.3505 147.902 16.2116C147.9 16.0728 147.898 15.9648 147.896 15.8414C147.894 15.718 147.891 15.5998 147.889 15.4764C147.887 15.353 147.859 15.1992 147.841 15.0658C147.823 14.9324 147.812 14.8606 147.795 14.758C147.778 14.6554 147.748 14.4502 147.72 14.3016C147.692 14.1529 147.717 14.1319 147.675 14.0504C147.641 13.8812 147.608 13.7173 147.569 13.5379C147.567 13.466 147.53 13.3946 147.514 13.3178C147.47 13.1488 147.431 12.9798 147.382 12.8058L147.317 12.591C147.268 12.4272 147.219 12.2584 147.159 12.0794C147.1 11.9005 147.1 11.9108 147.073 11.829L146.912 11.3844L146.784 11.0781C146.731 10.9556 146.682 10.8279 146.624 10.7055C146.566 10.5831 146.507 10.4556 146.449 10.3332C146.39 10.2108 146.358 10.1394 146.311 10.0477C146.263 9.95597 146.162 9.75718 146.083 9.6146L145.962 9.39562C145.877 9.24285 145.788 9.09015 145.693 8.9427L145.583 8.75954L145.288 8.31222C145.247 8.2564 145.21 8.19534 145.168 8.13438L144.864 7.72324L144.712 7.52538L144.419 7.16033C144.352 7.0844 144.289 7.00838 144.226 6.92722L143.945 6.61856C143.866 6.52739 143.783 6.44145 143.7 6.35037L143.44 6.0876L143.143 5.79978L143.018 5.67858L142.888 5.56263L142.572 5.28545L142.302 5.05887L141.996 4.8175L141.69 4.58642C141.597 4.51609 141.504 4.44576 141.406 4.38067L141.064 4.14509L140.8 3.97497L140.423 3.74003L140.165 3.59552L139.767 3.37123L139.504 3.24225C139.37 3.17266 139.236 3.10308 139.102 3.04377C138.968 2.98447 138.906 2.95471 138.809 2.91019C138.711 2.86566 138.556 2.79645 138.427 2.74733L138.082 2.60954L137.738 2.48202L137.342 2.35029L137.033 2.25298L136.602 2.13217L136.319 2.05497L135.873 1.95502L135.591 1.89324L135.15 1.81889L134.842 1.76787L134.432 1.71354L134.079 1.67875L133.7 1.64957C133.573 1.65188 133.439 1.62857 133.311 1.62573C133.184 1.62289 133.076 1.62997 132.959 1.63208L132.54 1.63964L16.9408 3.72394C12.8752 3.79724 9.00486 5.4927 6.1813 8.43734C3.35774 11.382 1.8122 15.3346 1.88469 19.4256L3.42916 106.589C3.48414 109.655 4.44613 112.635 6.19227 115.149C7.93842 117.662 10.3895 119.595 13.2325 120.7L13.2335 120.757C13.306 124.848 14.9905 128.742 17.9166 131.583C20.8427 134.424 24.7706 135.979 28.8362 135.906L92.2437 134.762C92.868 137.572 94.2613 140.15 96.266 142.205C98.2707 144.259 100.807 145.708 103.588 146.388C106.563 147.115 109.687 146.93 112.556 145.855C115.426 144.78 117.91 142.865 119.689 140.357L121.28 138.112L129.423 148.509C131.937 151.724 135.618 153.802 139.656 154.286C140.347 154.367 141.042 154.403 141.738 154.392C145.086 154.331 148.322 153.169 150.952 151.083L164.284 140.515C165.888 139.244 167.224 137.663 168.213 135.866C169.202 134.068 169.824 132.09 170.043 130.047C170.26 128.007 170.07 125.945 169.485 123.98C168.9 122.015 167.931 120.187 166.635 118.603V118.603Z" fill="#FFC900" stroke="black" stroke-width="2" stroke-miterlimit="10"/>
<path d="M145.532 97.9322L145.869 116.926L145.541 117.194L133.614 102.617C133.6 102.6 133.591 102.581 133.586 102.561C133.582 102.541 133.581 102.519 133.586 102.499C133.591 102.479 133.601 102.46 133.615 102.444C133.629 102.429 133.647 102.417 133.666 102.41L145.489 97.8146L145.532 97.9322Z" fill="black"/>
<path d="M144.375 32.6632L145.402 90.5747L145.177 91.1394L133.686 86.5221L133.808 86.2113L132.863 32.8707L144.375 32.6632Z" fill="black"/>
<path d="M120.788 112.651L125.463 118.626L125.191 118.842L116.106 119.005L120.594 112.67C120.606 112.654 120.621 112.641 120.639 112.632C120.656 112.623 120.675 112.618 120.695 112.617V112.617C120.729 112.616 120.762 112.628 120.788 112.651V112.651Z" fill="black"/>
<path d="M103.378 104.849L105.441 119.188L105.37 119.199L28.5644 120.584L28.3103 106.244L103.051 104.896L103.378 104.849Z" fill="black"/>
<path d="M103.053 104.896L28.3115 106.244L18.7613 106.416L17.4949 34.9507L17.2168 19.2529L117.727 17.4407L132.586 17.1728L132.864 32.8705L133.809 86.2111" stroke="black" stroke-width="2" stroke-linecap="round" stroke-linejoin="round"/>
<path d="M17.8008 34.9453L118.004 33.1386L132.751 32.8727" stroke="black" stroke-width="2" stroke-linecap="round" stroke-linejoin="round"/>
<path d="M118.004 33.1379L117.741 18.3091" stroke="black" stroke-width="2" stroke-linecap="round" stroke-linejoin="round"/>
<path d="M118.004 33.1382L125.059 25.4091L132.585 17.1725" stroke="black" stroke-width="2" stroke-linecap="round" stroke-linejoin="round"/>
<path d="M105.371 119.199L28.5653 120.584L28.3112 106.243L28.3066 105.986" stroke="black" stroke-width="2" stroke-linecap="round" stroke-linejoin="round"/>
<path d="M125.192 118.841L116.106 119.005" stroke="black" stroke-width="2" stroke-linecap="round" stroke-linejoin="round"/>
<path d="M145.532 97.9316L145.869 116.925" stroke="black" stroke-width="2" stroke-linecap="round" stroke-linejoin="round"/>
<path d="M117.741 18.3091L125.059 25.4088L132.751 32.872L132.863 32.87L144.376 32.6624L145.402 90.574" stroke="black" stroke-width="2" stroke-linecap="round" stroke-linejoin="round"/>
<path d="M25.6543 27.937C26.3147 27.9251 26.8405 27.3768 26.8287 26.7123C26.8169 26.0478 26.2721 25.5188 25.6117 25.5307C24.9513 25.5426 24.4256 26.0909 24.4373 26.7554C24.4491 27.4199 24.994 27.9489 25.6543 27.937Z" stroke="black" stroke-width="2" stroke-linecap="round" stroke-linejoin="round"/>
<path d="M33.6729 27.792C34.3333 27.7801 34.8591 27.2318 34.8473 26.5673C34.8355 25.9028 34.2906 25.3738 33.6303 25.3857C32.9699 25.3976 32.4441 25.9459 32.4559 26.6104C32.4677 27.2749 33.0125 27.8039 33.6729 27.792Z" stroke="black" stroke-width="2" stroke-linecap="round" stroke-linejoin="round"/>
<path d="M41.6905 27.6475C42.3508 27.6356 42.8766 27.0872 42.8649 26.4227C42.8531 25.7583 42.3082 25.2292 41.6478 25.2411C40.9875 25.253 40.4617 25.8014 40.4735 26.4659C40.4852 27.1304 41.0301 27.6594 41.6905 27.6475Z" stroke="black" stroke-width="2" stroke-linecap="round" stroke-linejoin="round"/>
<path d="M111.055 77.4248L133.707 86.5213L145.197 91.1387L153.794 94.584L145.51 97.8194L133.687 102.415C133.667 102.422 133.65 102.434 133.636 102.449C133.622 102.465 133.612 102.483 133.606 102.504C133.602 102.524 133.602 102.545 133.607 102.566C133.612 102.586 133.621 102.605 133.634 102.621L145.562 117.199L154.82 128.512L141.467 139.075L125.463 118.626L120.788 112.651C120.775 112.636 120.76 112.623 120.742 112.615C120.724 112.606 120.705 112.602 120.685 112.602V112.602C120.665 112.602 120.646 112.608 120.628 112.617C120.611 112.626 120.595 112.639 120.583 112.655L116.095 118.99L107.219 131.494L105.467 119.182L103.403 104.818L100.785 86.58" stroke="black" stroke-width="2" stroke-linecap="round" stroke-linejoin="round"/>
<path d="M100.76 86.6104L98.7308 72.4718L111.055 77.4238C118.967 67.8687 116.663 60.4215 109.788 57.5211C101.321 53.9551 90.0156 60.9225 90.0156 60.9225C90.0156 60.9225 92.6512 38.8921 65.8883 46.1383C40.7788 52.9379 30.5241 71.9117 36.2716 81.8479C44.5925 96.2434 67.2159 82.9822 67.2159 82.9822C65.0055 99.0077 86.9415 95.7062 100.76 86.6104Z" stroke="black" stroke-width="2" stroke-linecap="round" stroke-linejoin="round"/>
</svg>
