<svg width="163" height="173" viewBox="0 0 163 173" fill="none" xmlns="http://www.w3.org/2000/svg">
<path d="M9.98437 111.362C-11.1941 46.4724 2.07188 25.8515 54.7721 8.65149C108.817 -8.98752 131.647 -0.328311 153.215 64.6156C174.818 129.096 157.889 146.519 104.516 163.939C53.5377 180.577 31.0827 176.007 9.98437 111.362Z" fill="#FFC900"/>
<path fill-rule="evenodd" clip-rule="evenodd" d="M151.319 65.2511L151.317 65.2461C140.541 32.7988 129.64 15.1077 115.232 7.4302C100.871 -0.222485 82.3894 1.74196 55.3927 10.553C29.0801 19.1408 13.3521 28.3828 6.48329 42.9752C-0.414051 57.6282 1.30543 78.3246 11.8857 110.742C22.4263 143.038 33.1075 159.586 46.9231 166.335C60.7445 173.086 78.3671 170.37 103.896 162.038C130.63 153.313 147.458 144.785 155.238 130.945C162.987 117.161 162.103 97.4408 151.319 65.2511ZM54.7721 8.6517C2.07188 25.8517 -11.1941 46.4726 9.98437 111.363C31.0827 176.007 53.5378 180.577 104.516 163.939C157.889 146.52 174.818 129.096 153.215 64.6158C131.647 -0.328089 108.817 -8.98731 54.7721 8.6517Z" fill="black"/>
<path d="M70.5104 125.436C66.3572 127.873 62.4416 129.908 59.0537 131.544C52.5064 118.282 45.5118 103.796 39.0289 90.0716C43.1177 88.0973 47.7302 86.0142 49.4222 85.3413L44.1198 74.36C42.6575 75.2101 38.1014 77.41 34.069 79.5011C31.5307 74.2441 29.2784 69.2811 26.9657 64.4913C29.4753 63.4236 32.5127 61.957 37.9994 59.5959L32.8663 48.965L10.6699 59.6825C24.7235 88.1913 43.2253 126.509 52.9759 147.3L75.7563 136.3L70.5104 125.436Z" fill="#FFC900"/>
<path d="M85.0411 114.74L96.8804 110.876C86.4015 87.5489 65.4136 39.1313 58.0597 21.1985L41.904 26.4713C49.5001 58.1079 58.0442 95.5759 63.5823 121.743L75.2983 117.919C72.3301 107.152 68.3205 92.3584 64.4368 77.1139C66.1633 76.5504 68.2599 75.8662 69.9865 75.3026C76.4874 91.8763 82.2587 107.051 85.0411 114.74ZM61.144 65.7705C58.2211 54.3063 55.419 43.2121 53.3012 34.2144L53.6712 34.0937C57.0248 42.2786 61.3874 53.1364 65.707 64.2812C64.2271 64.7642 62.6239 65.2875 61.144 65.7705Z" fill="#FFC900"/>
<path d="M118.182 112.579C115.721 100.106 93.4738 55.7026 91.7915 47.1751C91.3395 44.8842 92.2088 43.2582 94.1179 42.8815C95.6452 42.5802 97.705 42.9672 99.1786 43.7343L101.752 32.6484C98.9301 31.7505 95.1153 31.1808 90.7879 32.0346C82.7696 33.6164 78.3513 40.0417 80.0336 48.5691C82.1428 59.2603 103.732 102.339 106.017 113.921C106.595 116.848 105.012 118.88 102.721 119.332C101.194 119.633 99.159 119.373 97.0758 118.197L96.1286 130.153C99.5867 130.925 103.453 131.088 107.144 130.36C115.29 128.753 120.165 122.634 118.182 112.579Z" fill="#FFC900"/>
<path d="M125.347 44.316C125.011 51.9923 124.358 63.3993 124.097 73.166L123.585 73.2488C120.281 64.1899 116.174 53.4209 113.565 46.2208L101.481 48.6999C107.522 60.8647 114.005 74.1406 118.859 84.6574C121.182 98.2116 127.148 134.305 128.151 142.948L140.702 140.919C139.12 132.764 133.547 99.1036 131.187 84.5041C132.789 70.841 134.561 57.4133 136.956 42.9649L125.347 44.316Z" fill="#FFC900"/>
<path fill-rule="evenodd" clip-rule="evenodd" d="M28.7986 63.688C29.3639 63.435 29.9672 63.1619 30.6235 62.8648C32.1304 62.1827 33.9166 61.3741 36.163 60.3924C36.7434 60.1388 37.3545 59.8736 37.9994 59.596L32.8663 48.9651L10.6699 59.6826C10.9627 60.2765 11.2574 60.8746 11.5538 61.4768C25.0869 88.9606 42.3928 124.797 52.1255 145.49C52.4158 146.107 52.6994 146.71 52.9759 147.3L75.7563 136.3L70.5104 125.436C69.9267 125.778 69.3477 126.113 68.7742 126.44C65.267 128.437 61.9655 130.138 59.0537 131.544C52.5064 118.282 45.5118 103.796 39.0289 90.0717C42.0581 88.6091 45.3747 87.0867 47.5783 86.1223C48.3491 85.785 48.9837 85.5159 49.4222 85.3415L44.1198 74.3601C43.7291 74.5873 43.1175 74.9108 42.3541 75.3028C41.4912 75.7459 40.4344 76.2766 39.2832 76.8546C38.1947 77.4011 37.0218 77.9901 35.8487 78.5874C35.2518 78.8913 34.6549 79.1974 34.069 79.5013C33.7768 78.8961 33.4884 78.2948 33.2033 77.6973C32.2211 75.639 31.2776 73.6247 30.3511 71.6469C29.5023 69.8348 28.6678 68.0533 27.8311 66.2967C27.5431 65.6921 27.2549 65.0904 26.9657 64.4915C27.5412 64.2466 28.1444 63.9808 28.7986 63.688ZM43.2236 77.1036C42.3237 77.5656 41.232 78.114 40.0595 78.703C38.4261 79.5237 36.636 80.423 34.9898 81.2767L33.1628 82.2241L32.268 80.3709C30.993 77.7303 29.7906 75.1651 28.6216 72.6695L28.5423 72.5002C27.3996 70.0608 26.2889 67.6896 25.1646 65.3611L24.2526 63.4723L26.1827 62.6511C27.2327 62.2044 28.3779 61.686 29.7957 61.0442C30.0364 60.9352 30.2849 60.8227 30.5422 60.7064C31.8751 60.1037 33.4246 59.4069 35.2927 58.5901L31.9349 51.6358L13.3549 60.6071C26.8865 88.088 44.1872 123.914 53.9267 144.62L73.0857 135.369L69.6458 128.245C66.138 130.239 62.8373 131.938 59.9234 133.345L58.1381 134.207L57.2604 132.429C50.7078 119.157 43.7082 104.661 37.2205 90.9259L36.3736 89.1329L38.1593 88.2707C41.1588 86.8224 44.4621 85.3044 46.7081 84.3201L43.2236 77.1036ZM62.0365 75.7936L71.1594 72.8161L71.8484 74.5725C77.8733 89.9327 83.2766 104.103 86.2584 112.239L94.1456 109.665C83.7351 86.4017 64.609 42.2781 56.9168 23.6754L44.2793 27.8C51.5599 58.1898 59.636 93.5955 65.0768 119.152L72.8635 116.61C69.9527 106.024 66.1699 92.0182 62.4987 77.6078L62.0365 75.7936ZM75.2983 117.92L63.5823 121.743C63.445 121.094 63.3058 120.439 63.1648 119.776C57.6209 93.7211 49.3117 57.3234 41.904 26.4714L58.0597 21.1986C65.2258 38.6735 85.3384 85.0961 96.0575 109.041C96.3384 109.668 96.6128 110.28 96.8804 110.876L85.0411 114.74C82.2587 107.051 76.4874 91.8765 69.9865 75.3028L64.4368 77.1141C68.3205 92.3586 72.3301 107.153 75.2983 117.92ZM59.7337 68.3347L59.206 66.2647C56.2835 54.8019 53.477 43.6908 51.3544 34.6728L50.9333 32.8836L54.8173 31.6159L55.5219 33.3355C58.8795 41.5303 63.2469 52.4001 67.5719 63.5586L68.335 65.5275L59.7337 68.3347ZM122.209 69.5001C120.939 66.0606 119.604 62.4881 118.315 59.0394L118.315 59.0383C116.549 54.3137 114.87 49.8209 113.565 46.2209L101.481 48.7001C101.787 49.3151 102.093 49.9329 102.401 50.5531C108.173 62.2002 114.25 74.6725 118.859 84.6575C121.033 97.3437 126.399 129.775 127.9 140.963C128.002 141.728 128.087 142.395 128.151 142.948L140.702 140.919C140.596 140.373 140.472 139.714 140.333 138.953C138.389 128.345 133.389 98.1268 131.187 84.5043C132.713 71.4903 134.393 58.69 136.618 45.0178C136.729 44.3358 136.842 43.6516 136.956 42.9651L125.347 44.3162C125.246 46.6239 125.116 49.2688 124.977 52.1049C124.716 57.4423 124.421 63.4569 124.221 69.1762C124.175 70.4907 124.134 71.7896 124.1 73.0611C124.099 73.0962 124.098 73.1312 124.097 73.1662L123.585 73.249C123.573 73.2165 123.561 73.184 123.55 73.1515C123.115 71.9596 122.666 70.7385 122.209 69.5001ZM127.268 46.1061C127.181 47.9967 127.08 50.0602 126.973 52.2326C126.65 58.8216 126.278 66.4121 126.097 73.2196L126.052 74.8761L122.273 75.4872L121.706 73.9343C120.077 69.4688 118.22 64.4978 116.446 59.7525C114.929 55.693 113.474 51.7987 112.276 48.5269L104.427 50.1374C110.132 61.6542 116.117 73.9444 120.675 83.8194L120.785 84.0593L120.83 84.3197C122.995 96.9532 128.352 129.323 129.874 140.644L138.358 139.272C136.4 128.581 131.409 98.4101 129.213 84.8235L129.168 84.5482L129.2 84.2713C130.708 71.417 132.366 58.7581 134.553 45.2582L127.268 46.1061ZM61.144 65.7706L65.707 64.2814C65.4654 63.6579 65.2236 63.0354 64.9819 62.4142C62.5082 56.057 60.0398 49.8376 57.7739 44.2035C56.308 40.5584 54.9268 37.1583 53.6838 34.1245C53.6796 34.1143 53.6754 34.104 53.6712 34.0938L53.3012 34.2146C53.3034 34.2239 53.3056 34.2333 53.3078 34.2427C54.079 37.5186 54.9408 41.0718 55.8659 44.8193C57.3365 50.7764 58.9672 57.2241 60.649 63.8283C60.8136 64.4744 60.9786 65.1219 61.144 65.7706ZM94.4379 60.0202C92.1076 54.535 90.2991 49.9441 89.8293 47.5624C89.5434 46.1131 89.6254 44.6273 90.3093 43.3605C91.0229 42.0388 92.2564 41.2104 93.7308 40.9195C94.9827 40.6725 96.4091 40.7659 97.7395 41.0888L99.3667 34.0785C97.0648 33.5753 94.2638 33.3875 91.175 33.9969C87.6115 34.6999 85.0015 36.4396 83.4416 38.8001C81.8812 41.1614 81.239 44.3458 81.9958 48.1822C82.4782 50.6272 84.1388 55.1381 86.5114 60.9007C88.7644 66.3726 91.5814 72.7929 94.4382 79.3036L94.7909 80.1076C97.7619 86.8792 100.752 93.709 103.142 99.5723C105.508 105.377 107.365 110.418 107.979 113.534C108.355 115.437 108.053 117.224 107.117 118.651C106.187 120.071 104.733 120.973 103.108 121.294C101.828 121.546 100.367 121.494 98.8534 121.083L98.2642 128.521C101.019 128.946 103.956 128.95 106.757 128.397C110.433 127.672 113.167 125.977 114.797 123.529C116.424 121.085 117.136 117.612 116.22 112.966C115.647 110.065 113.871 105.122 111.404 99.0497C108.959 93.0318 105.906 86.0716 102.866 79.2076C102.292 77.9105 101.717 76.6165 101.148 75.3332C98.7096 69.839 96.3579 64.5398 94.4379 60.0202ZM96.1286 130.153C99.5867 130.925 103.453 131.088 107.144 130.36C115.29 128.753 120.165 122.634 118.182 112.579C116.835 105.752 109.559 89.3566 102.973 74.5155C97.5273 62.2441 92.5529 51.0349 91.7915 47.1753C91.3395 44.8843 92.2088 43.2583 94.1179 42.8817C95.0594 42.6959 96.2032 42.7718 97.2874 43.0369C97.9619 43.2019 98.6134 43.4403 99.1786 43.7345L101.752 32.6485C98.9301 31.7507 95.1153 31.181 90.7879 32.0347C82.7696 33.6166 78.3513 40.0418 80.0336 48.5693C81.0671 53.8079 86.7776 66.8224 92.6024 80.0975C98.6652 93.9147 104.852 108.014 106.017 113.921C106.595 116.849 105.012 118.88 102.721 119.332C101.675 119.538 100.39 119.481 99.0148 119.047C98.3828 118.847 97.7317 118.568 97.0758 118.198L96.1286 130.153Z" fill="black"/>
</svg>
