<svg width="579" height="670" viewBox="0 0 579 670" fill="none" xmlns="http://www.w3.org/2000/svg">
<path d="M212 532C212 590.547 164.762 638 106.5 638C48.2384 638 1 590.547 1 532C1 473.453 48.2384 426 106.5 426C164.762 426 212 473.453 212 532Z" fill="#23A094" stroke="black" stroke-width="2"/>
<path d="M156.224 63.2694L155.324 65.7856L157.655 64.4783C181.89 50.8846 202.47 62.045 208.921 77.795C212.151 85.682 211.853 94.7267 206.727 102.518C201.597 110.317 191.533 117.005 174.953 119.929L171.671 120.508L174.73 121.832C197.141 131.531 210.704 144.015 217.234 156.679C223.754 169.323 223.307 182.215 217.582 192.924C206.13 214.347 173.224 227.435 131.573 211.33L130.53 210.926L130.246 212.008C123.615 237.243 108.998 250.651 95.8706 251.903C89.3358 252.526 83.0591 250.165 78.1146 244.62C73.1512 239.055 69.4916 230.23 68.3881 217.906L68.283 216.732L67.1418 217.027C37.3596 224.729 17.5552 213.469 11.2411 196.696C4.90534 179.865 11.9145 156.901 36.9997 140.739L39.6767 139.014L36.4943 138.899C22.7074 138.4 13.4414 135.695 7.85438 131.906C2.3254 128.156 0.401985 123.362 1.15749 118.419C1.92652 113.386 5.50281 108.007 11.4053 103.305C17.2901 98.6165 25.403 94.6739 35.0496 92.4952L36.9061 92.0759L35.5075 90.785C23.4809 79.6838 19.7624 69.2435 21.3164 60.5319C22.8758 51.79 29.806 44.424 39.8718 39.6293C60.0101 30.0367 92.0466 31.0815 115.379 51.6359L116.266 52.4171L116.889 51.4134C124.416 39.3016 131.635 31.4687 137.944 27.1544C144.27 22.8292 149.503 22.1434 153.247 23.8987C157.001 25.6584 159.678 30.0673 160.435 36.894C161.189 43.6954 160.002 52.7063 156.224 63.2694Z" fill="#FFC900" stroke="black" stroke-width="2"/>
<path d="M326.353 423.989L326.351 423.989C298.438 424.14 276.39 422.728 259.017 419.546C241.643 416.363 229.007 411.42 219.867 404.552C201.661 390.873 197 369.299 197 337.475C197 307.093 201.656 286.687 219.846 273.73C228.989 267.219 241.629 262.527 259.011 259.47C276.388 256.413 298.441 255 326.356 255C382.466 255 416.593 260.411 436.704 273.489C456.659 286.466 463 307.142 463 338.487C463 370.645 456.724 391.724 436.802 404.949C416.728 418.275 382.606 423.788 326.353 423.989Z" fill="#FF90E8" stroke="black" stroke-width="2"/>
<path d="M404.422 466.92C427.347 495.716 460.422 501.45 496.092 497.383C490.047 512.927 487.513 527.86 489.398 542.249C491.298 556.76 497.682 570.641 509.352 583.976C485.624 595.094 471.233 624.629 474.805 653.253C438.545 643.456 407.389 648.885 385.601 668.224C381.659 656.352 375.544 642.628 365.453 631.919C355.334 621.181 341.244 613.509 321.478 613.735C347.69 586.382 344.828 540.604 321.689 513.545C346.12 513.56 363.655 508.878 376.694 500.628C389.665 492.422 398.081 480.751 404.422 466.92Z" fill="#FFC900" stroke="black" stroke-width="2"/>
<path d="M372.425 560.953C371.574 561.049 370.724 561.146 369.874 561.242C369.736 552.418 370.746 548.664 371.88 548.536C373.108 548.397 374.649 551.862 375.448 558.921L375.637 560.589C374.787 560.685 373.748 560.803 372.425 560.953ZM386.423 576.396L377.542 577.402C380.602 601.883 379.831 608.6 378.131 608.793C376.147 609.018 373.414 598.408 371.248 579.285C370.957 576.718 370.695 574.408 370.543 572.215C371.582 572.098 372.716 571.969 373.755 571.851C377.534 571.423 382.338 570.749 385.405 570.792C384.838 565.786 384.424 562.974 383.356 556.075C381.262 542.663 376.371 535.808 370.891 536.429C362.104 537.424 359.67 555.638 362.446 580.152C365.223 604.665 371.008 621.949 379.89 620.943C388.299 619.99 390.028 603.156 386.423 576.396ZM410.676 542.581C408.815 526.154 398.959 520.25 384.852 521.588C389.192 557.364 393.669 596.894 395.799 618.231L404.775 617.214C403.445 606.316 401.235 586.807 398.924 566.401C406.388 563.866 412.173 555.801 410.676 542.581ZM402.078 543.555C402.688 548.946 400.944 552.133 397.499 553.823C396.758 547.278 396.016 540.732 395.398 534.433C399.526 535.395 401.482 538.293 402.078 543.555ZM420.775 517.909L411.705 518.937C414.096 539.204 417.105 569.151 419.359 589.044C419.78 592.766 420.34 596.862 421.365 601.686C423.175 610.06 427.201 615.194 433.531 614.477C441.279 613.599 444.128 606.647 441.991 587.781C439.825 568.657 435.951 535.299 434.003 516.411L424.932 517.438C427.411 536.786 431.867 575.278 433.931 595.193C434.403 600.209 433.509 601.61 432.187 601.76C431.053 601.888 429.963 600.712 429.279 596.37C428.865 593.557 428.691 592.017 428.189 588.434C426.147 571.247 423.246 541.418 420.775 517.909ZM450.845 612.516C465.446 610.472 473.056 599.081 470.584 577.262C469.014 563.401 465.119 554.353 459.893 551.306L459.849 550.92C463.287 548.321 466.056 543.198 465.111 534.856C463.381 519.583 453.868 514.161 439.841 515.36C443.46 545.627 447.342 579.895 450.845 612.516ZM461.979 577.327C463.171 587.851 461.231 593.531 458.258 596.857C456.805 584.023 455.213 570.814 453.868 558.097C457.306 558.878 460.467 563.979 461.979 577.327ZM456.681 536.461C457.393 542.749 455.394 546.226 452.647 547.317C451.876 540.514 451.135 533.969 450.452 527.937C454.173 528.685 456.128 531.584 456.681 536.461Z" fill="#FF90E8" stroke="black" stroke-width="2"/>
<rect x="260.93" y="296.026" width="158.654" height="99.797" rx="19" fill="black" stroke="black" stroke-width="2"/>
<rect x="250.93" y="286.026" width="158.654" height="99.797" rx="19" fill="#F4F4F0" stroke="black" stroke-width="2"/>
<path d="M355.343 337.657L313.845 361.616C312.511 362.386 310.845 361.423 310.845 359.884L310.845 311.965C310.845 310.426 312.511 309.463 313.845 310.233L355.343 334.193C356.677 334.962 356.677 336.887 355.343 337.657Z" fill="#FF90E8" stroke="black" stroke-width="2"/>
<path d="M99.9044 476.204C98.6821 475.748 89.9504 472.347 88.9966 471.85C85.6285 478.499 73.534 500.384 65.2059 515.911C69.2559 497.94 73.6935 475.879 75.6629 466.872C74.5704 466.747 65.0146 463.18 64.3479 462.931C51.0995 496.386 36.1859 534.301 27.5446 555.076L37.9893 558.975C41.8934 548.856 47.1666 534.73 51.9587 521.554C55.363 512.095 59.6925 500.158 63.4669 489.708L63.7354 489.667C58.2606 510.777 52.0456 533.869 47.061 553.326C48.7739 553.824 51.4407 554.82 53.3945 555.69C61.4631 539.502 72.0945 516.788 82.0602 497.214L82.2361 497.421C78.1007 508.159 73.0216 521.087 70.2834 529.1C64.1499 545.87 60.6988 553.758 56.1009 565.736L66.6567 569.676C74.122 548.322 87.2211 510.858 99.9044 476.204ZM122.205 483.541C111.427 479.517 100.414 495.454 89.3591 525.068C78.0725 555.302 76.1709 574.64 86.7268 578.58C97.2826 582.521 108.518 566.668 119.804 536.434C130.998 506.447 132.872 487.523 122.205 483.541ZM90.6123 568.172C88.6122 567.425 90.9417 554.742 100.47 529.216C109.953 503.815 116.135 493.698 118.135 494.445C120.135 495.192 118.175 506.884 108.693 532.286C99.1641 557.811 92.6123 568.919 90.6123 568.172ZM108.099 585.712C125.461 591.769 139.541 585.59 147.405 564.525C152.4 551.143 152.444 540.853 148.072 535.268L148.211 534.897C153.331 534.408 158.931 531.275 161.938 523.221C167.442 508.475 159.422 498.422 143.115 491.911C132.421 521.237 120.071 554.322 108.099 585.712ZM137.728 559.925C133.935 570.086 128.992 574.17 124.04 575.568C128.665 563.177 133.318 550.373 138.009 538.147C141.482 540.714 142.539 547.038 137.728 559.925ZM151.706 520.107C149.44 526.179 145.505 528.239 141.895 527.739C144.346 521.171 146.705 514.852 148.879 509.028C152.685 511.719 153.464 515.398 151.706 520.107ZM175.584 504.456C168.035 525.356 149.746 574.011 140.892 597.389L151.559 601.371C160.079 577.869 178.258 529.172 186.251 508.438L175.584 504.456Z" fill="#FFC900" stroke="black" stroke-width="2"/>
<path d="M87.7845 107.751C83.8203 87.8051 70.8252 81.6407 53.1895 84.8218C62.1841 128.228 71.723 176.223 76.5103 202.161L87.715 199.934C84.9646 186.712 80.2571 163.026 75.3328 138.249C84.4837 134.325 90.9745 123.801 87.7845 107.751ZM77.0515 109.884C78.3523 116.429 76.4698 120.529 72.2976 122.978C70.7181 115.031 69.1386 107.083 67.739 99.4243C73.0334 100.154 75.7817 103.495 77.0515 109.884ZM116.787 132.926C120.472 151.47 120.547 166.033 116.962 174.521C111.331 146.807 105.385 116.888 100.826 93.3343C106.87 98.4505 112.544 111.577 116.787 132.926ZM109.628 196.226C127.401 191.884 135.051 169.306 127.402 130.816C118.606 86.5609 103.589 75.7768 86.1836 78.2643C93.5737 114.214 102.245 157.846 109.628 196.226ZM156.364 186.29C151.854 164.833 147.177 141.302 142.959 119.463C147.205 118.619 151.954 117.837 153.754 117.642L150.843 102.994C149.341 103.454 144.505 104.415 140.29 105.415C138.741 97.6236 137.373 90.1204 135.979 83.1081C138.487 82.7717 141.435 82.1856 147.041 81.3955L144.222 67.2151L121.813 71.669C129.637 109.8 139.795 160.912 145.041 188.54L156.364 186.29Z" fill="#FF90E8" stroke="black" stroke-width="2"/>
<path d="M538.965 192.541C542.563 177.022 542.674 162.346 539.278 148.947C535.867 135.386 528.796 123.021 518.836 113.204C518.24 108.242 516.456 103.496 513.634 99.371C510.812 95.2456 507.035 91.8622 502.626 89.5083C498.626 87.3044 494.194 85.9957 489.639 85.6729C485.083 85.35 480.512 86.0207 476.241 87.6385C460.214 82.2273 444.414 81.0363 429.265 84.0938C417.563 86.4871 406.511 91.3584 396.85 98.3801L391.755 95.5945C391.423 95.413 391.096 95.2343 390.749 95.0445L345.138 70.1091C341.098 67.4495 330.547 61.7728 317.617 64.5347C310.393 66.0725 300.206 70.7846 292.725 84.4685C284.595 99.3393 286.378 115.808 297.612 129.651C304.441 138.061 313.263 143.805 319.282 147.377C326.816 151.855 351.084 165.507 355.862 168.192L356.064 168.302L356.712 168.656L357.054 168.843L358.429 166.329L357.105 168.871C359.373 170.111 370.672 176.321 392.678 188.351L436.438 212.274L477.985 234.988L493.487 243.463C497.853 245.867 502.959 246.555 507.805 245.393C512.652 244.231 516.89 241.302 519.69 237.18C520.232 236.392 533.219 217.298 538.965 192.541Z" fill="#23A094" stroke="black" stroke-width="2" stroke-miterlimit="10"/>
<path d="M483.198 113.37C481.653 112.577 480.127 111.839 478.62 111.154L478.76 110.898C481.193 106.447 487.369 105.153 492.565 107.994C497.761 110.834 499.992 116.744 497.567 121.18L496.985 121.946C495.874 121.094 494.716 120.261 493.511 119.445C491.172 117.844 488.644 116.301 485.928 114.816C485.008 114.288 484.108 113.808 483.198 113.37Z" fill="black"/>
<path d="M346.008 133.325C350.142 141.705 356.653 146.656 365.276 151.547C359.779 148.457 336.297 135.241 329.097 130.964C320.899 126.098 300.068 112.815 309.858 94.9065C319.649 76.9983 334.173 88.0741 334.173 88.0741C352.085 97.8663 336.991 115.09 346.008 133.325Z" fill="black"/>
<path d="M365.276 151.547C356.653 146.657 350.142 141.705 346.008 133.325C336.991 115.09 352.085 97.8663 334.173 88.0742C334.173 88.0742 319.655 77.0344 309.865 94.9427C300.074 112.851 320.906 126.134 329.083 130.99C336.304 135.277 359.775 148.487 365.262 151.572" stroke="black" stroke-width="2" stroke-linecap="round" stroke-linejoin="round"/>
<path d="M365.275 151.547C365.663 151.758 366.05 151.97 366.442 152.185" stroke="black" stroke-width="2" stroke-linecap="round" stroke-linejoin="round"/>
<path d="M399.434 123.327C399.434 123.327 411.197 108.98 432.811 104.59C445.035 102.128 460.422 102.832 478.631 111.135C480.137 111.823 481.663 112.561 483.209 113.35C484.094 113.834 485.009 114.288 485.919 114.786C488.635 116.271 491.163 117.814 493.502 119.415C494.71 120.232 495.868 121.065 496.976 121.915C547.974 160.743 502.679 226.685 502.679 226.685L487.157 218.199L438.196 191.432C404.948 173.255 370.488 154.416 366.434 152.2" stroke="black" stroke-width="2" stroke-linecap="round" stroke-linejoin="round"/>
<path d="M334.173 88.0741L392.982 120.225C395.135 121.402 397.159 122.628 399.053 123.903C408.994 130.553 415.493 138.574 418.66 148.34C419.178 149.93 419.602 151.549 419.93 153.188C420.368 155.457 420.585 157.763 420.576 160.073C420.607 163.899 420.284 167.491 420.802 171.047C421.713 177.424 425.336 183.656 438.499 190.853C438.499 190.853 460.491 142.833 483.179 113.379C483.179 113.379 483.179 113.379 483.198 113.344" stroke="black" stroke-width="2" stroke-linecap="round" stroke-linejoin="round"/>
<path d="M478.751 110.867C481.185 106.416 487.36 105.122 492.556 107.963C497.752 110.803 499.983 116.713 497.558 121.149" stroke="black" stroke-width="2" stroke-linecap="round" stroke-linejoin="round"/>
<path d="M353.128 98.7896L353.178 98.8171C353.636 99.0673 357.149 101.641 355.096 120.023C353.286 136.096 373.775 146.134 387.808 153.806C404.824 163.109 420.377 170.834 420.377 170.834" stroke="black" stroke-width="2" stroke-linecap="round" stroke-linejoin="round"/>
<path d="M368.138 106.995L368.173 107.014C368.495 107.19 370.956 108.974 369.511 121.835C368.251 133.067 382.572 140.08 392.381 145.443C404.276 151.946 419.77 159.874 419.77 159.874" stroke="black" stroke-width="2" stroke-linecap="round" stroke-linejoin="round"/>
<path d="M381.139 113.711C381.164 113.719 381.188 113.732 381.209 113.749C381.519 113.971 382.732 115.326 381.945 122.382C381.204 128.947 389.574 133.045 395.308 136.18C402.259 139.98 418.281 148.426 418.281 148.426" stroke="black" stroke-width="2" stroke-linecap="round" stroke-linejoin="round"/>
<path d="M487.157 218.198C493.443 204.573 522.003 152.332 493.355 119.622" stroke="black" stroke-width="2" stroke-linecap="round" stroke-linejoin="round"/>
<path d="M435.445 141.851C435.833 141.966 444.125 144.461 442.1 150.925C440.029 157.546 419.931 153.175 419.931 153.175" stroke="black" stroke-width="2" stroke-linecap="round" stroke-linejoin="round"/>
<path d="M428.501 126.35C430.167 125.955 451.7 121.187 454.302 130.063C456.959 139.125 436.231 141.739 435.447 141.846" stroke="black" stroke-width="2" stroke-linecap="round" stroke-linejoin="round"/>
<path d="M428.44 126.364L428.501 126.35" stroke="black" stroke-width="2" stroke-linecap="round" stroke-linejoin="round"/>
<path d="M432.838 104.781C432.838 104.781 448.859 103.846 447.465 112.777C446.134 121.306 429.952 125.954 428.493 126.365" stroke="black" stroke-width="2" stroke-linecap="round" stroke-linejoin="round"/>
</svg>
