<svg width="855" height="832" viewBox="0 0 855 832" fill="none" xmlns="http://www.w3.org/2000/svg">
<path d="M592.994 785.075L591.306 730.449C576.271 725.324 561.921 718.373 548.578 709.752C531.347 698.716 524.407 679.949 531.256 662.999C533.962 656.525 544.374 630.873 554.461 606.257C564.219 582.48 600.737 574.563 623.124 591.404L631.672 597.859C633.718 599.33 635.526 600.803 637.335 602.254C638.8 603.416 640.711 604.941 641.757 605.656C641.557 602.093 641.046 598.553 640.229 595.079C632.956 563.08 621.357 531.221 610.145 500.435C601.441 476.535 592.338 452.212 583.58 428.698C575.225 406.323 566.562 383.228 558.204 360.376C547.882 332.69 539.414 304.347 532.857 275.536C527.128 249.736 527.203 227.953 533.102 207.043C540.476 180.901 557.195 159.979 581.989 145.473C581.851 140.345 580.981 112.694 580.258 89.2829C579.663 70.3275 598.029 54.3773 621.288 53.6633L697.045 51.2809C720.194 50.5795 739.487 65.2336 740.194 84.1334C740.994 105.578 741.915 130.002 742.108 134.463C747.143 136.225 760.824 144.061 773.778 151.771C789.873 161.346 795.373 178.931 786.766 193.805L756.452 246.597C746.319 264.185 720.558 271.802 699.392 263.237L694.041 261.102C703.239 296.556 716.284 331.115 730.078 367.622C732.435 374.048 734.857 380.478 737.343 386.915C741.137 397.102 744.953 407.276 748.793 417.439C761.796 451.972 775.223 487.669 787.714 523.158C794.971 544.249 800.78 565.811 805.099 587.694C811.259 615.593 807.953 644.749 795.704 670.56C785.889 690.688 770.274 707.416 750.868 718.591C751.157 724.772 752.285 755.068 753.209 779.97C753.8 798.968 735.511 815.033 712.186 815.763L636.106 818.119C612.892 818.815 593.588 804.03 592.994 785.075Z" fill="black" stroke="black" stroke-width="3" stroke-miterlimit="10"/>
<path d="M583.644 775.656L581.957 721.03C566.921 715.905 552.571 708.954 539.229 700.333C521.998 689.297 515.057 670.53 521.907 653.581C524.612 647.106 535.024 621.454 545.112 596.838C554.869 573.061 591.388 565.144 613.774 581.985L622.322 588.44C624.368 589.911 626.176 591.384 627.985 592.835C629.45 593.997 631.361 595.522 632.408 596.237C632.208 592.674 631.697 589.134 630.88 585.66C623.606 553.662 612.007 521.803 600.795 491.017C592.091 467.117 582.988 442.793 574.23 419.279C565.876 396.904 557.212 373.81 548.854 350.957C538.532 323.271 530.064 294.928 523.507 266.117C517.779 240.317 517.853 218.534 523.752 197.624C531.127 171.482 547.845 150.56 572.639 136.054C572.501 130.926 571.631 103.275 570.908 79.8641C570.314 60.9087 588.68 44.9585 611.938 44.2445L687.695 41.8621C710.844 41.1607 730.137 55.8148 730.845 74.7145C731.644 96.1587 732.565 120.583 732.758 125.044C737.794 126.806 751.475 134.642 764.429 142.352C780.523 151.927 786.023 169.512 777.417 184.386L747.102 237.178C736.97 254.766 711.208 262.384 690.043 253.818L684.692 251.683C693.89 287.137 706.935 321.696 720.728 358.203C723.086 364.629 725.507 371.06 727.994 377.496C731.788 387.683 735.604 397.858 739.443 408.02C752.446 442.554 765.874 478.25 778.364 513.739C785.621 534.83 791.43 556.392 795.75 578.275C801.91 606.174 798.604 635.33 786.354 661.141C776.54 681.269 760.924 697.997 741.519 709.172C741.808 715.353 742.935 745.649 743.86 770.551C744.45 789.55 726.161 805.614 702.836 806.345L626.756 808.7C603.543 809.396 584.238 794.611 583.644 775.656Z" fill="#FF90E8" stroke="black" stroke-width="3" stroke-miterlimit="10"/>
<path d="M588.423 618.365C593.565 622.239 597.844 626.063 602.839 629.102C617.583 638.198 635.234 641.345 652.213 637.906C667.299 635.082 675.809 626.856 679.489 614.912C683.334 602.548 682.498 590.163 679.687 577.81C672.065 544.265 660.27 511.631 648.406 479.034C631.367 432.262 613.465 385.701 596.381 338.947C586.597 312.661 578.554 285.759 572.302 258.418C568.433 241.033 567.168 223.626 572.062 206.211C577.894 185.577 592.375 170.454 616.462 161.851C624.371 159.039 623.05 160.859 622.778 153.942C622.176 132.211 621.453 110.361 620.77 88.5578L620.652 84.4936L681.125 82.62C681.167 83.946 681.189 85.2487 681.234 86.5317C682.262 108.884 683.312 131.216 684.232 153.559C684.312 155.734 685.352 156.275 687.794 156.63C706.373 159.257 718.852 163.545 730.428 171.141C722.058 185.774 713.641 200.469 705.454 214.728C698.419 211.976 691.843 208.654 684.758 206.505C674.715 203.543 664.039 203.484 653.963 206.333C641.999 209.676 636.076 217.033 633.704 226.809C630.971 238.052 633.144 248.964 635.946 259.864C647.307 303.997 664.395 346.784 680.489 389.791C697.381 434.947 714.669 480.027 730.652 525.41C737.387 544.978 742.774 564.984 746.776 585.288C751.023 605.956 749.624 626.719 740.093 646.72C731.763 664.263 716.835 676.682 695.784 684.236C691.962 685.61 690.642 687.148 690.914 690.661C692.157 713.551 693.08 736.372 694.076 759.372C694.156 761.546 694.203 763.588 694.271 765.892L633.126 767.775L630.844 690.812C622.594 688.848 614.593 687.295 606.889 685.029C593.926 681.201 581.588 675.51 570.263 668.133C569.872 667.86 569.562 667.485 569.369 667.048C569.176 666.612 569.106 666.131 569.167 665.657C575.364 650.041 581.818 634.468 588.423 618.365Z" fill="#FF90E8" stroke="black" stroke-width="3" stroke-miterlimit="10"/>
<path d="M535.324 169.628C499.787 160.103 467.825 175.142 443.482 198.602C425.44 215.99 409.22 239.919 394.686 268.707L374.457 263.285C366.988 261.283 359.311 265.715 357.309 273.183L323.939 397.683C321.937 405.152 326.369 412.829 333.837 414.831L342.409 417.128C325.41 484.38 316.796 544.506 319.53 591.858C322.302 639.878 338.664 692.947 391.276 707.049C416.244 713.741 439.827 707.592 459.403 693.902C477.804 681.034 492.832 661.575 505.444 639.564C530.751 595.402 552.283 530.289 570.43 450.203L575.193 429.182C576.855 421.849 572.427 414.512 565.164 412.565L536.166 404.793L543.497 377.444L564.38 383.042C571.598 384.977 579.064 380.901 581.34 373.783L587.848 353.428C592.308 339.478 600.366 309.859 601.942 280.895L601.95 280.762L601.956 280.629C602.95 259.522 600.68 236.407 590.893 215.946C580.452 194.117 562.004 176.78 535.324 169.628Z" fill="black" stroke="black" stroke-width="3" stroke-miterlimit="10"/>
<path d="M525.975 160.21C490.438 150.684 458.475 165.723 434.133 189.184C416.091 206.571 399.871 230.5 385.337 259.288L365.107 253.866C357.639 251.864 349.962 256.296 347.96 263.764L314.59 388.265C312.588 395.733 317.019 403.41 324.488 405.412L333.06 407.71C316.061 474.961 307.446 535.087 310.18 582.439C312.953 630.459 329.315 683.528 381.927 697.63C406.895 704.322 430.477 698.174 450.054 684.483C468.454 671.615 483.482 652.156 496.095 630.146C521.402 585.983 542.933 520.87 561.081 440.784L565.844 419.763C567.506 412.43 563.078 405.093 555.815 403.147L526.817 395.374L534.147 368.025L555.031 373.623C562.249 375.558 569.714 371.482 571.99 364.364L578.499 344.009C582.959 330.059 591.016 300.441 592.593 271.476L592.6 271.343L592.607 271.21C593.601 250.104 591.331 226.988 581.544 206.527C571.103 184.698 552.655 167.361 525.975 160.21Z" fill="#23A094" stroke="black" stroke-width="3" stroke-miterlimit="10"/>
<path d="M483.331 420.132C452.376 555.154 416.328 628.604 396.179 623.204C378.473 618.458 377.592 543.617 413.268 410.515C415.068 403.798 416.868 397.082 418.505 390.977C446.59 398.505 454.487 401.151 462.872 404.052L471.545 371.693C462.834 370.012 455.384 368.14 427.908 360.776C430.319 354.223 432.119 347.507 434.366 341.565C461.231 348.766 468.7 351.48 476.474 354.218L485.148 321.859C477.047 320.342 471.245 318.729 445.602 311.855C470.515 253.091 492.696 228.932 503.686 231.878C507.75 231.963 516.625 235.707 514.158 254.678C512.345 271.208 508.166 291.683 502.765 311.832L541.23 322.142C545.278 309.484 552.315 283.23 553.649 258.719C555.323 223.174 545.287 203.792 513.997 193.413C476.142 183.266 436.556 221.083 402.699 301.01C390.041 296.963 379.661 294.181 374.777 292.872L366.431 324.01C370.704 325.156 380.027 327 391.627 330.11C389.38 336.052 386.969 342.604 384.395 349.767C374.179 346.374 365.631 344.083 361.357 342.938L353.011 374.076C356.674 375.058 365.386 376.739 375.155 379.357C373.518 385.463 371.718 392.179 369.918 398.895C331.132 543.598 333.241 645.599 388.803 660.492C440.7 674.402 487.228 588.71 523.018 430.77L483.331 420.132Z" fill="#23A094" stroke="black" stroke-width="3" stroke-miterlimit="10"/>
<path fill-rule="evenodd" clip-rule="evenodd" d="M152.375 70.254C151.714 63.4571 156.054 57.1751 162.644 55.3875L254.414 30.4962C263.365 28.0686 272.159 34.8566 272.079 44.13L271.809 75.1099C271.34 128.946 271.852 179.368 272.564 224.049L286.358 217.873C293.974 214.463 302.862 218.43 305.41 226.376L354.077 378.155C356.606 386.043 351.772 394.389 343.672 396.121L318.296 401.546C318.291 401.547 318.263 401.553 318.21 401.565C318.148 401.58 318.06 401.6 317.945 401.628C317.71 401.685 317.397 401.764 316.996 401.869C316.187 402.082 315.152 402.367 313.875 402.733C313.543 402.828 313.2 402.927 312.846 403.03C334.436 469.839 356.449 536.634 364.486 559.869L372.339 582.574C374.907 589.998 370.864 598.083 363.383 600.481L273.055 629.444C265.449 631.883 257.348 627.474 255.265 619.763L248.85 596.013C242.714 573.297 221.431 506.35 199.853 438.964C199.707 439.017 199.564 439.069 199.424 439.12C197.825 439.706 197.115 440.018 197.007 440.061L172.484 453.146C164.778 457.258 155.229 453.386 152.562 445.069L103.445 291.886C100.944 284.086 105.644 275.815 113.624 273.971L129.992 270.188C101.654 229.365 69.4147 183.283 44.1931 147.539L26.5668 122.56C21.263 115.043 24.5263 104.541 33.1561 101.355L123.718 67.9132C130.088 65.5609 137.228 68.1191 140.654 73.9816L150.591 90.9822C152.019 93.4254 153.531 95.9953 155.115 98.6769C154.84 95.6882 154.566 92.7921 154.295 89.9986L152.375 70.254Z" fill="black" stroke="black" stroke-width="3" stroke-miterlimit="10"/>
<path fill-rule="evenodd" clip-rule="evenodd" d="M143.026 60.8351C142.365 54.0382 146.704 47.7563 153.295 45.9686L245.065 21.0774C254.015 18.6497 262.81 25.4377 262.729 34.7111L262.459 65.691C261.99 119.528 262.502 169.949 263.214 214.63L277.009 208.454C284.624 205.044 293.513 209.011 296.061 216.957L344.728 368.737C347.257 376.624 342.423 384.97 334.323 386.702L308.947 392.127C308.942 392.128 308.913 392.134 308.86 392.146C308.798 392.161 308.711 392.181 308.595 392.209C308.361 392.266 308.047 392.345 307.647 392.45C306.837 392.663 305.803 392.948 304.525 393.314C304.193 393.409 303.851 393.509 303.497 393.611C325.087 460.42 347.1 527.215 355.136 550.451L362.99 573.155C365.558 580.58 361.515 588.664 354.033 591.063L263.706 620.025C256.1 622.464 247.998 618.055 245.916 610.344L239.501 586.594C233.365 563.878 212.082 496.932 190.503 429.545C190.358 429.598 190.215 429.65 190.075 429.701C188.476 430.287 187.766 430.599 187.658 430.642L163.135 443.727C155.429 447.839 145.88 443.967 143.213 435.65L94.096 282.467C91.5951 274.667 96.2945 266.396 104.275 264.552L120.643 260.769C92.3046 219.946 60.0653 173.864 34.8437 138.12L17.2175 113.141C11.9136 105.624 15.177 95.1226 23.8067 91.9359L114.369 58.4943C120.739 56.142 127.878 58.7002 131.305 64.5627L141.242 81.5633C142.67 84.0065 144.181 86.5764 145.765 89.2581C145.49 86.2693 145.217 83.3732 144.945 80.5797L143.026 60.8351Z" fill="#FFC900" stroke="black" stroke-width="3" stroke-miterlimit="10"/>
<path d="M181.455 77.6648C185.436 118.606 190.172 186.042 194.873 238.01L190.407 239.442C165.06 195.501 129.903 138.523 108.083 101.191L64.6728 117.221C99.4931 166.568 147.649 235.561 180.58 283.403C160.801 289.745 144.646 294.221 136.785 296.038L149.673 336.233C156.921 332.502 173.714 327.821 193.493 321.479C196.585 328.931 199.04 336.587 201.7 344.882C181.283 351.428 164.695 356.747 156.629 357.926L169.517 398.122C176.127 394.595 193.558 389.71 213.975 383.163C238.728 460.364 267.369 549.687 274.89 577.532L318.914 563.416C309.274 535.547 280.2 447.067 255.446 369.866C275.863 363.319 293.728 357.591 300.312 356.183L287.424 315.988C281.248 318.672 263.384 324.4 243.171 331.584C240.512 323.29 238.057 315.634 235.602 307.977C256.019 301.431 273.884 295.703 280.468 294.295L267.58 254.099C262.042 256.579 244.816 262.102 225.88 268.878C224.826 212.926 223.509 142.986 224.179 66.0767L181.455 77.6648Z" fill="#FFC900" stroke="black" stroke-width="3" stroke-miterlimit="10"/>
</svg>
