<svg width="153" height="222" viewBox="0 0 153 222" fill="none" xmlns="http://www.w3.org/2000/svg">
<path d="M79.1746 53.1716L52.4814 111.846L52.1659 111.701L1 88.4305L40.7854 1L63.5079 11.3346C71.1272 14.8113 77.0558 21.1687 79.9929 29.0121C82.93 36.8554 82.6357 45.544 79.1746 53.1716Z" fill="white"/>
<path d="M78.6212 25.6282L144.39 121.469C148.088 126.855 150.33 133.106 150.899 139.615C151.468 146.124 150.344 152.669 147.636 158.616L119.471 220.584L22.9805 176.68L79.1679 53.1649C81.1446 48.8299 82.1131 44.1035 82.0006 39.3407C81.888 34.5779 80.6973 29.9028 78.518 25.6667L78.6212 25.6282ZM57.9405 177.544L60.1179 172.687C58.3108 171.969 53.0426 169.69 49.267 167.997C54.6252 166.981 58.5516 159.478 63.2889 145.851C64.2372 143.417 64.9724 141.229 65.7355 139.169C68.3536 140.347 70.631 141.462 71.4921 141.836L73.6089 137.09C71.5259 136.385 69.4856 135.559 67.4986 134.616C72.6619 121.464 74.5849 120.48 76.7459 121.448C77.2304 121.674 77.6594 122.004 78.0027 122.415C78.346 122.825 78.5952 123.305 78.7329 123.822L82.4551 121.515C82.1045 120.419 81.5333 119.407 80.7768 118.541C80.0202 117.675 79.0943 116.973 78.0561 116.478C72.968 114.193 69.1688 116.469 62.8676 132.542C61.33 131.848 60.2101 131.249 59.6636 131.007L57.5885 135.639C58.1283 135.874 59.4726 136.389 61.0872 137.115C60.3122 139.269 59.4831 141.538 58.6162 144.066C53.274 159.261 50.0212 164.848 44.6244 165.936L42.582 170.677C44.7409 171.526 55.8949 176.537 57.9405 177.544Z" fill="white"/>
<path d="M60.1192 172.687L57.9418 177.543C55.8962 176.537 44.7223 171.509 42.6006 170.657L44.643 165.916C50.0628 164.802 53.2926 159.241 58.6348 144.046C59.4786 141.545 60.3307 139.248 61.1058 137.095C59.4912 136.369 58.1469 135.854 57.6071 135.618L59.6822 130.987C60.2286 131.228 61.3485 131.828 62.8861 132.522C69.1874 116.449 72.9866 114.173 78.0746 116.458C79.1129 116.953 80.0388 117.655 80.7953 118.521C81.5519 119.387 82.1231 120.399 82.4737 121.494L78.7515 123.802C78.6138 123.285 78.3645 122.804 78.0213 122.394C77.678 121.984 77.249 121.654 76.7645 121.427C74.6034 120.46 72.6804 121.444 67.5171 134.596C69.5042 135.538 71.5444 136.364 73.6275 137.07L71.4819 141.849C70.6456 141.473 68.3779 140.32 65.7252 139.182C64.9821 141.259 64.2004 143.407 63.2787 145.864C58.5414 159.491 54.615 166.994 49.2567 168.01C53.0439 169.69 58.3121 171.968 60.1192 172.687Z" fill="black"/>
<path d="M52.1659 111.701L1 88.4305L40.7854 1L63.5079 11.3346C71.1272 14.8113 77.0558 21.1687 79.9929 29.0121C82.93 36.8554 82.6357 45.544 79.1746 53.1716L22.9873 176.686L119.457 220.574L147.623 158.605C150.331 152.659 151.455 146.113 150.886 139.604C150.317 133.096 148.075 126.845 144.377 121.459L78.6412 25.6465" stroke="black" stroke-width="2" stroke-linecap="round" stroke-linejoin="round"/>
<path d="M78.0727 116.459C72.9846 114.174 69.1854 116.449 62.8842 132.522C61.3466 131.828 60.2267 131.229 59.6802 130.988L57.6051 135.619C58.145 135.855 59.4892 136.369 61.1038 137.095C60.3288 139.249 59.4997 141.519 58.6328 144.047C53.2906 159.242 50.0378 164.829 44.641 165.916L42.5986 170.658C44.7204 171.509 55.8943 176.537 57.9398 177.544L60.1173 172.687C58.3102 171.969 53.042 169.691 49.2663 167.997C54.6245 166.981 58.5509 159.478 63.2883 145.851C64.2365 143.418 64.9718 141.229 65.7348 139.17C68.353 140.347 70.6304 141.462 71.4914 141.837L73.6082 137.09C71.5252 136.385 69.485 135.559 67.4979 134.617C72.6612 121.464 74.5842 120.481 76.7453 121.448C77.2298 121.674 77.6588 122.005 78.002 122.415C78.3453 122.825 78.5945 123.306 78.7322 123.822L82.4544 121.515C82.1082 120.418 81.5407 119.403 80.7871 118.533C80.0335 117.663 79.1097 116.957 78.0727 116.459Z" stroke="black" stroke-width="2" stroke-linecap="round" stroke-linejoin="round"/>
<path d="M80.6367 86.6894L137.234 112.426" stroke="black" stroke-width="2" stroke-linecap="round" stroke-linejoin="round"/>
<path d="M89.9512 66.2164L111.998 76.2441" stroke="black" stroke-width="2" stroke-linecap="round" stroke-linejoin="round"/>
</svg>
