<svg width="618" height="555" viewBox="0 0 618 555" fill="none" xmlns="http://www.w3.org/2000/svg">
<rect x="34" y="9" width="340.5" height="318.66" rx="19" fill="black" stroke="black" stroke-width="2"/>
<rect x="204" y="206" width="341" height="348" rx="19" fill="black" stroke="black" stroke-width="2"/>
<rect x="26.0781" y="1" width="340.5" height="318.66" rx="19" fill="#F4F4F0" stroke="black" stroke-width="2"/>
<path d="M69.9604 27.3621L83.0284 50.2581H88.7524V25.0581H85.4404V47.9541L72.3364 25.0581H66.6484V50.2581H69.9604V27.3621Z" fill="black"/>
<path d="M92.9192 45.3981C92.9192 46.9821 93.4592 48.2421 94.5392 49.2141C95.6552 50.1501 96.9872 50.6181 98.5712 50.6181C101.307 50.6181 103.575 49.3941 104.439 47.5581V50.2581H107.427V39.5661C107.427 35.3541 104.799 32.8341 100.155 32.8341C96.1592 32.8341 93.4952 34.9221 92.8112 38.1981L95.6192 38.9901C96.0512 36.7941 97.7072 35.4621 100.155 35.4621C102.711 35.4621 104.439 36.8301 104.439 39.3141V41.0781L102.891 40.6461C101.739 40.2861 100.515 40.1061 99.2552 40.1061C95.5472 40.1061 92.9192 41.9061 92.9192 45.3981ZM104.439 43.8861C104.439 46.3701 102.459 47.8821 99.6152 47.8821C97.3472 47.8821 96.1232 46.8021 96.1232 45.2181C96.1232 43.4541 97.4912 42.5181 99.6872 42.5181C100.587 42.5181 101.667 42.6981 102.855 43.0581L104.439 43.5261V43.8861Z" fill="black"/>
<path d="M112.239 33.1941V50.2581H115.335V39.8181C115.335 37.0461 116.774 35.6421 118.646 35.6421C120.519 35.6421 121.779 36.8661 121.779 39.2061V50.2581H124.91V39.6381C124.91 37.0101 126.386 35.6421 128.258 35.6421C130.094 35.6421 131.391 36.9381 131.391 39.0621V50.2581H134.487V38.4141C134.487 34.8141 132.47 32.8341 129.302 32.8341C127.142 32.8341 125.199 34.0581 124.299 36.2181C123.722 34.0221 121.994 32.8341 119.942 32.8341C117.674 32.8341 116.163 33.9141 115.335 35.6061V33.1941H112.239Z" fill="black"/>
<path d="M151.801 44.0661C151.117 46.5141 149.497 47.8821 146.869 47.8821C143.845 47.8821 141.469 45.9021 141.433 42.1941H153.781C153.925 41.5461 153.997 40.8621 153.997 40.1061C153.997 37.8741 153.313 36.1101 151.909 34.8141C150.505 33.4821 148.669 32.8341 146.401 32.8341C141.541 32.8341 138.265 36.7221 138.265 41.6181C138.265 47.1261 141.865 50.6181 146.869 50.6181C150.793 50.6181 153.349 48.5661 154.501 45.1101L151.801 44.0661ZM141.433 39.9621C141.757 37.2621 143.737 35.5701 146.365 35.5701C148.957 35.5701 150.937 37.0101 150.937 39.4581L150.901 39.9621H141.433Z" fill="black"/>
<path d="M178.066 33.1941L172.99 44.4261L168.202 33.1941H164.818L171.334 48.0621L167.122 57.3861H170.434L181.378 33.1941H178.066Z" fill="black"/>
<path d="M182.808 41.7261C182.808 46.7661 186.3 50.6181 191.448 50.6181C196.56 50.6181 200.124 46.7661 200.124 41.7261C200.124 36.6861 196.632 32.8341 191.448 32.8341C186.3 32.8341 182.808 36.6861 182.808 41.7261ZM196.92 41.7261C196.92 45.3261 194.652 47.8101 191.448 47.8101C188.28 47.8101 185.976 45.2901 185.976 41.7261C185.976 38.1621 188.28 35.6421 191.448 35.6421C193.068 35.6421 194.364 36.2181 195.372 37.3701C196.416 38.4861 196.92 39.9621 196.92 41.7261Z" fill="black"/>
<path d="M215.556 33.1941V42.2661C215.556 45.6861 213.504 47.8821 210.804 47.8821C208.32 47.8821 206.952 46.4061 206.952 43.4181V33.1941H203.856V44.1381C203.856 48.3501 206.232 50.6181 209.976 50.6181C212.46 50.6181 214.404 49.3581 215.556 47.3781V50.2581H218.688V33.1941H215.556Z" fill="black"/>
<path d="M223.473 33.1941V50.2581H226.569V39.3861C226.569 37.0821 227.829 35.5701 229.737 35.5701C231.429 35.5701 232.473 36.5421 232.473 38.1261C232.473 38.4501 232.437 38.8821 232.365 39.3861H235.389C235.533 38.8101 235.605 38.1621 235.605 37.4781C235.605 34.8861 233.697 32.8341 230.925 32.8341C228.873 32.8341 227.325 33.8421 226.569 35.6781V33.1941H223.473Z" fill="black"/>
<path d="M248.153 33.1941V57.3861H251.249V47.5941C252.401 49.5021 254.561 50.6181 257.009 50.6181C261.653 50.6181 265.001 47.0181 265.001 41.7261C265.001 36.4341 261.833 32.8341 257.225 32.8341C254.669 32.8341 252.221 34.3461 251.105 36.3981V33.1941H248.153ZM256.505 47.8461C253.841 47.8461 251.105 45.5421 251.105 41.7621C251.105 37.9821 253.841 35.6421 256.505 35.6421C259.313 35.6421 261.905 37.8381 261.905 41.7621C261.905 45.7221 259.313 47.8461 256.505 47.8461Z" fill="black"/>
<path d="M268.789 33.1941V50.2581H271.885V39.3861C271.885 37.0821 273.145 35.5701 275.053 35.5701C276.745 35.5701 277.789 36.5421 277.789 38.1261C277.789 38.4501 277.753 38.8821 277.681 39.3861H280.705C280.849 38.8101 280.921 38.1621 280.921 37.4781C280.921 34.8861 279.013 32.8341 276.241 32.8341C274.189 32.8341 272.641 33.8421 271.885 35.6781V33.1941H268.789Z" fill="black"/>
<path d="M284.645 33.1941V50.2581H287.741V33.1941H284.645ZM284.465 30.0261H287.921V26.3901H284.465V30.0261Z" fill="black"/>
<path d="M300.403 47.8821C297.379 47.8821 294.535 45.4341 294.535 41.6181C294.535 37.6941 297.415 35.5701 300.043 35.5701C302.815 35.5701 304.615 37.1541 305.155 39.8541L307.999 38.9901C307.171 35.1021 304.219 32.8341 300.079 32.8341C295.435 32.8341 291.511 36.5061 291.511 41.6181C291.511 47.0181 295.111 50.6181 300.475 50.6181C304.759 50.6181 307.855 48.1341 308.827 43.8141L306.055 42.7701C305.371 45.9741 303.715 47.8821 300.403 47.8821Z" fill="black"/>
<path d="M324.84 44.0661C324.156 46.5141 322.536 47.8821 319.908 47.8821C316.884 47.8821 314.508 45.9021 314.472 42.1941H326.82C326.964 41.5461 327.036 40.8621 327.036 40.1061C327.036 37.8741 326.352 36.1101 324.948 34.8141C323.544 33.4821 321.708 32.8341 319.44 32.8341C314.58 32.8341 311.304 36.7221 311.304 41.6181C311.304 47.1261 314.904 50.6181 319.908 50.6181C323.832 50.6181 326.388 48.5661 327.54 45.1101L324.84 44.0661ZM314.472 39.9621C314.796 37.2621 316.776 35.5701 319.404 35.5701C321.996 35.5701 323.976 37.0101 323.976 39.4581L323.94 39.9621H314.472Z" fill="black"/>
<path d="M62.158 120.015V110.215H59.288L56.558 118.825L53.828 110.215H50.958V120.015H52.498V111.069L55.368 120.015H57.748L60.618 111.069V120.015H62.158Z" fill="black"/>
<path d="M64.1717 113.379V120.015H65.6417V113.379H64.1717ZM64.1017 112.245H65.7117V110.635H64.1017V112.245Z" fill="black"/>
<path d="M69.0143 120.015V116.319C69.0143 115.185 69.6863 114.499 70.5823 114.499C71.4223 114.499 71.9543 115.115 71.9543 116.179V120.015H73.4243V115.675C73.4243 114.163 72.4863 113.239 71.1003 113.239C70.2183 113.239 69.4763 113.575 69.0143 114.345V113.379H67.5443V120.015H69.0143Z" fill="black"/>
<path d="M75.3192 113.379V120.015H76.7892V113.379H75.3192ZM75.2492 112.245H76.8592V110.635H75.2492V112.245Z" fill="black"/>
<path d="M78.6918 113.379V120.015H80.1618V115.997C80.1618 115.059 80.6098 114.555 81.2818 114.555C81.9398 114.555 82.4018 115.031 82.4018 115.857V120.015H83.8718V115.857C83.8718 115.031 84.3338 114.555 84.9918 114.555C85.6498 114.555 86.1118 115.031 86.1118 115.857V120.015H87.5818V115.535C87.5818 114.037 86.7838 113.239 85.5518 113.239C84.7258 113.239 83.9978 113.687 83.6618 114.625C83.3958 113.687 82.7378 113.239 81.9118 113.239C81.0298 113.239 80.4558 113.645 80.1618 114.317V113.379H78.6918Z" fill="black"/>
<path d="M93.9545 113.379V116.865C93.9545 118.111 93.2685 118.895 92.2745 118.895C91.4345 118.895 90.9445 118.335 90.9445 117.285V113.379H89.4745V117.635C89.4745 119.315 90.4405 120.155 91.8965 120.155C92.7925 120.155 93.4785 119.763 93.9545 118.965V120.015H95.4245V113.379H93.9545Z" fill="black"/>
<path d="M97.3178 113.379V120.015H98.7878V115.997C98.7878 115.059 99.2358 114.555 99.9078 114.555C100.566 114.555 101.028 115.031 101.028 115.857V120.015H102.498V115.857C102.498 115.031 102.96 114.555 103.618 114.555C104.276 114.555 104.738 115.031 104.738 115.857V120.015H106.208V115.535C106.208 114.037 105.41 113.239 104.178 113.239C103.352 113.239 102.624 113.687 102.288 114.625C102.022 113.687 101.364 113.239 100.538 113.239C99.6558 113.239 99.0818 113.645 98.7878 114.317V113.379H97.3178Z" fill="black"/>
<path d="M111.303 118.125C111.303 119.399 112.395 120.155 113.487 120.155C114.663 120.155 115.419 119.637 115.713 118.895V120.015H117.113V115.885C117.113 114.205 116.063 113.239 114.173 113.239C112.549 113.239 111.527 114.093 111.233 115.395L112.563 115.745C112.717 114.947 113.291 114.429 114.173 114.429C115.055 114.429 115.713 114.933 115.713 115.815V116.305L115.013 116.137C114.635 116.039 114.243 115.997 113.837 115.997C112.367 115.997 111.303 116.683 111.303 118.125ZM115.713 117.495C115.713 118.377 115.041 118.895 114.075 118.895C113.235 118.895 112.843 118.503 112.843 117.985C112.843 117.383 113.333 117.103 114.075 117.103C114.341 117.103 114.705 117.159 115.181 117.285L115.713 117.425V117.495Z" fill="black"/>
<path d="M119.016 113.379V120.015H120.486V115.997C120.486 115.059 120.934 114.555 121.606 114.555C122.264 114.555 122.726 115.031 122.726 115.857V120.015H124.196V115.857C124.196 115.031 124.658 114.555 125.316 114.555C125.974 114.555 126.436 115.031 126.436 115.857V120.015H127.906V115.535C127.906 114.037 127.108 113.239 125.876 113.239C125.05 113.239 124.322 113.687 123.986 114.625C123.72 113.687 123.062 113.239 122.236 113.239C121.354 113.239 120.78 113.645 120.486 114.317V113.379H119.016Z" fill="black"/>
<path d="M129.406 116.697C129.406 118.657 130.82 120.155 132.822 120.155C134.824 120.155 136.238 118.657 136.238 116.697C136.238 114.737 134.824 113.239 132.822 113.239C130.82 113.239 129.406 114.737 129.406 116.697ZM134.768 116.697C134.768 117.943 133.942 118.825 132.822 118.825C131.702 118.825 130.876 117.943 130.876 116.697C130.876 115.451 131.702 114.569 132.822 114.569C133.942 114.569 134.768 115.451 134.768 116.697Z" fill="black"/>
<path d="M142.217 113.379V116.865C142.217 118.111 141.531 118.895 140.537 118.895C139.697 118.895 139.207 118.335 139.207 117.285V113.379H137.737V117.635C137.737 119.315 138.703 120.155 140.159 120.155C141.055 120.155 141.741 119.763 142.217 118.965V120.015H143.687V113.379H142.217Z" fill="black"/>
<path d="M147.051 120.015V116.319C147.051 115.185 147.723 114.499 148.619 114.499C149.459 114.499 149.991 115.115 149.991 116.179V120.015H151.461V115.675C151.461 114.163 150.523 113.239 149.137 113.239C148.255 113.239 147.513 113.575 147.051 114.345V113.379H145.581V120.015H147.051Z" fill="black"/>
<path d="M153.933 117.915C153.933 119.301 154.745 120.155 156.313 120.155C157.587 120.155 158.427 119.385 158.553 118.055L157.153 117.775C157.097 118.545 156.803 118.895 156.243 118.895C155.781 118.895 155.403 118.587 155.403 117.985V114.639H157.923V113.379H155.403V111.265H153.933V113.379H152.603V114.639H153.933V117.915Z" fill="black"/>
<rect x="50.9502" y="132.498" width="290.755" height="44.9997" rx="3" fill="white" stroke="black" stroke-width="2"/>
<path d="M96.3076 154.398C96.3076 157.902 98.0676 160.158 100.788 160.158C103.524 160.158 105.284 157.902 105.284 154.398C105.284 150.894 103.524 148.638 100.788 148.638C98.0676 148.638 96.3076 150.894 96.3076 154.398ZM103.892 154.398C103.892 155.726 103.62 156.798 103.076 157.646C102.548 158.494 101.78 158.91 100.788 158.91C99.8116 158.91 99.0436 158.494 98.4996 157.646C97.9556 156.798 97.6836 155.726 97.6836 154.398C97.6836 153.07 97.9556 151.998 98.4996 151.15C99.0436 150.302 99.8116 149.886 100.788 149.886C101.78 149.886 102.548 150.302 103.076 151.15C103.62 151.998 103.892 153.07 103.892 154.398Z" fill="black"/>
<path d="M106.973 158.318V159.998H108.637V158.318H106.973Z" fill="black"/>
<path d="M110.354 154.398C110.354 157.902 112.114 160.158 114.834 160.158C117.57 160.158 119.33 157.902 119.33 154.398C119.33 150.894 117.57 148.638 114.834 148.638C112.114 148.638 110.354 150.894 110.354 154.398ZM117.938 154.398C117.938 155.726 117.666 156.798 117.122 157.646C116.594 158.494 115.826 158.91 114.834 158.91C113.858 158.91 113.09 158.494 112.546 157.646C112.002 156.798 111.73 155.726 111.73 154.398C111.73 153.07 112.002 151.998 112.546 151.15C113.09 150.302 113.858 149.886 114.834 149.886C115.826 149.886 116.594 150.302 117.122 151.15C117.666 151.998 117.938 153.07 117.938 154.398Z" fill="black"/>
<path d="M120.62 154.398C120.62 157.902 122.38 160.158 125.1 160.158C127.836 160.158 129.596 157.902 129.596 154.398C129.596 150.894 127.836 148.638 125.1 148.638C122.38 148.638 120.62 150.894 120.62 154.398ZM128.204 154.398C128.204 155.726 127.932 156.798 127.388 157.646C126.86 158.494 126.092 158.91 125.1 158.91C124.124 158.91 123.356 158.494 122.812 157.646C122.268 156.798 121.996 155.726 121.996 154.398C121.996 153.07 122.268 151.998 122.812 151.15C123.356 150.302 124.124 149.886 125.1 149.886C126.092 149.886 126.86 150.302 127.388 151.15C127.932 151.998 128.204 153.07 128.204 154.398Z" fill="black"/>
<circle cx="73.7403" cy="154.998" r="14.336" fill="white" stroke="black" stroke-width="2"/>
<path d="M74.6698 160.11C75.5938 160.012 76.3358 159.718 76.8958 159.2C77.4698 158.682 77.7498 158.024 77.7498 157.24C77.7498 155.798 76.7978 154.916 74.6698 154.51V151.318C75.4818 151.528 76.0278 152.088 76.2938 152.998L77.4278 152.382C76.9798 151.108 75.9718 150.324 74.6698 150.114V148.826H73.5078V150.086C71.8138 150.254 70.7078 151.388 70.7078 152.662C70.7078 154.104 71.6458 155.056 73.5078 155.49V158.906C72.2898 158.696 71.4778 157.898 71.0718 156.484L69.9238 157.114C70.4838 158.92 71.8698 159.886 73.5078 160.096V161.37H74.6698V160.11ZM73.5078 154.258C72.4858 153.936 71.9538 153.474 71.9538 152.648C71.9538 151.906 72.5558 151.36 73.5078 151.262V154.258ZM76.5038 157.352C76.5038 158.192 75.8318 158.808 74.6698 158.934V155.728C76.0138 156.05 76.5038 156.526 76.5038 157.352Z" fill="black"/>
<path d="M54.3461 193.741C55.5641 193.741 56.3201 194.371 56.5861 195.491L58.0561 194.651C57.5101 193.139 56.1241 192.271 54.4861 192.271C52.4421 192.271 51.0561 193.503 51.0561 194.945C51.0561 196.667 52.3021 197.549 54.5561 197.941C56.2361 198.221 56.8661 198.697 56.8661 199.481C56.8661 200.307 55.9981 200.881 54.6681 200.881C53.1561 200.881 52.1061 200.013 51.7561 198.431L50.2861 199.341C50.6361 200.447 51.2101 201.217 52.0221 201.679C52.8481 202.127 53.7161 202.351 54.6541 202.351C56.9221 202.351 58.4761 201.091 58.4761 199.411C58.4761 197.843 57.3561 196.975 55.1021 196.541C53.5901 196.247 52.5961 195.827 52.5961 194.931C52.5961 194.259 53.2821 193.741 54.3461 193.741Z" fill="black"/>
<path d="M64.4136 195.575V199.061C64.4136 200.307 63.7276 201.091 62.7336 201.091C61.8936 201.091 61.4036 200.531 61.4036 199.481V195.575H59.9336V199.831C59.9336 201.511 60.8996 202.351 62.3556 202.351C63.2516 202.351 63.9376 201.959 64.4136 201.161V202.211H65.8836V195.575H64.4136Z" fill="black"/>
<path d="M67.7348 203.051C68.1968 204.437 69.2468 205.123 70.8848 205.123C71.9068 205.123 72.7048 204.801 73.2648 204.171C73.8248 203.541 74.1048 202.701 74.1048 201.651V195.575H72.6348V196.471C72.1868 195.799 71.5428 195.435 70.5348 195.435C68.7848 195.435 67.3848 196.849 67.3848 198.921C67.3848 200.909 68.7148 202.211 70.3948 202.211C71.4728 202.211 72.2848 201.749 72.6348 201.021V201.721C72.6348 203.051 72.1028 203.863 70.8848 203.863C69.9468 203.863 69.2748 203.387 69.0648 202.491L67.7348 203.051ZM72.6908 198.837C72.6908 199.453 72.5088 199.957 72.1448 200.363C71.7808 200.755 71.3188 200.951 70.7728 200.951C69.6668 200.951 68.8548 200.167 68.8548 198.921C68.8548 197.563 69.6668 196.695 70.7728 196.695C71.8648 196.695 72.6908 197.591 72.6908 198.837Z" fill="black"/>
<path d="M75.9609 203.051C76.4229 204.437 77.4729 205.123 79.1109 205.123C80.1329 205.123 80.9309 204.801 81.4909 204.171C82.0509 203.541 82.3309 202.701 82.3309 201.651V195.575H80.8609V196.471C80.4129 195.799 79.7689 195.435 78.7609 195.435C77.0109 195.435 75.6109 196.849 75.6109 198.921C75.6109 200.909 76.9409 202.211 78.6209 202.211C79.6989 202.211 80.5109 201.749 80.8609 201.021V201.721C80.8609 203.051 80.3289 203.863 79.1109 203.863C78.1729 203.863 77.5009 203.387 77.2909 202.491L75.9609 203.051ZM80.9169 198.837C80.9169 199.453 80.7349 199.957 80.3709 200.363C80.0069 200.755 79.5449 200.951 78.9989 200.951C77.8929 200.951 77.0809 200.167 77.0809 198.921C77.0809 197.563 77.8929 196.695 78.9989 196.695C80.0909 196.695 80.9169 197.591 80.9169 198.837Z" fill="black"/>
<path d="M89.087 199.691C88.877 200.601 88.247 201.091 87.295 201.091C86.763 201.091 86.301 200.923 85.895 200.601C85.503 200.265 85.307 199.775 85.307 199.131H89.997C90.039 198.879 90.067 198.627 90.067 198.361C90.067 196.555 88.807 195.435 87.071 195.435C85.125 195.435 83.837 196.947 83.837 198.851C83.837 200.993 85.237 202.351 87.281 202.351C88.849 202.351 89.885 201.567 90.347 200.181L89.087 199.691ZM85.307 198.151C85.433 197.255 86.147 196.695 87.057 196.695C87.953 196.695 88.611 197.199 88.611 198.025L88.597 198.151H85.307Z" fill="black"/>
<path d="M91.2815 200.531C91.7295 201.651 92.7375 202.351 94.2635 202.351C95.7755 202.351 96.9655 201.483 96.9655 200.251C96.9655 199.117 96.2935 198.445 94.6555 198.207C93.3815 198.025 92.9755 197.843 92.9755 197.339C92.9755 196.933 93.4795 196.611 94.1375 196.611C94.8095 196.611 95.2435 196.905 95.4395 197.493L96.5595 196.877C96.1255 195.967 95.4115 195.435 94.1235 195.435C92.7795 195.435 91.6455 196.205 91.6455 197.311C91.6455 198.417 92.4575 199.019 93.9275 199.257C95.2155 199.467 95.5655 199.719 95.5655 200.321C95.5655 200.769 95.1035 201.091 94.3195 201.091C93.4095 201.091 92.8215 200.727 92.4715 199.901L91.2815 200.531Z" fill="black"/>
<path d="M99.03 200.111C99.03 201.497 99.842 202.351 101.41 202.351C102.684 202.351 103.524 201.581 103.65 200.251L102.25 199.971C102.194 200.741 101.9 201.091 101.34 201.091C100.878 201.091 100.5 200.783 100.5 200.181V196.835H103.02V195.575H100.5V193.461H99.03V195.575H97.7V196.835H99.03V200.111Z" fill="black"/>
<path d="M109.623 199.691C109.413 200.601 108.783 201.091 107.831 201.091C107.299 201.091 106.837 200.923 106.431 200.601C106.039 200.265 105.843 199.775 105.843 199.131H110.533C110.575 198.879 110.603 198.627 110.603 198.361C110.603 196.555 109.343 195.435 107.607 195.435C105.661 195.435 104.373 196.947 104.373 198.851C104.373 200.993 105.773 202.351 107.817 202.351C109.385 202.351 110.421 201.567 110.883 200.181L109.623 199.691ZM105.843 198.151C105.969 197.255 106.683 196.695 107.593 196.695C108.489 196.695 109.147 197.199 109.147 198.025L109.133 198.151H105.843Z" fill="black"/>
<path d="M111.915 198.935C111.915 200.909 113.133 202.351 114.995 202.351C115.989 202.351 116.815 201.889 117.221 201.091V202.211H118.635V192.411H117.165V196.751C116.787 195.953 116.017 195.435 114.995 195.435C113.133 195.435 111.915 196.905 111.915 198.935ZM117.221 198.935C117.221 200.237 116.311 201.049 115.303 201.049C114.757 201.049 114.309 200.853 113.931 200.475C113.567 200.083 113.385 199.565 113.385 198.935C113.385 197.661 114.253 196.765 115.303 196.765C116.311 196.765 117.221 197.633 117.221 198.935Z" fill="black"/>
<path d="M123.736 200.321C123.736 201.595 124.828 202.351 125.92 202.351C127.096 202.351 127.852 201.833 128.146 201.091V202.211H129.546V198.081C129.546 196.401 128.496 195.435 126.606 195.435C124.982 195.435 123.96 196.289 123.666 197.591L124.996 197.941C125.15 197.143 125.724 196.625 126.606 196.625C127.488 196.625 128.146 197.129 128.146 198.011V198.501L127.446 198.333C127.068 198.235 126.676 198.193 126.27 198.193C124.8 198.193 123.736 198.879 123.736 200.321ZM128.146 199.691C128.146 200.573 127.474 201.091 126.508 201.091C125.668 201.091 125.276 200.699 125.276 200.181C125.276 199.579 125.766 199.299 126.508 199.299C126.774 199.299 127.138 199.355 127.614 199.481L128.146 199.621V199.691Z" fill="black"/>
<path d="M131.448 195.575V202.211H132.918V198.193C132.918 197.255 133.366 196.751 134.038 196.751C134.696 196.751 135.158 197.227 135.158 198.053V202.211H136.628V198.053C136.628 197.227 137.09 196.751 137.748 196.751C138.406 196.751 138.868 197.227 138.868 198.053V202.211H140.338V197.731C140.338 196.233 139.54 195.435 138.308 195.435C137.482 195.435 136.754 195.883 136.418 196.821C136.152 195.883 135.494 195.435 134.668 195.435C133.786 195.435 133.212 195.841 132.918 196.513V195.575H131.448Z" fill="black"/>
<path d="M141.839 198.893C141.839 200.853 143.253 202.351 145.255 202.351C147.257 202.351 148.671 200.853 148.671 198.893C148.671 196.933 147.257 195.435 145.255 195.435C143.253 195.435 141.839 196.933 141.839 198.893ZM147.201 198.893C147.201 200.139 146.375 201.021 145.255 201.021C144.135 201.021 143.309 200.139 143.309 198.893C143.309 197.647 144.135 196.765 145.255 196.765C146.375 196.765 147.201 197.647 147.201 198.893Z" fill="black"/>
<path d="M154.65 195.575V199.061C154.65 200.307 153.964 201.091 152.97 201.091C152.13 201.091 151.64 200.531 151.64 199.481V195.575H150.17V199.831C150.17 201.511 151.136 202.351 152.592 202.351C153.488 202.351 154.174 201.959 154.65 201.161V202.211H156.12V195.575H154.65Z" fill="black"/>
<path d="M159.483 202.211V198.515C159.483 197.381 160.155 196.695 161.051 196.695C161.891 196.695 162.423 197.311 162.423 198.375V202.211H163.893V197.871C163.893 196.359 162.955 195.435 161.569 195.435C160.687 195.435 159.945 195.771 159.483 196.541V195.575H158.013V202.211H159.483Z" fill="black"/>
<path d="M166.366 200.111C166.366 201.497 167.178 202.351 168.746 202.351C170.02 202.351 170.86 201.581 170.986 200.251L169.586 199.971C169.53 200.741 169.236 201.091 168.676 201.091C168.214 201.091 167.836 200.783 167.836 200.181V196.835H170.356V195.575H167.836V193.461H166.366V195.575H165.036V196.835H166.366V200.111Z" fill="black"/>
<rect x="50.9502" y="214.695" width="290.755" height="44.9997" rx="3" fill="white" stroke="black" stroke-width="2"/>
<path d="M96.3076 236.595C96.3076 240.099 98.0676 242.355 100.788 242.355C103.524 242.355 105.284 240.099 105.284 236.595C105.284 233.091 103.524 230.835 100.788 230.835C98.0676 230.835 96.3076 233.091 96.3076 236.595ZM103.892 236.595C103.892 237.923 103.62 238.995 103.076 239.843C102.548 240.691 101.78 241.107 100.788 241.107C99.8116 241.107 99.0436 240.691 98.4996 239.843C97.9556 238.995 97.6836 237.923 97.6836 236.595C97.6836 235.267 97.9556 234.195 98.4996 233.347C99.0436 232.499 99.8116 232.083 100.788 232.083C101.78 232.083 102.548 232.499 103.076 233.347C103.62 234.195 103.892 235.267 103.892 236.595Z" fill="black"/>
<path d="M106.973 240.515V242.195H108.637V240.515H106.973Z" fill="black"/>
<path d="M110.354 236.595C110.354 240.099 112.114 242.355 114.834 242.355C117.57 242.355 119.33 240.099 119.33 236.595C119.33 233.091 117.57 230.835 114.834 230.835C112.114 230.835 110.354 233.091 110.354 236.595ZM117.938 236.595C117.938 237.923 117.666 238.995 117.122 239.843C116.594 240.691 115.826 241.107 114.834 241.107C113.858 241.107 113.09 240.691 112.546 239.843C112.002 238.995 111.73 237.923 111.73 236.595C111.73 235.267 112.002 234.195 112.546 233.347C113.09 232.499 113.858 232.083 114.834 232.083C115.826 232.083 116.594 232.499 117.122 233.347C117.666 234.195 117.938 235.267 117.938 236.595Z" fill="black"/>
<path d="M120.62 236.595C120.62 240.099 122.38 242.355 125.1 242.355C127.836 242.355 129.596 240.099 129.596 236.595C129.596 233.091 127.836 230.835 125.1 230.835C122.38 230.835 120.62 233.091 120.62 236.595ZM128.204 236.595C128.204 237.923 127.932 238.995 127.388 239.843C126.86 240.691 126.092 241.107 125.1 241.107C124.124 241.107 123.356 240.691 122.812 239.843C122.268 238.995 121.996 237.923 121.996 236.595C121.996 235.267 122.268 234.195 122.812 233.347C123.356 232.499 124.124 232.083 125.1 232.083C126.092 232.083 126.86 232.499 127.388 233.347C127.932 234.195 128.204 235.267 128.204 236.595Z" fill="black"/>
<circle cx="73.7403" cy="237.195" r="14.336" fill="white" stroke="black" stroke-width="2"/>
<path d="M74.5312 242.307C75.4552 242.209 76.1972 241.915 76.7572 241.397C77.3312 240.879 77.6112 240.221 77.6112 239.437C77.6112 237.995 76.6592 237.113 74.5312 236.707V233.515C75.3432 233.725 75.8892 234.285 76.1552 235.195L77.2892 234.579C76.8412 233.305 75.8332 232.521 74.5312 232.311V231.023H73.3692V232.283C71.6752 232.451 70.5692 233.585 70.5692 234.859C70.5692 236.301 71.5072 237.253 73.3692 237.687V241.103C72.1512 240.893 71.3392 240.095 70.9332 238.681L69.7852 239.311C70.3452 241.117 71.7312 242.083 73.3692 242.293V243.567H74.5312V242.307ZM73.3692 236.455C72.3472 236.133 71.8152 235.671 71.8152 234.845C71.8152 234.103 72.4172 233.557 73.3692 233.459V236.455ZM76.3652 239.549C76.3652 240.389 75.6932 241.005 74.5312 241.131V237.925C75.8752 238.247 76.3652 238.723 76.3652 239.549Z" fill="black"/>
<rect x="196" y="198.384" width="341" height="348" rx="19" fill="#F4F4F0" stroke="black" stroke-width="2"/>
<path d="M218.203 228.525C218.203 226.868 219.546 225.525 221.203 225.525H511.953C513.61 225.525 514.953 226.868 514.953 228.525V273.112C514.953 274.769 513.61 276.112 511.953 276.112H221.203C219.546 276.112 218.203 274.769 218.203 273.112V228.525Z" fill="white" stroke="black" stroke-width="2"/>
<path d="M218.203 297.533C218.203 295.876 219.546 294.533 221.203 294.533H511.953C513.61 294.533 514.953 295.876 514.953 297.533V342.12C514.953 343.776 513.61 345.12 511.953 345.12H221.203C219.546 345.12 218.203 343.776 218.203 342.12V297.533Z" fill="white" stroke="black" stroke-width="2"/>
<path d="M218.203 366.54C218.203 364.883 219.546 363.54 221.203 363.54H511.953C513.61 363.54 514.953 364.883 514.953 366.54V411.127C514.953 412.784 513.61 414.127 511.953 414.127H221.203C219.546 414.127 218.203 412.784 218.203 411.127V366.54Z" fill="white" stroke="black" stroke-width="2"/>
<path d="M218.203 472.384C218.203 470.728 219.546 469.384 221.203 469.384H511.953C513.61 469.384 514.953 470.728 514.953 472.384V516.971C514.953 518.628 513.61 519.971 511.953 519.971H221.203C219.546 519.971 218.203 518.628 218.203 516.971V472.384Z" fill="#FF90E8" stroke="black" stroke-width="2"/>
<path d="M439.176 237.557C439.176 237.004 439.623 236.557 440.176 236.557H497.415C498.223 236.557 498.697 237.465 498.235 238.128L489.791 250.247C489.552 250.591 489.552 251.047 489.791 251.39L498.235 263.509C498.697 264.172 498.223 265.081 497.415 265.081H440.176C439.623 265.081 439.176 264.633 439.176 264.081V237.557Z" fill="#FF90E8"/>
<path d="M439.176 306.564C439.176 306.012 439.623 305.564 440.176 305.564H497.415C498.223 305.564 498.697 306.473 498.235 307.136L489.791 319.254C489.552 319.598 489.552 320.054 489.791 320.398L498.235 332.517C498.697 333.18 498.223 334.088 497.415 334.088H440.176C439.623 334.088 439.176 333.641 439.176 333.088V306.564Z" fill="#FF90E8"/>
<path d="M439.176 375.572C439.176 375.019 439.623 374.572 440.176 374.572H497.415C498.223 374.572 498.697 375.48 498.235 376.143L489.791 388.262C489.552 388.606 489.552 389.062 489.791 389.405L498.235 401.524C498.697 402.187 498.223 403.096 497.415 403.096H440.176C439.623 403.096 439.176 402.648 439.176 402.096V375.572Z" fill="#FF90E8"/>
<path d="M249.33 257.525V240.725H245.226L239.826 255.869L234.426 240.725H230.346V257.525H232.554V241.901L238.146 257.525H241.506L247.122 241.901V257.525H249.33Z" fill="black"/>
<path d="M252.051 251.837C252.051 255.197 254.379 257.765 257.811 257.765C261.219 257.765 263.595 255.197 263.595 251.837C263.595 248.477 261.267 245.909 257.811 245.909C254.379 245.909 252.051 248.477 252.051 251.837ZM261.459 251.837C261.459 254.237 259.947 255.893 257.811 255.893C255.699 255.893 254.163 254.213 254.163 251.837C254.163 249.461 255.699 247.781 257.811 247.781C258.891 247.781 259.755 248.165 260.427 248.933C261.123 249.677 261.459 250.661 261.459 251.837Z" fill="black"/>
<path d="M268.147 257.525V251.285C268.147 249.101 269.491 247.733 271.219 247.733C272.851 247.733 273.811 248.765 273.811 250.757V257.525H275.899V250.133C275.899 247.469 274.315 245.909 271.891 245.909C270.283 245.909 268.939 246.677 268.147 247.997V246.149H266.083V257.525H268.147Z" fill="black"/>
<path d="M280.009 254.141C280.009 256.421 281.329 257.765 283.729 257.765C285.673 257.765 286.969 256.637 287.281 254.597L285.361 254.165C285.169 255.413 284.617 255.941 283.657 255.941C282.769 255.941 282.097 255.317 282.097 254.237V247.901H286.177V246.149H282.097V242.621H280.009V246.149H277.753V247.901H280.009V254.141Z" fill="black"/>
<path d="M291.467 257.525V251.645C291.467 249.293 292.907 247.685 294.731 247.685C296.459 247.685 297.443 248.693 297.443 250.637V257.525H299.531V250.157C299.531 247.565 297.971 245.909 295.475 245.909C293.627 245.909 292.115 246.917 291.467 248.549V240.725H289.403V257.525H291.467Z" fill="black"/>
<path d="M302.716 257.525H304.78V240.725H302.716V257.525Z" fill="black"/>
<path d="M315.405 246.149L312.021 253.637L308.829 246.149H306.573L310.917 256.061L308.109 262.277H310.317L317.613 246.149H315.405Z" fill="black"/>
<path d="M230.346 309.733V326.533H242.418V324.445H232.554V318.877H241.458V316.789H232.554V311.821H242.178V309.733H230.346Z" fill="black"/>
<path d="M246.068 315.157H243.884L248.42 326.533H250.94L255.5 315.157H253.292L249.692 324.517L246.068 315.157Z" fill="black"/>
<path d="M265.551 322.405C265.095 324.037 264.015 324.949 262.263 324.949C260.247 324.949 258.663 323.629 258.639 321.157H266.871C266.967 320.725 267.015 320.269 267.015 319.765C267.015 318.277 266.559 317.101 265.623 316.237C264.687 315.349 263.463 314.917 261.951 314.917C258.711 314.917 256.527 317.509 256.527 320.773C256.527 324.445 258.927 326.773 262.263 326.773C264.879 326.773 266.583 325.405 267.351 323.101L265.551 322.405ZM258.639 319.669C258.855 317.869 260.175 316.741 261.927 316.741C263.655 316.741 264.975 317.701 264.975 319.333L264.951 319.669H258.639Z" fill="black"/>
<path d="M269.763 315.157V326.533H271.827V319.285C271.827 317.749 272.667 316.741 273.939 316.741C275.067 316.741 275.763 317.389 275.763 318.445C275.763 318.661 275.739 318.949 275.691 319.285H277.707C277.803 318.901 277.851 318.469 277.851 318.013C277.851 316.285 276.579 314.917 274.731 314.917C273.363 314.917 272.331 315.589 271.827 316.813V315.157H269.763Z" fill="black"/>
<path d="M287.749 315.157L284.365 322.645L281.173 315.157H278.917L283.261 325.069L280.453 331.285H282.661L289.957 315.157H287.749Z" fill="black"/>
<path d="M297.146 318.253C297.146 323.221 299.33 326.773 303.602 326.773C306.842 326.773 309.218 324.445 309.218 321.061C309.218 318.157 307.058 315.733 303.818 315.733C301.898 315.733 300.002 316.837 299.21 318.445V318.109C299.21 313.501 301.226 311.365 303.578 311.365C305.69 311.365 306.914 312.421 307.226 314.557L309.194 313.957C308.81 311.245 306.89 309.493 303.698 309.493C299.354 309.493 297.146 313.381 297.146 318.253ZM307.154 321.253C307.154 323.365 305.666 324.829 303.554 324.829C301.37 324.829 299.81 323.365 299.81 321.181C299.81 319.093 301.466 317.605 303.41 317.605C305.594 317.605 307.154 319.045 307.154 321.253Z" fill="black"/>
<path d="M317.833 315.157V326.533H319.897V319.573C319.897 317.725 320.857 316.789 322.105 316.789C323.353 316.789 324.193 317.605 324.193 319.165V326.533H326.281V319.453C326.281 317.701 327.265 316.789 328.513 316.789C329.737 316.789 330.601 317.653 330.601 319.069V326.533H332.665V318.637C332.665 316.237 331.321 314.917 329.209 314.917C327.769 314.917 326.473 315.733 325.873 317.173C325.489 315.709 324.337 314.917 322.969 314.917C321.457 314.917 320.449 315.637 319.897 316.765V315.157H317.833Z" fill="black"/>
<path d="M335.184 320.845C335.184 324.205 337.512 326.773 340.944 326.773C344.352 326.773 346.728 324.205 346.728 320.845C346.728 317.485 344.4 314.917 340.944 314.917C337.512 314.917 335.184 317.485 335.184 320.845ZM344.592 320.845C344.592 323.245 343.08 324.901 340.944 324.901C338.832 324.901 337.296 323.221 337.296 320.845C337.296 318.469 338.832 316.789 340.944 316.789C342.024 316.789 342.888 317.173 343.56 317.941C344.256 318.685 344.592 319.669 344.592 320.845Z" fill="black"/>
<path d="M351.28 326.533V320.293C351.28 318.109 352.624 316.741 354.352 316.741C355.984 316.741 356.944 317.773 356.944 319.765V326.533H359.032V319.141C359.032 316.477 357.448 314.917 355.024 314.917C353.416 314.917 352.072 315.685 351.28 317.005V315.157H349.216V326.533H351.28Z" fill="black"/>
<path d="M363.142 323.149C363.142 325.429 364.462 326.773 366.862 326.773C368.806 326.773 370.102 325.645 370.414 323.605L368.494 323.173C368.302 324.421 367.75 324.949 366.79 324.949C365.902 324.949 365.23 324.325 365.23 323.245V316.909H369.31V315.157H365.23V311.629H363.142V315.157H360.886V316.909H363.142V323.149Z" fill="black"/>
<path d="M374.6 326.533V320.653C374.6 318.301 376.04 316.693 377.864 316.693C379.592 316.693 380.576 317.701 380.576 319.645V326.533H382.664V319.165C382.664 316.573 381.104 314.917 378.608 314.917C376.76 314.917 375.248 315.925 374.6 317.557V309.733H372.536V326.533H374.6Z" fill="black"/>
<path d="M385.032 323.557C385.704 325.501 387.456 326.773 390.024 326.773C392.592 326.773 394.584 325.285 394.584 323.173C394.584 321.277 393.264 320.149 390.6 319.789C388.368 319.477 387.552 319.045 387.552 318.061C387.552 317.173 388.512 316.597 389.76 316.597C390.984 316.597 391.872 317.173 392.256 318.325L393.864 317.437C393.168 315.829 391.896 314.917 389.76 314.917C388.584 314.917 387.6 315.205 386.808 315.805C386.04 316.381 385.656 317.125 385.656 318.037C385.656 319.837 386.952 320.917 389.568 321.301C391.872 321.613 392.568 322.213 392.568 323.293C392.568 324.277 391.632 324.949 390.12 324.949C388.392 324.949 387.384 324.277 386.736 322.669L385.032 323.557Z" fill="black"/>
<path d="M316.727 486.432C318.863 486.432 320.279 487.488 320.831 489.504L322.895 488.328C322.007 485.808 319.703 484.344 316.919 484.344C313.535 484.344 311.255 486.36 311.255 488.832C311.255 491.496 313.199 493.176 317.087 493.848C320.231 494.352 321.311 495.216 321.311 496.728C321.311 498.432 319.703 499.536 317.279 499.536C314.567 499.536 312.743 497.976 312.071 495.216L310.031 496.488C310.607 498.312 311.567 499.632 312.887 500.424C314.207 501.216 315.671 501.624 317.255 501.624C320.951 501.624 323.591 499.536 323.591 496.656C323.591 494.04 321.815 492.624 317.855 491.856C315.071 491.304 313.463 490.44 313.463 488.784C313.463 487.344 314.831 486.432 316.727 486.432Z" fill="black"/>
<path d="M333.837 490.008V496.056C333.837 498.336 332.469 499.8 330.669 499.8C329.013 499.8 328.101 498.816 328.101 496.824V490.008H326.037V497.304C326.037 500.112 327.621 501.624 330.117 501.624C331.773 501.624 333.069 500.784 333.837 499.464V501.384H335.925V490.008H333.837Z" fill="black"/>
<path d="M339.115 484.584V501.384H341.083V499.512C341.875 500.832 343.339 501.624 344.971 501.624C348.115 501.624 350.347 499.296 350.347 495.768C350.347 492.24 348.235 489.768 345.211 489.768C343.507 489.768 341.947 490.728 341.179 492.144V484.584H339.115ZM344.683 499.776C342.835 499.776 341.083 498.264 341.083 495.744C341.083 493.224 342.859 491.64 344.683 491.64C346.627 491.64 348.283 493.2 348.283 495.744C348.283 498.312 346.627 499.776 344.683 499.776Z" fill="black"/>
<path d="M352.057 498.408C352.729 500.352 354.481 501.624 357.049 501.624C359.617 501.624 361.609 500.136 361.609 498.024C361.609 496.128 360.289 495 357.625 494.64C355.393 494.328 354.577 493.896 354.577 492.912C354.577 492.024 355.537 491.448 356.785 491.448C358.009 491.448 358.897 492.024 359.281 493.176L360.889 492.288C360.193 490.68 358.921 489.768 356.785 489.768C355.609 489.768 354.625 490.056 353.833 490.656C353.065 491.232 352.681 491.976 352.681 492.888C352.681 494.688 353.977 495.768 356.593 496.152C358.897 496.464 359.593 497.064 359.593 498.144C359.593 499.128 358.657 499.8 357.145 499.8C355.417 499.8 354.409 499.128 353.761 497.52L352.057 498.408Z" fill="black"/>
<path d="M369.332 499.8C367.316 499.8 365.42 498.168 365.42 495.624C365.42 493.008 367.339 491.592 369.091 491.592C370.939 491.592 372.14 492.648 372.5 494.448L374.396 493.872C373.844 491.28 371.876 489.768 369.116 489.768C366.02 489.768 363.404 492.216 363.404 495.624C363.404 499.224 365.804 501.624 369.38 501.624C372.236 501.624 374.3 499.968 374.948 497.088L373.1 496.392C372.644 498.528 371.54 499.8 369.332 499.8Z" fill="black"/>
<path d="M377.295 490.008V501.384H379.359V494.136C379.359 492.6 380.199 491.592 381.471 491.592C382.599 491.592 383.295 492.24 383.295 493.296C383.295 493.512 383.271 493.8 383.223 494.136H385.239C385.335 493.752 385.383 493.32 385.383 492.864C385.383 491.136 384.111 489.768 382.263 489.768C380.895 489.768 379.863 490.44 379.359 491.664V490.008H377.295Z" fill="black"/>
<path d="M387.865 490.008V501.384H389.929V490.008H387.865ZM387.745 487.896H390.049V485.472H387.745V487.896Z" fill="black"/>
<path d="M393.139 484.584V501.384H395.107V499.512C395.899 500.832 397.363 501.624 398.995 501.624C402.139 501.624 404.371 499.296 404.371 495.768C404.371 492.24 402.259 489.768 399.235 489.768C397.531 489.768 395.971 490.728 395.203 492.144V484.584H393.139ZM398.707 499.776C396.859 499.776 395.107 498.264 395.107 495.744C395.107 493.224 396.883 491.64 398.707 491.64C400.651 491.64 402.307 493.2 402.307 495.744C402.307 498.312 400.651 499.776 398.707 499.776Z" fill="black"/>
<path d="M415.224 497.256C414.768 498.888 413.688 499.8 411.936 499.8C409.92 499.8 408.336 498.48 408.312 496.008H416.544C416.64 495.576 416.688 495.12 416.688 494.616C416.688 493.128 416.232 491.952 415.296 491.088C414.36 490.2 413.136 489.768 411.624 489.768C408.384 489.768 406.2 492.36 406.2 495.624C406.2 499.296 408.6 501.624 411.936 501.624C414.552 501.624 416.256 500.256 417.024 497.952L415.224 497.256ZM408.312 494.52C408.528 492.72 409.848 491.592 411.6 491.592C413.328 491.592 414.648 492.552 414.648 494.184L414.624 494.52H408.312Z" fill="black"/>
<path d="M231.497 378.74H228.857L235.481 388.628V395.54H237.689V388.628L244.337 378.74H241.817L236.585 386.684L231.497 378.74Z" fill="black"/>
<path d="M251.981 391.412C251.525 393.044 250.445 393.956 248.693 393.956C246.677 393.956 245.093 392.636 245.069 390.164H253.301C253.397 389.732 253.445 389.276 253.445 388.772C253.445 387.284 252.989 386.108 252.053 385.244C251.117 384.356 249.893 383.924 248.381 383.924C245.141 383.924 242.957 386.516 242.957 389.78C242.957 393.452 245.357 395.78 248.693 395.78C251.309 395.78 253.013 394.412 253.781 392.108L251.981 391.412ZM245.069 388.676C245.285 386.876 246.605 385.748 248.357 385.748C250.085 385.748 251.405 386.708 251.405 388.34L251.381 388.676H245.069Z" fill="black"/>
<path d="M255.758 392.3C255.758 393.356 256.118 394.196 256.838 394.844C257.582 395.468 258.47 395.78 259.526 395.78C261.35 395.78 262.862 394.964 263.438 393.74V395.54H265.43V388.412C265.43 385.604 263.678 383.924 260.582 383.924C257.918 383.924 256.142 385.316 255.686 387.5L257.558 388.028C257.846 386.564 258.95 385.676 260.582 385.676C262.286 385.676 263.438 386.588 263.438 388.244V389.42L262.406 389.132C261.638 388.892 260.822 388.772 259.982 388.772C257.51 388.772 255.758 389.972 255.758 392.3ZM263.438 391.292C263.438 392.948 262.118 393.956 260.222 393.956C258.71 393.956 257.894 393.236 257.894 392.18C257.894 391.004 258.806 390.38 260.27 390.38C260.87 390.38 261.59 390.5 262.382 390.74L263.438 391.052V391.292Z" fill="black"/>
<path d="M268.637 384.164V395.54H270.701V388.292C270.701 386.756 271.541 385.748 272.813 385.748C273.941 385.748 274.637 386.396 274.637 387.452C274.637 387.668 274.613 387.956 274.565 388.292H276.581C276.677 387.908 276.725 387.476 276.725 387.02C276.725 385.292 275.453 383.924 273.605 383.924C272.237 383.924 271.205 384.596 270.701 385.82V384.164H268.637Z" fill="black"/>
<path d="M279.208 395.54H281.272V378.74H279.208V395.54Z" fill="black"/>
<path d="M291.897 384.164L288.513 391.652L285.321 384.164H283.065L287.409 394.076L284.601 400.292H286.809L294.105 384.164H291.897Z" fill="black"/>
<path d="M455.142 255.947C456.198 255.835 457.046 255.499 457.686 254.907C458.342 254.315 458.662 253.563 458.662 252.667C458.662 251.019 457.574 250.011 455.142 249.547V245.899C456.07 246.139 456.694 246.779 456.998 247.819L458.294 247.115C457.782 245.659 456.63 244.763 455.142 244.523V243.051H453.814V244.491C451.878 244.683 450.614 245.979 450.614 247.435C450.614 249.083 451.686 250.171 453.814 250.667V254.571C452.422 254.331 451.494 253.419 451.03 251.803L449.718 252.523C450.358 254.587 451.942 255.691 453.814 255.931V257.387H455.142V255.947ZM453.814 249.259C452.646 248.891 452.038 248.363 452.038 247.419C452.038 246.571 452.726 245.947 453.814 245.835V249.259ZM457.238 252.795C457.238 253.755 456.47 254.459 455.142 254.603V250.939C456.678 251.307 457.238 251.851 457.238 252.795Z" fill="black"/>
<path d="M467.591 244.619H460.567C460.567 246.523 460.407 248.539 460.087 250.635L461.559 250.971C461.943 250.139 462.983 249.483 464.087 249.483C465.799 249.483 466.711 250.539 466.711 252.059C466.711 253.579 465.719 254.683 463.991 254.683C462.455 254.683 461.543 253.819 461.303 252.299L459.959 252.683C460.103 253.739 460.535 254.555 461.287 255.131C462.039 255.691 462.935 255.979 463.991 255.979C466.519 255.979 468.103 254.283 468.103 251.899C468.103 249.595 466.471 248.235 464.407 248.235C463.175 248.235 462.119 248.763 461.463 249.515C461.735 248.155 461.863 246.955 461.863 245.915H467.591V244.619Z" fill="black"/>
<path d="M455.142 324.954C456.198 324.842 457.046 324.506 457.686 323.914C458.342 323.322 458.662 322.57 458.662 321.674C458.662 320.026 457.574 319.018 455.142 318.554V314.906C456.07 315.146 456.694 315.786 456.998 316.826L458.294 316.122C457.782 314.666 456.63 313.77 455.142 313.53V312.058H453.814V313.498C451.878 313.69 450.614 314.986 450.614 316.442C450.614 318.09 451.686 319.178 453.814 319.674V323.578C452.422 323.338 451.494 322.426 451.03 320.81L449.718 321.53C450.358 323.594 451.942 324.698 453.814 324.938V326.394H455.142V324.954ZM453.814 318.266C452.646 317.898 452.038 317.37 452.038 316.426C452.038 315.578 452.726 314.954 453.814 314.842V318.266ZM457.238 321.802C457.238 322.762 456.47 323.466 455.142 323.61V319.946C456.678 320.314 457.238 320.858 457.238 321.802Z" fill="black"/>
<path d="M463.207 320.33C461.271 321.29 460.103 322.57 460.103 324.826H467.751V323.53H461.831C461.959 322.762 462.631 322.122 463.335 321.722C463.703 321.514 464.247 321.21 464.999 320.81C466.807 319.898 467.735 318.826 467.735 316.986C467.735 314.922 466.279 313.466 463.831 313.466C461.431 313.466 459.863 315.098 459.863 317.066C459.863 317.946 460.151 318.746 460.711 319.482L461.895 318.714C461.479 318.202 461.271 317.626 461.271 316.97C461.271 315.754 462.311 314.714 463.767 314.714C465.351 314.714 466.343 315.658 466.343 317.05C466.343 318.09 465.831 318.778 464.983 319.338C464.567 319.61 463.975 319.93 463.207 320.33Z" fill="black"/>
<path d="M476.887 313.626H469.863C469.863 315.53 469.703 317.546 469.383 319.642L470.855 319.978C471.239 319.146 472.279 318.49 473.383 318.49C475.095 318.49 476.007 319.546 476.007 321.066C476.007 322.586 475.015 323.69 473.287 323.69C471.751 323.69 470.839 322.826 470.599 321.306L469.255 321.69C469.399 322.746 469.831 323.562 470.583 324.138C471.335 324.698 472.231 324.986 473.287 324.986C475.815 324.986 477.399 323.29 477.399 320.906C477.399 318.602 475.767 317.242 473.703 317.242C472.471 317.242 471.415 317.77 470.759 318.522C471.031 317.162 471.159 315.962 471.159 314.922H476.887V313.626Z" fill="black"/>
<path d="M455.142 393.962C456.198 393.85 457.046 393.514 457.686 392.922C458.342 392.33 458.662 391.578 458.662 390.682C458.662 389.034 457.574 388.026 455.142 387.562V383.914C456.07 384.154 456.694 384.794 456.998 385.834L458.294 385.13C457.782 383.674 456.63 382.778 455.142 382.538V381.066H453.814V382.506C451.878 382.698 450.614 383.994 450.614 385.45C450.614 387.098 451.686 388.186 453.814 388.682V392.586C452.422 392.346 451.494 391.434 451.03 389.818L449.718 390.538C450.358 392.602 451.942 393.706 453.814 393.946V395.402H455.142V393.962ZM453.814 387.274C452.646 386.906 452.038 386.378 452.038 385.434C452.038 384.586 452.726 383.962 453.814 383.85V387.274ZM457.238 390.81C457.238 391.77 456.47 392.474 455.142 392.618V388.954C456.678 389.322 457.238 389.866 457.238 390.81Z" fill="black"/>
<path d="M464.839 393.834H466.231V390.97H468.135V389.722H466.231V386.09H464.839V389.722H461.271C462.151 388.842 462.743 387.914 463.079 386.906C463.415 385.898 463.591 384.714 463.591 383.354V382.634H462.199V383.354C462.167 386.234 461.799 387.546 459.799 389.514V390.97H464.839V393.834Z" fill="black"/>
<path d="M476.794 382.634H469.77C469.77 384.538 469.61 386.554 469.29 388.65L470.762 388.986C471.146 388.154 472.186 387.498 473.29 387.498C475.002 387.498 475.914 388.554 475.914 390.074C475.914 391.594 474.922 392.698 473.194 392.698C471.658 392.698 470.746 391.834 470.506 390.314L469.162 390.698C469.306 391.754 469.738 392.57 470.49 393.146C471.242 393.706 472.138 393.994 473.194 393.994C475.722 393.994 477.306 392.298 477.306 389.914C477.306 387.61 475.674 386.25 473.61 386.25C472.378 386.25 471.322 386.778 470.666 387.53C470.938 386.17 471.066 384.97 471.066 383.93H476.794V382.634Z" fill="black"/>
<path d="M398.294 108.227C397.579 105.559 399.162 102.818 401.83 102.103L562.154 59.1443C564.071 58.6306 566.11 59.2996 567.351 60.8492L601.81 103.894C602.683 104.985 603.06 106.392 602.849 107.774L594.53 162.281C594.23 164.243 592.798 165.843 590.881 166.356L430.557 209.315C427.89 210.03 425.148 208.447 424.433 205.78L398.294 108.227Z" fill="black" stroke="black" stroke-width="2" stroke-miterlimit="10"/>
<path d="M390.294 100.611C389.579 97.9438 391.162 95.2021 393.83 94.4874L554.154 51.5287C556.071 51.015 558.11 51.684 559.351 53.2336L593.81 96.2788C594.683 97.3698 595.06 98.7765 594.849 100.158L586.53 154.666C586.23 156.628 584.798 158.227 582.881 158.741L422.557 201.699C419.89 202.414 417.148 200.831 416.433 198.164L390.294 100.611Z" fill="#23A094" stroke="black" stroke-width="2" stroke-miterlimit="10"/>
<path d="M431.169 95.3689C430.244 95.6167 423.57 97.2812 422.783 97.3686C423.925 103.989 427.101 126.266 429.501 141.95C423.468 126.498 415.751 107.787 412.692 100.072C411.997 100.506 404.766 102.443 404.262 102.579C412.168 134.102 421.187 169.78 425.855 189.555L433.759 187.437C431.307 177.952 427.782 164.797 424.42 152.587C421.986 143.839 418.934 132.784 416.253 123.113L416.39 122.952C423.058 141.449 430.222 161.793 436.404 178.812C437.635 178.359 439.653 177.818 441.197 177.528C438.337 161.474 433.923 139.281 430.587 119.767L430.786 119.837C433.392 129.899 436.47 142.061 438.617 149.401C442.876 164.958 444.549 172.549 447.464 183.765L455.452 181.624C449.829 161.981 439.964 127.52 431.169 95.3689ZM473.832 165.197C470.814 166.377 467.986 167.258 465.548 167.911C461.939 154.779 458.104 140.469 454.571 126.945C457.514 126.157 460.824 125.393 462.032 125.193L459.126 114.346C458.063 114.754 454.784 115.633 451.872 116.537C450.481 111.344 449.266 106.475 447.998 101.744C449.795 101.386 451.981 100.8 455.911 99.9944L453.097 89.4932L437.121 93.774C444.865 122.001 455.007 159.852 460.312 180.322L476.708 175.929L473.832 165.197ZM485.771 80.7382C484.846 80.9861 478.173 82.6506 477.385 82.7379C478.528 89.3579 481.703 111.636 484.103 127.319C478.07 111.867 470.353 93.1562 467.295 85.4416C466.6 85.8752 459.369 87.8128 458.864 87.9479C466.77 119.471 475.789 155.149 480.457 174.924L488.361 172.806C485.91 163.321 482.385 150.166 479.023 137.956C476.589 129.209 473.536 118.153 470.855 108.482L470.992 108.322C477.661 126.819 484.824 147.162 491.007 164.182C492.237 163.728 494.255 163.188 495.8 162.898C492.94 146.843 488.525 124.65 485.189 105.136L485.388 105.206C487.994 115.269 491.073 127.43 493.22 134.771C497.478 150.327 499.152 157.918 502.067 169.134L510.055 166.994C504.431 147.351 494.566 112.889 485.771 80.7382ZM514.954 166.176C527.894 162.337 533.209 150.895 527.953 131.277C524.613 118.814 519.834 111.066 514.679 108.984L514.587 108.638C517.34 105.797 519.139 100.739 517.129 93.2382C513.45 79.5059 504.084 75.8313 491.547 78.8197C499.012 106.008 507.268 136.82 514.954 166.176ZM520.169 132.497C522.704 141.96 521.733 147.415 519.501 150.857C516.409 139.318 513.14 127.454 510.163 116.007C513.384 116.257 516.953 120.496 520.169 132.497ZM509.716 95.8429C511.231 101.497 509.902 104.946 507.565 106.314C505.927 100.198 504.35 94.3126 502.896 88.8889C506.37 89.0713 508.541 91.4578 509.716 95.8429ZM553.026 143.977C550.008 145.157 547.18 146.038 544.742 146.692C541.133 133.559 537.298 119.249 533.765 105.725C536.708 104.937 540.018 104.173 541.226 103.973L538.319 93.1261C537.257 93.5344 533.978 94.4131 531.066 95.317C529.675 90.1241 528.46 85.2549 527.192 80.5236C528.989 80.1659 531.175 79.5801 535.105 78.7745L532.291 68.2733L516.315 72.554C524.059 100.781 534.201 138.632 539.505 159.102L555.902 154.709L553.026 143.977ZM575.392 150.229L583.447 147.328C578.306 136.214 567.883 112.786 561.323 97.7226C563.577 94.0266 564.695 88.7799 562.84 81.856C559.16 68.1237 550.166 63.4836 536.788 66.6972C545.659 98.4569 555.306 134.461 560.071 153.592L568.144 151.429C565.307 141.181 560.276 122.74 555.258 103.677L555.48 103.494C563.047 120.637 571.224 139.719 575.392 150.229ZM554.967 84.0893C555.987 87.8974 554.972 91.5088 552.568 93.6371C551.053 87.9826 549.538 82.3281 548.085 76.9044C551.788 77.2726 553.699 79.3579 554.967 84.0893Z" fill="#FF90E8" stroke="black" stroke-width="2"/>
<circle cx="99.948" cy="398.948" r="78.8545" transform="rotate(-9.50773 99.948 398.948)" fill="black" stroke="black" stroke-width="2"/>
<circle cx="91.948" cy="390.332" r="78.8545" transform="rotate(-9.50773 91.948 390.332)" fill="#23A094" stroke="black" stroke-width="2"/>
<mask id="mask0_935_15238" style="mask-type:alpha" maskUnits="userSpaceOnUse" x="12" y="310" width="159" height="159">
<circle cx="91.7992" cy="389.446" r="77.9543" transform="rotate(-9.50773 91.7992 389.446)" fill="#23A094" stroke="black" stroke-width="2"/>
</mask>
<g mask="url(#mask0_935_15238)">
<path d="M128.499 381.59C122.062 377.715 117.407 371.46 115.542 364.179C113.678 356.897 114.753 349.175 118.535 342.682L51.2855 353.945C56.9768 358.851 60.5092 365.802 61.1187 373.294C61.7281 380.785 59.3656 388.215 54.5421 393.976C60.9791 397.85 65.6334 404.105 67.498 411.385C69.3627 418.666 68.2878 426.388 64.5059 432.881L131.755 421.618C126.064 416.712 122.532 409.762 121.922 402.27C121.313 394.779 123.676 387.35 128.499 381.59Z" fill="#FF90E8" stroke="black" stroke-width="2"/>
<path d="M83.7344 429.662L112.525 424.84L121.811 480.282L93.0199 485.104L83.7344 429.662Z" fill="#F1F333" stroke="black" stroke-width="2"/>
<path d="M112.819 481.788L112.985 482.775L114.957 482.444L114.792 481.458L112.819 481.788ZM106.794 433.706C106.703 433.161 106.188 432.793 105.643 432.885C105.098 432.976 104.731 433.491 104.822 434.036L106.794 433.706ZM114.792 481.458L106.794 433.706L104.822 434.036L112.819 481.788L114.792 481.458Z" fill="black"/>
<circle cx="77.997" cy="389.927" r="1.97355" transform="rotate(-9.50773 77.997 389.927)" fill="black"/>
<circle cx="105.007" cy="385.403" r="1.97323" transform="rotate(-9.50773 105.007 385.403)" fill="black"/>
<path d="M86.3184 395.864C86.9227 396.693 89.0186 398.315 92.5678 398.168C96.1171 398.02 98.3905 395.145 99.0836 393.726" stroke="black" stroke-width="2"/>
</g>
</svg>
