<svg width="181" height="170" viewBox="0 0 181 170" fill="none" xmlns="http://www.w3.org/2000/svg">
<path d="M167.969 43.5995C170.49 45.0137 172.708 46.9079 174.495 49.1739C176.283 51.4399 177.605 54.0332 178.386 56.8059C179.167 59.5786 179.392 62.4762 179.048 65.3332C178.705 68.1903 177.799 70.9508 176.382 73.4571L169.489 85.6165L131.357 63.592L137.984 51.8651C139.401 49.3575 141.301 47.1533 143.575 45.3787C145.85 43.604 148.454 42.2936 151.239 41.5224C154.025 40.7512 156.937 40.5343 159.809 40.8841C162.681 41.234 165.456 42.1436 167.977 43.5612L167.969 43.5995Z" fill="white"/>
<path d="M81.5659 129.135L82.0254 129.437L84.9425 124.055L84.416 123.883C84.1234 123.822 83.4836 123.499 82.7251 123.166L81.5206 122.622C85.5497 118.077 90.5001 112.491 96.0273 106.561L96.5871 105.95L92.2635 103.556L91.936 103.975C90.4336 105.886 88.4023 108.415 86.2515 111.095C84.7308 112.979 83.1666 114.917 81.7265 116.721C82.6033 114.105 83.5448 111.216 84.4535 108.407C85.2884 105.839 86.0703 103.412 86.6909 101.455L86.8568 100.962L82.1162 98.9933L81.9581 99.7596C80.3129 106.099 78.1412 114.367 76.5494 120.214C75.1497 119.526 74.1506 118.921 73.6569 118.667L73.1943 118.38L70.2555 123.789L70.9486 123.932C71.7235 124.226 72.4789 124.568 73.21 124.958L74.0405 125.369C73.8224 125.803 73.5874 126.242 73.3383 126.71C72.259 126.233 71.2171 125.676 70.2213 125.044L69.7652 124.687L66.789 130.16L67.4745 130.302C68.2535 130.599 69.0138 130.942 69.7513 131.331L70.5956 131.753C66.2995 139.654 61.5349 148.426 59.9345 151.124L59.5985 151.701L64.1698 153.907L64.4657 153.329C65.875 150.624 70.4721 142.041 74.9116 133.834C76.3729 134.534 77.6493 135.197 78.089 135.44L78.5501 135.735L81.4656 130.36L80.9392 130.188C80.6157 130.121 79.9698 129.788 79.1329 129.408L77.6622 128.753L78.3735 127.445C79.8343 128.226 81.1015 128.895 81.5659 129.135ZM97.1968 3.83821L167.97 43.5986C165.449 42.181 162.674 41.2714 159.802 40.9216C156.93 40.5717 154.018 40.7886 151.232 41.5598C148.447 42.331 145.842 43.6414 143.568 45.4161C141.294 47.1908 139.394 49.3949 137.977 51.9026L71.7824 168.963L1 129.209L67.2024 12.1498C68.6185 9.64133 70.5179 7.43626 72.7921 5.66068C75.0663 3.8851 77.6708 2.57384 80.4565 1.8019C83.2422 1.02997 86.1545 0.812479 89.0269 1.16188C91.8994 1.51129 94.6756 2.42074 97.1968 3.83821Z" fill="white"/>
<path d="M96.587 105.951L96.0272 106.562C90.4936 112.523 85.5496 118.078 81.5204 122.623L82.725 123.167C83.4603 123.495 84.1295 123.792 84.4159 123.883L84.9423 124.056L82.0253 129.438L81.5658 129.136C81.1324 128.862 79.8342 128.227 78.3884 127.529L77.677 128.836L79.1478 129.491C79.9846 129.872 80.6153 130.162 80.954 130.272L81.4804 130.444L78.5649 135.818L78.1039 135.524C77.672 135.243 76.3723 134.615 74.9265 133.917C70.4716 142.122 65.8436 150.698 64.4805 153.413L64.1846 153.991L59.6133 151.785L59.9493 151.207C61.5497 148.51 66.3298 139.741 70.6105 131.836L69.7661 131.415C69.0287 131.026 68.2683 130.682 67.4893 130.385L66.8039 130.244L69.78 124.77L70.2361 125.128C71.232 125.76 72.2739 126.317 73.3531 126.794C73.6022 126.326 73.8373 125.887 74.0554 125.453L73.2248 125.042C72.4937 124.652 71.7383 124.31 70.9634 124.016L70.2857 123.876L73.2245 118.467L73.6872 118.754C74.1652 119.044 75.1723 119.611 76.5796 120.301C78.1608 114.428 80.3479 106.163 81.9884 99.8466L82.1465 99.0803L86.8871 101.049L86.7211 101.542C86.062 103.491 85.2802 105.918 84.4837 108.494C83.575 111.303 82.6336 114.192 81.7567 116.808C83.1969 115.004 84.761 113.065 86.2817 111.182C88.4402 108.504 90.4638 105.973 91.9662 104.062L92.2937 103.643L96.587 105.951Z" fill="black"/>
<path d="M131.35 63.6295L169.513 85.6603L176.406 73.5009C179.269 68.4375 179.992 62.4453 178.416 56.8425C176.84 51.2396 173.093 46.4851 168.001 43.6249C162.908 40.7647 156.887 40.033 151.261 41.5909C145.636 43.1488 140.867 46.8685 138.003 51.9319L71.7824 168.963L1 129.209L67.2024 12.1498C68.6184 9.64133 70.5179 7.43626 72.7921 5.66068C75.0663 3.8851 77.6708 2.57384 80.4565 1.8019C83.2422 1.02997 86.1545 0.812478 89.0269 1.16188C91.8994 1.51129 94.6756 2.42074 97.1968 3.83821L167.97 43.5986" stroke="black" stroke-width="2" stroke-linecap="round" stroke-linejoin="round"/>
<path d="M86.6875 13.3266L119.231 31.5376" stroke="black" stroke-width="2" stroke-linecap="round" stroke-linejoin="round"/>
<path d="M74.4648 25.9842L107 44.1936" stroke="black" stroke-width="2" stroke-linecap="round" stroke-linejoin="round"/>
<path d="M57.7539 55.6447L90.2895 73.8541" stroke="black" stroke-width="2" stroke-linecap="round" stroke-linejoin="round"/>
<path d="M49.4033 70.4741L74.5189 84.5241" stroke="black" stroke-width="2" stroke-linecap="round" stroke-linejoin="round"/>
<path d="M66.1133 40.8145L107.128 63.7694" stroke="black" stroke-width="2" stroke-linecap="round" stroke-linejoin="round"/>
</svg>
