<svg width="222" height="153" viewBox="0 0 222 153" fill="none" xmlns="http://www.w3.org/2000/svg">
<path d="M53.4011 73.6389L112.076 100.332L111.93 100.648L88.66 151.814L1.22949 112.028L11.5641 89.3056C15.0408 81.6863 21.3982 75.7577 29.2416 72.8207C37.0849 69.8836 45.7735 70.1779 53.4011 73.6389Z" fill="white"/>
<path d="M25.8574 74.1924L121.698 8.42343C127.084 4.72544 133.335 2.48316 139.844 1.91434C146.353 1.34551 152.898 2.46945 158.845 5.17706L220.813 33.343L176.909 129.833L53.394 73.6457C49.0591 71.6689 44.3326 70.7004 39.5699 70.813C34.8071 70.9255 30.132 72.1162 25.8959 74.2955L25.8574 74.1924ZM177.773 94.8731L172.916 92.6956C172.198 94.5027 169.92 99.7709 168.226 103.547C167.21 98.1883 159.707 94.262 146.08 89.5246C143.647 88.5764 141.458 87.8411 139.399 87.0781C140.576 84.4599 141.691 82.1825 142.066 81.3215L137.319 79.2047C136.614 81.2877 135.788 83.3279 134.846 85.315C121.693 80.1516 120.709 78.2287 121.677 76.0676C121.903 75.5831 122.234 75.1541 122.644 74.8108C123.054 74.4676 123.534 74.2183 124.051 74.0806L121.744 70.3585C120.649 70.709 119.637 71.2802 118.77 72.0367C117.904 72.7933 117.202 73.7192 116.707 74.7575C114.423 79.8455 116.698 83.6447 132.771 89.9459C132.077 91.4835 131.478 92.6034 131.237 93.1499L135.868 95.225C136.104 94.6852 136.618 93.3409 137.344 91.7263C139.498 92.5013 141.768 93.3305 144.295 94.1973C159.491 99.5395 165.078 102.792 166.165 108.189L170.906 110.232C171.755 108.073 176.766 96.9186 177.773 94.8731Z" fill="white"/>
<path d="M172.916 92.6943L177.773 94.8718C176.766 96.9173 171.738 108.091 170.886 110.213L166.145 108.171C165.031 102.751 159.471 99.5209 144.275 94.1787C141.774 93.3349 139.478 92.4828 137.324 91.7078C136.598 93.3224 136.083 94.6666 135.848 95.2064L131.216 93.1314C131.458 92.5849 132.057 91.465 132.751 89.9274C116.678 83.6262 114.402 79.827 116.687 74.7389C117.182 73.7006 117.884 72.7748 118.75 72.0182C119.616 71.2616 120.628 70.6904 121.724 70.3399L124.031 74.0621C123.514 74.1998 123.034 74.449 122.624 74.7923C122.213 75.1355 121.883 75.5645 121.657 76.049C120.689 78.2101 121.673 80.1331 134.825 85.2964C135.768 83.3094 136.594 81.2691 137.299 79.1861L142.079 81.3317C141.702 82.168 140.549 84.4356 139.412 87.0883C141.488 87.8314 143.637 88.6131 146.093 89.5348C159.72 94.2722 167.223 98.1986 168.239 103.557C169.919 99.7696 172.198 94.5014 172.916 92.6943Z" fill="black"/>
<path d="M111.93 100.648L88.66 151.814L1.22949 112.028L11.5641 89.3056C15.0408 81.6863 21.3982 75.7577 29.2415 72.8207C37.0849 69.8836 45.7735 70.1778 53.4011 73.6389L176.916 129.826L220.803 33.3561L158.835 5.19012C152.888 2.48251 146.343 1.35861 139.834 1.92744C133.325 2.49626 127.074 4.7385 121.688 8.43649L25.876 74.1723" stroke="black" stroke-width="2" stroke-linecap="round" stroke-linejoin="round"/>
<path d="M116.688 74.7408C114.403 79.8289 116.679 83.6281 132.752 89.9293C132.058 91.467 131.459 92.5868 131.217 93.1333L135.849 95.2084C136.084 94.6686 136.599 93.3243 137.325 91.7097C139.479 92.4848 141.749 93.3139 144.276 94.1807C159.471 99.5229 165.058 102.776 166.146 108.172L170.887 110.215C171.739 108.093 176.767 96.9192 177.774 94.8737L172.917 92.6962C172.199 94.5034 169.92 99.7716 168.227 103.547C167.211 98.189 159.708 94.2626 146.081 89.5252C143.647 88.577 141.459 87.8418 139.399 87.0787C140.577 84.4606 141.692 82.1832 142.066 81.3221L137.32 79.2053C136.615 81.2883 135.789 83.3286 134.846 85.3156C121.694 80.1523 120.71 78.2293 121.677 76.0683C121.904 75.5838 122.234 75.1548 122.644 74.8115C123.055 74.4682 123.535 74.219 124.052 74.0813L121.745 70.3591C120.647 70.7053 119.632 71.2728 118.763 72.0264C117.893 72.78 117.187 73.7038 116.688 74.7408Z" stroke="black" stroke-width="2" stroke-linecap="round" stroke-linejoin="round"/>
<path d="M86.9189 72.1768L112.655 15.58" stroke="black" stroke-width="2" stroke-linecap="round" stroke-linejoin="round"/>
<path d="M66.4463 62.8624L76.474 40.8155" stroke="black" stroke-width="2" stroke-linecap="round" stroke-linejoin="round"/>
</svg>
