<svg width="148" height="145" viewBox="0 0 148 145" fill="none" xmlns="http://www.w3.org/2000/svg">
<path d="M146.143 58.6612C146.17 58.5891 146.192 58.517 146.219 58.4494C146.282 58.2826 146.34 58.1159 146.394 57.9536C146.42 57.8725 146.447 57.7868 146.47 57.7057C146.523 57.5344 146.577 57.3632 146.622 57.1874L146.675 56.9846C146.725 56.7772 146.774 56.5699 146.814 56.3626C146.812 56.3281 146.812 56.2935 146.814 56.2589C147.013 55.2199 147.089 54.161 147.042 53.104V53.0589C147.042 52.802 147.011 52.5406 146.984 52.2837C146.93 51.7625 146.847 51.2448 146.734 50.7333C146.734 50.6882 146.734 50.6476 146.702 50.6026C146.653 50.4088 146.604 50.2105 146.55 50.0212C146.55 49.949 146.51 49.8769 146.488 49.8048C146.434 49.6335 146.38 49.4623 146.322 49.291C146.322 49.2189 146.273 49.1468 146.25 49.0792C146.17 48.8628 146.089 48.6285 146 48.4347C145.999 48.4181 145.999 48.4016 146 48.3851C145.901 48.1552 145.798 47.9344 145.686 47.7045C145.66 47.6414 145.628 47.5828 145.597 47.5242L145.328 47.0194C145.309 46.9889 145.291 46.9573 145.275 46.9248L122.719 7.71332L122.692 7.66373C122.54 7.40683 122.379 7.14992 122.209 6.90203C122.173 6.84344 122.133 6.78936 122.097 6.73528C121.936 6.50541 121.775 6.28457 121.6 6.06373L121.546 5.99161C121.359 5.75724 121.162 5.54091 120.96 5.31555L120.826 5.17132C120.408 4.72029 119.959 4.29865 119.483 3.90935L119.407 3.85076C118.902 3.4493 118.368 3.08623 117.81 2.76455H117.778C117.229 2.44735 116.658 2.17165 116.069 1.93975L115.943 1.89018C115.661 1.7775 115.379 1.67835 115.084 1.58821L114.963 1.55215C114.73 1.48003 114.489 1.41694 114.247 1.35835L113.961 1.29524L113.795 1.25469C113.603 1.21413 113.41 1.18256 113.218 1.15101L113.025 1.12397C112.761 1.08341 112.497 1.05636 112.233 1.03382H112.001C111.378 0.988725 110.753 0.988725 110.13 1.03382H110.04C109.682 1.06537 109.324 1.10595 108.971 1.16455L65.4436 7.98373C65.2601 8.01077 65.0811 8.04683 64.9021 8.08288H64.7947C64.5485 8.13246 64.3024 8.19557 64.0562 8.25867L63.8146 8.33078L63.2954 8.48853L63.0493 8.57415C62.8479 8.64627 62.6465 8.72289 62.4496 8.80402L62.3198 8.8536C62.0826 8.95276 61.8454 9.06544 61.6127 9.17811L61.4247 9.27727C61.2457 9.36741 61.0667 9.46205 60.8922 9.5612L60.7758 9.62431L60.6952 9.67388C60.4849 9.80008 60.2791 9.93079 60.0732 10.066L60.0239 10.0975C59.8091 10.2463 59.5764 10.3995 59.3885 10.5483L59.2094 10.6925C59.0573 10.8097 58.9141 10.9314 58.7619 11.0576L58.5784 11.2153C58.4083 11.3685 58.2472 11.5218 58.0861 11.666L58.01 11.7426C57.8265 11.9229 57.652 12.1122 57.482 12.306L57.3342 12.4773C57.2134 12.6215 57.0926 12.7657 56.9763 12.928C56.9226 12.9956 56.8733 13.0632 56.8196 13.1263L56.7122 13.2705L37.2534 39.745V39.7721C36.9262 40.2278 36.6272 40.7034 36.3583 41.1963C36.2241 41.4397 36.0988 41.6831 35.9779 41.931V41.958C35.6214 42.7077 35.3352 43.4893 35.1232 44.2927L35.0963 44.3963C35.0396 44.6307 34.9859 44.8696 34.9352 45.113C34.9352 45.1355 34.9352 45.1625 34.9352 45.1896C34.886 45.4555 34.8412 45.7214 34.8054 45.9918C34.8054 45.9918 34.8054 46.0279 34.8054 46.0459C34.7741 46.2803 34.7517 46.4966 34.7338 46.749V46.9744C34.7338 47.1637 34.7338 47.353 34.7338 47.5423C34.7338 47.6144 34.7338 47.691 34.7338 47.7676C34.7338 48.0245 34.7338 48.2814 34.7338 48.5338V48.5609C34.7338 48.8087 34.7696 49.0611 34.8009 49.309C34.8009 49.3766 34.8009 49.4443 34.8278 49.5119C34.8278 49.7147 34.8815 49.9175 34.9173 50.1203C34.9173 50.1789 34.9397 50.2375 34.9486 50.2961C35.0481 50.8343 35.1812 51.3657 35.347 51.8871V51.9141C35.432 52.18 35.5259 52.4414 35.6288 52.7029L35.6557 52.7705C35.6557 52.8246 35.696 52.8831 35.7184 52.9372L15.199 52.784H15.0871C14.926 52.784 14.7693 52.784 14.6082 52.784H14.4336C14.2188 52.784 13.9861 52.811 13.7803 52.8336C10.9867 53.0927 8.34514 54.2313 6.23037 56.0877L6.01108 56.277L5.80523 56.4708L5.54563 56.7187L5.51432 56.7502L5.48745 56.7772C5.42479 56.8403 5.37108 56.9035 5.3129 56.9665L5.04887 57.2415L4.81167 57.5209L4.61926 57.7463C4.5208 57.868 4.42681 57.9896 4.33283 58.1158L4.22094 58.2601C4.10906 58.4133 4.00166 58.5666 3.89425 58.7108L3.84951 58.7784C3.72868 58.9542 3.61678 59.1344 3.5049 59.3192C2.93774 60.2579 2.48685 61.2629 2.1623 62.3119V62.339C2.10412 62.5283 2.05042 62.7176 2.00119 62.9114C2.00259 62.9369 2.00259 62.9625 2.00119 62.988C1.96091 63.1638 1.92063 63.335 1.88483 63.5108C1.88483 63.5559 1.8848 63.6009 1.85347 63.646C1.82214 63.8038 1.7998 63.9615 1.77295 64.1193C1.77295 64.1824 1.77292 64.2454 1.74159 64.3085C1.71921 64.4528 1.70131 64.5925 1.68789 64.7322C1.67446 64.8719 1.68791 64.8945 1.66106 64.9756C1.63421 65.0567 1.66103 65.2325 1.6297 65.3632C1.59838 65.4939 1.6297 65.548 1.6297 65.6381C1.6297 65.7283 1.6297 65.8905 1.6297 66.0167C1.6297 66.1429 1.6297 66.188 1.6297 66.2781L1.51334 129.427C1.50198 130.583 1.64041 131.736 1.92509 132.857C2.21744 134.043 2.66914 135.183 3.26769 136.246L3.33036 136.354C3.47804 136.606 3.6302 136.854 3.77789 137.093C3.81817 137.156 3.86293 137.21 3.90321 137.269C4.01957 137.436 4.13589 137.598 4.25673 137.76L4.46711 138.031C4.60585 138.202 4.74906 138.369 4.91464 138.535C5.08023 138.702 5.12049 138.761 5.2279 138.869C5.3353 138.977 5.4069 139.063 5.50088 139.153L5.80971 139.45C5.93502 139.568 6.0648 139.68 6.19458 139.793C6.32437 139.906 6.44967 140.009 6.57946 140.117L6.98225 140.428L7.23732 140.609C7.45214 140.762 7.68483 140.906 7.88622 141.059C8.13684 141.213 8.38749 141.357 8.64706 141.51L8.74999 141.564C9.54606 141.982 10.3829 142.316 11.2472 142.56H11.2786C11.8359 142.716 12.4024 142.836 12.9747 142.921L13.2164 142.952C13.4043 142.979 13.5923 142.997 13.7803 143.011L14.0935 143.038C14.3352 143.038 14.5769 143.065 14.823 143.065H15.0065L78.4176 143.543H78.5161C78.7354 143.543 78.9636 143.543 79.1694 143.543H79.3127L79.8273 143.507H79.9347C80.1182 143.507 80.3017 143.466 80.4852 143.439H80.5121C83.0433 143.058 85.4123 141.952 87.3369 140.253L87.4936 140.117L87.7442 139.883L87.9635 139.671L87.9903 139.644L88.0262 139.613C88.0978 139.541 88.1604 139.468 88.232 139.392C88.3036 139.315 88.3842 139.234 88.4558 139.153L88.7288 138.842L88.8899 138.653C88.9973 138.517 89.1002 138.387 89.1987 138.252C89.23 138.211 89.2613 138.175 89.2882 138.134C89.409 137.977 89.5209 137.81 89.6328 137.648L89.6597 137.602C90.3954 136.507 90.9641 135.307 91.3468 134.042C91.405 133.844 91.4588 133.645 91.5125 133.447V133.388C91.5572 133.208 91.5975 133.028 91.6377 132.843C91.6377 132.807 91.6377 132.771 91.6377 132.73C91.6735 132.564 91.7004 132.397 91.7273 132.23L91.7541 132.068C91.7765 131.915 91.7944 131.766 91.8123 131.617C91.8123 131.545 91.8123 131.477 91.8123 131.405C91.8123 131.266 91.8123 131.126 91.8436 130.982C91.875 130.837 91.8436 130.824 91.8436 130.743C91.8436 130.662 91.8436 130.454 91.8436 130.315C91.8436 130.175 91.8436 130.17 91.8436 130.103V130.004L91.8929 102.015L117.496 102.055C120.055 102.055 122.56 101.318 124.716 99.9317C126.873 98.5455 128.591 96.5677 129.669 94.231L144.295 62.7221C145.132 61.4819 145.756 60.1093 146.143 58.6612Z" fill="#FFC900" stroke="black" stroke-width="1.78792" stroke-miterlimit="10"/>
<path d="M132.471 55.6055L117.335 88.4079L107.328 88.3899V87.4028L132.471 55.6055Z" fill="black"/>
<path d="M107.329 87.4025V88.3895L78.5925 88.3445H78.3105L78.3195 82.5258H79.0982L80.8346 81.9805L78.5925 79.7269H78.3285L78.3419 72.6914H79.0535L107.329 87.4025Z" fill="black"/>
<path d="M80.8345 81.9806L79.098 82.5259H78.3193L78.3283 79.7271H78.5923L80.8345 81.9806Z" fill="black"/>
<path d="M78.2342 129.9L14.6396 129.422L57.1017 108.689L78.2342 129.9Z" fill="black"/>
<path d="M78.2342 129.9L14.6396 129.422L14.756 66.1924L55.1281 66.4944L66.4238 66.5755L78.3506 66.6656L78.3416 72.6916L78.3282 79.7271L78.3193 82.526L78.3103 88.3446L78.2342 129.9Z" stroke="black" stroke-width="1.78792" stroke-linecap="round" stroke-linejoin="round"/>
<path d="M14.7568 66.1924L57.1025 108.69L78.2351 129.9" stroke="black" stroke-width="1.78792" stroke-linecap="round" stroke-linejoin="round"/>
<path d="M78.3506 66.666L57.1554 108.663L57.1017 108.69L14.6396 129.422" stroke="black" stroke-width="1.78792" stroke-linecap="round" stroke-linejoin="round"/>
<path d="M25.3125 100.374L35.6729 103.011" stroke="black" stroke-width="1.78792" stroke-linecap="round" stroke-linejoin="round"/>
<path d="M67.8477 101.082L68.4652 107.356L70.77 100.82L71.5264 106.707" stroke="black" stroke-width="1.78792" stroke-linecap="round" stroke-linejoin="round"/>
<path d="M54.3712 117.866L52.2275 123.036L55.5124 120.404" stroke="black" stroke-width="1.78792" stroke-linecap="round" stroke-linejoin="round"/>
<path d="M49.5469 75.1255L50.3345 85.307L57.24 85.1988L54.5861 80.6151" stroke="black" stroke-width="1.78792" stroke-linecap="round" stroke-linejoin="round"/>
<path d="M55.1278 66.4811L47.7793 47.6461L67.2381 21.1716L110.855 14.3389L133.41 53.5639L132.471 55.6056L117.335 88.408L107.328 88.39L78.592 88.3449" stroke="black" stroke-width="1.78792" stroke-linecap="round" stroke-linejoin="round"/>
<path d="M66.428 66.125L47.7793 47.646" stroke="black" stroke-width="1.78792" stroke-linecap="round" stroke-linejoin="round"/>
<path d="M133.41 53.5632L105.233 42.2054L67.2378 21.1709L66.4277 66.1244L105.233 42.2054L107.328 87.4023L79.0527 72.6912" stroke="black" stroke-width="1.78792" stroke-linecap="round" stroke-linejoin="round"/>
<path d="M132.932 55.0195L132.471 55.6054L107.328 87.4028" stroke="black" stroke-width="1.78792" stroke-linecap="round" stroke-linejoin="round"/>
<path d="M110.855 14.3389L105.234 42.2061" stroke="black" stroke-width="1.78792" stroke-linecap="round" stroke-linejoin="round"/>
<path d="M56.7627 45.3288L58.9377 42.0342L58.3962 47.4787" stroke="black" stroke-width="1.78792" stroke-linecap="round" stroke-linejoin="round"/>
<path d="M74.4473 43.8959L78.1976 38.6182" stroke="black" stroke-width="1.78792" stroke-linecap="round" stroke-linejoin="round"/>
<path d="M78.8066 46.4692L82.5614 41.1914" stroke="black" stroke-width="1.78792" stroke-linecap="round" stroke-linejoin="round"/>
<path d="M102.231 24.3667L98.1141 22.4287L98.8704 27.2423L94.9053 25.3132" stroke="black" stroke-width="1.78792" stroke-linecap="round" stroke-linejoin="round"/>
<path d="M97.3307 63.0015L88.5098 61.9648" stroke="black" stroke-width="1.78792" stroke-linecap="round" stroke-linejoin="round"/>
<path d="M96.9008 68.9189L95.4329 66.6338L91.0784 68.6395L87.9814 65.7324" stroke="black" stroke-width="1.78792" stroke-linecap="round" stroke-linejoin="round"/>
<path d="M113.831 36.2296L115.97 39.5017L115.089 34.3682L117.81 38.0054" stroke="black" stroke-width="1.78792" stroke-linecap="round" stroke-linejoin="round"/>
<path d="M121.883 57.5164L114.396 55.3936L114.91 61.0995" stroke="black" stroke-width="1.78792" stroke-linecap="round" stroke-linejoin="round"/>
<path d="M78.5928 79.7271L80.8349 81.9806L79.0985 82.5259" stroke="black" stroke-width="1.78792" stroke-linecap="round" stroke-linejoin="round"/>
</svg>
