<svg width="237" height="172" viewBox="0 0 237 172" fill="none" xmlns="http://www.w3.org/2000/svg">
<path d="M232.628 139.076C238.197 125.019 236.512 109.005 228.009 95.1453C220.901 83.5711 209.509 74.2538 195.936 68.8923C189.297 66.2586 182.289 64.6653 175.161 64.1686L173.701 60.0984C171.7 54.5476 168.535 49.4884 164.419 45.2592C160.304 41.0299 155.331 37.7281 149.835 35.574L67.9904 3.5424C61.2581 0.908194 53.7523 1.05468 47.1236 3.94941C40.4948 6.84414 35.2859 12.2501 32.6423 18.9787L3.81223 92.3735C1.17067 99.1029 1.31107 106.603 4.20264 113.225C7.09421 119.846 12.5002 125.047 19.2316 127.683L101.941 160.06C107.157 162.102 112.749 163.01 118.345 162.724C123.941 162.439 129.413 160.966 134.397 158.404L140.418 155.309C145.695 159.428 151.541 162.76 157.776 165.203C171.349 170.564 186.055 171.546 199.157 167.945C214.867 163.681 227.07 153.159 232.628 139.076Z" fill="#F1F333"/>
<path d="M232.628 139.076L231.698 138.708L231.698 138.709L232.628 139.076ZM228.009 95.1453L228.861 94.6224L228.861 94.622L228.009 95.1453ZM195.936 68.8923L195.568 69.8218L195.569 69.8224L195.936 68.8923ZM175.161 64.1686L174.22 64.5063L174.44 65.1208L175.091 65.1662L175.161 64.1686ZM173.701 60.0984L174.642 59.7608L174.642 59.7592L173.701 60.0984ZM149.835 35.574L150.2 34.6429L150.199 34.6427L149.835 35.574ZM67.9904 3.5424L68.3548 2.61118L68.3547 2.61115L67.9904 3.5424ZM32.6423 18.9787L31.7116 18.613L31.7116 18.6131L32.6423 18.9787ZM3.81223 92.3735L2.88146 92.0079L2.88138 92.0081L3.81223 92.3735ZM19.2316 127.683L18.867 128.614L18.8671 128.614L19.2316 127.683ZM101.941 160.06L101.577 160.991L101.577 160.991L101.941 160.06ZM134.397 158.404L134.854 159.294L134.854 159.294L134.397 158.404ZM140.418 155.309L141.033 154.521L140.529 154.128L139.961 154.42L140.418 155.309ZM157.776 165.203L158.143 164.273L158.14 164.272L157.776 165.203ZM199.157 167.945L198.895 166.98L198.892 166.981L199.157 167.945ZM144.149 110.991C144.12 111.542 144.544 112.012 145.096 112.041C145.647 112.07 146.118 111.646 146.146 111.094L144.149 110.991ZM146.446 105.064L145.516 104.696L145.516 104.697L146.446 105.064ZM167.823 139.883L167.455 140.813L167.455 140.813L167.823 139.883ZM148.911 122.599C148.653 122.11 148.047 121.924 147.559 122.182C147.071 122.44 146.885 123.045 147.143 123.534L148.911 122.599ZM29.2158 102.331L28.2852 101.965C28.188 102.212 28.193 102.488 28.2992 102.731C28.4053 102.975 28.6039 103.166 28.8511 103.262L29.2158 102.331ZM58.0807 28.9709L58.4453 28.0397C57.9316 27.8386 57.3522 28.0914 57.1502 28.6047L58.0807 28.9709ZM139.929 61.0106L139.564 61.9418L139.564 61.9419L139.929 61.0106ZM148.087 69.4007L147.146 69.7384L147.146 69.7395L148.087 69.4007ZM161.287 106.056L162.228 105.72L162.227 105.717L161.287 106.056ZM157.334 116.068L157.791 116.958L157.793 116.956L157.334 116.068ZM121.994 134.226L122.451 135.116L122.451 135.116L121.994 134.226ZM111.957 134.734L112.321 133.803L112.321 133.803L111.957 134.734ZM233.558 139.445C239.252 125.069 237.514 108.726 228.861 94.6224L227.157 95.6683C235.509 109.283 237.141 124.968 231.698 138.708L233.558 139.445ZM228.861 94.622C221.631 82.8488 210.062 73.3968 196.304 67.9622L195.569 69.8224C208.957 75.1108 220.171 84.2933 227.157 95.6687L228.861 94.622ZM196.305 67.9627C189.57 65.2911 182.461 63.6749 175.23 63.1711L175.091 65.1662C182.117 65.6557 189.024 67.2261 195.568 69.8218L196.305 67.9627ZM176.102 63.831L174.642 59.7608L172.76 60.436L174.22 64.5063L176.102 63.831ZM174.642 59.7592C172.592 54.0744 169.351 48.8931 165.136 44.5618L163.703 45.9566C167.719 50.0838 170.807 55.0208 172.76 60.4376L174.642 59.7592ZM165.136 44.5618C160.921 40.2304 155.829 36.849 150.2 34.6429L149.47 36.505C154.834 38.6072 159.686 41.8295 163.703 45.9566L165.136 44.5618ZM150.199 34.6427L68.3548 2.61118L67.6259 4.47363L149.47 36.5052L150.199 34.6427ZM68.3547 2.61115C61.3755 -0.119672 53.5948 0.0322751 46.7234 3.03298L47.5238 4.86583C53.9098 2.07708 61.1406 1.93606 67.626 4.47365L68.3547 2.61115ZM46.7234 3.03298C39.852 6.03368 34.4521 11.6376 31.7116 18.613L33.5731 19.3444C36.1197 12.8625 41.1377 7.65459 47.5238 4.86583L46.7234 3.03298ZM31.7116 18.6131L2.88146 92.0079L4.74299 92.7391L33.5731 19.3443L31.7116 18.6131ZM2.88138 92.0081C0.142916 98.9844 0.288378 106.76 3.28621 113.625L5.11907 112.824C2.33376 106.446 2.19842 99.2215 4.74308 92.7389L2.88138 92.0081ZM3.28621 113.625C6.28404 120.49 11.8886 125.881 18.867 128.614L19.5963 126.752C13.1117 124.212 7.90437 119.202 5.11907 112.824L3.28621 113.625ZM18.8671 128.614L101.577 160.991L102.306 159.129L19.5961 126.752L18.8671 128.614ZM101.577 160.991C106.925 163.085 112.658 164.016 118.396 163.723L118.294 161.726C112.839 162.004 107.389 161.119 102.306 159.129L101.577 160.991ZM118.396 163.723C124.134 163.43 129.744 161.92 134.854 159.294L133.94 157.515C129.082 160.012 123.748 161.447 118.294 161.726L118.396 163.723ZM134.854 159.294L140.875 156.199L139.961 154.42L133.94 157.515L134.854 159.294ZM139.803 156.098C145.156 160.276 151.087 163.656 157.411 166.134L158.14 164.272C151.996 161.864 146.234 158.58 141.033 154.521L139.803 156.098ZM157.408 166.133C171.166 171.567 186.095 172.572 199.422 168.909L198.892 166.981C186.015 170.52 171.531 169.561 158.143 164.273L157.408 166.133ZM199.419 168.91C215.407 164.571 227.874 153.845 233.558 139.444L231.698 138.709C226.265 152.473 214.327 162.792 198.895 166.98L199.419 168.91ZM146.146 111.094C146.247 109.153 146.662 107.24 147.376 105.431L145.516 104.697C144.722 106.707 144.261 108.833 144.149 110.991L146.146 111.094ZM147.376 105.432C149.73 99.4868 155.099 95.3035 162.01 93.4113C168.922 91.5191 177.316 91.9441 185.532 95.1874L186.266 93.3271C177.687 89.9403 168.85 89.4654 161.482 91.4823C154.114 93.4994 148.154 98.0345 145.516 104.696L147.376 105.432ZM185.532 95.1874C193.749 98.4308 200.159 103.845 203.902 109.941C207.646 116.036 208.698 122.755 206.349 128.718L208.21 129.451C210.839 122.774 209.599 115.395 205.607 108.894C201.615 102.394 194.846 96.7138 186.266 93.3271L185.532 95.1874ZM206.349 128.718C204.002 134.679 198.636 138.861 191.724 140.747C184.811 142.634 176.413 142.199 168.19 138.953L167.455 140.813C176.04 144.202 184.882 144.688 192.251 142.677C199.621 140.665 205.58 136.13 208.21 129.451L206.349 128.718ZM168.19 138.953C159.271 135.428 152.487 129.36 148.911 122.599L147.143 123.534C150.968 130.766 158.147 137.134 167.455 140.813L168.19 138.953ZM30.1463 102.697L59.0113 29.337L57.1502 28.6047L28.2852 101.965L30.1463 102.697ZM57.7162 29.9021L139.564 61.9418L140.293 60.0794L58.4453 28.0397L57.7162 29.9021ZM139.564 61.9419C141.312 62.6252 142.893 63.6746 144.201 65.0193L145.635 63.625C144.128 62.0755 142.306 60.8665 140.293 60.0792L139.564 61.9419ZM144.201 65.0193C145.508 66.3641 146.513 67.9731 147.146 69.7384L149.028 69.063C148.299 67.0288 147.141 65.1746 145.635 63.625L144.201 65.0193ZM147.146 69.7395L160.346 106.395L162.227 105.717L149.028 69.0619L147.146 69.7395ZM160.345 106.392C160.928 108.027 160.898 109.819 160.26 111.435L162.12 112.169C162.936 110.103 162.974 107.812 162.228 105.72L160.345 106.392ZM160.26 111.435C159.622 113.051 158.419 114.381 156.875 115.18L157.793 116.956C159.767 115.936 161.305 114.235 162.12 112.169L160.26 111.435ZM156.877 115.179L121.537 133.337L122.451 135.116L157.791 116.958L156.877 115.179ZM121.537 133.337C120.122 134.064 118.568 134.481 116.979 134.562L117.08 136.559C118.952 136.464 120.783 135.972 122.451 135.116L121.537 133.337ZM116.979 134.562C115.39 134.642 113.802 134.383 112.321 133.803L111.592 135.665C113.337 136.349 115.207 136.654 117.08 136.559L116.979 134.562ZM112.321 133.803L29.5804 101.4L28.8511 103.262L111.592 135.666L112.321 133.803Z" fill="black"/>
<path d="M52.0276 84.0236C52.2208 84.4239 52.437 84.8128 52.6751 85.1881C53.391 86.2583 54.4911 87.0126 55.7483 87.2951C56.1976 87.4376 56.679 87.4445 57.1325 87.3152C57.586 87.1859 57.9914 86.926 58.2982 86.568C58.8914 85.8545 59.2872 84.9982 59.4461 84.0845C59.9086 81.5599 60.2095 79.0085 60.3471 76.446C60.6254 72.7663 60.8356 69.0671 61.1019 65.3827C61.2479 63.3068 61.526 61.242 61.9347 59.2011C62.1534 57.908 62.6977 56.6916 63.5163 55.6661C64.0457 55.0473 64.7222 54.5713 65.4837 54.2821C66.2451 53.9929 67.067 53.8997 67.8736 54.011C68.4935 54.0674 68.3508 54.1495 68.5569 53.7127C69.1884 52.2277 69.8006 50.7213 70.4201 49.2317L70.5365 48.9529L74.6887 50.6681L74.577 50.9349C73.9626 52.4817 73.353 54.0167 72.7267 55.5588C72.6739 55.7107 72.7233 55.7782 72.8684 55.8834C73.849 56.4401 74.6853 57.2189 75.31 58.1573C74.3025 58.8946 73.2782 59.6391 72.2967 60.3452C71.9026 59.9425 71.5584 59.518 71.1538 59.1595C70.5614 58.6547 69.8402 58.3247 69.0706 58.206C68.6992 58.1296 68.3135 58.1617 67.9598 58.2986C67.606 58.4355 67.2991 58.6713 67.0759 58.9779C66.6017 59.6635 66.3068 60.4567 66.2181 61.2851C65.7216 64.6467 65.4016 68.0319 65.2593 71.4267C65.0233 74.9987 64.8123 78.5597 64.5154 82.1285C64.374 83.6577 64.1285 85.1755 63.7806 86.6715C63.4744 88.2208 62.6586 89.6237 61.463 90.657C60.8886 91.1256 60.2248 91.4725 59.5121 91.6763C58.7993 91.8802 58.0527 91.937 57.3175 91.8429C57.0214 91.8236 56.8797 91.8853 56.7893 92.1329C56.1812 93.7167 55.5408 95.2947 54.9102 96.918L54.7197 97.368L50.5279 95.6304L52.7179 90.3529C52.2212 89.9652 51.7343 89.6228 51.2413 89.2435C50.4749 88.5957 49.8093 87.8374 49.2666 86.9936C49.2449 86.9674 49.2311 86.9358 49.2266 86.9021C49.2257 86.8646 49.2376 86.8278 49.2605 86.7981C50.1481 85.786 51.0891 84.9191 52.0276 84.0236Z" fill="black"/>
<path d="M78.5254 94.3758C78.7144 94.8086 78.8889 95.2081 79.1727 95.5401C79.896 96.6028 80.9959 97.3515 82.2506 97.6351C82.6979 97.7804 83.1783 97.79 83.6313 97.6628C84.0843 97.5355 84.4895 97.2772 84.7959 96.9202C85.3941 96.2074 85.7931 95.3493 85.9522 94.433C86.4069 91.9073 86.7077 89.3564 86.8531 86.7945C87.1278 83.1065 87.3415 79.4154 87.6078 75.7311C87.75 73.6547 88.0282 71.5899 88.4407 69.5497C88.6585 68.2544 89.2014 67.0352 90.0186 66.0061C90.5492 65.3882 91.2267 64.9135 91.9888 64.6257C92.7509 64.3379 93.5731 64.2464 94.3796 64.3594C94.9995 64.4157 94.8568 64.4979 95.0629 64.061L96.9261 59.5802L97.0425 59.3015L101.195 61.0166C101.152 61.103 101.114 61.1921 101.083 61.2834L99.2326 65.9071C99.1715 66.0627 99.2293 66.1268 99.3744 66.2319C100.354 66.7902 101.19 67.5686 101.816 68.5056C100.8 69.2466 99.7806 69.9793 98.8027 70.6938C98.4086 70.291 98.0644 69.8665 97.6479 69.5033C97.0612 68.9977 96.343 68.6686 95.5765 68.5544C95.2051 68.4756 94.8187 68.5066 94.4645 68.6437C94.1102 68.7807 93.8036 69.0181 93.582 69.3264C93.1068 70.0087 92.8105 70.7991 92.7206 71.6253C92.2235 74.9895 91.9047 78.3776 91.7654 81.7752C91.5294 85.3472 91.3183 88.9082 91.0214 92.477C90.8748 94.0073 90.6265 95.5262 90.2783 97.0237C89.9776 98.572 89.1642 99.9746 87.969 101.005C87.3947 101.474 86.7309 101.821 86.0181 102.025C85.3054 102.229 84.5586 102.285 83.8235 102.191C83.5273 102.172 83.3857 102.234 83.2954 102.481C82.6789 104.069 82.0468 105.643 81.4162 107.267L81.234 107.713L77.0423 105.975L79.2322 100.698C78.7355 100.31 78.2366 99.9628 77.7555 99.5882C76.9925 98.937 76.3275 98.1794 75.7809 97.3385L75.7372 97.2385C75.7408 97.2062 75.7508 97.175 75.7666 97.1466C76.6973 96.1653 77.6061 95.2926 78.5254 94.3758Z" fill="black"/>
<path d="M105.312 104.889C105.501 105.322 105.675 105.722 105.959 106.054C106.683 107.116 107.782 107.865 109.037 108.149C109.484 108.294 109.965 108.303 110.418 108.176C110.871 108.049 111.276 107.79 111.582 107.433C112.182 106.722 112.582 105.863 112.739 104.946C113.195 102.423 113.497 99.8754 113.643 97.3161C113.918 93.6282 114.123 89.9408 114.398 86.2529C114.54 84.1765 114.818 82.1115 115.231 80.0713C115.449 78.776 115.992 77.557 116.809 76.5279C117.338 75.9106 118.014 75.4365 118.775 75.1493C119.536 74.8621 120.356 74.7712 121.161 74.8848C121.79 74.9375 121.647 75.0196 121.835 74.5411L123.814 69.7814L127.967 71.4966C127.923 71.583 127.886 71.6721 127.855 71.7634L126.005 76.3873C125.94 76.5345 126.001 76.6067 126.143 76.7035C127.123 77.2651 127.96 78.0464 128.588 78.9858C127.572 79.7267 126.552 80.4593 125.575 81.1737C125.18 80.771 124.836 80.3465 124.42 79.9833C123.833 79.4777 123.115 79.1488 122.348 79.0345C121.977 78.9557 121.591 78.9867 121.236 79.1238C120.882 79.2609 120.576 79.498 120.354 79.8064C119.879 80.4886 119.582 81.2791 119.492 82.1052C118.995 85.4695 118.677 88.8576 118.537 92.2552C118.301 95.8271 118.09 99.3882 117.793 102.957C117.647 104.487 117.398 106.006 117.05 107.504C116.747 109.051 115.934 110.453 114.741 111.485C114.167 111.954 113.503 112.301 112.79 112.505C112.077 112.709 111.331 112.766 110.596 112.671C110.291 112.656 110.158 112.714 110.067 112.961C109.451 114.549 108.815 116.115 108.188 117.746L108.002 118.185L103.802 116.451L106.004 111.178C105.507 110.79 105.009 110.443 104.527 110.068C103.764 109.417 103.099 108.659 102.553 107.818C102.53 107.789 102.515 107.755 102.509 107.719C102.513 107.686 102.523 107.655 102.538 107.627C103.466 106.637 104.378 105.773 105.312 104.889Z" fill="black"/>
<path d="M52.0276 84.0236C52.2208 84.4239 52.437 84.8128 52.6751 85.1881C53.391 86.2583 54.4911 87.0126 55.7483 87.2951C56.1976 87.4376 56.679 87.4445 57.1325 87.3152C57.586 87.1859 57.9914 86.926 58.2982 86.568C58.8914 85.8545 59.2872 84.9982 59.4461 84.0845C59.9086 81.5599 60.2095 79.0085 60.3471 76.446C60.6254 72.7663 60.8356 69.0671 61.1019 65.3827C61.2479 63.3068 61.526 61.242 61.9347 59.2011C62.1534 57.908 62.6977 56.6916 63.5163 55.6661C64.0457 55.0473 64.7222 54.5713 65.4837 54.2821C66.2451 53.9929 67.067 53.8997 67.8736 54.011C68.4935 54.0674 68.3508 54.1495 68.5569 53.7127C69.1884 52.2277 69.8006 50.7213 70.4201 49.2317L70.5365 48.9529L74.6887 50.6681L74.577 50.9349C73.9626 52.4817 73.353 54.0167 72.7267 55.5588C72.6739 55.7107 72.7233 55.7782 72.8684 55.8834C73.849 56.4401 74.6853 57.2189 75.31 58.1573C74.3025 58.8946 73.2782 59.6391 72.2967 60.3452C71.9026 59.9425 71.5584 59.518 71.1538 59.1595C70.5614 58.6547 69.8402 58.3247 69.0706 58.206C68.6992 58.1296 68.3135 58.1617 67.9598 58.2986C67.606 58.4355 67.2991 58.6713 67.0759 58.9779C66.6017 59.6635 66.3068 60.4567 66.2181 61.2851C65.7216 64.6467 65.4016 68.0319 65.2593 71.4267C65.0233 74.9987 64.8123 78.5597 64.5154 82.1285C64.374 83.6577 64.1285 85.1755 63.7806 86.6715C63.4744 88.2208 62.6586 89.6237 61.463 90.657C60.8886 91.1256 60.2248 91.4725 59.5121 91.6763C58.7993 91.8802 58.0527 91.937 57.3175 91.8429C57.0214 91.8236 56.8797 91.8853 56.7893 92.1329C56.1812 93.7167 55.5408 95.2947 54.9102 96.918L54.7197 97.368L50.5279 95.6304L52.7179 90.3529C52.2212 89.9652 51.7343 89.6228 51.2413 89.2435C50.4749 88.5957 49.8093 87.8374 49.2666 86.9936C49.2449 86.9674 49.2311 86.9358 49.2266 86.9021C49.2257 86.8646 49.2376 86.8278 49.2605 86.7981C50.1481 85.786 51.0891 84.9191 52.0276 84.0236Z" stroke="black" stroke-width="2" stroke-miterlimit="10"/>
<path d="M78.5254 94.3758C78.7144 94.8086 78.8889 95.2081 79.1727 95.5401C79.896 96.6028 80.9959 97.3515 82.2506 97.6351C82.6979 97.7804 83.1783 97.79 83.6313 97.6628C84.0843 97.5355 84.4895 97.2772 84.7959 96.9202C85.3941 96.2074 85.7931 95.3493 85.9522 94.433C86.4069 91.9073 86.7077 89.3564 86.8531 86.7945C87.1278 83.1065 87.3415 79.4154 87.6078 75.7311C87.75 73.6547 88.0282 71.5899 88.4407 69.5497C88.6585 68.2544 89.2014 67.0352 90.0186 66.0061C90.5492 65.3882 91.2267 64.9135 91.9888 64.6257C92.7509 64.3379 93.5731 64.2464 94.3796 64.3594C94.9995 64.4157 94.8568 64.4979 95.0629 64.061L96.9261 59.5802L97.0425 59.3015L101.195 61.0166C101.152 61.103 101.114 61.1921 101.083 61.2834L99.2326 65.9071C99.1715 66.0627 99.2293 66.1268 99.3744 66.2319C100.354 66.7902 101.19 67.5686 101.816 68.5056C100.8 69.2466 99.7806 69.9793 98.8027 70.6938C98.4086 70.291 98.0644 69.8665 97.6479 69.5033C97.0612 68.9977 96.343 68.6686 95.5765 68.5544C95.2051 68.4756 94.8187 68.5066 94.4645 68.6437C94.1102 68.7807 93.8036 69.0181 93.582 69.3264C93.1068 70.0087 92.8105 70.7991 92.7206 71.6253C92.2235 74.9895 91.9047 78.3776 91.7654 81.7752C91.5294 85.3472 91.3183 88.9082 91.0214 92.477C90.8748 94.0073 90.6265 95.5262 90.2783 97.0237C89.9776 98.572 89.1642 99.9746 87.969 101.005C87.3947 101.474 86.7309 101.821 86.0181 102.025C85.3054 102.229 84.5586 102.285 83.8235 102.191C83.5273 102.172 83.3857 102.234 83.2954 102.481C82.6789 104.069 82.0468 105.643 81.4162 107.267L81.234 107.713L77.0423 105.975L79.2322 100.698C78.7355 100.31 78.2366 99.9628 77.7555 99.5882C76.9925 98.937 76.3275 98.1794 75.7809 97.3385L75.7372 97.2385C75.7408 97.2062 75.7508 97.175 75.7666 97.1466C76.6973 96.1653 77.6061 95.2926 78.5254 94.3758Z" stroke="black" stroke-width="2" stroke-miterlimit="10"/>
<path d="M105.312 104.889C105.501 105.322 105.675 105.722 105.959 106.054C106.683 107.116 107.782 107.865 109.037 108.149C109.484 108.294 109.965 108.303 110.418 108.176C110.871 108.049 111.276 107.79 111.582 107.433C112.182 106.722 112.582 105.863 112.739 104.946C113.195 102.423 113.497 99.8754 113.643 97.3161C113.918 93.6282 114.123 89.9408 114.398 86.2529C114.54 84.1765 114.818 82.1115 115.231 80.0713C115.449 78.776 115.992 77.557 116.809 76.5279C117.338 75.9106 118.014 75.4365 118.775 75.1493C119.536 74.8621 120.356 74.7712 121.161 74.8848C121.79 74.9375 121.647 75.0196 121.835 74.5411L123.814 69.7814L127.967 71.4966C127.923 71.583 127.886 71.6721 127.855 71.7634L126.005 76.3873C125.94 76.5345 126.001 76.6067 126.143 76.7035C127.123 77.2651 127.96 78.0464 128.588 78.9858C127.572 79.7267 126.552 80.4593 125.575 81.1737C125.18 80.771 124.836 80.3465 124.42 79.9833C123.833 79.4777 123.115 79.1488 122.348 79.0345C121.977 78.9557 121.591 78.9867 121.236 79.1238C120.882 79.2609 120.576 79.498 120.354 79.8064C119.879 80.4886 119.582 81.2791 119.492 82.1052C118.995 85.4695 118.677 88.8576 118.537 92.2552C118.301 95.8271 118.09 99.3882 117.793 102.957C117.647 104.487 117.398 106.006 117.05 107.504C116.747 109.051 115.934 110.453 114.741 111.485C114.167 111.954 113.503 112.301 112.79 112.505C112.077 112.709 111.331 112.766 110.596 112.671C110.291 112.656 110.158 112.714 110.067 112.961C109.451 114.549 108.815 116.115 108.188 117.746L108.002 118.185L103.802 116.451L106.004 111.178C105.507 110.79 105.009 110.443 104.527 110.068C103.764 109.417 103.099 108.659 102.553 107.818C102.53 107.789 102.515 107.755 102.509 107.719C102.513 107.686 102.523 107.655 102.538 107.627C103.466 106.637 104.378 105.773 105.312 104.889Z" stroke="black" stroke-width="2" stroke-miterlimit="10"/>
<path d="M140.17 108.528C141.654 111.925 145.614 113.475 149.015 111.99C152.416 110.505 153.97 106.547 152.486 103.15C151.003 99.7526 147.043 98.2025 143.642 99.6877C140.241 101.173 138.687 105.131 140.17 108.528Z" stroke="black" stroke-width="2" stroke-linecap="round" stroke-linejoin="round"/>
</svg>
