<svg width="175" height="208" viewBox="0 0 175 208" fill="none" xmlns="http://www.w3.org/2000/svg">
<path d="M170.405 66.1782C168.679 60.4876 165.65 55.2778 161.558 50.9623C157.467 46.6468 152.426 43.3445 146.836 41.3174C139.355 38.5765 131.259 38.3029 123.546 39.3841C122.97 35.0218 122.086 30.7058 120.9 26.4684C118.62 18.2633 113.326 11.2218 106.077 6.75356C98.8283 2.28535 90.1596 0.720102 81.8063 2.37118C73.453 4.02226 66.0315 8.76785 61.0277 15.6579C56.024 22.5479 53.8071 31.074 54.8208 39.5293C54.9515 40.6654 55.1014 41.9567 55.2594 43.4224C55.6354 47.0036 56.0275 50.7008 49.4865 61.8149C46.0775 66.2221 30.1604 76.0689 15.8729 82.5887C10.8392 84.8777 6.78825 88.8889 4.44951 93.9C2.11077 98.9111 1.63791 104.593 3.1162 109.922L24.9714 188.647C26.6181 194.579 30.5535 199.614 35.9116 202.644C41.2698 205.674 47.6119 206.451 53.5429 204.804L138.841 181.124C148.117 178.53 156.179 172.744 161.607 164.787C167.036 156.83 169.482 147.213 168.515 137.628C168.905 136.717 169.279 135.81 169.609 134.916C172.045 128.031 172.309 120.564 170.366 113.524C171.092 111.55 171.642 109.516 172.011 107.446C173.188 101.116 172.778 94.5919 170.818 88.4582C172.853 81.1499 172.709 73.4064 170.405 66.1782Z" fill="#FFC900" stroke="black" stroke-width="3" stroke-miterlimit="10"/>
<path d="M144.118 134.22L144.894 137.016C146.145 141.522 145.555 146.34 143.253 150.411C140.952 154.481 137.128 157.471 132.622 158.722L47.324 182.402L25.4688 103.676C25.4688 103.676 61.2987 87.3861 69.3232 73.8366C77.3478 60.2871 79.4525 51.5287 78.3328 40.9594C78.1648 39.4001 78.0073 38.0226 77.8687 36.8004C77.5674 34.2915 78.1743 31.7575 79.5794 29.6574C80.9846 27.5573 83.0951 26.0298 85.5291 25.3514C86.8647 24.9785 88.2607 24.8724 89.6374 25.0391C91.0141 25.2057 92.3446 25.6419 93.5528 26.3228C94.761 27.0037 95.8231 27.9159 96.6788 29.0073C97.5345 30.0987 98.1668 31.348 98.5398 32.6839C100.042 38.0962 101.355 45.079 100.871 51.9261C99.8658 66.265 90.9533 86.4204 90.9533 86.4204L128.227 76.98L121.287 74.8277" stroke="black" stroke-width="3" stroke-linecap="round" stroke-linejoin="round"/>
<path d="M126.561 139.551C126.561 139.551 144.609 136.251 147.652 127.345C148.612 124.752 148.691 121.915 147.876 119.273C147.061 116.631 145.398 114.331 143.145 112.73" stroke="black" stroke-width="3" stroke-linecap="round" stroke-linejoin="round"/>
<path d="M127.425 119.816C127.425 119.816 146.992 115.684 149.147 103.347C150.904 93.3359 144.455 89.6824 144.455 89.6824" stroke="black" stroke-width="3" stroke-linecap="round" stroke-linejoin="round"/>
<path d="M125.068 98.2525C125.068 98.2525 140.338 94.463 147.201 84.8817C150.828 79.7875 149.468 67.0206 138.897 63.1543C129.9 59.8705 114.766 64.4093 107.587 69.582C100.408 74.7546 101.483 83.5136 101.483 83.5136" stroke="black" stroke-width="3" stroke-linecap="round" stroke-linejoin="round"/>
<path d="M79.0049 46.6504C79.0049 46.6504 87.7709 45.3731 87.5862 38.3744C87.3571 29.3645 81.1572 28.2592 81.1572 28.2592" stroke="black" stroke-width="3" stroke-linecap="round" stroke-linejoin="round"/>
</svg>
