<svg width="14" height="8" fill="none" xmlns="http://www.w3.org/2000/svg"><path d="M13.75 7.775H.25C.466 5.5 1.774 3.557 3.705 2.517L2.585.59a.227.227 0 0 1 .392-.226l1.135 1.953A6.955 6.955 0 0 1 7 1.704c1.048 0 2.022.219 2.888.612L11.022.363a.225.225 0 0 1 .309-.082c.107.063.146.2.082.308l-1.12 1.928c1.933 1.04 3.241 2.983 3.457 5.258ZM10.098 5.89a.563.563 0 1 0 0-1.125.564.564 0 0 0-.566.563c0 .31.253.562.566.562Zm-6.197 0a.563.563 0 1 0 0-1.125.564.564 0 0 0-.566.563c0 .31.253.562.566.562Z" fill="#fff"/></svg>