<svg width="18" height="18" fill="none" xmlns="http://www.w3.org/2000/svg"><path d="M15.238 3.117a14.845 14.845 0 0 0-3.664-1.137.056.056 0 0 0-.059.028 10.35 10.35 0 0 0-.456.937 13.703 13.703 0 0 0-4.115 0 9.483 9.483 0 0 0-.464-.937.058.058 0 0 0-.058-.028 14.83 14.83 0 0 0-3.664 1.137.053.053 0 0 0-.024.02C.4 6.625-.24 10.025.074 13.384a.065.065 0 0 0 .024.042 14.927 14.927 0 0 0 4.494 2.272.058.058 0 0 0 .064-.02c.346-.474.654-.972.92-1.496a.057.057 0 0 0-.032-.08 9.831 9.831 0 0 1-1.404-.669.058.058 0 0 1-.006-.096 7.67 7.67 0 0 0 .279-.218.056.056 0 0 1 .058-.008c2.946 1.345 6.135 1.345 9.046 0a.055.055 0 0 1 .06.007c.09.074.184.149.279.22a.058.058 0 0 1-.005.095 9.228 9.228 0 0 1-1.405.669.057.057 0 0 0-.03.08c.27.523.578 1.022.918 1.495.014.02.04.028.063.021a14.877 14.877 0 0 0 4.502-2.272.058.058 0 0 0 .023-.042c.376-3.882-.628-7.255-2.66-10.245a.046.046 0 0 0-.024-.021zm-9.223 8.22c-.887 0-1.618-.813-1.618-1.813s.717-1.815 1.618-1.815c.908 0 1.632.822 1.618 1.815 0 1-.717 1.814-1.618 1.814zm5.981 0c-.887 0-1.618-.813-1.618-1.813s.717-1.815 1.618-1.815c.908 0 1.632.822 1.618 1.815 0 1-.71 1.814-1.618 1.814z" fill="#fff"/></svg>