<svg width="18" height="18" fill="none" xmlns="http://www.w3.org/2000/svg"><path d="M14.091 13.757c-5.742 2.745-9.305.448-11.587-.947-.14-.088-.38.02-.173.26.76.926 3.251 3.158 6.502 3.158 3.253 0 5.189-1.784 5.43-2.095.241-.308.071-.478-.172-.376Zm1.613-.895c-.154-.202-.938-.24-1.43-.179-.494.06-1.236.363-1.171.545.033.068.1.037.44.007.34-.034 1.293-.155 1.491.105.2.263-.304 1.514-.396 1.716-.088.202.034.254.201.12.165-.135.463-.483.663-.975.198-.495.32-1.186.202-1.34Z" fill="#000"/><path fill-rule="evenodd" clip-rule="evenodd" d="M10.23 8.154c0 .72.018 1.321-.344 1.961-.292.52-.756.84-1.273.84-.707 0-1.119-.54-1.119-1.34 0-1.575 1.406-1.862 2.736-1.862v.401Zm1.856 4.507a.383.383 0 0 1-.434.045c-.611-.51-.72-.747-1.057-1.233-1.01 1.035-1.724 1.344-3.033 1.344-1.548 0-2.755-.96-2.755-2.881 0-1.501.81-2.523 1.962-3.023 1-.442 2.395-.52 3.461-.642v-.24c0-.439.034-.96-.222-1.339-.225-.34-.655-.48-1.033-.48-.702 0-1.328.36-1.48 1.11-.032.166-.154.33-.32.338L5.39 5.467c-.15-.034-.316-.156-.275-.387.412-2.175 2.366-2.83 4.116-2.83.896 0 2.066.24 2.773.92.895.84.81 1.962.81 3.182v2.881c0 .866.357 1.246.694 1.714.119.167.145.367-.006.492-.375.315-1.043.9-1.41 1.227l-.006-.005" fill="#000"/><path d="M14.091 13.757c-5.742 2.745-9.305.448-11.587-.947-.14-.088-.38.02-.173.26.76.926 3.251 3.158 6.502 3.158 3.253 0 5.189-1.784 5.43-2.095.241-.308.071-.478-.172-.376Zm1.613-.895c-.154-.202-.938-.24-1.43-.179-.494.06-1.236.363-1.171.545.033.068.1.037.44.007.34-.034 1.293-.155 1.491.105.2.263-.304 1.514-.396 1.716-.088.202.034.254.201.12.165-.135.463-.483.663-.975.198-.495.32-1.186.202-1.34Z" fill="#000"/><path fill-rule="evenodd" clip-rule="evenodd" d="M10.23 8.154c0 .72.018 1.321-.344 1.961-.292.52-.756.84-1.273.84-.707 0-1.119-.54-1.119-1.34 0-1.575 1.406-1.862 2.736-1.862v.401Zm1.856 4.507a.383.383 0 0 1-.434.045c-.611-.51-.72-.747-1.057-1.233-1.01 1.035-1.724 1.344-3.033 1.344-1.548 0-2.755-.96-2.755-2.881 0-1.501.81-2.523 1.962-3.023 1-.442 2.395-.52 3.461-.642v-.24c0-.439.034-.96-.222-1.339-.225-.34-.655-.48-1.033-.48-.702 0-1.328.36-1.48 1.11-.032.166-.154.33-.32.338L5.39 5.467c-.15-.034-.316-.156-.275-.387.412-2.175 2.366-2.83 4.116-2.83.896 0 2.066.24 2.773.92.895.84.81 1.962.81 3.182v2.881c0 .866.357 1.246.694 1.714.119.167.145.367-.006.492-.375.315-1.043.9-1.41 1.227l-.006-.005" fill="#000"/></svg>