<svg width="24" height="24" fill="none" xmlns="http://www.w3.org/2000/svg"><path d="M21 9.785c0 .482-.058.976-.152 1.464-.762 3.977-3.371 5.351-6.704 5.351h-.515a.83.83 0 0 0-.817.71l-.723 4.582a.832.832 0 0 1-.817.708H8.81a.572.572 0 0 1-.566-.659l1.248-7.992.056-.05h1.939c4.711 0 7.658-2.356 8.526-6.811.73.732.987 1.688.987 2.697ZM8.206 13.612c.104-.744.413-1.06 1.246-1.061l2.034-.002c4.117 0 6.478-1.881 7.22-5.751C19.427 3.078 16.816 1 13.28 1H6.67a.95.95 0 0 0-.934.81C3.662 15.163 3.062 18.558 3.001 19.594a.573.573 0 0 0 .571.605h3.59l1.044-6.586Z" fill="#000"/></svg>