<svg width="224" height="160" fill="none" xmlns="http://www.w3.org/2000/svg"><g clip-path="url(#a)"><path d="M139.401 9.489a14.596 14.596 0 0 1 5.59 6.706l.151.678.595-.36 19.787-11.956a14.601 14.601 0 0 1 21.505 8.22c.869 2.84.851 5.877-.052 8.705l-.004.014-.017.06-.003.011-4.672 14.79-.213.675.706-.024 6.448-.22a14.6 14.6 0 0 1 14.111 9.29 14.59 14.59 0 0 1-4.115 16.384l-9.683 8.287-.422.362.403.381 4.793 4.538a14.58 14.58 0 0 1 3.622 15.77 14.587 14.587 0 0 1-13.164 9.413h-.001l-2.203.077-.712.025.266.662 3.2 7.959a14.592 14.592 0 0 1-11.523 19.891 14.597 14.597 0 0 1-8.575-1.409l-15.02-7.541-.403-.203-.243.382a58.89 58.89 0 0 1-20.947 19.798l-.005.003a81.974 81.974 0 0 1-22.836 8.936c-16.703 3.71-34.025 1.641-51.092-6.256a106.047 106.047 0 0 1-30.41-21.407 14.583 14.583 0 0 1-1.392-18.701l.005-.007.361-.521.002-.002c7.356-10.475 10.387-17.861 11.638-22.174 5.883-20.292 19.282-28.08 29.486-31.047a42.97 42.97 0 0 1 10.692-1.662l.269-.008.142-.228c2.563-4.126 6.122-8.47 10.896-11.57 7.651-4.98 17.091-7.147 26.764-6.36l.395.031.122-.376 3.956-12.224a14.6 14.6 0 0 1 13.34-10.107 14.602 14.602 0 0 1 8.462 2.315Z" fill="#FF90E8" stroke="#000"/><path d="M136.917 50.342s.034.15.055.437c.408 3.092 2.356 21.911-6.962 38.394l-.924-.88c-7.934-2.052-19.797 4.18-23.014 11.079-24.94 3.721-32.212 19.282-32.212 19.282l.04.513c-23.12 1.831-38.733-6.767-39.28-7.076.547-.267 18.811-9.163 25.217-13.393 5.353-3.536 8.16-7.749 12.006-11.156l.497.053c.699.088 10.115 9.274 15.711 8.825 3.119-.268 8.533-2.926 13.178-5.716 3.683-2.207 6.887-4.495 8.127-5.74 3.386-3.433-2.997-18.95-2.997-18.95l-.178-.258c2.785-1.989 6.183-3.538 10.988-4.709 9.42-2.317 19.748-10.705 19.748-10.705Z" fill="#000"/><path d="M34.618 112.081c.834-1.271 10.411-14.13 14.183-27.156 3.773-13.026 11.49-18.754 19.545-21.101a31.39 31.39 0 0 1 15.673-.165s3.273-10.574 10.195-15.077c6.921-4.502 17.277-5.614 27.271-1.88a48.33 48.33 0 0 0 1.689.613c8.916 3.112 13.74 3.01 13.74 3.01s-10.34 8.361-19.761 10.678c-4.805 1.17-8.203 2.72-10.988 4.71-2.68 1.916-4.805 4.226-7.085 6.988-2.28 2.762-3.494 4.365-5.499 5.635-2.124 1.358-5.165 2.306-11.234 3.709a23.058 23.058 0 0 0-10.52 5.423c-3.843 3.424-6.65 7.638-12.006 11.156-6.406 4.23-24.641 13.12-25.217 13.393" stroke="#000" stroke-linecap="round" stroke-linejoin="round"/><path d="M34.617 112.08c.65.711 39.994 42.776 86.642 16.23 11.985-6.828 18.215-16.573 21.068-26.86 6.62-23.905-4.998-50.757-4.998-50.757" stroke="#000" stroke-linecap="round" stroke-linejoin="round"/><path d="M136.917 50.342s.034.15.055.437c.408 3.092 2.356 21.911-6.962 38.394a45.91 45.91 0 0 1-17.12 17.325c-14.23 8.302-27.532 11.767-38.988 12.674-23.121 1.832-38.733-6.766-39.281-7.075" stroke="#000" stroke-linecap="round" stroke-linejoin="round"/><path d="M72.34 87.566c.699.088 10.115 9.274 15.711 8.825 3.119-.268 8.533-2.926 13.178-5.717 3.683-2.206 6.887-4.494 8.126-5.74 3.387-3.432-2.996-18.95-2.996-18.95m66.616-48.801-.005.007-11.145 35.291 27.803-.962-22.443 19.193 16.98 16.067-23.738.805 11.23 27.944-27.93-14.03m-20.536-54.243 8.196-25.358s7.808 19.093 8.458 18.96c.65-.132 32.62-23.32 33.118-23.673M93.856 78.785l7.16 11.422m-27.155 28.455s7.273-15.562 32.213-19.283c3.217-6.9 15.079-13.13 23.014-11.08" stroke="#000" stroke-linecap="round" stroke-linejoin="round"/></g><defs><clipPath id="a"><path fill="#fff" d="M0 0h224v160H0z"/></clipPath></defs></svg>