<svg width="224" height="160" fill="none" xmlns="http://www.w3.org/2000/svg"><g clip-path="url(#a)"><path d="m192.418 30.643-64.317 17.93c-5.232-3.63-11.622-6.363-18.915-8.05a21.032 21.032 0 0 0-.362-18.211 21.009 21.009 0 0 0-8.116-8.648 20.945 20.945 0 0 0-22.71.959 15.084 15.084 0 0 0-3.421-1.998l-5.001-2.079a14.877 14.877 0 0 0-19.11 7.237c-2.643 5.422-5.827 11.893-6.582 13.362-.318.547-.6 1.114-.846 1.697l-.118-.014a19.533 19.533 0 0 0-18.363 8.643 19.587 19.587 0 0 0-3.24 10.037 19.61 19.61 0 0 0 2.433 10.267 71.93 71.93 0 0 0-4.675 4.229C6.59 78.354 1.567 93.074 5.29 106.39a33.411 33.411 0 0 0 7.805 13.821c10.645 14.154 25.432 21.725 27.094 22.546.362.178.733.343 1.112.495 13.605 5.382 31.671 5.62 49.578.628l.096-.027c23.248-6.481 41.605-20.448 47.926-36.39.041-.094.075-.192.11-.289a84.048 84.048 0 0 0 3.915-15.736l61.682-17.195a22.578 22.578 0 0 0 13.855-10.619 22.637 22.637 0 0 0 2.162-17.338 22.657 22.657 0 0 0-10.82-13.72 22.594 22.594 0 0 0-17.35-1.919l-.037-.005Z" fill="#90A8ED" stroke="#000" stroke-miterlimit="10"/><path d="M128.29 71.969c.29 1.04.485 2.105.583 3.18.393 4.257-.727 8.687-3.112 13.036l-.654.13c-3.141-6.44-10.819-10.766-20.857-12.447.147-.372.241-.763.279-1.161a4.593 4.593 0 0 0-2.361-4.561 4.586 4.586 0 0 0-5.107.48 4.585 4.585 0 0 0-1.656 3.126 4.74 4.74 0 0 0 .051 1.312l-.067.018a79.584 79.584 0 0 0-22.593 3.063 83.847 83.847 0 0 0-11.71 4.209 9.932 9.932 0 0 0-4.233-2.117c-3.86-.906-7.426 1.848-6.296 4.737.305.85.934 1.546 1.75 1.933l-.23.224c-13.383 8.375-20.95 19.664-18.254 29.481a29.824 29.824 0 0 1-8.742-5.68 19.047 19.047 0 0 1-5.273-8.603c-4.643-16.653 15.848-36.927 45.797-45.322l2.156-.602.314.073c-.745 3.613.096 6.573 1.997 8.917 2.499 3.086 7.005 3.094 7.881.12 1.087-3.698-3.648-4.695-2.353-8.57a6.564 6.564 0 0 1 1.802-2.613l.306.064c20.744-3.115 39.022 1.114 46.987 10.814a18.423 18.423 0 0 1 3.595 6.759Z" fill="#000"/><path d="M104.244 75.865c10.038 1.681 17.716 6.006 20.857 12.448M61.04 82.372l.062-.017a83.842 83.842 0 0 1 11.71-4.209 79.584 79.584 0 0 1 22.592-3.063m-61.541 41.601-.02-.072c-2.696-9.817 4.87-21.11 18.253-29.481" stroke="#000" stroke-linecap="round" stroke-linejoin="round"/><path d="M128.883 74.78c.032.115.023.247.036.367.15 1.557.213 3.114.213 4.647-.019 11.708-3.881 22.068-3.881 22.068-4.424 11.156-19.006 22.198-38.103 27.542-15.3 4.266-30.008 3.933-40.184-.093 0 0-13.14-6.467-21.924-18.327" stroke="#000" stroke-linecap="round" stroke-linejoin="round"/><path d="M77.73 54.4c20.744-3.115 39.021 1.114 46.986 10.813a18.426 18.426 0 0 1 3.571 6.745c.29 1.041.485 2.106.582 3.182.393 4.256-.727 8.686-3.111 13.035-6.559 11.963-22.678 23.35-43.272 29.091-18.706 5.215-36.66 4.585-48.635-.699a29.826 29.826 0 0 1-8.741-5.68 19.047 19.047 0 0 1-5.274-8.603c-4.642-16.653 15.848-36.927 45.797-45.322l2.157-.602m-22.05-3.605a4.691 4.691 0 0 1-3.323 4.012 4.681 4.681 0 0 1-4.976-1.542 4.697 4.697 0 0 1-.484-5.191 4.684 4.684 0 0 1 7.759-.72 4.698 4.698 0 0 1 1.024 3.44v0Z" stroke="#000" stroke-linecap="round" stroke-linejoin="round"/><path d="M95.456 75.064a4.732 4.732 0 0 1-.052-1.311 4.593 4.593 0 0 1 3.247-3.975 4.583 4.583 0 0 1 4.899 1.528 4.594 4.594 0 0 1 .979 3.401 4.26 4.26 0 0 1-.279 1.162 4.582 4.582 0 0 1-4.7 2.944 4.583 4.583 0 0 1-4.094-3.749v0Zm.888-42.692a6.102 6.102 0 0 1-4.325 5.216 6.09 6.09 0 0 1-6.471-2.007 6.112 6.112 0 0 1-.63-6.753 6.093 6.093 0 0 1 8.264-2.457 6.104 6.104 0 0 1 3.162 6ZM68.096 56.473a17.515 17.515 0 0 1 1.175-3.584c2.579-5.797 8.98-7.736 10.871-4.223 1.426 2.658-.854 3.85-2.72 5.66a6.565 6.565 0 0 0-1.801 2.614c-1.296 3.875 3.42 4.877 2.353 8.57-.877 2.974-5.383 2.966-7.882-.12-1.9-2.344-2.741-5.304-1.996-8.917Zm-6.992 25.869c1.825 1.555 3.239 3.927 4.058 7.275 1.512 6.163-2.36 11.623-6.003 10.002-3.872-1.728-.205-5.655-1.484-9.319-.97-2.774-3.49-2.463-5.35-3.405a3.412 3.412 0 0 1-1.75-1.932c-1.13-2.89 2.436-5.643 6.296-4.738a9.932 9.932 0 0 1 4.233 2.117v0Zm2.959-58.075 5 2.078-4.977 15.419s-7.466-2.754-7.142-3.144c.324-.39 7.119-14.353 7.119-14.353Zm14.502 61.336 3.409 13.338s7.36-3.172 7.436-3.735c.075-.562-5.341-12.412-5.341-12.412l-5.504 2.809Zm46.511-20.707 71.542-19.944a7.704 7.704 0 0 1 5.858.714 7.727 7.727 0 0 1 2.932 10.516 7.706 7.706 0 0 1-4.644 3.642l-71.81 20.019" stroke="#000" stroke-linecap="round" stroke-linejoin="round"/><path d="M200.858 51.787a2.805 2.805 0 1 0-4.907 2.487 2.809 2.809 0 0 0 3.94.476c.289-.227.531-.51.712-.83a2.815 2.815 0 0 0 .255-2.133Z" stroke="#000" stroke-linecap="round" stroke-linejoin="round"/></g><defs><clipPath id="a"><path fill="#fff" d="M0 0h224v160H0z"/></clipPath></defs></svg>