<svg width="224" height="160" fill="none" xmlns="http://www.w3.org/2000/svg"><path d="M209.996 76.785c2.708 10.687 2.62 22.392-.25 34.772-4.584 19.746-14.942 34.975-15.374 35.604a15.963 15.963 0 0 1-20.901 5.012l-12.365-6.76-33.139-18.117-34.904-19.082c-17.553-9.596-26.604-14.57-28.414-15.56l-.273-.149-.518-.283-.16-.088c-3.811-2.14-23.168-13.03-29.178-16.603-4.8-2.848-11.837-7.43-17.283-14.138-8.962-11.042-10.384-24.178-3.9-36.039 5.968-10.915 14.093-14.673 19.855-15.9C43.505 7.251 51.921 11.78 55.144 13.9l36.381 19.891.802.438 4.064 2.222a66.71 66.71 0 0 1 25.855-11.395c12.083-2.439 24.686-1.489 37.469 2.827a25.156 25.156 0 0 1 21.046 1.492 24.77 24.77 0 0 1 12.929 18.9 60.877 60.877 0 0 1 16.306 28.51Z" fill="#FF90E8" stroke="#000" stroke-miterlimit="10"/><path d="M165.265 48.407a85.76 85.76 0 0 0-3.651-1.767l.112-.204c1.94-3.55 6.866-4.583 11.011-2.317 4.144 2.266 5.924 6.98 3.99 10.517l-.465.612a58.141 58.141 0 0 0-2.771-1.995 71.119 71.119 0 0 0-6.048-3.692 33.946 33.946 0 0 0-2.178-1.154ZM55.839 64.322c3.297 6.684 8.49 10.633 15.368 14.534C66.822 76.39 48.093 65.85 42.35 62.44c-6.539-3.882-23.155-14.477-15.345-28.761 7.809-14.284 19.394-5.45 19.394-5.45 14.287 7.81 2.248 21.549 9.44 36.093v.001Z" fill="#000"/><path d="M98.452 56.347s9.383-11.444 26.623-14.945c9.75-1.964 22.022-1.403 36.547 5.22a93.746 93.746 0 0 1 3.651 1.766c.706.386 1.436.749 2.162 1.146a71.067 71.067 0 0 1 6.048 3.692 57.425 57.425 0 0 1 2.771 1.994c40.677 30.97 4.549 83.568 4.549 83.568l-12.381-6.769-39.053-21.35L72.13 79.376m-.923-.518c-6.878-3.9-12.071-7.85-15.369-14.534-7.191-14.545 4.847-28.283-9.44-36.093 0 0-11.58-8.806-19.388 5.478-7.81 14.285 8.806 24.88 15.329 28.752 5.76 3.42 24.48 13.957 28.857 16.418l.011-.021Zm-.001-.001.93.51-.93-.51Z" stroke="#000" stroke-linecap="round" stroke-linejoin="round"/><path d="m46.398 28.232 46.908 25.644a61.454 61.454 0 0 1 4.842 2.934c7.929 5.304 13.113 11.702 15.639 19.491a34.2 34.2 0 0 1 1.013 3.868c.35 1.81.522 3.648.515 5.491.025 3.052-.233 5.917.181 8.753.726 5.087 3.615 10.058 14.115 15.798 0 0 17.542-38.302 35.638-61.795l.016-.028m-3.548-1.978c1.941-3.55 6.867-4.582 11.011-2.316 4.144 2.265 5.924 6.98 3.99 10.517" stroke="#000" stroke-linecap="round" stroke-linejoin="round"/><path d="m61.516 36.777.04.022c.365.2 3.167 2.253 1.53 16.915-1.444 12.82 14.898 20.827 26.091 26.946a841.125 841.125 0 0 0 25.978 13.582" stroke="#000" stroke-linecap="round" stroke-linejoin="round"/><path d="m73.49 43.324.028.016c.257.14 2.22 1.562 1.067 11.821-1.005 8.96 10.419 14.553 18.242 18.83 9.488 5.187 21.847 11.511 21.847 11.511" stroke="#000" stroke-linecap="round" stroke-linejoin="round"/><path d="M83.859 48.678a.17.17 0 0 1 .056.031c.247.177 1.214 1.258.587 6.886-.59 5.236 6.085 8.505 10.659 11.006 5.544 3.03 18.323 9.767 18.323 9.767m54.938 55.654c5.014-10.868 27.794-52.537 4.944-78.627m-46.192 17.73c.31.09 6.924 2.081 5.309 7.236-1.653 5.281-17.683 1.795-17.683 1.795m6.835-21.395c1.33-.315 18.505-4.117 20.58 2.962 2.12 7.228-14.414 9.313-15.039 9.4m-5.589-12.348.051-.012" stroke="#000" stroke-linecap="round" stroke-linejoin="round"/><path d="M125.096 41.56s12.778-.746 11.667 6.378c-1.062 6.802-13.969 10.51-15.133 10.838" stroke="#000" stroke-linecap="round" stroke-linejoin="round"/></svg>