<svg width="224" height="160" fill="none" xmlns="http://www.w3.org/2000/svg"><path d="M160.659 101.56c5.292-9.674 8.301-20.776 8.301-32.58C168.96 31.436 138.524 1 100.98 1 63.436 1 33 31.436 33 68.98c0 37.544 30.436 67.98 67.98 67.98 12.139 0 23.536-3.182 33.4-8.757L164.577 159l26.461-26.461-30.379-30.979Z" fill="#F1F333" stroke="#000" stroke-miterlimit="10"/><path d="M101.777 119.673a49.634 49.634 0 0 0 30.781-10.662l33.096 33.106 8.463-8.466-33.096-33.106a49.928 49.928 0 0 0-17.895-75.892 49.888 49.888 0 0 0-43.245.228 49.918 49.918 0 0 0-26.83 33.928 49.933 49.933 0 0 0 9.736 42.149 49.894 49.894 0 0 0 38.989 18.715h.001Zm0-87.857a37.922 37.922 0 0 1 26.818 11.112 37.941 37.941 0 0 1 0 53.652 37.92 37.92 0 0 1-53.636 0 37.947 37.947 0 0 1 0-53.652 37.92 37.92 0 0 1 26.818-11.112Z" fill="#F1F333" stroke="#000" stroke-miterlimit="10"/><path d="M74.928 77.79a26.498 26.498 0 0 1 22.398-36.562l.528 6.695a19.783 19.783 0 0 0-16.722 27.295l-6.204 2.571Z" fill="#000"/></svg>