<svg xmlns="http://www.w3.org/2000/svg" width="15" height="15"><path d="M5.455 8.182H1.364C.61 8.182 0 8.792 0 9.545v4.091C0 14.39.61 15 1.364 15h4.09c.754 0 1.364-.61 1.364-1.364v-4.09c0-.753-.61-1.364-1.363-1.364Zm0-8.182H1.364C.61 0 0 .61 0 1.364v4.09c0 .754.61 1.364 1.364 1.364h4.09c.754 0 1.364-.61 1.364-1.363V1.364C6.818.61 6.208 0 5.455 0Zm8.181 8.182h-4.09c-.754 0-1.364.61-1.364 1.363v4.091c0 .754.61 1.364 1.363 1.364h4.091C14.39 15 15 14.39 15 13.636v-4.09c0-.753-.61-1.364-1.364-1.364Zm0-8.182h-4.09c-.754 0-1.364.61-1.364 1.364v4.09c0 .754.61 1.364 1.363 1.364h4.091c.754 0 1.364-.61 1.364-1.363V1.364C15 .61 14.39 0 13.636 0Z"/></svg>