<svg xmlns="http://www.w3.org/2000/svg" width="24" height="24" fill="none"><path fill="#000" fill-rule="evenodd" d="M.001 12.001c0-6.627 5.373-12 12-12s12 5.373 12 12-5.373 12-12 12-12-5.373-12-12Zm13 6v-1.018c1.668-.09 3-1.386 3-2.982 0-1.654-1.428-3-3.182-3h-1.637c-.652 0-1.182-.449-1.182-1 0-.551.531-1 1.182-1H14a1 1 0 0 0 0-2h-1v-1a1 1 0 0 0-2 0v1.018c-1.668.09-3 1.386-3 2.982 0 1.654 1.428 3 3.182 3h1.637c.652 0 1.182.449 1.182 1 0 .551-.531 1-1.182 1H9.501a1 1 0 0 0 0 2h1.5v1a1 1 0 0 0 2 0Z" clip-rule="evenodd"/></svg>