<svg xmlns="http://www.w3.org/2000/svg" width="15" height="15"><path d="M2.5 0v11.875a.627.627 0 0 1-.625.625.627.627 0 0 1-.625-.625v-5H0V12.5A2.5 2.5 0 0 0 2.5 15h10a2.5 2.5 0 0 0 2.5-2.5V0H2.5Zm7.083 11.875H5.416c-.23 0-.417-.281-.417-.625s.188-.625.417-.625h4.167c.23 0 .417.281.417.625s-.188.625-.417.625Zm2.292-2.5h-6.25A.627.627 0 0 1 5 8.75c0-.344.281-.625.625-.625h6.25c.344 0 .625.281.625.625a.627.627 0 0 1-.625.625Zm0-2.5h-6.25A.627.627 0 0 1 5 6.25c0-.344.281-.625.625-.625h6.25c.344 0 .625.281.625.625a.627.627 0 0 1-.625.625Zm0-2.5h-6.25A.627.627 0 0 1 5 3.75c0-.344.281-.625.625-.625h6.25c.344 0 .625.281.625.625a.627.627 0 0 1-.625.625Z"/></svg>