<svg xmlns="http://www.w3.org/2000/svg" width="22" height="24" fill="none"><path fill="#000" fill-rule="evenodd" d="m19.73 13.151 1.557 1.308c.739.621.93 1.697.45 2.544L20.61 19a1.94 1.94 0 0 1-2.383.873l-1.893-.725a8.738 8.738 0 0 1-1.943 1.158l-.33 2.024c-.157.964-.974 1.671-1.931 1.671H9.873c-.957 0-1.773-.707-1.931-1.671l-.33-2.024a8.783 8.783 0 0 1-1.943-1.158l-1.893.725A1.938 1.938 0 0 1 1.394 19l-1.13-1.997a2.029 2.029 0 0 1 .452-2.544l1.556-1.308a9.262 9.262 0 0 1-.08-1.149c0-.39.033-.772.08-1.149L.716 9.545a2.03 2.03 0 0 1-.451-2.544l1.128-1.997a1.94 1.94 0 0 1 2.383-.873l1.893.725a8.738 8.738 0 0 1 1.943-1.158l.33-2.024C8.099.71 8.916.003 9.872.003h2.258c.957 0 1.773.707 1.93 1.671l.33 2.024a8.783 8.783 0 0 1 1.944 1.158l1.893-.725a1.938 1.938 0 0 1 2.382.873l1.129 1.997a2.029 2.029 0 0 1-.451 2.544l-1.556 1.308c.047.377.08.759.08 1.149s-.033.772-.08 1.149ZM7 12.001a4 4 0 1 0 8.001 0 4 4 0 0 0-8 0Z" clip-rule="evenodd"/></svg>