<svg width="17" height="17" xmlns="http://www.w3.org/2000/svg"><path d="M1.702 8.459A2.127 2.127 0 0 0 4.25 6.375a2.124 2.124 0 1 0 4.25 0 2.124 2.124 0 1 0 4.25 0 2.125 2.125 0 0 0 2.236 2.122c1.15-.059 2.012-1.09 2.012-2.24V4.25L15.266.782C15.026.302 14.536 0 14 0H3c-.536 0-1.025.303-1.265.782L0 4.25v2.045c0 1.027.693 1.97 1.702 2.164zm13.363 1.582a3.949 3.949 0 0 1-.19.004c-.066 0-.128-.011-.193-.015v3.106H2.318V10.03c-.065.004-.127.015-.193.015A3.524 3.524 0 0 1 0 9.348V17h17V9.347a3.564 3.564 0 0 1-1.935.694z"/></svg>