<svg width="19" height="17" xmlns="http://www.w3.org/2000/svg"><path d="M5.795 8.5a4.255 4.255 0 0 0 4.25-4.25A4.255 4.255 0 0 0 5.795 0a4.255 4.255 0 0 0-4.25 4.25 4.255 4.255 0 0 0 4.25 4.25zm7.341 0A3.868 3.868 0 0 0 17 4.636 3.868 3.868 0 0 0 13.136.773c-.836 0-1.607.274-2.24.728a5.76 5.76 0 0 1 .695 2.749 5.76 5.76 0 0 1-1.01 3.262 3.83 3.83 0 0 0 2.555.988zm-.386 1.545c-.383 0-.758.029-1.12.08 1.413 1.027 2.28 2.461 2.28 4.074V17h4.635v-2.801c0-2.29-2.6-4.154-5.795-4.154zm-6.568 0C2.773 10.045 0 11.91 0 14.2V17h12.364v-2.801c0-2.29-2.774-4.154-6.182-4.154z"/></svg>