<svg xmlns="http://www.w3.org/2000/svg" xmlns:xlink="http://www.w3.org/1999/xlink" width="19" height="19"><defs><filter id="a" width="123.5%" height="123.5%" x="-11.8%" y="-5.9%" filterUnits="objectBoundingBox"><feOffset dy="1" in="SourceAlpha" result="shadowOffsetOuter1"/><feGaussianBlur in="shadowOffsetOuter1" result="shadowBlurOuter1" stdDeviation=".5"/><feColorMatrix in="shadowBlurOuter1" values="0 0 0 0 0 0 0 0 0 0 0 0 0 0 0 0 0 0 0.2 0"/></filter><path id="b" d="M22.75 24.75a2.125 2.125 0 1 0 0 4.25 2.125 2.125 0 0 0 0-4.25Zm-5.667 0a2.125 2.125 0 1 0 0 4.25 2.125 2.125 0 0 0 0-4.25Zm-3.446-9.917L12.624 12h-1.916a.708.708 0 1 0 0 1.417h.918l3.038 8.506a2.13 2.13 0 0 0 2 1.41h6.61c.947 0 1.765-.608 2.047-1.55L27 14.832H13.637Z"/></defs><g transform="translate(-9 -12)" fill="none"><use fill="#000" filter="url(#a)" xlink:href="#b"/><use fill="#FFF" xlink:href="#b"/></g></svg>