<svg xmlns="http://www.w3.org/2000/svg" width="58" height="72"><g transform="translate(.5 -.222)" fill="none" fill-rule="evenodd"><path stroke="#666" stroke-linecap="square" d="M23.909 37.77H9.356m8.316 4.163H9.356m12.474 3.976H9.356m10.394 3.975H9.357m14.552 3.976H9.356m4.158 3.976H9.356m42.187-25.843H5.198"/><rect width="16.632" height="5.964" x="31.649" y="36.59" fill="#666" rx="1"/><path fill="#666" d="m39.965 16.653 3.58-4.008h9.307v8.016h-9.306l-3.581-4.008Z"/><path fill="#666" d="M56.905 5.6c0-3.537-2.217-5.226-4.948-5.226H4.948C2.217.374 0 2.064 0 5.599v60.853c0 3.536 2.217 5.225 4.948 5.225h47.009c2.731 0 4.948-1.69 4.948-5.225V5.599Zm-51.957 0h47.009v60.852H4.948V5.599Z"/></g></svg>