<svg xmlns="http://www.w3.org/2000/svg" width="20" height="21"><path d="M19.999 7.313a1.25 1.25 0 0 0-.365-.884L14.32 1.06a1.25 1.25 0 0 0-.884-.366H6.875v1.25h6.25v5.625h5.625v11.875H5.625v-8.75h-1.25v8.75c0 .69.56 1.25 1.25 1.25H18.75c.69 0 1.25-.56 1.25-1.25V7.313h-.001Zm-6.249-.37v-5l5 5h-5Zm-8.125 2.5V6.318H8.75v-2.5H5.625V.693h-2.5v3.125H0v2.5h3.125v3.125h2.5Zm1.875 3.75h9.374v.625H7.5v-.626Zm0 1.875h9.374v.625H7.5v-.625Zm0 1.875h9.374v.625H7.5v-.625Z" fill="#FFF" fill-rule="evenodd"/></svg>