<svg xmlns="http://www.w3.org/2000/svg" xmlns:xlink="http://www.w3.org/1999/xlink" width="20" height="21"><defs><path id="a" d="M19.999 6.62a1.25 1.25 0 0 0-.365-.884L14.32.366A1.25 1.25 0 0 0 13.437 0H6.875v1.25h6.25v5.625h5.625V18.75H5.625V10h-1.25v8.75c0 .69.56 1.25 1.25 1.25H18.75c.69 0 1.25-.56 1.25-1.25V6.62h-.001Zm-6.249-.37v-5l5 5h-5Zm-8.125 2.5V5.625H8.75v-2.5H5.625V0h-2.5v3.125H0v2.5h3.125V8.75h2.5ZM7.5 12.5h9.374v.625H7.5v-.626Zm0 1.875h9.374V15H7.5v-.625Zm0 1.875h9.374v.625H7.5v-.625Z"/></defs><g transform="translate(0 .693)" fill="none" fill-rule="evenodd"><mask id="b" fill="#fff"><use xlink:href="#a"/></mask><use fill="#FFF" xlink:href="#a"/><path fill="#000" mask="url(#b)" d="M-5-8h33v34H-5z"/></g></svg>