<svg xmlns="http://www.w3.org/2000/svg" width="57" height="71"><g fill="none" fill-rule="evenodd"><path fill="#666" d="M44.624 17.989v4.632h6.698v43.54H9.326v-7.074H4.611v6.918c0 2.634 2.204 4.789 4.898 4.789h41.63c2.694 0 4.898-2.155 4.898-4.789V22.777c0-2.633-2.204-4.788-4.897-4.788h-6.516Z"/><path stroke="#666" stroke-linecap="square" d="M49.267 25.041h-3.8m3.8 3.79h-3.8m3.8 3.789h-3.8m3.8 3.79h-3.8m3.8 3.79h-3.8m3.8 3.789h-3.8m3.8 3.789h-3.8m3.8 3.79h-3.8m3.8 3.789h-3.8m3.681 4.31H10.685m38.463 3.789H10.685"/><g transform="translate(.5 .778)"><path stroke="#666" stroke-linecap="square" d="M16.48 30.282H5.84m6.08 2.972H5.84m9.12 2.972H5.84m7.6 2.972h-7.6m10.64 2.972H5.84m3.04 2.972H5.84M39 25.824H3"/><path fill="#666" d="m27.633 11.828 3.379-3.171h8.78V15h-8.78l-3.38-3.172Z"/><path fill="#666" d="M41.604 4.95c0-2.643-1.62-4.788-3.618-4.788H3.618C1.62.162 0 2.307 0 4.95v45.49c0 2.644 1.62 4.789 3.618 4.789h34.368c1.997 0 3.618-2.145 3.618-4.788V4.95ZM3.618 3.162h35.368v49H2.618v-49h1Z"/><rect width="12.16" height="4.458" x="24.8" y="29.539" fill="#666" rx="1"/></g></g></svg>