<svg xmlns="http://www.w3.org/2000/svg" width="20" height="19" fill="none"><path fill="#000" fill-rule="evenodd" d="M10.596.558a1.2 1.2 0 0 0-1.191 0l-8.4 4.8A1.2 1.2 0 0 0 1.6 7.6V16a1.2 1.2 0 0 0 0 2.4h16.8a1.2 1.2 0 1 0 0-2.4V7.6a1.2 1.2 0 0 0 .596-2.242l-8.4-4.8ZM5.2 8.8A1.2 1.2 0 0 0 4 10v3.6a1.2 1.2 0 0 0 2.4 0V10a1.2 1.2 0 0 0-1.2-1.2ZM8.8 10a1.2 1.2 0 1 1 2.4 0v3.6a1.2 1.2 0 1 1-2.4 0V10Zm6-1.2a1.2 1.2 0 0 0-1.2 1.2v3.6a1.2 1.2 0 0 0 2.4 0V10a1.2 1.2 0 0 0-1.2-1.2Z" clip-rule="evenodd"/></svg>