<svg xmlns="http://www.w3.org/2000/svg" width="24" height="24" fill="none"><path fill="#000" d="M7.998 2.015c-2.552 0-4 1.448-4 4v15c0 .718.746 1.19 1.406.907l6.594-2.813 6.594 2.813c.66.282 1.406-.189 1.406-.907v-15c0-2.623-1.305-4-4-4zm0 2h8c1.566 0 2 .458 2 2v13.5l-5.594-2.406a1.06 1.06 0 0 0-.812 0l-5.594 2.406v-13.5c0-1.447.552-2 2-2m2 4a1 1 0 0 0-.719.282c-.39.39-.39 1.047 0 1.437l1.28 1.281-1.28 1.282c-.39.39-.39 1.047 0 1.437a.99.99 0 0 0 1.407 0l1.312-1.281 1.28 1.281a.99.99 0 0 0 1.408 0 1.03 1.03 0 0 0 0-1.437l-1.282-1.282 1.282-1.28a1.03 1.03 0 0 0 0-1.438.94.94 0 0 0-.688-.282c-.256 0-.523.086-.72.282l-1.28 1.312-1.312-1.312a.94.94 0 0 0-.688-.282"/></svg>