<svg width="24" height="24" fill="none" xmlns="http://www.w3.org/2000/svg"><path d="M12.007 2.992c-.745 0-1.502.143-2.095.438L3.568 6.586c-.38.208-.562.544-.562.906v7.438c0 1.201.828 2.526 1.906 3.062l5.25 2.594c1.05.521 2.638.522 3.688 0l5.25-2.594c1.087-.54 1.906-1.851 1.906-3.062V7.492a.982.982 0 0 0-.561-.906L14.1 3.43c-.591-.295-1.35-.438-2.093-.438Zm-1.188 2.219c.623-.31 1.751-.31 2.375 0l4.562 2.281-4.562 2.25c-.624.31-1.752.31-2.376 0-.07-.035-3.898-1.92-4.562-2.25l4.563-2.281ZM5.006 9.117c.922.459 1.693.819 2.688 1.313.827.41 1.935.962 2.218 1.093.434.201.721.302 1.095.375v6.875l-5.22-2.593c-.398-.198-.78-.811-.78-1.25V9.117Zm14 0v5.813c0 .449-.404 1.078-.811 1.281l-5.188 2.562v-6.875c.373-.073.754-.19 1.062-.344l4.937-2.437Z" fill="#000"/></svg>