<svg width="24" height="24" fill="none" xmlns="http://www.w3.org/2000/svg"><path d="M18.003 2.992c-1.024 0-2.093.42-2.874 1.201L9.503 9.836a3.857 3.857 0 0 0-1.137 3.18c-.14-.014-.219-.024-.363-.024-1.875.004-3.004.856-4.125 2.875-.06.108-.449.858-.531 1a6.613 6.613 0 0 1-1.063 1.406c-.482.483-.329 1.32.282 1.625.302.152.812.357 1.53.563 1.18.337 2.497.531 3.907.531a4 4 0 0 0 4-4c0-.155-.011-.227-.028-.378a3.85 3.85 0 0 0 3.184-1.122l5.636-5.628c1.562-1.562 1.622-4.11.06-5.673a4.07 4.07 0 0 0-2.852-1.199Zm0 2a1.98 1.98 0 0 1 1.406.594 1.98 1.98 0 0 1 0 2.812l-4.281 4.306-2.825-2.834 4.294-4.284a1.98 1.98 0 0 1 1.406-.594Zm-7.12 6.293 2.836 2.821c-.835.724-2.003.732-2.798-.048-.763-.749-.74-2.05-.038-2.773Zm-2.88 3.707a2 2 0 1 1 0 4 12.15 12.15 0 0 1-3.344-.469c.288-.429.912-1.553.969-1.656.806-1.45 1.286-1.875 2.375-1.875Z" fill="#000"/></svg>