<svg width="24" height="24" fill="none" xmlns="http://www.w3.org/2000/svg"><path d="M12 2.016c-5.523 0-10 4.477-10 10s4.477 10 10 10 10-4.477 10-10c0-.754-.086-1.495-.25-2.22a.99.99 0 0 0-1.188-.75.99.99 0 0 0-.75 1.189c.132.578.188 1.176.188 1.78a8 8 0 1 1-8-8c.604 0 1.203.057 1.78.189a.99.99 0 0 0 1.189-.75.99.99 0 0 0-.75-1.188 10.024 10.024 0 0 0-2.22-.25Zm6 0a1 1 0 0 0-1 1v2.563l-4.498 4.497s-.345-.06-.502-.06a2 2 0 1 0 2 2 4 4 0 0 0-.064-.5l4.502-4.5H21a1 1 0 0 0 0-2h-2v-2a1 1 0 0 0-1-1Zm-6 4a6 6 0 1 0 6 6 1 1 0 0 0-2 0 4 4 0 1 1-4-4 1 1 0 0 0 0-2Z" fill="#000"/></svg>