<svg xmlns="http://www.w3.org/2000/svg" width="16" height="16" fill="none"><path fill="#000" d="M4 2.686a2.667 2.667 0 0 0-2.667 2.666v5.333a2.667 2.667 0 0 0 2.666 2.667h8a2.667 2.667 0 0 0 2.667-2.667V5.352a2.667 2.667 0 0 0-2.667-2.666zm0 1.333h8c.736 0 1.332.597 1.332 1.333v5.333c0 .737-.596 1.334-1.333 1.334H4a1.333 1.333 0 0 1-1.333-1.334V5.352c0-.736.597-1.333 1.333-1.333m.666 2a.667.667 0 0 0 0 1.333h6.666a.667.667 0 0 0 0-1.333zm0 2.667a.667.667 0 0 0 0 1.333h4a.667.667 0 0 0 0-1.333z"/></svg>