<svg xmlns="http://www.w3.org/2000/svg" width="24" height="24" fill="none"><path fill="#000" d="M2.964 2a.964.964 0 1 0 0 1.928c.712.006 1.28.482 1.717 1.386.409.845.529 1.54.543 1.627l1.144 7.381c.351 1.758 2.017 3.104 3.767 3.104h6.868c1.75 0 3.424-1.358 3.767-3.073l1.175-7.834c.273-1.363-.733-2.59-2.169-2.59H6.127C5.402 2.733 4.297 2.01 2.964 2m4.007 3.856h12.805c.219 0 .313.116.271.332l-1.175 7.833c-.155.768-1.038 1.476-1.869 1.476h-6.868c-.83 0-1.705-.692-1.868-1.506L7.152 6.64a9 9 0 0 0-.181-.784m6.598 1.929a.964.964 0 0 0-.964.964v.964h-.964a.964.964 0 0 0 0 1.928h.964v.964a.964.964 0 0 0 1.928 0v-.964h.964a.964.964 0 0 0 0-1.928h-.964v-.964a.964.964 0 0 0-.964-.964M9.231 18.39a1.446 1.446 0 1 0 0 2.893 1.446 1.446 0 0 0 0-2.893m8.677 0a1.446 1.446 0 1 0 0 2.893 1.446 1.446 0 0 0 0-2.893"/></svg>