<svg width="24" height="24" fill="none" xmlns="http://www.w3.org/2000/svg"><path d="M6.991 3.001a4 4 0 0 0-4 4v10a4 4 0 0 0 4 4h10a4 4 0 0 0 4-4v-10a4 4 0 0 0-4-4h-10zm0 2h10a2 2 0 0 1 2 2v10a2 2 0 0 1-2 2h-10a2 2 0 0 1-2-2v-10a2 2 0 0 1 2-2zm9 3.812c-.256 0-.523.087-.719.282l-3.719 3.718c-.257.258-.516.241-.718-.062l-1-1.5a1.023 1.023 0 0 0-1.406-.281c-.46.306-.588.946-.282 1.406l1 1.5c.903 1.353 2.663 1.525 3.813.375l3.75-3.75a.991.991 0 0 0 0-1.406 1.015 1.015 0 0 0-.719-.282z" fill="#000"/></svg>