<svg xmlns="http://www.w3.org/2000/svg" width="24" height="24" fill="none"><path fill="#000" d="M12.042 1.999c-5.538 0-10.028 4.476-10.028 9.998s4.49 9.999 10.028 9.999c2.703 0 5.245-1.066 7.114-2.937a.987.987 0 0 0 0-1.406.994.994 0 0 0-1.41 0 8.04 8.04 0 0 1-5.704 2.343c-4.43 0-8.022-3.581-8.022-8C4.02 7.58 7.612 4 12.042 4c.554 0 1.003-.448 1.003-1s-.449-1-1.003-1m3.667.906a.96.96 0 0 0-.564.5c-.244.496-.058 1.1.44 1.344.266.13.501.277.751.437a1.037 1.037 0 0 0 1.41-.312.994.994 0 0 0-.313-1.375 10 10 0 0 0-.972-.531 1 1 0 0 0-.752-.063m3.541 2.468a1.05 1.05 0 0 0-.752.219 1 1 0 0 0-.156 1.406c.183.233.375.467.532.719a1 1 0 0 0 1.38.312.957.957 0 0 0 .313-1.343 11 11 0 0 0-.659-.938.98.98 0 0 0-.658-.375m-7.208.625c-.553 0-1.002.448-1.002 1v4.999c0 .266.125.53.313.719l3.008 2.999a.995.995 0 0 0 1.411 0 1.027 1.027 0 0 0 0-1.437l-2.727-2.718V6.998c0-.552-.449-1-1.003-1m8.587 3.031a.987.987 0 0 0-.752 1.187c.064.289.126.58.157.875a.986.986 0 0 0 1.097.875.983.983 0 0 0 .877-1.093c-.039-.37-.076-.733-.157-1.094-.119-.539-.68-.869-1.222-.75m.44 4.062a1.023 1.023 0 0 0-1.223.75c-.07.289-.18.566-.282.843-.19.519.106 1.061.627 1.25.52.189 1.064-.043 1.253-.562.127-.348.257-.701.345-1.063.13-.536-.183-1.088-.72-1.218"/></svg>