<svg xmlns="http://www.w3.org/2000/svg" width="24" height="25" fill="none"><path fill="#000" d="M8.792 5.032c-.251.05-.503.177-.657.407l-4 6a1.024 1.024 0 0 0 0 1.124l4 6c.307.46.947.588 1.407.282.46-.307.587-.947.281-1.406l-3.625-5.438 3.625-5.438a1.024 1.024 0 0 0-.281-1.406.985.985 0 0 0-.75-.125Zm6.375 0c-.251-.05-.52-.028-.75.125-.46.307-.588.947-.281 1.406l3.625 5.438-3.625 5.438a1.024 1.024 0 0 0 .28 1.406c.46.306 1.1.178 1.407-.282l4-6a1.024 1.024 0 0 0 0-1.124l-4-6c-.153-.23-.405-.357-.656-.407Z"/></svg>