<svg width="24" height="24" fill="none" xmlns="http://www.w3.org/2000/svg"><path d="M6.991 3.002a4 4 0 0 0-4 4v10a4 4 0 0 0 4 4h10a4 4 0 0 0 4-4v-10a4 4 0 0 0-4-4h-10Zm0 2h10a2 2 0 0 1 2 2v10a2 2 0 0 1-2 2h-10a2 2 0 0 1-2-2v-10a2 2 0 0 1 2-2Zm2.75 3.03c-.25.05-.503.178-.656.408l-1.969 2.968a1.026 1.026 0 0 0 0 1.125l2.031 3.063c.307.459.947.556 1.406.25a.987.987 0 0 0 .282-1.375l-1.688-2.5 1.594-2.407c.306-.46.21-1.1-.25-1.406-.23-.153-.499-.175-.75-.125Zm4.47 0a.984.984 0 0 0-.75.126c-.46.307-.589.947-.282 1.406l1.593 2.407-1.625 2.469a.986.986 0 0 0 .282 1.374.985.985 0 0 0 1.374-.281l2.032-3a1.026 1.026 0 0 0 0-1.125l-2-2.968a.946.946 0 0 0-.625-.407Z" fill="#000"/></svg>