<svg width="24" height="24" fill="none" xmlns="http://www.w3.org/2000/svg"><path d="M11.016 2.002c-.256 0-.522.086-.718.281-.156.157-.065.115-.624.563-.992.795-1.45 1.611-1.592 3.156H5.023a1 1 0 0 0-.999 1v6.875c0 2.662 1.465 4.945 3.465 6.125H6.022a1 1 0 0 0 0 2h11.986a1 1 0 0 0 0-2H16.51c2.108-1.246 3.495-3.569 3.495-6a3.998 3.998 0 0 0 3.996-4c0-2.209-1.79-4-3.995-4h-4.901c.088-.776.254-1.172.78-1.594.65-.52.608-.452.843-.687a1.03 1.03 0 0 0 0-1.438 1.012 1.012 0 0 0-.718-.28 1.01 1.01 0 0 0-.718.28c-.156.157-.065.115-.624.563-.985.79-1.418 1.631-1.56 3.156H10.11c.09-.786.249-1.168.78-1.594.65-.52.607-.452.843-.687a1.03 1.03 0 0 0 0-1.438 1.012 1.012 0 0 0-.718-.28Zm-4.994 6h11.986v5.875a5.13 5.13 0 0 1-5.12 5.125h-1.747a5.13 5.13 0 0 1-5.12-5.125V8.002Zm13.983 0c1.104 0 1.998.895 1.998 2s-.894 2-1.997 2v-4Z" fill="#000"/></svg>