<svg xmlns="http://www.w3.org/2000/svg" width="20" height="16" fill="none"><path fill="#FF90E8" fill-rule="evenodd" d="m7.693 5.488 2.006-1.813a4.29 4.29 0 0 1 3.437-1.068l2.654.352L19.473.968a.357.357 0 0 1 .527.314v6.769c0 .46-.222.893-.597 1.162l-2.48 1.775-2.685-2.253c.54-.191 1-.506 1.38-.9a.893.893 0 0 0-1.286-1.24 1.74 1.74 0 0 1-.932.523c-.313.061-.711.05-1.213-.104l-.638-.535-1.778 1.439a1.6 1.6 0 0 1-2.078-2.43M6.496 4.163l1.44-1.302a4.4 4.4 0 0 0-1.9-.09l-2.622.454L.538 1.677A.365.365 0 0 0 0 1.998V8.05c0 .483.239.934.637 1.206l7.793 5.312a2.92 2.92 0 0 0 3.335-.032l3.58-2.542-3.816-3.201-.634.513a3.385 3.385 0 0 1-4.4-5.143" clip-rule="evenodd"/></svg>