<svg width="24" height="24" fill="none" xmlns="http://www.w3.org/2000/svg"><path d="M12.014 2.003c-5.523 0-10 4.477-10 10s4.477 10 10 10 10-4.477 10-10-4.477-10-10-10Zm0 2a8 8 0 1 1 0 16 8 8 0 0 1 0-16Zm-3 5a1 1 0 0 0-1 1v1a1 1 0 0 0 2 0v-1a1 1 0 0 0-1-1Zm6 0a1 1 0 0 0-1 1v1a1 1 0 0 0 2 0v-1a1 1 0 0 0-1-1Zm-5.812 4.844c-.256 0-.524.086-.719.28a.99.99 0 0 0 0 1.407 4.986 4.986 0 0 0 3.531 1.469 5.014 5.014 0 0 0 3.532-1.47.99.99 0 0 0 0-1.405.99.99 0 0 0-1.407 0 3.01 3.01 0 0 1-2.125.875 2.995 2.995 0 0 1-2.125-.875.942.942 0 0 0-.687-.281Z" fill="#000"/></svg>