<svg width="24" height="24" fill="none" xmlns="http://www.w3.org/2000/svg"><path d="M5.953 4.002c-2.034 0-3.626.514-3.907 2.469-.09.626.108 1.242.563 1.687.226.22.465.484.78.75.794.669 1.805 1.42 2.75 2.094 2.604 1.85 4.659 3 5.876 3 1.217 0 3.272-1.15 5.875-3 .947-.673 1.958-1.426 2.75-2.094.316-.266.555-.528.78-.75a1.944 1.944 0 0 0 .564-1.687C21.703 4.516 20.11 4 18.077 4H5.953Zm-3.938 6.156v5.844a4 4 0 0 0 4 4h12a4 4 0 0 0 4-4v-5.844a26.122 26.122 0 0 1-3.031 2.5c-2.836 2.008-5.383 3.344-6.97 3.344-1.585 0-4.132-1.336-6.968-3.344a26.037 26.037 0 0 1-3.031-2.5Z" fill="#000"/></svg>