<svg width="24" height="25" fill="none" xmlns="http://www.w3.org/2000/svg"><path d="M12.015 3.002c-1.006 0-2.565.73-4.75 2.031a57.89 57.89 0 0 0-1.031.625 81.23 81.23 0 0 0-2.657 1.75c-.147.101-.324.215-.562.375l6.156 4.125c1.19-.554 2.25-.906 2.844-.906.516 0 1.604.37 2.75.97.628-.417 6.25-4.189 6.25-4.189-.238-.16-.415-.274-.563-.375a81.23 81.23 0 0 0-2.656-1.75 57.89 57.89 0 0 0-1.031-.625c-2.186-1.3-3.745-2.03-4.75-2.03Zm-10 6.531v6.75c1.672-1.182 3.489-2.398 5.125-3.312L2.015 9.533Zm20 .031s-3.743 2.454-5.25 3.47a64.04 64.04 0 0 1 5.25 3.28v-6.75Zm-10 3.438c-1.29 0-6.186 2.905-9.688 5.531a3.994 3.994 0 0 0 3.688 2.47h12c1.575 0 3.073-1.012 3.687-2.439-3.53-2.523-8.651-5.562-9.687-5.562Z" fill="#000"/></svg>