<svg width="24" height="24" fill="none" xmlns="http://www.w3.org/2000/svg"><path d="M12.002 4.002c-2.96 0-5.452 1.454-7.5 3.844a16.654 16.654 0 0 0-1.812 2.562c-.302.528-.486.936-.594 1.188a1.058 1.058 0 0 0 0 .812c.108.252.292.66.594 1.188a16.652 16.652 0 0 0 1.812 2.562c2.048 2.39 4.54 3.844 7.5 3.844 2.959 0 5.452-1.454 7.5-3.844a16.652 16.652 0 0 0 1.812-2.562c.302-.528.486-.936.594-1.188a1.058 1.058 0 0 0 0-.812c-.108-.252-.292-.66-.594-1.188a16.654 16.654 0 0 0-1.812-2.562c-2.048-2.39-4.541-3.844-7.5-3.844Zm0 4a4 4 0 1 1 0 8 4 4 0 0 1 0-8Zm0 2A2 2 0 1 0 12 14a2 2 0 0 0 0-4Z" fill="#000"/></svg>