<svg width="24" height="24" fill="none" xmlns="http://www.w3.org/2000/svg"><path d="M7.59 2.004c-1.95 0-3.562 1.48-3.562 3.344V18.66c0 1.863 1.611 3.343 3.562 3.343h8.876c1.951 0 3.562-1.48 3.562-3.343V8.973c0-3.563-3.439-6.97-7-6.97H7.59Zm6.438 2.25c1.76.467 3.278 1.966 3.75 3.719-.663.01-1.249.037-1.75.03-1.468-.017-2.014-.303-2.03-2-.003-.174.021-.97.03-1.75Zm-3.469 6.875a.995.995 0 0 1 1.031.03l3 2a1.022 1.022 0 0 1 0 1.688l-3 2c-.664.444-1.562-.045-1.562-.844v-4a.98.98 0 0 1 .531-.874Z" fill="#000"/></svg>