<svg width="24" height="24" fill="none" xmlns="http://www.w3.org/2000/svg"><path d="M7.59 2.004c-1.95 0-3.561 1.48-3.561 3.344V18.66c0 1.864 1.61 3.344 3.562 3.344h8.876c1.95 0 3.562-1.48 3.562-3.344V8.973c0-3.563-3.44-6.97-7-6.97H7.59Zm6.435 2.124c1.759.467 3.406 2.108 3.878 3.86-.663.01-1.373.022-1.874.016-.732-.01-1.153-.013-1.557-.37-.401-.352-.487-.706-.47-1.618l.023-1.888Zm-4.996.876h1a1 1 0 0 1 0 2h-1a1 1 0 0 1 0-2Zm0 3h1a1 1 0 0 1 0 2h-1a1 1 0 0 1 0-2Zm0 3h1a1 1 0 0 1 0 2h-1a1 1 0 0 1 0-2Zm0 3h1a1 1 0 0 1 1 1v2a1 1 0 0 1-1 1h-1a1 1 0 0 1-1-1v-2a1 1 0 0 1 1-1Z" fill="#000"/></svg>