<svg xmlns="http://www.w3.org/2000/svg" width="24" height="25" fill="none"><path fill="#000" d="M7.59 2.004c-1.951 0-3.562 1.48-3.562 3.344V18.66c0 1.863 1.61 3.343 3.563 3.343h8.875c1.952 0 3.562-1.48 3.562-3.343V8.973c0-3.563-3.44-6.97-7-6.97H7.591Zm0 2h4.438V6.66c0 1.864 1.61 3.344 3.563 3.344h2.437v8.656c0 .713-.674 1.343-1.562 1.343H7.59c-.889 0-1.563-.63-1.563-1.343V5.348c0-.714.674-1.344 1.563-1.344Zm6.438.25c1.772.47 3.322 1.983 3.781 3.75h-2.218c-.89 0-1.563-.63-1.563-1.344V4.254Zm-2 6.75a1 1 0 0 0-1 1v1h-1a1 1 0 0 0 0 2h1v1a1 1 0 0 0 2 0v-1h1a1 1 0 0 0 0-2h-1v-1a1 1 0 0 0-1-1Z"/></svg>