<svg width="24" height="25" fill="none" xmlns="http://www.w3.org/2000/svg"><path d="M7.591 2.004c-1.951 0-3.562 1.48-3.562 3.344V18.66c0 1.864 1.611 3.344 3.562 3.344h8.876c1.951 0 3.562-1.48 3.562-3.344V8.973c0-3.563-3.439-6.97-7-6.97H7.591Zm0 2h4.438V6.66c0 1.864 1.611 3.344 3.562 3.344h2.438v8.656c0 .714-.674 1.344-1.562 1.344H7.591c-.888 0-1.562-.63-1.562-1.344V5.348c0-.714.674-1.344 1.562-1.344Zm6.438.125c1.772.47 3.416 2.108 3.875 3.875h-2.313c-.889 0-1.562-.63-1.562-1.344V4.129Zm-5 3.875a1 1 0 0 0 0 2h1a1 1 0 0 0 0-2h-1Zm0 4a1 1 0 0 0 0 2h6a1 1 0 0 0 0-2h-6Zm0 4a1 1 0 0 0 0 2h6a1 1 0 0 0 0-2h-6Z" fill="#000"/></svg>