<svg width="24" height="24" fill="none" xmlns="http://www.w3.org/2000/svg"><path d="M9.998 2.019c-3.56 0-7 3.406-7 6.969v5.687c0 1.864 1.611 3.344 3.562 3.344h.438v.656c0 1.864 1.611 3.344 3.562 3.344h6.876c1.951 0 3.562-1.48 3.562-3.344V9.363c0-1.864-1.61-3.344-3.562-3.344h-.438v-.656c0-1.864-1.61-3.344-3.562-3.344H9.998Zm1 2h2.438c.888 0 1.562.63 1.562 1.344v9.312c0 .714-.674 1.344-1.562 1.344H6.56c-.888 0-1.562-.63-1.562-1.344V10.02h2.438c1.95 0 3.562-1.48 3.562-3.344V4.02Zm-2 .25v2.406c0 .714-.674 1.344-1.562 1.344H5.217c.46-1.767 2.01-3.28 3.781-3.75Zm8 3.75h.438c.888 0 1.562.63 1.562 1.344v9.312c0 .714-.674 1.344-1.562 1.344H10.56c-.888 0-1.562-.63-1.562-1.344v-.656h4.438c1.951 0 3.562-1.48 3.562-3.344V8.02Z" fill="#000"/></svg>