<svg width="24" height="24" fill="none" xmlns="http://www.w3.org/2000/svg"><path d="M7.59 2.003c-1.951 0-3.562 1.48-3.562 3.344V18.66c0 1.864 1.61 3.344 3.563 3.344h8.875c1.952 0 3.562-1.48 3.562-3.344V8.972c0-3.563-3.44-6.969-7-6.969H7.591Zm6.442 2.122c1.76.467 3.41 2.125 3.883 3.878-.663.01-1.386.006-1.887 0-1.467-.018-2.013-.304-2.03-2-.003-.175.025-1.099.034-1.878ZM9.028 8.003a1 1 0 1 1 0 2 1 1 0 0 1 0-2Zm6 6c.385 0 1.514.62 3 3.312v1.344c0 .714-.674 1.344-1.562 1.344H7.59c-.889 0-1.563-.63-1.563-1.344v-.5c.027-.069.047-.113.094-.218a5.99 5.99 0 0 1 .5-.876c.459-.687.936-1.062 1.406-1.062.58 0 1.08.267 1.532.72.288.287.481.556.562.718.369.737 1.444.736 1.813 0 .053-.107.16-.302.312-.563.255-.438.54-.877.844-1.28.76-1.016 1.48-1.595 1.937-1.595Z" fill="#000"/></svg>