<svg width="24" height="24" fill="none" xmlns="http://www.w3.org/2000/svg"><path d="M7.59 2.003c-1.95 0-3.561 1.48-3.561 3.344V18.66c0 1.864 1.61 3.344 3.562 3.344h8.876c1.95 0 3.562-1.48 3.562-3.344V8.972c0-3.563-3.44-6.969-7-6.969H7.59Zm6.439 2.25c1.759.467 3.278 1.966 3.75 3.72-.663.01-1.25.036-1.75.03-1.468-.018-2.014-.304-2.031-2-.002-.175.022-.97.03-1.75Zm-4 1.75a1 1 0 0 1 1 1 1 1 0 0 1 0 2 1 1 0 0 1-2 0 1 1 0 0 1 0-2 1 1 0 0 1 1-1Zm-1 6h6a1 1 0 0 1 0 2h-6a1 1 0 0 1 0-2Zm0 4h6a1 1 0 0 1 0 2h-6a1 1 0 0 1 0-2Z" fill="#000"/></svg>