<svg xmlns="http://www.w3.org/2000/svg" width="24" height="24" fill="none"><path fill="#000" d="M7.59 2.003c-1.95 0-3.561 1.48-3.561 3.344V18.66c0 1.864 1.61 3.344 3.562 3.344h8.876c1.95 0 3.562-1.48 3.562-3.344V8.973c0-3.564-3.44-6.97-7-6.97zm0 2h4.439V6.66c0 1.864 1.61 3.344 3.562 3.344h2.438v8.656c0 .714-.674 1.344-1.562 1.344H7.59c-.888 0-1.562-.63-1.562-1.344V5.347c0-.714.674-1.344 1.562-1.344m6.439.25c1.772.47 3.322 1.983 3.78 3.75h-2.218c-.89 0-1.562-.63-1.562-1.344zm-4 3.75a1 1 0 0 0-1 1 1 1 0 0 0 0 2 1 1 0 0 0 2 0 1 1 0 0 0 0-2 1 1 0 0 0-1-1m-1 5a1 1 0 0 0 0 2h6a1 1 0 0 0 0-2zm0 3a1 1 0 0 0 0 2h6a1 1 0 0 0 0-2z"/></svg>