<svg width="24" height="25" fill="none" xmlns="http://www.w3.org/2000/svg"><path d="M7.591 2.003c-1.952 0-3.562 1.48-3.562 3.344V18.66c0 1.864 1.61 3.344 3.562 3.344h8.876c1.95 0 3.562-1.48 3.562-3.344V8.973c0-3.564-3.44-6.97-7-6.97H7.59Zm0 2h4.438c0 3.552 2.448 6 6 6v8.656c0 .714-.674 1.344-1.562 1.344H7.59c-.888 0-1.562-.63-1.562-1.344V5.347c0-.714.674-1.344 1.562-1.344Zm6.469.25c1.748.477 3.25 1.976 3.719 3.72-2.201-.108-3.612-1.519-3.72-3.72Zm-2.031 4.75a1 1 0 0 0-1 1v1h-1a1 1 0 0 0 0 2h1v1a1 1 0 0 0 2 0v-1h1a1 1 0 0 0 0-2h-1v-1a1 1 0 0 0-1-1Zm-2 7a1 1 0 0 0 0 2h4a1 1 0 0 0 0-2h-4Z" fill="#000"/></svg>