<svg width="24" height="24" fill="none" xmlns="http://www.w3.org/2000/svg"><path d="M7.591 2.003c-1.951 0-3.562 1.48-3.562 3.344V18.66c0 1.864 1.611 3.344 3.562 3.344h8.876c1.951 0 3.562-1.48 3.562-3.344V8.972c0-3.563-3.439-6.969-7-6.969H7.591Zm6.438 2.25c1.76.467 3.278 1.966 3.75 3.72-.663.01-1.249.036-1.75.03-1.468-.018-2.014-.304-2.031-2-.002-.175.022-.97.031-1.75Zm-3.969 8.75c1.303 0 2 .94 2 2.344v.312c0 1.331-.682 2.344-2.03 2.344-1.304 0-2-.946-2-2.344v-.312c0-1.398.735-2.344 2.03-2.344Zm3.875.094h1.094v4.812h-1.094v-3.875h-.062c-.139.071-1.007.603-1.188.72v-.907c.197-.13 1.046-.65 1.25-.75Zm-3.875.75c-.547 0-.906.494-.906 1.5v.312c0 1.006.36 1.5.906 1.5.548 0 .907-.498.907-1.5v-.312c0-1.002-.359-1.5-.907-1.5Z" fill="#000"/></svg>