<svg xmlns="http://www.w3.org/2000/svg" width="24" height="24" fill="none"><path fill="#000" d="M12 16.5a1 1 0 1 0-2 0 1 1 0 0 0 2 0Z"/><path fill="#000" fill-rule="evenodd" d="M19.972 8.968c0-3.563-3.44-6.97-7-6.97H7.534c-1.951 0-3.562 1.48-3.562 3.345v13.312c0 1.864 1.61 3.344 3.562 3.344h8.876c1.95 0 3.562-1.48 3.562-3.344V8.968ZM13.95 5.424c.008-.33.017-.755.022-1.175 1.759.467 3.278 1.966 3.75 3.719-.253.004-.495.01-.725.016-.373.01-.716.019-1.025.015-1.468-.018-2.014-.304-2.031-2-.001-.08.003-.293.01-.575ZM12 13.656V9.5h4v2h-2v5c0 .282-.021.522-.094.781C13.551 18.542 12.374 19.5 11 19.5a3 3 0 1 1 0-6c.389 0 .676.05 1 .156ZM11 15.5a1 1 0 1 1 0 2 1 1 0 0 1 0-2Z" clip-rule="evenodd"/></svg>