<svg width="24" height="24" fill="none" xmlns="http://www.w3.org/2000/svg"><path d="M8.968 2.46A9.669 9.669 0 0 0 5.25 4.649c-.333.31-.435.818-.219 1.219.801 1.48-.037 3.065-1.843 3.156-.443.023-.834.35-.938.78A8.713 8.713 0 0 0 2 11.993c0 .687.074 1.464.22 2.156.09.432.465.743.905.782 1.818.157 2.718 1.543 1.906 3.312-.18.393-.098.863.22 1.156 1.061.983 2.281 1.675 3.718 2.125.41.129.873-.026 1.125-.375 1.112-1.538 2.725-1.544 3.781 0 .25.364.705.539 1.125.406a10.072 10.072 0 0 0 3.75-2.156c.33-.3.417-.787.22-1.187-.833-1.68.124-3.221 1.842-3.25.456-.008.862-.308.97-.75.172-.717.218-1.342.218-2.22 0-.753-.089-1.496-.25-2.218a.994.994 0 0 0-.969-.781c-1.69-.003-2.639-1.665-1.812-3.125a.979.979 0 0 0-.188-1.22 10.153 10.153 0 0 0-3.812-2.186.986.986 0 0 0-1.125.406c-.966 1.5-2.77 1.527-3.719.03-.243-.382-.724-.574-1.156-.436ZM12 7.993a4 4 0 1 1 0 8 4 4 0 0 1 0-8Z" fill="#000"/></svg>