<svg width="24" height="24" fill="none" xmlns="http://www.w3.org/2000/svg"><path d="M8.968 2.46A9.671 9.671 0 0 0 5.25 4.65c-.333.31-.435.818-.219 1.218.801 1.48-.037 3.066-1.844 3.157-.442.022-.833.35-.937.78A8.71 8.71 0 0 0 2 11.993c0 .687.074 1.465.22 2.157a1 1 0 0 0 .905.78c1.818.158 2.718 1.545 1.906 3.313-.18.393-.098.863.22 1.157 1.061.982 2.281 1.675 3.718 2.125.41.128.873-.027 1.125-.375 1.112-1.54 2.725-1.544 3.781 0 .25.363.705.538 1.125.406a10.1 10.1 0 0 0 3.75-2.156c.33-.301.417-.788.22-1.188-.833-1.68.124-3.22 1.842-3.25.456-.008.862-.307.97-.75.172-.717.218-1.341.218-2.22 0-.753-.089-1.496-.25-2.217a.993.993 0 0 0-.969-.782c-1.69-.003-2.639-1.665-1.812-3.125a.977.977 0 0 0-.188-1.218c-1.09-.99-2.419-1.764-3.812-2.188a.986.986 0 0 0-1.125.406c-.966 1.5-2.77 1.527-3.719.032a1.023 1.023 0 0 0-1.156-.438Zm6.078 2.125a7.904 7.904 0 0 1 1.841 1.054c-.726 2.297.505 4.683 3.055 5.264.063.413.057.663.057 1.089 0 .509.007.688-.05 1.056-2.54.526-3.796 2.845-3.089 5.296-.608.44-1.043.747-1.806 1.042-1.792-1.824-4.28-1.904-6.11.012-.714-.314-1.263-.593-1.818-1.062.688-2.49-.475-4.638-3.057-5.29-.115-.456-.069-1.744-.003-2.135 2.67-.64 3.722-3.003 3.06-5.28.585-.44 1.112-.761 1.797-1.04 1.725 1.756 4.315 1.93 6.123-.006ZM12 7.992a4 4 0 1 0 0 8 4 4 0 0 0 0-8Zm0 2a2 2 0 1 1 0 4 2 2 0 0 1 0-4Z" fill="#000"/></svg>