<svg width="24" height="24" fill="none" xmlns="http://www.w3.org/2000/svg"><path d="M12 2.02c-5.524 0-10 4.477-10 10s4.476 10 10 10c5.522 0 10-4.477 10-10s-4.478-10-10-10Zm0 2c1.32 0 2.77 3.032 2.99 6.997l-5.97.011C9.24 7.064 10.68 4.02 12 4.02Zm-3.532.803c-.86 1.673-1.32 3.89-1.43 6.198l-2.98-.009c.297-2.724 2.132-5.01 4.41-6.19Zm7.067.005c2.278 1.179 4.066 3.4 4.411 6.2l-2.979-.008c-.094-2.4-.625-4.51-1.432-6.192ZM4.063 13.023 7.043 13c.11 2.307.573 4.563 1.43 6.219a8.15 8.15 0 0 1-4.41-6.194Zm4.941.008 5.97-.013c-.22 3.965-1.655 7.002-2.975 7.002s-2.775-3.023-2.995-6.989Zm7.968-.01 2.966-.009c-.344 2.65-2.016 5.015-4.407 6.194.888-1.835 1.33-3.877 1.441-6.184Z" fill="#000"/></svg>