<svg width="24" height="24" viewBox="2.9 2.9 18.2 18.2" fill="none" xmlns="http://www.w3.org/2000/svg"><path d="M12.91 6.5v11h-1.5v-3.974h-5.5V17.5h-1.5v-11h1.5v5.536h5.5V6.5h1.5Zm3.974 11c1.622 0 2.7-.874 2.7-2.169v-.01c0-.984-.674-1.607-1.704-1.707v-.03c.814-.176 1.449-.763 1.449-1.667v-.01c0-1.14-.963-1.903-2.46-1.903-1.457 0-2.434.823-2.53 2.079l-.005.06h1.333l.005-.046c.057-.562.52-.928 1.198-.928.683 0 1.083.351 1.083.939v.01c0 .587-.472.989-1.199.989h-.775v1.08h.794c.838 0 1.334.38 1.334 1.074v.01c0 .592-.482 1.009-1.228 1.009-.75 0-1.241-.387-1.304-.904l-.01-.055H14.18l.004.065c.097 1.25 1.127 2.114 2.7 2.114Z" fill="#252A2E"/></svg>