<svg width="24" height="24" fill="none" xmlns="http://www.w3.org/2000/svg"><path d="M12.024 2.441c-.571 0-1.154.355-1.5 1.062L8.402 7.876l-4.842.687c-1.556.217-2.06 1.744-.937 2.842l3.499 3.405-.812 4.78c-.268 1.546 1.015 2.481 2.405 1.748.536-.284 3.297-1.714 4.31-2.249l4.31 2.25c1.39.732 2.678-.202 2.405-1.75l-.843-4.779 3.498-3.405c1.13-1.094.65-2.62-.906-2.842l-4.872-.687-2.093-4.373c-.345-.707-.928-1.061-1.5-1.062Zm0 2.593 2.06 4.216a.963.963 0 0 0 .75.531l4.686.687-3.404 3.28a.96.96 0 0 0-.281.874l.812 4.623-4.154-2.186a1.001 1.001 0 0 0-.495-.115c0-.909.026-11.91.026-11.91Z" fill="#000"/></svg>