<svg width="24" height="24" fill="none" xmlns="http://www.w3.org/2000/svg"><path d="M8 6.11a6 6 0 1 0 0 12c2.122 0 4.027-1.097 5.187-3h3.187l.72 1.438c.168.338.526.562.905.562h3a1 1 0 0 0 1-1v-6a1 1 0 0 0-1-1l-7.815-.008C12.101 7.267 10.122 6.11 8 6.11Zm0 2c1.592 0 3.017.956 3.655 2.406.16.363.51.594.906.594H20v4h-1.375l-.719-1.438A1.027 1.027 0 0 0 17 13.11h-4.438a.985.985 0 0 0-.906.594A4.003 4.003 0 0 1 8 16.11a4 4 0 0 1 0-8Zm0 3c-.257 0-.524.086-.72.28a1.03 1.03 0 0 0 0 1.439 1.03 1.03 0 0 0 1.438 0 1.03 1.03 0 0 0 0-1.438A1.014 1.014 0 0 0 8 11.11Z" fill="#000"/></svg>