<svg xmlns="http://www.w3.org/2000/svg" width="24" height="24" fill="none"><path fill="#000" d="M9.998 2.991a3 3 0 0 0-3 3v1h-1a3 3 0 0 0-3 3v8a3 3 0 0 0 3 3h8a3 3 0 0 0 3-3v-1h1a3 3 0 0 0 3-3v-8a3 3 0 0 0-3-3zm0 2h8a1 1 0 0 1 1 1v8a1 1 0 0 1-1 1h-1v-5a3 3 0 0 0-3-3h-5v-1c0-.549.448-1 1-1m-4 4h8a1 1 0 0 1 1 1v4.531c-.45-.292-.929-.486-1.437-.5h-.062c-.897 0-1.683.479-2.438 1.281-.012.013-.02.019-.031.032-.129-.166-.237-.341-.375-.5-.994-1.14-2.02-1.843-3.157-1.844-.896.001-1.703.538-2.5 1.281V9.991a1 1 0 0 1 1-1m6 2a1 1 0 1 0 0 2 1 1 0 0 0 0-2m-4.5 4c.394 0 1.011.416 1.657 1.156.258.296.5.616.718.938.13.191.207.331.25.406.379.651 1.32.67 1.72.031.026-.042.1-.131.187-.25.147-.201.295-.409.469-.593.41-.436.802-.657 1-.657.204.006.589.225 1 .657.175.184.319.392.468.593.013.017.02.016.031.031v.688a1 1 0 0 1-1 1h-8a1 1 0 0 1-1-1v-.688c.046-.071.057-.117.125-.218.219-.323.46-.641.72-.938.645-.742 1.262-1.156 1.655-1.156"/></svg>