<svg width="24" height="24" fill="none" xmlns="http://www.w3.org/2000/svg"><path d="M11.965 1.96c-2.78 0-5.033 2.239-5.033 5v4c0 2.76 2.254 5 5.033 5 2.78 0 5.033-2.24 5.033-5v-4c0-2.761-2.253-5-5.033-5ZM5.296 13.943a1.069 1.069 0 0 0-.79.079 1.01 1.01 0 0 0-.377 1.375c1.43 2.504 3.886 4.179 6.874 4.508l-.005 1.055c0 .552.444 1 1 1s1-.448 1-1l-.004-1.06c2.855-.321 5.423-1.972 6.863-4.44a.964.964 0 0 0-.346-1.344c-.481-.277-1.105-.134-1.384.344a7.1 7.1 0 0 1-6.13 3.5 7.013 7.013 0 0 1-6.117-3.54.974.974 0 0 0-.584-.477Z" fill="#000"/></svg>