<svg xmlns="http://www.w3.org/2000/svg" width="24" height="25" fill="none"><path fill="#000" d="M4.217 5.222 3.092 6.347a.328.328 0 0 0 0 .437.288.288 0 0 0 .407 0l.656-.656v2.719c0 .157.124.28.281.28a.279.279 0 0 0 .281-.28V5.409c0-.254-.32-.367-.5-.187ZM8 6.128a1 1 0 0 0 0 2h13a1 1 0 0 0 0-2H8Zm-3.875 4c-.63 0-1.125.52-1.125 1.155 0 .16.123.282.28.283a.278.278 0 0 0 .282-.283c0-.316.248-.593.563-.593a.61.61 0 0 1 .593.594c-.002.33-.161.467-.593.75-.077.05-.045.04-.125.093-.676.445-1.002.865-1 1.688 0 .16.123.314.28.313H5a.278.278 0 0 0 .28-.281.277.277 0 0 0-.28-.281l-1.25-.033c.077-.346.13-.61.53-.874.077-.05.11-.075.188-.126.578-.377.808-.675.813-1.25a1.16 1.16 0 0 0-1.156-1.155Zm3.875 1a1 1 0 0 0 0 2h13a1 1 0 0 0 0-2H8Zm-3.844 4c-.492 0-.937.322-1.094.78a1.17 1.17 0 0 0-.062.376.28.28 0 0 0 .28.282.279.279 0 0 0 .282-.282c0-.064.011-.128.031-.188a.62.62 0 0 1 .563-.406c.315 0 .562.279.562.594a.557.557 0 0 1-.562.563c-.158 0-.313.122-.313.28 0 .159.155.282.313.282.315 0 .562.247.562.563 0 .314-.247.593-.562.593a.611.611 0 0 1-.594-.594.28.28 0 0 0-.281-.282.279.279 0 0 0-.281.282c0 .631.525 1.157 1.156 1.157.63 0 1.125-.526 1.125-1.157 0-.355-.183-.634-.438-.843.255-.21.438-.488.438-.845 0-.63-.494-1.156-1.125-1.156Zm3.844 1a1 1 0 0 0 0 2h13a1 1 0 0 0 0-2H8Z"/></svg>