<svg width="24" height="24" fill="none" xmlns="http://www.w3.org/2000/svg"><path d="M13.844 9.663a1 1 0 0 0 1.51-1.311l-1.51 1.31Zm-3.687 4.689a1 1 0 0 0-1.51 1.31l1.51-1.31Zm2.844-7.345a1 1 0 1 0-2 0h2Zm-2 10a1 1 0 1 0 2 0h-2Zm9-5a8 8 0 0 1-8 8v2c5.522 0 10-4.477 10-10h-2Zm-8 8a8 8 0 0 1-8-8H2c0 5.523 4.477 10 10 10v-2Zm-8-8a8 8 0 0 1 8-8v-2c-5.523 0-10 4.477-10 10h2Zm8-8a8 8 0 0 1 8 8h2c0-5.523-4.478-10-10-10v2Zm0 7c-.66 0-1.21-.18-1.567-.418-.364-.242-.433-.468-.433-.582H8c0 .991.602 1.766 1.323 2.247.73.485 1.678.753 2.677.753v-2Zm-2-1c0-.114.069-.34.433-.582.357-.238.908-.418 1.567-.418v-2c-.999 0-1.948.268-2.677.754C8.603 8.242 8 9.017 8 10.007h2Zm2-1c.903 0 1.563.333 1.843.656l1.51-1.311c-.757-.873-2.036-1.345-3.353-1.345v2Zm0 4c.658 0 1.209.18 1.566.418.364.243.434.468.434.582h2c0-.99-.603-1.765-1.325-2.246-.728-.486-1.677-.754-2.675-.754v2Zm-1-6v1h2v-1h-2Zm0 9v1h2v-1h-2Zm1-1c-.904 0-1.563-.332-1.844-.655l-1.51 1.31c.757.873 2.037 1.345 3.354 1.345v-2Zm2-1c0 .114-.07.34-.434.582-.357.239-.908.418-1.566.418v2c.998 0 1.947-.268 2.676-.753.721-.482 1.323-1.256 1.323-2.247h-2Zm-3-6v8h2v-8h-2Z" fill="#000"/></svg>