<svg width="24" height="24" fill="none" xmlns="http://www.w3.org/2000/svg"><path d="M12.024 2.441c-.571 0-1.154.355-1.5 1.062L8.401 7.876l-4.842.687c-1.556.217-2.06 1.744-.937 2.842l3.499 3.405-.812 4.78c-.268 1.546 1.015 2.481 2.405 1.748.536-.284 3.296-1.714 4.31-2.249l4.31 2.25c1.39.732 2.678-.202 2.405-1.75l-.843-4.779 3.498-3.405c1.13-1.094.651-2.62-.906-2.842l-4.872-.687-2.093-4.373c-.345-.707-.928-1.061-1.5-1.062Zm0 2.593 2.061 4.216a.962.962 0 0 0 .75.531l4.685.687-3.405 3.28a.962.962 0 0 0-.28.874l.811 4.623-4.154-2.186a1.008 1.008 0 0 0-.937 0c-.518.273-3.051 1.604-4.154 2.186l.781-4.59a1.037 1.037 0 0 0-.281-.907l-3.373-3.28 4.653-.655c.33-.046.635-.264.781-.563l2.062-4.216Z" fill="#000"/></svg>