<svg width="24" height="24" fill="none" xmlns="http://www.w3.org/2000/svg"><path d="M13.609 1.961c-1.887 0-3.76.72-5.2 2.157L6.282 6.243a.987.987 0 0 0 0 1.406.995.995 0 0 0 1.409 0L9.82 5.524a5.36 5.36 0 0 1 7.579 0l.03.031a5.332 5.332 0 0 1 0 7.563l-5.917 5.906c-1.268 1.264-3.276 1.22-4.524.027l-.064-.072c-1.267-1.265-1.247-3.308.02-4.573L12.7 8.68a1.098 1.098 0 0 1 1.565 0 1.094 1.094 0 0 1 0 1.563L8.28 16.241a1.026 1.026 0 0 0 0 1.438c.39.39 1.047.353 1.414.001l6.013-6a3.145 3.145 0 0 0 0-4.437 3.14 3.14 0 0 0-2.224-.907c-.8 0-1.613.297-2.223.907l-5.904 5.938c-.103.103-.18.217-.286.345-1.547 2.052-1.435 5.021.437 6.89 2.05 2.045 5.363 2.06 7.413.014l5.918-5.906a7.346 7.346 0 0 0 0-10.406 7.393 7.393 0 0 0-5.23-2.157Z" fill="#000"/></svg>