<svg width="24" height="24" fill="none" xmlns="http://www.w3.org/2000/svg"><path d="M16.996 1.961a1.02 1.02 0 0 0-.72.281l-3 3.002L4.27 14.25l-1.001 1c-.14.14-.211.338-.25.531l-1 5.004a.974.974 0 0 0 1.156 1.156l5.003-1c.194-.04.392-.111.532-.25l1-1.002 9.005-9.005c.445-.443 2.446-2.446 3.002-3a1.02 1.02 0 0 0 .28-.72c0-1.637-.416-2.807-1.281-3.69-.873-.89-2.04-1.313-3.721-1.313Zm.394 2.02c.903.052 1.488.26 1.889.67.41.417.669.997.725 1.882-.548.547-1.35 1.337-2.007 1.994l-2.564-2.564c.658-.657 1.41-1.436 1.957-1.983ZM13.995 7.4l2.564 2.564-7.567 7.567-2.564-2.563L13.995 7.4ZM4.99 16.407l2.564 2.563-.094.095c-.66.131-1.993.41-3.221.656l.657-3.22.094-.095Z" fill="#000"/></svg>