<svg width="24" height="24" fill="none" xmlns="http://www.w3.org/2000/svg"><path d="M15.5 2.938a4.5 4.5 0 1 0 0 9 4.5 4.5 0 0 0 0-9Zm-7.5 1a4 4 0 0 0 0 8c.829 0 1.586-.228 2.252-.694-1.709-2.54-1.467-4.972-.535-6.93a3.995 3.995 0 0 0-1.718-.376Zm-2.938 9.344c-1.834.757-3.063 2.612-3.063 4.656v2a1 1 0 0 0 1 1l4.153.002c-.234-.76-.165-1.992-.15-2.989.033-2.117.908-3.627 1.251-4.025a5.464 5.464 0 0 1-1.941-.394c-.134-.057-.212-.102-.47-.219a.964.964 0 0 0-.78-.03Zm7 0c-1.835.757-3.063 2.612-3.063 4.656v2a1 1 0 0 0 1 1h11a1 1 0 0 0 1-1v-2c0-1.996-1.235-3.806-3.062-4.594a1.02 1.02 0 0 0-.813 0c-.885.397-1.747.594-2.625.594-.875 0-1.74-.208-2.656-.625a.964.964 0 0 0-.781-.03Z" fill="#000"/></svg>