<svg width="24" height="24" fill="none" xmlns="http://www.w3.org/2000/svg"><path d="M11.998 1.962a5 5 0 1 0 0 10 5 5 0 0 0 0-10Zm0 2a3 3 0 1 1 0 6 3 3 0 0 1 0-6Zm-3.531 9.312c-2.614.715-4.469 2.988-4.469 5.688v2a1 1 0 0 0 1 1h14a1 1 0 0 0 1-1v-2c0-2.7-1.854-4.973-4.469-5.688a.95.95 0 0 0-.656.063 6.982 6.982 0 0 1-2.875.625 6.99 6.99 0 0 1-2.875-.625.95.95 0 0 0-.656-.063Zm.406 2c1.01.382 2.045.688 3.125.688s2.115-.306 3.125-.688c1.704.516 2.875 1.954 2.875 3.688v1h-12v-1c0-1.734 1.172-3.172 2.875-3.688Z" fill="#000"/></svg>