<svg width="24" height="24" fill="none" xmlns="http://www.w3.org/2000/svg"><path d="M8.515 2.938a4.5 4.5 0 1 0 0 9 4.5 4.5 0 0 0 0-9Zm8.5 5c-.256 0-.523.086-.72.281a1.03 1.03 0 0 0 0 1.438l1.282 1.281-1.281 1.281a1.03 1.03 0 0 0 0 1.438c.39.39 1.047.39 1.438 0l1.28-1.281 1.282 1.281c.39.39 1.047.39 1.438 0a1.03 1.03 0 0 0 0-1.438l-1.281-1.28 1.28-1.282a1.03 1.03 0 0 0 0-1.438 1.014 1.014 0 0 0-.718-.28c-.256 0-.523.085-.72.28l-1.28 1.282-1.281-1.282a1.014 1.014 0 0 0-.72-.28ZM5.077 13.282c-1.834.757-3.062 2.612-3.062 4.656v2a1 1 0 0 0 1 1h11a1 1 0 0 0 1-1v-2c0-1.996-1.235-3.806-3.062-4.594a1.021 1.021 0 0 0-.813 0c-.885.397-1.747.594-2.625.594-.875 0-1.74-.208-2.656-.625a.97.97 0 0 0-.782-.031Z" fill="#000"/></svg>