<svg xmlns="http://www.w3.org/2000/svg" width="25" height="24" fill="none"><path fill="#000" fill-rule="evenodd" d="M7.247 19.286q1.46 0 2.296-.964.837-.965.836-2.073 0-1.558-.942-2.363-.941-.806-2.588-.806H5.575q.16-1.373.557-2.244a6.2 6.2 0 0 1 1.142-1.664 9.3 9.3 0 0 1 1.566-1.36 35 35 0 0 1 2.017-1.228L9.902 5a87 87 0 0 0-2.044 1.294 13 13 0 0 0-2.31 1.928 11 11 0 0 0-1.805 2.521Q3 12.156 3 13.873q0 2.429.982 3.92.982 1.493 3.265 1.493m12.143 0q1.46 0 2.296-.964.837-.965.836-2.073 0-1.558-.942-2.363-.942-.806-2.588-.806h-1.274q.159-1.373.544-2.231.384-.858 1.154-1.677.796-.844 1.567-1.36A35 35 0 0 1 23 6.584L22.044 5q-.823.502-2.044 1.294a13 13 0 0 0-2.309 1.928 11 11 0 0 0-1.805 2.521q-.743 1.413-.743 3.13 0 2.429.982 3.92.982 1.493 3.265 1.493" clip-rule="evenodd"/></svg>