<svg width="24" height="24" fill="none" xmlns="http://www.w3.org/2000/svg"><path d="M6.991 2.939a4 4 0 0 0 0 8c.861 0 1.66-.277 2.312-.74l2.063 1.74-2.06 1.729a3.985 3.985 0 0 0-2.315-.73 4 4 0 1 0 4 4 4.05 4.05 0 0 0-.407-1.736l10.063-8.513c.422-.357.451-.985.094-1.406a.934.934 0 0 0-.656-.344 1.065 1.065 0 0 0-.75.25L12.9 10.633 10.6 8.69a4.1 4.1 0 0 0 .391-1.751 4 4 0 0 0-4-4Zm0 2a2 2 0 1 1 .001 3.999 2 2 0 0 1 0-4Zm8.906 8.594a1 1 0 0 0-.687.344 1.034 1.034 0 0 0 .125 1.437l4 3.375c.422.357 1.05.328 1.406-.094.357-.421.328-1.05-.094-1.406l-4.03-3.406a.983.983 0 0 0-.72-.25Zm-8.906 1.406a2 2 0 1 1 .001 3.999 2 2 0 0 1 0-4Z" fill="#000"/></svg>