<svg width="24" height="24" fill="none" xmlns="http://www.w3.org/2000/svg"><path d="m11.623 2.043-7.031 3a.968.968 0 0 0-.594.906c0 4.38.175 6.337.969 8.594 1.04 2.955 3.08 5.308 6.531 7.281.307.176.693.176 1 0 3.483-1.99 5.532-4.336 6.562-7.28.784-2.242.938-4.103.938-8.595 0-.4-.227-.748-.594-.906l-6.968-3a1.06 1.06 0 0 0-.813 0Zm.375 1.968 6 2.594c.087 7.176-1.333 10.327-6 13.188-4.79-2.979-6.049-6.172-6-13.188 1.363-.582 4.847-2.1 6-2.594Zm0 2.938a1 1 0 0 0-1 1v4a1 1 0 0 0 2 0v-4a1 1 0 0 0-1-1Zm0 7a1 1 0 1 0 0 2.001 1 1 0 0 0 0-2Z" fill="#000"/></svg>