<svg width="24" height="24" fill="none" xmlns="http://www.w3.org/2000/svg"><path d="M5.991 2.939c-.379 0-.737.224-.906.562L2.991 6.939c.036 1.886 1.525 3 3 3 .778 0 1.467-.295 2-.781a2.937 2.937 0 0 0 2 .781c.778 0 1.467-.295 2-.781a2.937 2.937 0 0 0 2 .781c.778 0 1.467-.264 2-.75.533.486 1.222.75 2 .75 1.475 0 2.991-1.152 3-3l-2.094-3.438a1.027 1.027 0 0 0-.906-.562h-12Zm6 8.531c-.626.275-1.289.469-2 .469-.354 0-.668-.137-1-.219v3.219h6V11.72c-.332.083-.646.219-1 .219-.71 0-1.38-.194-2-.469Zm-8 .031v7.438a1 1 0 0 0 0 2h16a1 1 0 0 0 0-2v-7.438a4.934 4.934 0 0 1-2 .438c-.354 0-.668-.136-1-.219v4.219a1 1 0 0 1-1 1h-8a1 1 0 0 1-1-1V11.72c-.333.083-.646.219-1 .219a4.99 4.99 0 0 1-2-.438Z" fill="#000"/></svg>