<svg width="24" height="24" fill="none" xmlns="http://www.w3.org/2000/svg"><path d="M5.991 2.939c-.379 0-.737.224-.906.562l-2 4a1.77 1.77 0 0 0-.094.438c0 1 .515 1.789.993 2.224l.007 8.776a1 1 0 0 0 0 2h16a1 1 0 0 0 0-2l-.01-8.754c.477-.435 1.01-1.246 1.01-2.246a1.77 1.77 0 0 0-.094-.438l-2-4a1.027 1.027 0 0 0-.906-.562h-12Zm.625 2h10.75l1.63 3.219c-.065.361-.503.781-1.005.781a1 1 0 0 1-1-1 1 1 0 0 0-1-1c-.276 0-.538.1-.719.281a1.015 1.015 0 0 0-.28.719 1 1 0 0 1-2 0 1 1 0 0 0-1-1c-.277 0-.539.1-.72.281a1.015 1.015 0 0 0-.28.719 1 1 0 0 1-2 0 1 1 0 0 0-1-1c-.277 0-.539.1-.72.281a1.015 1.015 0 0 0-.28.719 1 1 0 0 1-1 1c-.503 0-.91-.324-.98-.807l1.604-3.193Zm1.373 5.222a2.944 2.944 0 0 0 2.002.778c.778 0 1.461-.273 1.994-.759a2.933 2.933 0 0 0 2.006.759c.778 0 1.47-.29 2.002-.775.534.485 1.22.775 1.998.775v8h-12v-8c.778 0 1.465-.293 1.998-.778Zm1.002 1.778a1 1 0 0 0-1 1v3a1 1 0 0 0 1 1h6a1 1 0 0 0 1-1v-3a1 1 0 0 0-2 0v2h-4v-2a1 1 0 0 0-1-1Z" fill="#000"/></svg>