<svg width="24" height="24" fill="none" xmlns="http://www.w3.org/2000/svg"><path d="M13.634 3.148a.75.75 0 0 0-.27 1.476A7.495 7.495 0 0 1 19.498 12c0 4.135-3.364 7.5-7.5 7.5-4.135 0-7.5-3.365-7.5-7.5a7.458 7.458 0 0 1 3.009-5.993l1.337 1.337a.53.53 0 0 0 .905-.375V3H5.781a.53.53 0 0 0-.375.905L6.431 4.93A8.957 8.957 0 0 0 3 12c0 4.963 4.037 9 9 9s9-4.037 9-9a8.996 8.996 0 0 0-7.366-8.852Z" fill="#000"/><path d="M9.772 11.764v.68c.118 0 .24.005.367.014.132.005.252.03.36.075.11.04.198.109.266.204.072.095.109.233.109.415a.708.708 0 0 1-.225.55.805.805 0 0 1-.55.198.844.844 0 0 1-.368-.075.773.773 0 0 1-.251-.197.941.941 0 0 1-.157-.3 1.415 1.415 0 0 1-.06-.367h-.919c-.004.277.034.522.116.735.086.213.206.394.36.544.154.145.34.256.558.333.222.077.467.115.734.115.231 0 .453-.034.666-.102.214-.068.402-.167.565-.299a1.42 1.42 0 0 0 .387-.49c.1-.194.15-.416.15-.666 0-.272-.075-.505-.224-.7a1.036 1.036 0 0 0-.62-.38v-.014a.822.822 0 0 0 .497-.36 1.11 1.11 0 0 0 .17-.613 1.1 1.1 0 0 0-.143-.564 1.362 1.362 0 0 0-.373-.415 1.533 1.533 0 0 0-.51-.252 1.923 1.923 0 0 0-.572-.088c-.244 0-.467.04-.666.122a1.47 1.47 0 0 0-.517.333 1.62 1.62 0 0 0-.333.524c-.077.2-.12.422-.13.666h.919c-.005-.244.054-.446.177-.605.126-.163.312-.245.557-.245a.73.73 0 0 1 .47.164c.135.108.203.265.203.469a.494.494 0 0 1-.102.326.63.63 0 0 1-.251.19c-.1.041-.209.066-.327.075a2.057 2.057 0 0 1-.333 0Zm3.337.436v-.293c.004-.118.013-.238.027-.36.013-.123.036-.243.068-.36.032-.123.075-.232.129-.327a.761.761 0 0 1 .218-.231.598.598 0 0 1 .333-.088c.131 0 .242.029.333.088.09.059.165.136.224.231.06.095.102.204.13.327.031.117.054.238.068.36.018.122.027.242.027.36a7.336 7.336 0 0 1-.007.79 2.55 2.55 0 0 1-.088.557 1.113 1.113 0 0 1-.232.455c-.104.127-.256.19-.455.19-.195 0-.345-.063-.449-.19a1.238 1.238 0 0 1-.231-.455 2.859 2.859 0 0 1-.082-.558 11.05 11.05 0 0 1-.013-.496Zm-.966 0c0 .476.045.875.136 1.197.095.317.222.57.38.761.16.19.343.327.552.408.213.082.437.122.673.122.24 0 .464-.04.673-.122a1.36 1.36 0 0 0 .558-.408c.163-.19.29-.444.38-.761.096-.322.143-.721.143-1.197 0-.463-.047-.85-.143-1.163a1.994 1.994 0 0 0-.38-.762 1.348 1.348 0 0 0-.558-.408 1.83 1.83 0 0 0-.673-.122c-.236 0-.46.04-.673.122a1.359 1.359 0 0 0-.551.408c-.159.19-.286.444-.381.762-.09.313-.136.7-.136 1.163Z" fill="#000"/></svg>