<svg width="24" height="24" fill="none" xmlns="http://www.w3.org/2000/svg"><path d="M10.366 3.148a.75.75 0 0 1 .27 1.476A7.495 7.495 0 0 0 4.502 12c0 4.135 3.364 7.5 7.5 7.5 4.135 0 7.5-3.365 7.5-7.5a7.459 7.459 0 0 0-3.009-5.993l-1.337 1.337a.53.53 0 0 1-.905-.375V3h3.969a.53.53 0 0 1 .375.905L17.569 4.93A8.957 8.957 0 0 1 21 12c0 4.963-4.037 9-9 9s-9-4.037-9-9a8.996 8.996 0 0 1 7.366-8.852Z" fill="#000"/><path d="M10.33 15.166V9.6h-.9a1.23 1.23 0 0 1-.198.533c-.1.143-.225.26-.374.35a1.557 1.557 0 0 1-.493.183c-.18.031-.368.045-.564.04v.85h1.4v3.61h1.128Zm5.277-4.636V9.6h-3.11l-.548 3.077h1.018c.111-.153.23-.265.358-.334a.97.97 0 0 1 .493-.11.896.896 0 0 1 .708.302.947.947 0 0 1 .19.333 1.274 1.274 0 0 1-.008.811 1.033 1.033 0 0 1-.19.342.878.878 0 0 1-.7.326.901.901 0 0 1-.629-.222.939.939 0 0 1-.286-.613h-1.129c.005.292.064.549.175.772.117.217.27.4.461.548.191.149.408.26.652.334.25.07.51.104.78.104.28.005.545-.04.795-.136.249-.1.466-.24.652-.42a1.946 1.946 0 0 0 .62-1.44c0-.26-.04-.504-.12-.732a1.676 1.676 0 0 0-.333-.604 1.565 1.565 0 0 0-.533-.406 1.685 1.685 0 0 0-.732-.15c-.222 0-.421.034-.596.103-.175.063-.34.172-.493.326l-.016-.016.223-1.264h2.298Z" fill="#000"/></svg>