<svg width="24" height="24" fill="none" xmlns="http://www.w3.org/2000/svg"><path fill-rule="evenodd" clip-rule="evenodd" d="M13.787 3.815c-.455-1.873-3.12-1.873-3.574 0a1.839 1.839 0 0 1-2.744 1.137c-1.646-1.004-3.53.88-2.527 2.527a1.839 1.839 0 0 1-1.137 2.744c-1.873.455-1.873 3.12 0 3.574a1.839 1.839 0 0 1 1.137 2.744c-1.003 1.646.88 3.53 2.527 2.527a1.839 1.839 0 0 1 2.744 1.137c.455 1.873 3.12 1.873 3.574 0a1.839 1.839 0 0 1 2.744-1.137c1.646 1.003 3.53-.88 2.527-2.527a1.839 1.839 0 0 1 1.137-2.744c1.873-.455 1.873-3.12 0-3.574a1.839 1.839 0 0 1-1.137-2.744c1.003-1.646-.88-3.53-2.527-2.527a1.839 1.839 0 0 1-2.744-1.137ZM12 15.61a3.6 3.6 0 1 0 0-7.2 3.6 3.6 0 0 0 0 7.2Z" fill="#000"/></svg>