<svg width="24" height="24" fill="none" xmlns="http://www.w3.org/2000/svg"><path d="M10.12 8.911a2.79 2.79 0 0 1 .68-.32v2.038a2.77 2.77 0 0 1-.68-.32c-.436-.292-.52-.562-.52-.7 0-.136.084-.406.52-.698Zm3.08 6.518V13.39c.265.086.495.197.68.32.437.292.52.562.52.699 0 .137-.083.407-.52.698a2.77 2.77 0 0 1-.68.32Z" fill="#000"/><path fill-rule="evenodd" clip-rule="evenodd" d="M12 21.61a9.6 9.6 0 1 0 0-19.2 9.6 9.6 0 0 0 0 19.2Zm1.2-15.6a1.2 1.2 0 0 0-2.4 0v.11c-.745.14-1.435.41-2.01.794-.867.578-1.59 1.507-1.59 2.696 0 1.189.723 2.118 1.59 2.695a5.442 5.442 0 0 0 2.01.795v2.329c-.469-.152-.817-.38-1.012-.606a1.2 1.2 0 1 0-1.812 1.573c.675.778 1.696 1.29 2.824 1.503v.11a1.2 1.2 0 1 0 2.4 0v-.11a5.442 5.442 0 0 0 2.012-.794c.866-.577 1.588-1.506 1.588-2.695 0-1.189-.722-2.118-1.588-2.696a5.442 5.442 0 0 0-2.012-.794V8.59c.47.153.817.382 1.012.606a1.2 1.2 0 1 0 1.813-1.573c-.675-.777-1.696-1.29-2.825-1.502V6.01Z" fill="#000"/></svg>