<svg width="14" height="14" viewBox="0 0 14 14" fill="none" xmlns="http://www.w3.org/2000/svg">
<path d="M12.2131 7.62613C12.4503 7.50756 12.6001 7.26517 12.6001 7.00003C12.6001 6.73489 12.4503 6.49251 12.2131 6.37393L2.41315 1.47393C2.16486 1.34979 1.86666 1.38409 1.65305 1.56138C1.43944 1.73866 1.35077 2.02542 1.42703 2.29234L2.42703 5.79233C2.51289 6.09284 2.78756 6.30002 3.10009 6.30002L6.3001 6.30002C6.6867 6.30002 7.0001 6.61343 7.0001 7.00002C7.0001 7.38662 6.6867 7.70002 6.3001 7.70002L3.1001 7.70002C2.78756 7.70002 2.51289 7.90721 2.42703 8.20772L1.42703 11.7077C1.35077 11.9746 1.43944 12.2614 1.65305 12.4387C1.86666 12.616 2.16485 12.6503 2.41314 12.5261L12.2131 7.62613Z" fill="white"/>
</svg>
