<svg width="18" height="18" viewBox="0 0 18 18" fill="none" xmlns="http://www.w3.org/2000/svg">
<path fill-rule="evenodd" clip-rule="evenodd" d="M4.50005 1.80005C4.99711 1.80005 5.40005 2.20299 5.40005 2.70005V3.60005H6.30005C6.79711 3.60005 7.20005 4.00299 7.20005 4.50005C7.20005 4.9971 6.79711 5.40005 6.30005 5.40005H5.40005V6.30005C5.40005 6.7971 4.99711 7.20005 4.50005 7.20005C4.00299 7.20005 3.60005 6.7971 3.60005 6.30005V5.40005H2.70005C2.20299 5.40005 1.80005 4.9971 1.80005 4.50005C1.80005 4.00299 2.20299 3.60005 2.70005 3.60005H3.60005V2.70005C3.60005 2.20299 4.00299 1.80005 4.50005 1.80005ZM4.50005 10.8C4.99711 10.8 5.40005 11.203 5.40005 11.7V12.6H6.30005C6.79711 12.6 7.20005 13.003 7.20005 13.5C7.20005 13.9971 6.79711 14.4 6.30005 14.4H5.40005V15.3C5.40005 15.7971 4.99711 16.2 4.50005 16.2C4.00299 16.2 3.60005 15.7971 3.60005 15.3V14.4H2.70005C2.20299 14.4 1.80005 13.9971 1.80005 13.5C1.80005 13.003 2.20299 12.6 2.70005 12.6H3.60005V11.7C3.60005 11.203 4.00299 10.8 4.50005 10.8Z" fill="black"/>
<path fill-rule="evenodd" clip-rule="evenodd" d="M10.8 1.80005C11.2084 1.80005 11.5655 2.07498 11.67 2.46975L12.7313 6.47909L15.7498 8.22048C16.0284 8.38121 16.2 8.67841 16.2 9.00005C16.2 9.32169 16.0284 9.61888 15.7498 9.77962L12.7313 11.521L11.67 15.5304C11.5655 15.9251 11.2084 16.2 10.8 16.2C10.3916 16.2 10.0345 15.9251 9.92997 15.5304L8.86867 11.521L5.85029 9.77961C5.57169 9.61888 5.40005 9.32169 5.40005 9.00005C5.40005 8.67841 5.5717 8.38122 5.85029 8.22048L8.86867 6.47909L9.92997 2.46975C10.0345 2.07498 10.3916 1.80005 10.8 1.80005Z" fill="black"/>
</svg>
