<svg width="24" height="25" fill="none" xmlns="http://www.w3.org/2000/svg"><path d="m11.504 2.096-7 4a1.012 1.012 0 0 0 0 1.75l7 4c.307.176.692.176 1 0l7-4a1.012 1.012 0 0 0 0-1.75l-7-4a1.014 1.014 0 0 0-1 0Zm-6.75 8.906a1.036 1.036 0 0 0-.625.47 1.014 1.014 0 0 0 .375 1.374l7 4c.307.176.692.176 1 0l7-4c.48-.274.65-.895.375-1.375a1.013 1.013 0 0 0-1.375-.375l-6.5 3.719-6.5-3.719a.973.973 0 0 0-.75-.094Zm0 5a1.036 1.036 0 0 0-.625.47 1.014 1.014 0 0 0 .375 1.374l7 4c.307.176.692.176 1 0l7-4c.48-.274.65-.895.375-1.375a1.013 1.013 0 0 0-1.375-.375l-6.5 3.719-6.5-3.719a.973.973 0 0 0-.75-.094Z" fill="#000"/></svg>