<svg width="24" height="24" fill="none" xmlns="http://www.w3.org/2000/svg"><path d="M6.014 1.964a4 4 0 0 0-4 4v8a4 4 0 0 0 4 4l.01.005c.232 2.23 2.138 3.995 4.428 3.995h3.562c3.552 0 8-4.448 8-8v-3.562c0-2.29-1.765-4.203-3.994-4.435l-.006-.003a4 4 0 0 0-4-4h-8Zm0 2h8a2 2 0 0 1 2 2h-5.562a4.444 4.444 0 0 0-4.438 4.438v5.562a2 2 0 0 1-2-2v-8a2 2 0 0 1 2-2Zm4.438 4h7.124a2.444 2.444 0 0 1 2.438 2.438v2.562h-2.562a4.444 4.444 0 0 0-4.438 4.438v2.562h-2.562a2.444 2.444 0 0 1-2.438-2.438v-7.124a2.444 2.444 0 0 1 2.438-2.438Zm7 7 2.383-.002c-.619 1.977-2.824 4.15-4.814 4.832l-.007-2.392a2.444 2.444 0 0 1 2.438-2.438Z" fill="#000"/></svg>