<svg xmlns="http://www.w3.org/2000/svg" width="24" height="24" fill="none"><path fill="#000" d="M18.25 3H5.75A2.753 2.753 0 0 0 3 5.75v12.5A2.753 2.753 0 0 0 5.75 21h12.5A2.753 2.753 0 0 0 21 18.25V5.75A2.753 2.753 0 0 0 18.25 3Zm-6.5 14.5c-1.104 0-2.217-.285-3.085-.585a.247.247 0 0 1-.165-.236v-2.33c0-.09.09-.152.172-.116.583.251 1.634.647 2.666.755.474.05.939-.002 1.2-.273a.828.828 0 0 0 .211-.579c0-.223-.043-.746-1.267-1.106-1.1-.309-3.232-1.019-3.232-3.28 0-1.499 1.047-3.25 4-3.25 1.104 0 2.217.285 3.085.585.1.035.165.13.165.236v2.326c0 .09-.09.151-.172.115-.582-.254-1.628-.652-2.661-.744-.467-.059-.975-.014-1.223.23a.66.66 0 0 0-.194.472c0 .191.006.618 1.245.995 2.16.63 3.255 1.777 3.255 3.41 0 1.557-1.047 3.375-4 3.375Z"/></svg>