<svg xmlns="http://www.w3.org/2000/svg" width="24" height="25" fill="none"><path fill="#000" d="M12.005 3.918a4 4 0 0 0-4 4c0 .632.158 1.258.438 1.812.185.368.487.755.906 1.188H6.005a1 1 0 0 0 0 2h5.657c.055.049.084.067.155.125.317.259.646.54.938.812.207.194.37.357.531.532.289.31.498.599.564.75.107.248.155.502.155.78a2 2 0 1 1-4 0 1 1 0 0 0-2 0 4 4 0 0 0 8 0c0-.553-.126-1.094-.343-1.593-.176-.404-.478-.82-.907-1.281-.037-.04-.086-.084-.125-.125h3.376a1 1 0 0 0 0-2H12.35c-.057-.05-.086-.068-.156-.125a20.553 20.553 0 0 1-.908-.781c-.175-.162-.325-.322-.468-.47-.306-.314-.516-.564-.593-.718a2 2 0 1 1 3.781-.906 1 1 0 0 0 2 0 4 4 0 0 0-4-4Z"/></svg>