<svg width="24" height="24" fill="none" xmlns="http://www.w3.org/2000/svg"><path d="M6.015 3.918a4 4 0 0 0-4 4v6c0 1.516.752 2.746 2.051 3.477a2.97 2.97 0 0 0 2.949 2.523 2.978 2.978 0 0 0 2.819-2l3.357-.002c.454 1.194 1.556 2.002 2.824 2.002 1.303 0 2.4-.812 2.848-2.055 1.927-.27 3.152-1.628 3.152-3.945v-1c0-2.552-2.448-5-5-5a4 4 0 0 0-4-4h-7Zm0 2h7a2 2 0 0 1 2 2v1c0 1.192.005 4.197.005 5.17a3.005 3.005 0 0 0-1.837 1.824s-3.112.003-3.343.014c-.499-1.432-1.833-2.02-2.825-2.008a3.026 3.026 0 0 0-2.492 1.338c-.28-.214-.508-.764-.508-1.338v-6a2 2 0 0 1 2-2Zm11 4c1.447 0 3 1.552 3 3v1c0 1.197-.356 1.717-1.2 1.917-.256-.74-1.023-1.496-1.794-1.734l-.006-4.183Zm-10 6a1 1 0 1 1-1 1c.082-.55.481-.992 1-1Zm9 0a1 1 0 1 1-1 1c0-.276.1-.538.281-.719.181-.18.443-.28.719-.28Z" fill="#000"/></svg>