<svg width="24" height="24" fill="none" xmlns="http://www.w3.org/2000/svg"><path d="M12.998 2.942a2.88 2.88 0 0 0-1.469.406c-.278.163-.802.619-1.656 1.406-.035.033-.84.801-1.25 1.188H6.998c-1.625.01-2.988 1.382-3 3v6c.018 1.683 1.321 3.015 3 3h1.594l1.25 1.187c.84.78 1.355 1.212 1.625 1.375a2.86 2.86 0 0 0 1.531.438c1.666-.02 3.02-1.35 3-3l-.031-6 .031-6a2.997 2.997 0 0 0-3-3Zm0 2c.545-.001 1 .445 1 1l-.031 6 .031 6a.995.995 0 0 1-1 1 .944.944 0 0 1-.5-.125c-.092-.056-.606-.53-1.281-1.156-.04-.037-1.444-1.353-1.531-1.438a.985.985 0 0 0-.688-.281h-2c-.56.005-.994-.415-1-1v-6c.004-.52.472-.997 1-1h2a.99.99 0 0 0 .688-.281c.088-.085 1.489-1.399 1.531-1.438.677-.625 1.224-1.105 1.312-1.156.15-.088.3-.125.47-.125Zm6.125 3a.941.941 0 0 0-.719.187c-.44.334-.552.966-.218 1.407.518.685.812 1.518.812 2.406a4.01 4.01 0 0 1-.812 2.406c-.332.442-.223 1.075.218 1.406.442.332 1.075.223 1.407-.218a5.948 5.948 0 0 0 1.187-3.594 5.89 5.89 0 0 0-1.187-3.594 1.082 1.082 0 0 0-.688-.406Z" fill="#000"/></svg>