<svg width="24" height="24" fill="none" xmlns="http://www.w3.org/2000/svg"><path d="M12 1.965c-5.524 0-10 4.477-10 10s4.476 10 10 10c5.522 0 10-4.477 10-10s-4.478-10-10-10Zm0 2a8 8 0 1 1-.001 16.001 8 8 0 0 1 0-16Zm-3 4c-.257 0-.524.086-.72.281a1.03 1.03 0 0 0 0 1.438l2.281 2.281-2.28 2.281a1.03 1.03 0 0 0 0 1.438 1.03 1.03 0 0 0 1.437 0L12 13.404l2.281 2.28a1.03 1.03 0 0 0 1.438 0 1.03 1.03 0 0 0 0-1.438l-2.28-2.28 2.28-2.282a1.03 1.03 0 0 0 0-1.438 1.014 1.014 0 0 0-.719-.28c-.256 0-.523.085-.719.28L12 10.527l-2.282-2.28A1.014 1.014 0 0 0 9 7.964Z" fill="#000"/></svg>