<svg xmlns="http://www.w3.org/2000/svg" width="24" height="24" fill="none"><path fill="#000" d="M12 1.965c-5.524 0-10 4.477-10 10s4.476 10 10 10c5.522 0 10-4.477 10-10s-4.478-10-10-10m-3 6c.255 0 .523.086.718.281L12 10.527l2.281-2.28c.196-.196.463-.282.72-.282.255 0 .522.086.718.281a1.03 1.03 0 0 1 0 1.438l-2.28 2.281 2.28 2.281a1.03 1.03 0 0 1 0 1.438 1.03 1.03 0 0 1-1.438 0L12 13.404l-2.282 2.28a1.03 1.03 0 0 1-1.438 0 1.03 1.03 0 0 1 0-1.438l2.281-2.28-2.28-2.282a1.03 1.03 0 0 1 0-1.438 1 1 0 0 1 .718-.28"/></svg>