<svg width="24" height="24" fill="none" xmlns="http://www.w3.org/2000/svg"><path d="M7.007 2.942a4 4 0 0 0-4 4v10a4 4 0 0 0 4 4h10a4 4 0 0 0 4-4v-10a4 4 0 0 0-4-4h-10Zm0 2h10a2 2 0 0 1 2 2v10a2 2 0 0 1-2 2h-10a2 2 0 0 1-2-2v-10a2 2 0 0 1 2-2Zm2 3c-.256 0-.523.086-.72.28a1.03 1.03 0 0 0 0 1.439l2.282 2.28-2.281 2.282a1.03 1.03 0 0 0 0 1.438 1.03 1.03 0 0 0 1.438 0l2.28-2.281 2.282 2.28a1.03 1.03 0 0 0 1.438 0 1.03 1.03 0 0 0 0-1.437l-2.281-2.281 2.28-2.281a1.03 1.03 0 0 0 0-1.438 1.014 1.014 0 0 0-.718-.281c-.256 0-.523.086-.72.28l-2.28 2.282-2.281-2.281a1.014 1.014 0 0 0-.72-.281Z" fill="#000"/></svg>