<svg xmlns="http://www.w3.org/2000/svg" width="20" height="20"><path d="M10 4.167a.836.836 0 0 0-.834.834v1.666H7.5a.836.836 0 0 0-.834.834c0 .458.375.833.834.833h3.333V5A.836.836 0 0 0 10 4.167Zm9.166 14.166H.833a.836.836 0 0 0-.833.834c0 .458.375.833.833.833h18.333a.836.836 0 0 0 .833-.833.836.836 0 0 0-.833-.834ZM17.499 7.51C17.5 3.362 14.145 0 10.008 0S2.517 3.362 2.517 7.509L2.5 16.667h14.964l.035-9.158ZM10 13.334a5.833 5.833 0 1 1 0-11.667 5.833 5.833 0 0 1 0 11.667Z" fill="#797874"/></svg>