<svg xmlns="http://www.w3.org/2000/svg" width="17" height="17"><path d="M15.151 9.917h-.05c-.572 0-1.064.359-1.295.882a5.629 5.629 0 0 1-5.147 3.367 5.644 5.644 0 0 1-3.9-1.585l1.397-1.397a.742.742 0 0 0-.525-1.267H0v5.63c0 .662.8.993 1.267.525l1.491-1.49A8.484 8.484 0 0 0 8.658 17c3.484 0 6.476-2.118 7.77-5.134a1.396 1.396 0 0 0-1.277-1.95Zm.58-8.99-1.49 1.492A8.484 8.484 0 0 0 8.34 0C4.857 0 1.864 2.118.57 5.134a1.395 1.395 0 0 0 1.277 1.949h.051c.572 0 1.063-.36 1.294-.883A5.629 5.629 0 0 1 8.34 2.833c1.463 0 2.859.584 3.9 1.585l-1.397 1.398a.742.742 0 0 0 .525 1.267h5.63V1.452c0-.66-.8-.992-1.267-.524Z" fill="#797874"/></svg>